<?xml version="1.0" encoding="UTF-8"?>
<svg version="1.1" xmlns="http://www.w3.org/2000/svg" width="512" height="512">
<path d="M0 0 C1.10909485 -0.0060911 2.2181897 -0.01218221 3.36089349 -0.01845789 C7.06705555 -0.03507004 10.77287337 -0.03031443 14.47906494 -0.0255127 C17.14055556 -0.03285412 19.80202065 -0.0413482 22.46350098 -0.05117798 C28.93685028 -0.0721961 35.41010994 -0.07677487 41.88348934 -0.07499009 C47.14827161 -0.07368047 52.41302601 -0.07749684 57.67780304 -0.08491516 C59.19659177 -0.08701445 60.71538051 -0.08911205 62.23416924 -0.09120798 C63.36823875 -0.09277327 63.36823875 -0.09277327 64.52521876 -0.09437019 C78.8133468 -0.11325848 93.10142347 -0.1122269 107.38955882 -0.10540086 C120.44340766 -0.0998283 133.49706006 -0.12064102 146.550863 -0.15376133 C159.97121837 -0.18754591 173.39147978 -0.20266061 186.81187844 -0.1980443 C194.33966224 -0.19580418 201.86726456 -0.20097534 209.3950119 -0.22593689 C215.80503557 -0.24701194 222.21477831 -0.25048109 228.62481377 -0.2316373 C231.89130237 -0.22251661 235.15716283 -0.22396418 238.42362976 -0.24199295 C241.97527514 -0.26023798 245.5255435 -0.24739496 249.07714844 -0.22705078 C250.09507532 -0.23956863 251.1130022 -0.25208648 252.16177535 -0.26498365 C261.61025081 -0.14956815 270.15929907 2.67021872 277.2300415 9.08190918 C282.66318918 15.03573351 286.91151614 22.80632603 286.92396927 30.97072029 C286.92781041 31.91514335 286.93165156 32.8595664 286.9356091 33.83260834 C286.93474262 34.87217773 286.93387614 35.91174711 286.9329834 36.9828186 C286.93744008 38.63710241 286.93744008 38.63710241 286.9419868 40.32480609 C286.95069444 44.03958371 286.9521838 47.75432918 286.95367432 51.46911621 C286.95830108 54.1248744 286.96330483 56.78062964 286.96871948 59.43638611 C286.98230709 66.66591935 286.98832852 73.89544705 286.99273014 81.12499094 C286.9954925 85.63996784 286.99972991 90.1549426 287.00423431 94.66991806 C287.01642878 107.17212095 287.02672694 119.67432213 287.03010941 132.17653084 C287.03032897 132.97688407 287.03054854 133.77723729 287.03077476 134.60184365 C287.03099303 135.40411112 287.03121131 136.20637859 287.0314362 137.0329572 C287.03187967 138.65864952 287.03232623 140.28434185 287.03277588 141.91003418 C287.03299731 142.71643348 287.03321874 143.52283279 287.03344688 144.35366844 C287.03739279 157.41304014 287.05483971 170.47235598 287.0781354 183.53170611 C287.10186327 196.94170393 287.11431195 210.35167373 287.11547732 223.76169288 C287.11639341 231.28997264 287.12212876 238.81817966 287.14029694 246.34643936 C287.15571749 252.7588029 287.16080698 259.17107123 287.15255883 265.5834498 C287.14865886 268.85344817 287.15119034 272.12321533 287.16361618 275.39319801 C287.17631565 278.94366255 287.17046911 282.49363672 287.16003418 286.0440979 C287.17211879 287.58337548 287.17211879 287.58337548 287.18444753 289.15374959 C287.11164572 299.76019164 284.27846349 307.7510395 276.7925415 315.39440918 C269.24933163 321.39440918 269.24933163 321.39440918 265.7925415 321.39440918 C265.7100415 322.67315918 265.6275415 323.95190918 265.5425415 325.26940918 C264.28207521 336.26827257 258.98462601 345.13167232 250.5425415 352.14440918 C240.93806835 359.25042141 230.52854432 361.18758083 218.7925415 360.39440918 C206.9135075 358.33001152 198.47717153 351.71365395 190.60968018 342.97692871 C183.73685039 335.60083778 176.31386611 335.00370507 166.6050415 334.45690918 C153.44736458 333.49331296 141.22041572 331.93990335 132.1050415 321.45300293 C127.37976396 315.16357102 123.90903013 308.11403801 120.43170166 301.08312988 C117.64424035 295.5616608 115.08617427 290.69261872 109.04302979 288.31066895 C105.70955675 287.37101713 102.66372826 286.95991292 99.2144165 286.68347168 C97.97047119 286.5726123 96.72652588 286.46175293 95.44488525 286.34753418 C92.8594823 286.13014294 90.27353511 285.91912296 87.68707275 285.71472168 C77.5217989 284.79155955 68.95530194 283.20678807 61.4175415 275.89440918 C60.62605713 275.14159668 59.83457275 274.38878418 59.019104 273.61315918 C57.91695557 272.51487793 57.91695557 272.51487793 56.7925415 271.39440918 C55.73679932 270.42567871 55.73679932 270.42567871 54.659729 269.43737793 C52.56246079 267.14266815 51.51111679 265.0598574 50.2925415 262.20690918 C49.87101807 261.2401123 49.44949463 260.27331543 49.01519775 259.27722168 C48.61172119 258.32589355 48.20824463 257.37456543 47.7925415 256.39440918 C42.50730405 243.96538923 36.57006999 236.92025557 24.3550415 231.08190918 C13.1109215 225.38857682 6.23115001 217.64535528 2.17144775 205.54284668 C1.62740496 202.45806797 1.66106655 199.46254741 1.6675415 196.33190918 C1.66717896 195.3348999 1.66717896 195.3348999 1.66680908 194.31774902 C1.69126779 190.33241818 1.97169908 186.46883876 2.4800415 182.51940918 C3.17318202 175.75877775 1.55579238 170.88884299 -2.33636475 165.38269043 C-5.35118585 161.8883388 -8.86499434 160.25222526 -13.0199585 158.39440918 C-24.71327991 152.80195111 -32.09331531 147.16914653 -37.309021 134.77722168 C-39.54094544 128.08144836 -39.73549146 121.9586317 -38.7074585 115.01940918 C-37.70453627 107.74822302 -36.97956705 100.68756152 -40.8480835 94.15612793 C-44.86880425 88.94536627 -50.30554215 86.29898395 -56.13153076 83.5345459 C-65.5776246 79.0503744 -72.16210144 74.50780181 -76.2074585 64.39440918 C-78.46696492 55.4479851 -77.01113734 46.635256 -72.65667725 38.61315918 C-63.27709022 24.25303673 -47.01220389 18.03705314 -31.2074585 13.39440918 C-30.5474585 13.39440918 -29.8874585 13.39440918 -29.2074585 13.39440918 C-28.82460693 12.49915527 -28.82460693 12.49915527 -28.434021 11.58581543 C-27.07477742 9.15735796 -25.80167967 7.98969392 -23.5824585 6.33190918 C-22.95081787 5.84593262 -22.31917725 5.35995605 -21.668396 4.85925293 C-14.45866587 0.5677469 -8.21803161 -0.04264018 0 0 Z M-17.04730225 22.21862793 C-19.98150155 27.19945736 -21.56894052 31.56380781 -21.2074585 37.39440918 C-19.09713228 44.91665156 -14.46461865 49.8031017 -8.9664917 55.10778809 C-8.13846039 55.92691177 -7.31042908 56.74603546 -6.45730591 57.58998108 C-4.66819785 59.35681031 -2.87337413 61.1178669 -1.07345009 62.8736763 C1.77483488 65.6532484 4.60710113 68.44855542 7.43458557 71.24923706 C14.45546467 78.19737061 21.50322411 85.11807247 28.55426025 92.0355835 C34.04544522 97.42351909 39.52943744 102.81839703 44.99333316 108.23402154 C48.25355257 111.46359448 51.53586519 114.66968072 54.82225037 117.87258911 C56.52900068 119.56074195 58.23488418 121.24977175 59.9397583 122.93981934 C60.72469162 123.69532578 61.50962494 124.45083221 62.31834412 125.22923279 C68.1412831 131.06054565 68.1412831 131.06054565 68.9122467 135.23532104 C68.7925415 138.39440918 68.7925415 138.39440918 66.7300415 141.39440918 C63.7925415 143.39440918 63.7925415 143.39440918 60.9800415 143.64440918 C52.17915309 140.19308039 45.36607156 131.06218817 38.8550415 124.45690918 C36.97376009 122.54909971 35.08924958 120.64468441 33.20269775 118.74206543 C32.37906738 117.9068335 31.55543701 117.07160156 30.70684814 116.21105957 C29.11149517 114.27968205 29.11149517 114.27968205 27.7925415 114.39440918 C28.47952779 123.09623547 29.89096144 131.62371837 31.47418213 140.20007324 C31.77067802 141.83471908 32.05545011 143.47153326 32.32867432 145.11022949 C33.61084959 155.53352547 33.61084959 155.53352547 38.87457275 164.12487793 C40.72280006 165.34848047 40.72280006 165.34848047 42.7925415 166.39440918 C43.57274658 166.86797852 44.35295166 167.34154785 45.15679932 167.82946777 C47.8560714 169.43992776 50.59519463 170.9528113 53.3550415 172.45690918 C55.40944761 173.59699895 57.4628068 174.73897695 59.51519775 175.88269043 C61.0777832 176.75208252 61.0777832 176.75208252 62.67193604 177.63903809 C67.58719658 180.40392021 72.44270297 183.2667165 77.2925415 186.14440918 C78.19851074 186.68098145 79.10447998 187.21755371 80.03790283 187.77038574 C84.18201676 190.23046907 88.31571231 192.70635701 92.4331665 195.21081543 C93.13377197 195.63588379 93.83437744 196.06095215 94.55621338 196.49890137 C95.84135133 197.28047248 97.12408089 198.06602348 98.40386963 198.85632324 C101.38083549 200.79741854 101.38083549 200.79741854 104.7925415 201.39440918 C105.80729019 197.44411944 105.82512251 194.35273289 104.7925415 190.39440918 C101.10155506 184.92612759 95.71742837 180.60136515 90.8550415 176.20690918 C88.85522995 174.37883395 86.86500818 172.54322214 84.89421082 170.68388367 C83.67212665 169.53273701 82.43293277 168.39939965 81.17488098 167.28767395 C78.1103285 164.42013294 76.44570766 162.36402646 75.80596924 158.14318848 C75.7925415 154.39440918 75.7925415 154.39440918 77.3550415 151.89440918 C80.6532303 149.86475454 81.96662382 149.58508044 85.7925415 150.39440918 C94.000948 156.16006997 100.94137024 164.43276125 107.99200439 171.5279541 C109.41999183 172.96114138 110.84822625 174.39408259 112.27668762 175.82679749 C115.34014245 178.90015401 118.40212315 181.97496898 121.46302986 185.05086327 C126.30527619 189.91626014 131.15247612 194.77670138 136.00065613 199.63618469 C149.78205233 213.45094572 163.5592305 227.26989396 177.32598877 241.09924316 C184.93858581 248.74636777 192.55653327 256.38811955 200.18047327 264.02393609 C204.99990394 268.85145829 209.81269282 273.68547519 214.62070286 278.52437055 C217.61317638 281.53286196 220.61193693 284.53502421 223.61252403 287.53542137 C225.00065228 288.92596895 226.38620744 290.31909071 227.76895905 291.71498489 C229.65970189 293.62294391 231.55954307 295.52136932 233.46186829 297.41777039 C234.00409989 297.96942263 234.54633149 298.52107488 235.10499436 299.08944386 C240.09886052 304.03162835 245.5597833 307.95262383 252.753479 308.48034668 C257.63774988 308.27449618 261.25382399 306.84995278 264.815979 303.48034668 C269.71238454 297.99894072 269.71238454 297.99894072 270.92676258 291.01364613 C270.93344935 289.62427348 270.93344935 289.62427348 270.9402712 288.20683271 C270.94008684 287.18244098 270.93990247 286.15804926 270.93971252 285.10261536 C270.94522756 283.47812313 270.94522756 283.47812313 270.950854 281.82081288 C270.96192642 278.16736176 270.9657407 274.51393905 270.96954346 270.86047363 C270.97580542 268.250879 270.98245198 265.64128526 270.98945618 263.0316925 C271.00923173 255.18222459 271.01928873 247.33275537 271.02818397 239.48326877 C271.03256557 235.78778183 271.03793276 232.09229633 271.04317284 228.39681053 C271.06018713 216.11339395 271.07468116 203.82997826 271.08192158 191.5465517 C271.08383151 188.35789806 271.08575184 185.16924443 271.08770752 181.98059082 C271.08819126 181.18805447 271.088675 180.39551811 271.0891734 179.57896551 C271.09747314 166.74125544 271.12280818 153.90363858 271.1552882 141.06596921 C271.18835558 127.8887956 271.20637009 114.71166936 271.20956582 101.53445405 C271.21173135 94.13474545 271.22048606 86.73517271 271.24602699 79.33550453 C271.26999847 72.37438455 271.27356165 65.41351286 271.26326561 58.45236015 C271.26276888 55.89616203 271.26912949 53.33995208 271.28282166 50.78379059 C271.30046024 47.29593884 271.29347297 43.80897292 271.2802887 40.32112122 C271.29125794 39.3078831 271.30222719 38.29464498 271.31352884 37.25070268 C271.24992636 30.28860806 270.00952644 25.90241721 265.19488525 20.65222168 C261.14583782 17.52095833 258.37916715 16.27153434 253.3071413 16.2601881 C252.38300192 16.25573026 251.45886254 16.25127241 250.50671893 16.24667948 C249.48981312 16.24686385 248.4729073 16.24704821 247.42518616 16.24723816 C246.34612603 16.24356147 245.26706591 16.23988478 244.15530699 16.23609668 C240.52111544 16.2250388 236.88695246 16.22121243 233.25274658 16.21740723 C230.65447905 16.21114418 228.05621242 16.20449753 225.45794678 16.19749451 C217.64745293 16.1777324 209.83695778 16.16766407 202.02644518 16.15876672 C198.34802464 16.15438328 194.66960554 16.1490166 190.99118614 16.14377785 C178.76263255 16.12676559 166.53407985 16.11227161 154.30551624 16.10502911 C151.13216463 16.10311922 147.95881302 16.10119889 144.78546143 16.09924316 C143.9967435 16.09875942 143.20802557 16.09827568 142.3954071 16.09777728 C129.61986796 16.08947771 116.84442248 16.06414204 104.06892423 16.03166249 C90.95160479 15.9985859 77.83433294 15.98057979 64.71697158 15.97738487 C57.35245722 15.97522029 49.98807943 15.96647939 42.62360573 15.94092369 C35.69530009 15.91693705 28.76724391 15.9133948 21.83890533 15.92368507 C19.29602682 15.92418145 16.75313637 15.91783121 14.21029472 15.90412903 C10.73817237 15.88646634 7.26693771 15.89348965 3.79481506 15.90666199 C2.78906286 15.89569274 1.78331065 15.8847235 0.7470811 15.87342185 C-6.21001204 15.93712166 -11.97352429 17.18793938 -17.04730225 22.21862793 Z M-55.2699585 42.83190918 C-59.16235421 47.16208045 -61.07698926 50.95898338 -61.3949585 56.89440918 C-58.62677246 65.05327327 -50.94972782 68.13303504 -43.7074585 71.76940918 C-33.93649199 76.70484625 -27.16551579 82.95139926 -23.2074585 93.39440918 C-22.01628057 97.07277944 -22.1397828 100.50944796 -22.215271 104.35534668 C-22.23279067 105.72773508 -22.24969863 107.10013139 -22.26605225 108.47253418 C-22.296953 110.62087208 -22.33244551 112.768808 -22.37884521 114.91687012 C-22.42143824 117.0005783 -22.44469351 119.08381987 -22.465271 121.16784668 C-22.48734619 122.40969727 -22.50942139 123.65154785 -22.53216553 124.93103027 C-21.93877743 131.26020586 -18.99596851 135.38032127 -14.2074585 139.39440918 C-10.3651255 141.64831192 -6.34650226 143.54314131 -2.3324585 145.46862793 C5.69253648 149.48112542 11.27987335 154.29301745 15.1675415 162.51940918 C15.64965088 163.5119873 16.13176025 164.50456543 16.628479 165.52722168 C19.88371289 173.54514675 19.21787802 182.02055716 17.7925415 190.39440918 C16.95025234 198.15162067 18.24635344 203.97166192 22.7925415 210.39440918 C27.86589283 215.76115913 34.93896207 218.59107419 41.52301025 221.68347168 C53.809822 228.11312944 58.80179867 240.12928057 63.7925415 252.39440918 C66.6281546 258.78020988 71.17878807 264.34091319 77.6663208 267.22839355 C83.78617947 269.49191231 89.75454806 270.01827491 96.2300415 270.39440918 C107.46667064 271.04969305 118.17275937 272.5508926 126.7925415 280.39440918 C132.08196215 286.96889514 135.73346675 294.86456808 139.50933838 302.38000488 C142.53676702 308.29906903 145.35405042 313.76966449 151.89019775 316.20690918 C157.26190186 317.72739153 162.67819163 318.07192549 168.2300415 318.39440918 C183.49686776 319.28472111 193.63126607 322.89832062 204.3550415 334.01940918 C210.68435225 340.54902835 216.0746184 343.92422629 225.28082275 344.48815918 C232.85042295 344.20562356 239.49657943 340.72615478 244.7925415 335.39440918 C247.0483438 332.17803172 248.90350937 329.250599 248.66363525 325.23815918 C247.95309094 323.20492194 247.95309094 323.20492194 245.8237915 322.55847168 C244.15728187 322.20356685 242.49061887 321.84938128 240.8237915 321.49597168 C234.27696934 319.116843 229.2931821 315.26569632 224.89019775 309.90612793 C216.47647673 299.55064021 216.47647673 299.55064021 204.33551025 295.10534668 C198.76422835 294.82927767 193.2195033 295.04021969 187.65142822 295.3182373 C167.86718538 295.84536658 146.83756209 283.23375782 132.7925415 270.39440918 C120.25095827 258.19894107 111.69217334 242.921283 108.46832275 225.75378418 C104.42386351 217.64601041 93.72347533 213.49962397 86.0425415 209.26940918 C76.38252385 203.87864505 66.82818144 198.33562492 57.3237915 192.67565918 C53.46413754 190.37758688 49.58763502 188.11147404 45.6987915 185.86315918 C44.69984863 185.28243652 43.70090576 184.70171387 42.67169189 184.10339355 C40.76292461 182.99447406 38.85082917 181.89125614 36.93487549 180.7947998 C29.25319997 176.31388218 24.04716729 171.91284562 20.7925415 163.39440918 C19.68603971 158.99883592 18.84658499 154.56836518 18.05377007 150.10807228 C17.65641274 147.87332074 17.24403723 145.64178283 16.82795715 143.41044617 C15.94845776 138.67836719 15.08854286 133.94283494 14.2300415 129.20690918 C13.23056372 123.70449312 12.22298743 118.20372012 11.19978523 112.70566368 C10.79537891 110.51300399 10.40331253 108.31837564 10.0118866 106.12336731 C9.76281839 104.77456475 9.51321793 103.42586034 9.26300049 102.07727051 C9.05078354 100.90449051 8.83856659 99.73171051 8.61991882 98.52339172 C7.34401557 93.69817003 5.06434315 90.39838041 1.5178833 86.95617676 C0.87679123 86.32814651 0.23569916 85.70011627 -0.42481995 85.05305481 C-1.11234848 84.38839706 -1.79987701 83.72373932 -2.50823975 83.03894043 C-3.97531813 81.59716953 -5.44210574 80.15510271 -6.90863037 78.71276855 C-9.20865715 76.46217314 -11.51173036 74.21489806 -13.82049561 71.9732666 C-16.05884655 69.79591138 -18.28410283 67.60580069 -20.50823975 65.41394043 C-21.18969559 64.75940384 -21.87115143 64.10486725 -22.57325745 63.43049622 C-29.39483173 56.67978034 -34.40041743 49.30097522 -36.0824585 39.76940918 C-36.30675537 38.56026855 -36.53105225 37.35112793 -36.762146 36.10534668 C-36.98257568 34.76343262 -36.98257568 34.76343262 -37.2074585 33.39440918 C-43.42977982 33.39440918 -50.8872672 38.67493589 -55.2699585 42.83190918 Z M120.7925415 207.39440918 C121.35885555 224.95014467 127.46651792 239.98543873 138.7925415 253.39440918 C139.23984619 253.98608887 139.68715088 254.57776855 140.14801025 255.18737793 C150.60720697 268.59109923 168.59660187 277.6359357 185.28082275 279.85925293 C188.12001407 280.10280283 190.94511161 280.29179909 193.7925415 280.39440918 C189.75551156 275.5538064 185.53210217 270.98936498 181.06866455 266.5411377 C180.42565903 265.89637985 179.7826535 265.25162201 179.12016296 264.58732605 C177.01735181 262.48015196 174.91095027 260.376611 172.80426025 258.27331543 C171.33534883 256.80372987 169.86658584 255.33399592 168.39796448 253.86412048 C165.33246294 250.79714994 162.26517284 247.73198259 159.19659424 244.66809082 C155.25419606 240.73141975 151.31634466 236.79023574 147.37979412 232.84771824 C144.35428347 229.81860615 141.32641019 226.79186482 138.29780006 223.76585197 C136.84372263 222.31244341 135.39039258 220.85828673 133.9378109 219.40338326 C131.91742404 217.38047348 129.89388862 215.36076853 127.8694458 213.34191895 C127.2653186 212.73576752 126.66119141 212.12961609 126.03875732 211.50509644 C123.7809224 208.69985526 123.7809224 208.69985526 120.7925415 207.39440918 Z " fill="#000000" transform="translate(224.20745849609375,-0.3944091796875)"/>
<path d="M0 0 C4.0287471 3.09858904 7.49188725 6.72608032 10.88989258 10.49951172 C17.76272237 17.87560265 25.18570664 18.47273536 34.89453125 19.01953125 C48.05220817 19.98312747 60.27915704 21.53653708 69.39453125 32.0234375 C74.11980879 38.31286941 77.59054262 45.36240242 81.06787109 52.39331055 C83.8553324 57.91477963 86.41339849 62.78382171 92.45654297 65.16577148 C95.79001601 66.1054233 98.83584449 66.51652751 102.28515625 66.79296875 C103.52910156 66.90382813 104.77304688 67.0146875 106.0546875 67.12890625 C108.64009045 67.34629749 111.22603765 67.55731747 113.8125 67.76171875 C123.97777386 68.68488088 132.54427082 70.26965236 140.08203125 77.58203125 C140.87351563 78.33484375 141.665 79.08765625 142.48046875 79.86328125 C143.58261719 80.9615625 143.58261719 80.9615625 144.70703125 82.08203125 C145.41085938 82.72785156 146.1146875 83.37367188 146.83984375 84.0390625 C148.93711196 86.33377228 149.98845596 88.41658303 151.20703125 91.26953125 C151.62855469 92.23632812 152.05007812 93.203125 152.484375 94.19921875 C152.88785156 95.15054688 153.29132813 96.101875 153.70703125 97.08203125 C158.99226871 109.5110512 164.92950276 116.55618486 177.14453125 122.39453125 C188.38865126 128.08786361 195.26842275 135.83108515 199.328125 147.93359375 C199.87216779 151.01837246 199.8385062 154.01389302 199.83203125 157.14453125 C199.8323938 158.14154053 199.8323938 158.14154053 199.83276367 159.15869141 C199.80830496 163.14402225 199.52787367 167.00760167 199.01953125 170.95703125 C198.32639073 177.71766268 199.94378037 182.58759744 203.8359375 188.09375 C206.8507586 191.58810163 210.36456709 193.22421517 214.51953125 195.08203125 C226.21285266 200.67448932 233.59288807 206.3072939 238.80859375 218.69921875 C241.04051819 225.39499207 241.23506422 231.51780872 240.20703125 238.45703125 C239.20410902 245.72821741 238.4791398 252.78887891 242.34765625 259.3203125 C246.368377 264.53107416 251.8051149 267.17745648 257.63110352 269.94189453 C267.07719735 274.42606603 273.6616742 278.96863862 277.70703125 289.08203125 C279.95867721 297.99733215 278.59571067 307.00683651 274.078125 314.94140625 C266.12546964 327.35751776 251.30710091 335.05701384 237.20703125 338.58203125 C232.70208694 339.78236181 230.61614112 341.87346015 227.56640625 345.30078125 C221.59839959 351.01803133 213.70761511 353.20398747 205.69154358 353.22247314 C204.97309735 353.22544427 204.25465113 353.22841539 203.5144338 353.23147655 C201.10083802 353.24016607 198.68729183 353.24167199 196.27368164 353.24316406 C194.54576003 353.24779197 192.81783944 353.2528166 191.08992004 353.25820923 C186.39163224 353.27133585 181.69335872 353.27777843 176.99505544 353.28221989 C174.06140846 353.28514954 171.12776541 353.28925409 168.19412041 353.29372406 C159.02003467 353.30739824 149.84595788 353.3170659 140.67186266 353.32092595 C130.07265158 353.3254099 119.47356926 353.34297375 108.87439734 353.37192655 C100.68665363 353.39351814 92.49894622 353.40362884 84.31117433 353.40496707 C79.41831194 353.4060167 74.5255706 353.4119582 69.63273811 353.42978668 C65.03217278 353.44622432 60.43182006 353.44844393 55.83123589 353.43964767 C54.14133511 353.43887504 52.45142311 353.44324965 50.7615509 353.45310593 C48.45727927 353.4657593 46.15376826 353.45998533 43.84950256 353.44952393 C42.55920167 353.45099049 41.26890078 353.45245705 39.93949986 353.45396805 C36.50149102 353.05838122 35.11568624 352.5164252 32.70703125 350.08203125 C31.58383988 347.03336897 31.57661402 345.51341133 32.51953125 342.39453125 C33.78630683 339.9276525 34.7393594 338.43425834 37.40154552 337.46523762 C40.48866604 336.9521118 43.46439722 336.95390119 46.59480286 336.95072937 C47.2874855 336.94861366 47.98016814 336.94649794 48.69384116 336.94431812 C51.01441588 336.93832771 53.33493607 336.93931758 55.65551758 336.94018555 C57.31960645 336.93715341 58.98369449 336.93363181 60.64778137 336.92965698 C64.23162236 336.92177177 67.81545341 336.91662449 71.39930153 336.91336632 C77.06820848 336.90745316 82.73705276 336.89090992 88.40592957 336.87202454 C90.34721466 336.86568726 92.28849979 336.85936163 94.22978497 336.85304737 C95.20195095 336.84988156 96.17411694 336.84671575 97.17574251 336.843454 C110.37276582 336.80138677 123.56975979 336.76840061 136.7668457 336.75610352 C145.66980508 336.74772249 154.57260909 336.72523096 163.47549075 336.68674785 C168.18568155 336.66699007 172.89564012 336.65458173 177.60587502 336.65958214 C182.03749486 336.66422956 186.4686745 336.65041816 190.90020561 336.62257004 C192.52432434 336.61566008 194.14848861 336.61552962 195.7726059 336.62277031 C197.99502803 336.63167583 200.21600371 336.61594006 202.43830872 336.59428406 C203.68029935 336.5918957 204.92228998 336.58950735 206.20191669 336.58704662 C210.66005676 335.94471975 212.98415309 334.60797771 216.70703125 332.08203125 C220.44159584 327.06985245 221.9429056 322.36078169 221.70703125 316.08203125 C218.88350378 304.9896019 207.0918052 296.31833044 199.25680542 288.49136353 C198.23087089 287.46283809 197.20514872 286.43410078 196.179618 285.40517271 C193.38810196 282.60566999 190.59353311 279.80923298 187.79839253 277.01334977 C184.77413526 273.98722752 181.75272567 270.95826406 178.730896 267.92971802 C172.13888616 261.32418911 165.54315701 254.72238257 158.94659185 248.12140322 C154.82538474 243.99742574 150.70491226 239.87271478 146.58456802 235.74787521 C135.16648245 224.31761102 123.74746089 212.88828372 112.32497978 201.46241188 C111.59558921 200.73280175 110.86619864 200.00319161 110.11470533 199.25147208 C109.38363935 198.52018782 108.65257336 197.78890355 107.89935386 197.03545916 C106.41808983 195.55375167 104.93682734 194.07204262 103.45556641 192.59033203 C102.72081963 191.85536382 101.98607285 191.12039562 101.22906102 190.36315565 C89.30460936 178.43474976 77.38693545 166.49959655 65.47214006 154.56154616 C53.22698579 142.29268559 40.97622053 130.0294513 28.71979058 117.77185476 C21.84305466 110.89420228 14.96875466 104.01415366 8.10064316 97.12788773 C2.25801097 91.26986513 -3.58972194 85.41699538 -9.44418611 79.57079656 C-12.43012513 76.58876622 -15.4135858 73.60436255 -18.39055252 70.6133728 C-21.11658802 67.87461367 -23.84947766 65.14289282 -26.58794759 62.41656844 C-27.57628605 61.43018948 -28.56210498 60.441278 -29.54509892 59.44957276 C-38.85594193 49.8875214 -38.85594193 49.8875214 -51.25 45.9921875 C-55.92131656 46.19761825 -59.66922706 47.55691162 -63.09375 50.7734375 C-67.92191919 56.2929913 -68.44391974 59.94548106 -68.50390625 67.25390625 C-68.53198309 69.13412317 -68.5606476 71.01433138 -68.58984375 72.89453125 C-68.63104922 75.86132488 -68.6679325 78.82795753 -68.69433594 81.79492188 C-68.72201721 84.65659268 -68.76789813 87.51752267 -68.81640625 90.37890625 C-68.81965912 91.26036316 -68.82291199 92.14182007 -68.82626343 93.04998779 C-68.92681637 98.11186573 -69.4532414 101.7098768 -72.29296875 106.08203125 C-75.38470627 107.62790001 -77.88726427 107.37562646 -81.29296875 107.08203125 C-83.48632813 105.70751953 -83.48632813 105.70751953 -85.29296875 103.08203125 C-85.89652233 99.64457707 -85.85310928 96.24435722 -85.82421875 92.76171875 C-85.82804565 91.74788116 -85.83187256 90.73404358 -85.83581543 89.68948364 C-85.83853688 87.54265349 -85.83115948 85.39579031 -85.81445312 83.24902344 C-85.79318042 79.98946456 -85.8141785 76.73214352 -85.83984375 73.47265625 C-85.83719792 71.3815056 -85.83206767 69.29035634 -85.82421875 67.19921875 C-85.83231567 66.23531219 -85.8404126 65.27140564 -85.84875488 64.27828979 C-85.71306003 54.29854029 -82.33564718 45.29422711 -75.29296875 38.08203125 C-67.69040465 32.08203125 -67.69040465 32.08203125 -64.29296875 32.08203125 C-64.21046875 30.80328125 -64.12796875 29.52453125 -64.04296875 28.20703125 C-62.78250246 17.20816786 -57.48505325 8.34476811 -49.04296875 1.33203125 C-34.18690112 -9.65945122 -15.47824343 -9.62819867 0 0 Z M-43.29296875 18.08203125 C-45.05126526 20.40683059 -46.07999 22.36495884 -47.29296875 25.08203125 C-46.94917387 27.74648108 -46.94917387 27.74648108 -46.29296875 30.08203125 C-45.67550781 30.22898437 -45.05804688 30.3759375 -44.421875 30.52734375 C-43.15150391 30.86378906 -43.15150391 30.86378906 -41.85546875 31.20703125 C-41.03175781 31.41585937 -40.20804688 31.6246875 -39.359375 31.83984375 C-32.86894893 34.46908641 -27.83442794 38.15947905 -23.390625 43.5703125 C-14.97690398 53.92580022 -14.97690398 53.92580022 -2.8359375 58.37109375 C2.7353444 58.64716276 8.28006945 58.43622074 13.84814453 58.15820312 C33.63238737 57.63107385 54.66201066 70.24268261 68.70703125 83.08203125 C81.24861448 95.27749936 89.80739942 110.55515743 93.03125 127.72265625 C97.07570924 135.83043002 107.77609742 139.97681646 115.45703125 144.20703125 C125.11704891 149.59779538 134.67139132 155.14081551 144.17578125 160.80078125 C148.03543521 163.09885355 151.91193774 165.36496638 155.80078125 167.61328125 C156.79972412 168.19400391 157.79866699 168.77472656 158.82788086 169.37304688 C160.73664815 170.48196637 162.64874358 171.58518429 164.56469727 172.68164062 C172.24637278 177.16255825 177.45240546 181.56359481 180.70703125 190.08203125 C181.81353304 194.47760451 182.65298776 198.90807525 183.44580269 203.36836815 C183.84316002 205.60311969 184.25553552 207.8346576 184.6716156 210.06599426 C185.55111499 214.79807324 186.41102989 219.53360549 187.26953125 224.26953125 C188.26900903 229.77194731 189.27658533 235.27272031 190.29978752 240.77077675 C190.70419385 242.96343644 191.09626023 245.15806479 191.48768616 247.35307312 C191.73675436 248.70187568 191.98635482 250.05058009 192.23657227 251.39916992 C192.44878922 252.57194992 192.66100616 253.74472992 192.87965393 254.95304871 C194.15555718 259.7782704 196.4352296 263.07806002 199.98168945 266.52026367 C200.62278152 267.14829391 201.2638736 267.77632416 201.9243927 268.42338562 C202.61192123 269.08804337 203.29944977 269.75270111 204.0078125 270.4375 C205.47489088 271.8792709 206.9416785 273.32133772 208.40820312 274.76367188 C210.7082299 277.01426729 213.01130312 279.26154237 215.32006836 281.50317383 C217.55841931 283.68052905 219.78367558 285.87063974 222.0078125 288.0625 C223.02999626 289.04430489 223.02999626 289.04430489 224.0728302 290.04594421 C230.89440449 296.79666009 235.89999018 304.17546521 237.58203125 313.70703125 C237.91847656 315.52074219 237.91847656 315.52074219 238.26171875 317.37109375 C238.40867187 318.26570313 238.555625 319.1603125 238.70703125 320.08203125 C248.14317476 317.59193782 254.97825327 313.00122434 260.70703125 305.08203125 C262.41483303 302.05456447 262.70263888 300.20062525 262.83203125 296.70703125 C261.00057539 290.80567347 257.16443602 287.95890813 251.79296875 285.04296875 C249.60315268 283.91977896 247.40641887 282.8113531 245.20703125 281.70703125 C235.43606474 276.77159418 228.66508854 270.52504117 224.70703125 260.08203125 C223.51748739 256.42385271 223.66901714 253.0513264 223.78515625 249.2265625 C223.81243684 247.86786285 223.83843693 246.509137 223.86328125 245.15039062 C223.90628787 243.02816053 223.95659289 240.90732213 224.02929688 238.78588867 C224.30803114 230.26956152 224.45031027 222.91266937 218.70703125 216.08203125 C216.5701147 214.04666891 216.5701147 214.04666891 214.14453125 212.89453125 C213.28085937 212.4253125 212.4171875 211.95609375 211.52734375 211.47265625 C209.57176867 210.50841147 207.60751376 209.56164893 205.63671875 208.62890625 C194.05061948 203.11171612 188.58020296 197.08507834 183.70703125 185.08203125 C181.82500446 177.83398761 182.46486261 170.37977202 183.70703125 163.08203125 C184.54932041 155.32481976 183.25321931 149.50477851 178.70703125 143.08203125 C173.63367993 137.7152813 166.56061068 134.88536624 159.9765625 131.79296875 C149.50988996 126.31578527 143.55741833 116.12516895 139.64453125 105.33203125 C136.57720381 96.93960122 131.97735727 90.32036313 123.98461914 85.93676758 C118.87702052 84.01998092 113.29049729 83.94025283 107.89453125 83.51953125 C84.0300975 81.56549679 84.0300975 81.56549679 74.70703125 73.08203125 C69.39373554 66.47786977 65.72997817 58.54085435 61.90234375 51.00854492 C58.57949822 44.54054212 55.75565326 39.86506651 48.70703125 37.08203125 C45.40733408 36.36698218 45.40733408 36.36698218 41.89453125 36.01953125 C39.93193359 35.78169922 39.93193359 35.78169922 37.9296875 35.5390625 C35.04395715 35.21752323 32.15614162 34.93108601 29.265625 34.65625 C14.03027298 33.15377288 4.31190058 28.71370892 -5.64453125 16.91015625 C-10.57923541 11.43754594 -16.44902255 9.51719497 -23.60546875 8.70703125 C-31.28236263 9.48773232 -37.9140903 12.57508426 -43.29296875 18.08203125 Z M7.70703125 73.08203125 C11.74406119 77.92263403 15.96747059 82.48707545 20.4309082 86.93530273 C21.07391373 87.58006058 21.71691925 88.22481842 22.37940979 88.88911438 C24.48222094 90.99628847 26.58862248 93.09982943 28.6953125 95.203125 C30.16422392 96.67271056 31.63298692 98.14244451 33.10160828 99.61231995 C36.16710982 102.67929049 39.23439991 105.74445784 42.30297852 108.80834961 C46.24537669 112.74502068 50.1832281 116.68620469 54.11977863 120.62872219 C57.14528928 123.65783428 60.17316257 126.68457561 63.20177269 129.71058846 C64.65585012 131.16399702 66.10918018 132.6181537 67.56176186 134.07305717 C69.58214871 136.09596695 71.60568414 138.1156719 73.63012695 140.13452148 C74.53631775 141.04374863 74.53631775 141.04374863 75.46081543 141.97134399 C77.71865035 144.77658517 77.71865035 144.77658517 80.70703125 146.08203125 C80.32127943 125.28650139 71.22108287 107.63936533 56.70703125 93.08203125 C43.42721466 81.22376685 25.83558179 72.4972393 7.70703125 73.08203125 Z M96.70703125 152.08203125 C95.91077298 158.9078807 95.91077298 158.9078807 97.91834831 165.31085777 C99.72534235 167.45603228 101.63051288 169.37926976 103.66772461 171.30737305 C104.40738968 172.0502507 105.14705475 172.79312836 105.90913391 173.55851746 C108.34639271 175.99322303 110.82029423 178.38660923 113.296875 180.78125 C115.00073931 182.46712449 116.70225182 184.1553789 118.40150452 185.84590149 C122.87009382 190.27824853 127.37116177 194.67614854 131.87945557 199.0680542 C136.47544226 203.55833006 141.03731892 208.08298769 145.60351562 212.60351562 C152.25834143 219.17902909 158.92169374 225.74565737 165.61694336 232.2800293 C166.32400421 232.97340393 167.03106506 233.66677856 167.759552 234.38116455 C168.40040237 235.0047435 169.04125275 235.62832245 169.70152283 236.27079773 C170.26105117 236.81696086 170.82057951 237.36312399 171.39706326 237.92583752 C172.54078375 239.19231974 172.54078375 239.19231974 173.70703125 239.08203125 C173.0407739 230.32296793 171.50822865 221.78396116 169.8605957 213.16650391 C169.39209307 210.69416472 168.94514743 208.21847434 168.49804688 205.7421875 C168.19793672 204.15990491 167.89654989 202.57786381 167.59375 200.99609375 C167.39974861 199.8929332 167.39974861 199.8929332 167.201828 198.76748657 C166.32117398 194.33140008 165.30285647 191.85877189 161.70703125 189.08203125 C160.0570585 187.99992934 158.36638849 186.97837885 156.6484375 186.0078125 C155.6363623 185.4307959 154.62428711 184.8537793 153.58154297 184.25927734 C152.4885791 183.64391113 151.39561523 183.02854492 150.26953125 182.39453125 C148.53232155 181.40462528 146.79512985 180.41468672 145.05877686 179.42327881 C143.84175732 178.72846681 142.62434267 178.03434647 141.40655518 177.34088135 C134.90162454 173.63361541 128.43718966 169.85800357 121.97921753 166.06967163 C120.12180428 164.98035689 118.26322829 163.89304725 116.40454102 162.8059082 C111.55808996 159.96602655 106.7270148 157.11975948 101.99609375 154.08984375 C99.06476574 151.90835128 99.06476574 151.90835128 96.70703125 152.08203125 Z " fill="#000000" transform="translate(86.29296875,158.91796875)"/>
<path d="M0 0 C2.52737004 1.91731521 2.9716847 2.91505409 4 6 C4.09695927 8.59380147 4.1373627 11.1607099 4.13130188 13.75457764 C4.13341759 14.55257821 4.13553331 15.35057879 4.13771313 16.1727612 C4.14372067 18.8557477 4.14271244 21.53868726 4.1418457 24.22167969 C4.14487672 26.14177531 4.14839801 28.06187021 4.15237427 29.98196411 C4.16026839 34.12185496 4.16541013 38.26173717 4.16866493 42.40163422 C4.17457054 48.94838606 4.19110685 55.4950834 4.21000671 62.04180908 C4.21634427 64.2823753 4.22266989 66.52294156 4.22898388 68.76350784 C4.23214969 69.88567278 4.2353155 71.00783772 4.23857725 72.16400766 C4.28066683 87.40815688 4.31362927 102.65228092 4.32592773 117.89648438 C4.33430563 128.1753677 4.35678689 138.45411637 4.3952834 148.73293233 C4.41505412 154.17307077 4.42744525 159.61300784 4.42244911 165.05318451 C4.41780567 170.17175701 4.43159168 175.28994788 4.45946121 180.40844345 C4.46637822 182.28573479 4.46649408 184.16306554 4.45926094 186.04035568 C4.45037321 188.60651998 4.46606443 191.17142558 4.48774719 193.73748779 C4.47930466 194.47767741 4.47086212 195.21786703 4.46216375 195.98048663 C4.54822707 201.50169609 5.97223694 204.54397539 9 209 C13.72095498 213.37551925 17.07059717 214.1224626 23.39575195 214.15771484 C24.0400415 214.16279556 24.68433105 214.16787628 25.34814453 214.17311096 C26.74605773 214.18380188 28.14398791 214.19242707 29.54192543 214.19923019 C31.75762931 214.21104063 33.97314015 214.23049955 36.18876648 214.25234985 C42.4880019 214.31388858 48.78721748 214.36796076 55.08666992 214.40136719 C58.94175066 214.4223599 62.79647888 214.45770019 66.65135765 214.50212479 C68.11725898 214.5162493 69.58322268 214.5249992 71.04918861 214.52817917 C73.10518678 214.53311053 75.16025633 214.55632352 77.21606445 214.58349609 C78.38393997 214.59158295 79.55181549 214.5996698 80.75508118 214.60800171 C84.41945085 215.05067123 86.8551691 216.09419068 90 218 C91.54586876 221.09173752 91.29359521 223.59429552 91 227 C88.79391746 230.05412308 87.57962676 230.90594339 83.82836914 231.5146637 C82.57660889 231.52086227 81.32484863 231.52706085 80.03515625 231.53344727 C79.34183701 231.54206284 78.64851776 231.55067841 77.93418884 231.55955505 C75.64324487 231.5822419 73.35352313 231.57546563 71.0625 231.56640625 C69.46028279 231.57164519 67.85806867 231.57792267 66.25585938 231.58518982 C62.8932447 231.59560241 59.53105283 231.59102735 56.16845703 231.57641602 C51.88926293 231.55933199 47.61142471 231.582588 43.3323822 231.61790562 C40.01885314 231.64004144 36.70563946 231.63839771 33.39205933 231.6301403 C31.81662521 231.62932754 30.24116632 231.63605997 28.665802 231.65091133 C16.65515523 231.74668342 6.31886775 230.32575889 -2.9375 221.9375 C-12.69473555 210.83903459 -12.71958552 199.13161243 -12.61523438 185.14233398 C-12.61874073 183.15530423 -12.6244051 181.1682773 -12.63204956 179.18125916 C-12.64622471 173.81811414 -12.62931263 168.45548623 -12.60576439 163.09239078 C-12.58558667 157.47240867 -12.5915381 151.85244657 -12.59387207 146.23243713 C-12.59381861 136.80680858 -12.57412082 127.38138129 -12.54199219 117.95581055 C-12.50500812 107.05264389 -12.496331 96.14973975 -12.5032897 85.24651855 C-12.50958667 74.75035455 -12.49886157 64.25428066 -12.47932434 53.75813484 C-12.47114202 49.29207133 -12.46844227 44.82605382 -12.47001648 40.35998344 C-12.47089321 35.11084798 -12.45673665 29.86196336 -12.43078995 24.61289406 C-12.42360989 22.68392528 -12.42155332 20.75492985 -12.42490768 18.82595062 C-12.42860431 16.19993053 -12.41393952 13.5746501 -12.39440918 10.94871521 C-12.39973711 10.17966762 -12.40506503 9.41062002 -12.41055441 8.61826795 C-12.34452228 3.4983789 -12.34452228 3.4983789 -10.66284943 1.0657053 C-6.89350822 -1.35003171 -4.20331658 -1.05082914 0 0 Z " fill="#000000" transform="translate(13,281)"/>
<path d="M0 0 C3.21142855 2.37366458 4.71584605 3.93442268 5.75 7.8125 C3.81926171 16.01813774 -5.81389417 22.9839735 -11.58789062 28.79663086 C-12.53337883 29.75168241 -13.47870183 30.70689755 -14.4238739 31.66226196 C-17.49749893 34.76693601 -20.57638468 37.86636157 -23.65625 40.96484375 C-24.44499858 41.75853831 -24.44499858 41.75853831 -25.24968147 42.56826711 C-30.21479689 47.56410669 -35.18193845 52.55792357 -40.15392303 57.54692745 C-46.4916575 63.90662392 -52.81907767 70.27621526 -59.13305712 76.65949911 C-63.58817609 81.1618436 -68.05471763 85.65265208 -72.52987623 90.13507754 C-75.19744898 92.80760082 -77.85974395 95.48492564 -80.50984192 98.17478752 C-82.99868853 100.70049701 -85.50138509 103.21160786 -88.01535988 105.71229935 C-89.37070991 107.06772897 -90.71115532 108.43801143 -92.05107117 109.80870056 C-98.73062776 116.40888049 -98.73062776 116.40888049 -102.91955566 117.15333557 C-106 117 -106 117 -108.875 115.4375 C-111.45248068 112.48097805 -112 110.91032112 -112 107 C-110.09433571 103.28512438 -107.75979643 100.51039123 -104.81834412 97.57110596 C-103.54174927 96.28821938 -103.54174927 96.28821938 -102.23936462 94.97941589 C-101.30886795 94.05453873 -100.37837128 93.12966156 -99.41967773 92.17675781 C-98.42699679 91.18300319 -97.43474914 90.18881558 -96.44290161 89.19422913 C-93.75544344 86.50193478 -91.06179527 83.81591371 -88.36684299 81.13112354 C-85.54710302 78.32017941 -82.73264874 75.50395209 -79.91749573 72.68841553 C-75.19229702 67.96415245 -70.46324601 63.24377386 -65.73168945 58.52587891 C-60.25753586 53.06747248 -54.78864839 47.60383511 -49.32272953 42.13718343 C-44.06536122 36.87920542 -38.80514446 31.62408734 -33.54332161 26.37056732 C-31.30294637 24.13372684 -29.06342616 21.89603538 -26.82455254 19.65769196 C-24.1913486 17.02549043 -21.55561657 14.39584668 -18.91788101 11.76818657 C-17.48530393 10.33993643 -16.05517452 8.90923254 -14.62510681 7.47846985 C-13.7768634 6.63449142 -12.92862 5.790513 -12.05467224 4.92095947 C-11.31560355 4.18356663 -10.57653486 3.44617378 -9.81507015 2.6864357 C-6.63060624 -0.2723445 -4.29085425 -0.50480638 0 0 Z " fill="#000000" transform="translate(182,363)"/>
<path d="M0 0 C2.59191186 1.69814915 2.96408796 2.8820033 3.875 5.875 C4.05756464 10.43911607 2.0268975 12.8414203 -0.94091129 16.18980026 C-2.05007987 17.29815168 -2.05007987 17.29815168 -3.18165588 18.42889404 C-4.03271912 19.28415176 -4.88378235 20.13940948 -5.76063538 21.02058411 C-6.69113205 21.94546127 -7.62162872 22.87033844 -8.58032227 23.82324219 C-9.57300321 24.81699681 -10.56525086 25.81118442 -11.55709839 26.80577087 C-14.24455656 29.49806522 -16.93820473 32.18408629 -19.63315701 34.86887646 C-22.45289698 37.67982059 -25.26735126 40.49604791 -28.08250427 43.31158447 C-32.80770298 48.03584755 -37.53675399 52.75622614 -42.26831055 57.47412109 C-47.74246414 62.93252752 -53.21135161 68.39616489 -58.67727047 73.86281657 C-63.93463878 79.12079458 -69.19485554 84.37591266 -74.45667839 89.62943268 C-76.69705363 91.86627316 -78.93657384 94.10396462 -81.17544746 96.34230804 C-83.8086514 98.97450957 -86.44438343 101.60415332 -89.08211899 104.23181343 C-90.51469607 105.66006357 -91.94482548 107.09076746 -93.37489319 108.52153015 C-94.2231366 109.36550858 -95.07138 110.209487 -95.94532776 111.07904053 C-96.68439645 111.81643337 -97.42346514 112.55382622 -98.18492985 113.3135643 C-100.50601838 115.47015674 -101.64718892 115.95295852 -104.8125 116.375 C-108 116 -108 116 -110.875 113.875 C-113 111 -113 111 -113.75 108.1875 C-111.8135299 99.95750206 -102.15513533 93.00687166 -96.34863281 87.20336914 C-95.39661796 86.24835513 -94.44480596 85.29313888 -93.49317932 84.33773804 C-90.93183235 81.76763366 -88.36732348 79.20070789 -85.80191517 76.6346581 C-84.19772348 75.02975233 -82.59424726 73.42413527 -80.9910202 71.81826591 C-75.39447942 66.21250613 -69.79539473 60.60930209 -64.19384766 55.00854492 C-58.97514467 49.79044501 -53.7620716 44.56676648 -48.55154729 39.34050089 C-44.06918232 34.84507808 -39.58298849 30.35350097 -35.09376979 25.86492246 C-32.41592604 23.18733379 -29.7396617 20.50821157 -27.06723785 17.82521248 C-24.55996021 15.30828102 -22.04796329 12.79615896 -19.5322094 10.28770065 C-18.16853878 8.92557937 -16.80982538 7.55850092 -15.45124817 6.19129944 C-14.64106735 5.38531311 -13.83088654 4.57932678 -12.99615479 3.74891663 C-12.29270054 3.04491761 -11.58924629 2.3409186 -10.86447525 1.61558628 C-7.25869197 -1.50886066 -4.41177551 -1.10294388 0 0 Z " fill="#000000" transform="translate(438,33)"/>
<path d="M0 0 C2.58424196 2.16742874 2.93849682 3.71850794 3.65614319 7.00308228 C3.51403109 13.20530276 -2.31255386 17.27277783 -6.43579102 21.32568359 C-7.4505155 22.34825983 -8.46373905 23.37232734 -9.47557068 24.39776611 C-12.22429143 27.17410567 -14.99457977 29.92793996 -17.77010465 32.67745161 C-20.67376245 35.5596465 -23.55989422 38.45930254 -26.44871521 41.35635376 C-31.30316842 46.21896505 -36.17184076 51.06698114 -41.04907227 55.90673828 C-46.68427372 61.49901559 -52.29588235 67.1141479 -57.89550263 72.74203622 C-63.28621484 78.15880086 -68.69373902 83.5584799 -74.10893059 88.9507637 C-76.4114628 91.24420503 -78.70786612 93.5435347 -80.99951363 95.8478508 C-83.70033866 98.56213578 -86.41555942 101.26115339 -89.14249611 103.94919586 C-90.1397063 104.93689185 -91.13188421 105.92969913 -92.11851883 106.92795944 C-100.50122218 115.39884903 -100.50122218 115.39884903 -104.96665955 116.19839478 C-108.91781623 115.93997049 -110.37611655 114.93257562 -113 112 C-114 109.625 -114 109.625 -114 107 C-112.17853754 102.77212739 -110.11417786 99.73921001 -106.86976624 96.49554443 C-106.03000748 95.64877136 -105.19024872 94.80199829 -104.32504272 93.92956543 C-103.40703888 93.01920532 -102.48903503 92.10884521 -101.54321289 91.17089844 C-100.5634217 90.18867697 -99.58427679 89.20581046 -98.60572815 88.22235107 C-95.95557513 85.56281957 -93.29614134 82.91275415 -90.63463521 80.26459026 C-87.84769219 77.48898917 -85.06849297 74.70565302 -82.28819275 71.92340088 C-77.62025541 67.25458165 -72.94638394 62.59176932 -68.26879883 57.93261719 C-62.86208769 52.54709061 -57.46427786 47.15276912 -52.07126814 41.75352454 C-46.87917933 36.55574089 -41.68143828 31.36364691 -36.48089409 26.17432404 C-34.26911256 23.96718499 -32.05922429 21.75817561 -29.85081673 19.54766083 C-27.25103932 16.94599951 -24.64631762 14.34939077 -22.03769493 11.75659943 C-20.6253185 10.35048673 -19.2178294 8.93947027 -17.81048584 7.52832031 C-16.96790726 6.69282654 -16.12532867 5.85733276 -15.25721741 4.996521 C-14.52736665 4.26872311 -13.79751589 3.54092522 -13.04554844 2.79107285 C-8.62596115 -1.07869755 -5.76538269 -1.46755196 0 0 Z " fill="#000000" transform="translate(150,330)"/>
<path d="M0 0 C2.35352451 1.56901634 2.87641182 2.6733741 3.875 5.3125 C4.08123826 9.74662264 1.88550795 12.94152071 -0.90408993 16.27602673 C-1.98723901 17.35697597 -1.98723901 17.35697597 -3.0922699 18.45976257 C-3.9236145 19.29667633 -4.75495911 20.13359009 -5.61149597 20.99586487 C-6.97447563 22.34502235 -6.97447563 22.34502235 -8.36499023 23.72143555 C-9.33493689 24.69217383 -10.30422948 25.66356602 -11.2729187 26.63555908 C-13.89631546 29.26407424 -16.52891698 31.88318751 -19.1634357 34.50054908 C-21.92264688 37.24468521 -24.67371338 39.99696387 -27.42579651 42.74824524 C-32.04684402 47.36560461 -36.67348285 51.97729814 -41.30395508 56.58520508 C-47.24411224 62.49647306 -53.17496325 68.41698729 -59.10291958 74.34048748 C-64.20505173 79.43863675 -69.31143574 84.53252119 -74.418504 89.62572503 C-76.05754309 91.26067071 -77.69599946 92.89619865 -79.3343792 94.53180504 C-81.91004241 97.10256532 -84.48834622 99.67064897 -87.06870651 102.23669434 C-88.46508364 103.62640982 -89.85906611 105.01853014 -91.25297546 106.41072083 C-92.08713989 107.23917511 -92.92130432 108.06762939 -93.78074646 108.92118835 C-94.50322288 109.64069011 -95.22569929 110.36019186 -95.97006893 111.1014967 C-101.03139964 115.83513185 -101.03139964 115.83513185 -104.9375 116.5 C-109.14517131 115.81303325 -110.52070473 114.4272611 -113 111 C-113.43755654 107.08970763 -113.55844118 104.85657463 -111.38138008 101.51725197 C-110.61704596 100.75807158 -109.85271183 99.99889118 -109.06521606 99.21670532 C-108.19303436 98.33345581 -107.32085266 97.4502063 -106.42224121 96.54019165 C-105.44344012 95.58456702 -104.4643028 94.62928668 -103.48486328 93.67431641 C-102.46199364 92.65178437 -101.44065812 91.62771574 -100.42074585 90.60223389 C-97.65114252 87.82635542 -94.86041004 85.07264664 -92.06523752 82.32254839 C-89.1444612 79.44184304 -86.2431421 76.54167199 -83.33956909 73.64364624 C-78.46317537 68.78196128 -73.57428605 63.93315775 -68.67626953 59.09326172 C-61.76333163 52.26231338 -54.87328945 45.4086273 -47.98765969 38.55016828 C-42.64451054 33.22964234 -37.2955863 27.91492275 -31.9453125 22.6015625 C-31.37048583 22.03064141 -30.79565915 21.45972032 -30.20341349 20.87149858 C-26.90304609 17.59443764 -23.59973005 14.32039898 -20.29196548 11.05080414 C-19.28895571 10.05873069 -18.28676918 9.06582415 -17.2854538 8.07204056 C-15.92222071 6.71946774 -14.55558115 5.37033079 -13.18875122 4.02139282 C-12.42366304 3.26447458 -11.65857487 2.50755634 -10.8703022 1.72770119 C-7.19594091 -1.66650877 -4.78189883 -1.00671554 0 0 Z " fill="#000000" transform="translate(472,67)"/>
<path d="M0 0 C2.4375 1.5 2.4375 1.5 4 4 C4.56959137 9.00156668 4.72210338 10.96330265 1.80723572 15.14807129 C0.79032399 16.18495694 -0.24878674 17.20037082 -1.30493164 18.19726562 C-1.86914825 18.76104416 -2.43336487 19.32482269 -3.01467896 19.90568542 C-4.878322 21.75868783 -6.76855092 23.5818387 -8.66015625 25.40625 C-9.96799727 26.69660778 -11.27399606 27.98883519 -12.57823181 29.28283691 C-16.01568317 32.68412034 -19.47599243 36.06116127 -22.94213867 39.4331665 C-27.12965035 43.51496581 -31.29095733 47.62343613 -35.45503139 51.72911835 C-38.70003771 54.92792901 -41.94897791 58.12233127 -45.21144104 61.30334473 C-50.54860608 66.51736473 -55.84058049 71.69228416 -60.64401245 77.41346741 C-62.94352664 80.10394506 -65.47479126 82.52801756 -68.0625 84.9375 C-68.79823242 85.65776367 -68.79823242 85.65776367 -69.54882812 86.39257812 C-72.90249077 89.51708116 -75.40094133 90.83986565 -80 91 C-82.32731556 89.86220128 -84.16840714 88.83159286 -86 87 C-86.93296816 80.35260184 -86.93296816 80.35260184 -84.6688652 77.07014275 C-84.08887394 76.44418772 -83.50888268 75.81823269 -82.91131592 75.17330933 C-82.27321739 74.47937954 -81.63511887 73.78544975 -80.97768402 73.07049179 C-77.99018814 69.94280019 -74.98245218 66.84297958 -71.91894531 63.78955078 C-71.24974564 63.11859879 -70.58054596 62.44764679 -69.8910675 61.75636292 C-67.70590715 59.56684531 -65.51716218 57.38095359 -63.328125 55.1953125 C-61.79817347 53.66468656 -60.26837034 52.13391227 -58.7387085 50.60299683 C-55.54634006 47.40916008 -52.35218477 44.21712424 -49.15673828 41.02636719 C-45.0587498 36.93409973 -40.96529972 32.83732648 -36.8731575 28.73921394 C-33.72146942 25.58391747 -30.56740991 22.4310002 -27.41262054 19.27880478 C-25.90158413 17.76843561 -24.39129066 16.25732281 -22.88175201 14.7454567 C-20.77806759 12.63923859 -18.67121463 10.5362425 -16.56347656 8.43408203 C-15.94005875 7.80863998 -15.31664093 7.18319794 -14.67433167 6.5388031 C-14.09974716 5.96703842 -13.52516266 5.39527374 -12.9331665 4.80618286 C-12.18770758 4.06128947 -12.18770758 4.06128947 -11.42718887 3.30134773 C-7.61100748 -0.17834518 -5.04595774 -0.53115345 0 0 Z " fill="#000000" transform="translate(479,126)"/>
<path d="M0 0 C2.20386708 2.47935046 2.00265909 3.91883228 1.8938446 7.24035645 C0.74655062 12.06604583 -1.30174465 14.10762432 -4.80151367 17.46679688 C-5.40649689 18.07104996 -6.0114801 18.67530304 -6.63479614 19.29786682 C-8.63210827 21.28592519 -10.64970299 23.25198644 -12.66796875 25.21875 C-14.06602193 26.60305857 -15.46267451 27.98878294 -16.85798645 29.37585449 C-20.53352287 33.02284526 -24.22625438 36.65191075 -27.92333984 40.27703857 C-32.39769772 44.66998089 -36.85346203 49.08176188 -41.3099947 53.49277496 C-44.78102838 56.92820316 -48.25529265 60.3600989 -51.74052429 63.78112793 C-52.38440598 64.41505966 -53.02828766 65.04899139 -53.69168091 65.70213318 C-54.88114195 66.87319889 -56.07257064 68.04227154 -57.26652527 69.20875549 C-60.59476796 72.49176799 -63.6952174 75.89227655 -66.68951893 79.48323822 C-68.41047316 81.47508508 -70.30160658 83.18038302 -72.3125 84.875 C-72.98925781 85.44992188 -73.66601562 86.02484375 -74.36328125 86.6171875 C-75.17345703 87.30167969 -75.17345703 87.30167969 -76 88 C-76.495 88.495 -76.495 88.495 -77 89 C-81.3544581 89.50243747 -83.33413529 89.48168936 -86.9375 86.875 C-89 84 -89 84 -89.75 81.1875 C-88.02481016 73.85544317 -80.07866438 67.92691966 -74.85888672 62.69775391 C-74.18314606 62.01704834 -73.5074054 61.33634277 -72.81118774 60.63500977 C-70.60342175 58.4127879 -68.39191332 56.19434411 -66.1796875 53.9765625 C-65.04025885 52.83289278 -65.04025885 52.83289278 -63.87781143 51.66611862 C-59.86769273 47.64108443 -55.85476562 43.61887629 -51.83935547 39.59912109 C-47.69548597 35.44973977 -43.56099486 31.29114198 -39.4285717 27.13036537 C-36.24230549 23.9254956 -33.04937071 20.72733389 -29.85455704 17.53098679 C-28.32665158 16.0000554 -26.80124671 14.46662411 -25.27840805 12.93065262 C-23.15338397 10.78859657 -21.01912349 8.65617985 -18.88232422 6.52587891 C-18.25674622 5.89108612 -17.63116821 5.25629333 -16.9866333 4.6022644 C-11.43110558 -0.90044268 -7.78844193 -3.23293816 0 0 Z " fill="#000000" transform="translate(380,26)"/>
<path d="M0 0 C3 2.0625 3 2.0625 5 5 C5.27736323 8.67506278 4.84287762 10.88614106 2.59506512 13.85661507 C-1.51626152 18.42281554 -5.71891145 22.86738436 -10.06518555 27.21044922 C-10.73277893 27.88140121 -11.40037231 28.55235321 -12.0881958 29.24363708 C-14.26842724 31.43327317 -16.45232051 33.61920877 -18.63671875 35.8046875 C-20.16420119 37.33538698 -21.69160987 38.86616006 -23.21894836 40.39700317 C-26.40697063 43.59098833 -29.59702777 46.78292512 -32.78833008 49.97363281 C-36.87898789 54.06418851 -40.96269374 58.16161034 -45.04471111 62.26078606 C-48.19052862 65.41770604 -51.34086429 68.57008687 -54.49250221 71.72119522 C-56.00080755 73.23068086 -57.50749102 74.7417889 -59.01251793 76.2545433 C-61.11130374 78.36310467 -63.21630396 80.46526195 -65.32299805 82.56591797 C-65.94282059 83.19136002 -66.56264313 83.81680206 -67.20124817 84.4611969 C-68.06518692 85.31884392 -68.06518692 85.31884392 -68.94657898 86.19381714 C-69.4426298 86.69041273 -69.93868063 87.18700832 -70.4497633 87.69865227 C-73.34708674 90.1308133 -75.25215345 91.04578652 -79.0625 90.8125 C-83.33361995 89.6311264 -83.33361995 89.6311264 -85 87 C-86.125 83.8125 -86.125 83.8125 -86 80 C-84.7129364 78.1419754 -84.7129364 78.1419754 -82.94799805 76.23156738 C-82.3063974 75.53185318 -81.66479675 74.83213898 -81.00375366 74.11122131 C-80.0118956 73.06616676 -80.0118956 73.06616676 -79 72 C-78.41409088 71.38180893 -77.82818176 70.76361786 -77.22451782 70.12669373 C-75.40026972 68.23006844 -73.55703706 66.35392204 -71.70703125 64.48242188 C-71.01499603 63.77899658 -70.32296082 63.07557129 -69.60995483 62.35083008 C-62.4596468 55.09097183 -55.27847392 47.86151192 -48.09472656 40.63476562 C-44.68880449 37.2064523 -41.29293988 33.76861759 -37.90527344 30.32226562 C-33.80181519 26.14789426 -29.68157588 21.99081368 -25.54867554 17.84559631 C-23.97977885 16.26628709 -22.4169097 14.6809662 -20.86026001 13.08958435 C-18.68721759 10.87052803 -16.4932898 8.6743857 -14.29296875 6.48242188 C-13.65587982 5.82173706 -13.01879089 5.16105225 -12.36239624 4.48034668 C-8.33716779 0.52871574 -5.89612437 -0.97437275 0 0 Z " fill="#000000" transform="translate(216,397)"/>
<path d="M0 0 C2.62038318 2.27099876 2.96869753 3.83722716 3.625 7.25 C2.96816489 11.19101064 2.47964138 11.9611727 -0.08976746 14.7769928 C-1.04529794 15.82726748 -1.04529794 15.82726748 -2.02013206 16.89875984 C-5.02702796 20.08998805 -8.08332553 23.22275776 -11.1887207 26.31811523 C-11.86928024 27.00042709 -12.54983978 27.68273895 -13.25102234 28.38572693 C-15.47345445 30.61251681 -17.69947199 32.8356807 -19.92578125 35.05859375 C-21.4805487 36.61403552 -23.03516774 38.16962565 -24.58964539 39.72535706 C-27.83328839 42.97046839 -31.07871852 46.21377876 -34.32543945 49.45581055 C-38.49303077 53.61767645 -42.65607822 57.78405419 -46.81782246 61.95176601 C-50.02008414 65.15763237 -53.22471269 68.3611242 -56.43007469 71.56389046 C-57.96705781 73.10020552 -59.50329575 74.63726644 -61.03878212 76.17507744 C-63.17620073 78.31502408 -65.3167784 80.45175875 -67.45825195 82.58764648 C-68.09461578 83.22603455 -68.73097961 83.86442261 -69.3866272 84.52215576 C-74.77740358 89.88679663 -74.77740358 89.88679663 -79.375 90.3125 C-83 90 -83 90 -85.4375 88.5 C-87.6197747 85.00836048 -87.88082974 81.94645365 -87 78 C-85.0427995 74.89747593 -82.51852937 72.48556506 -79.88745117 69.94750977 C-78.75351173 68.80699913 -78.75351173 68.80699913 -77.59666443 67.64344788 C-75.09756994 65.13973703 -72.57111707 62.66574862 -70.04296875 60.19140625 C-68.29977758 58.45806286 -66.55820612 56.72308917 -64.81819153 54.98655701 C-61.17056032 51.35420013 -57.5104056 47.735154 -53.83959961 44.1262207 C-49.1279023 39.49379036 -44.43810931 34.83996724 -39.75620556 30.17744541 C-35.29633165 25.73749102 -30.8265844 21.30753556 -26.35546875 16.87890625 C-25.49977987 16.03000887 -24.644091 15.18111149 -23.76247215 14.30648994 C-21.34726746 11.91437443 -18.92525658 9.52939329 -16.50073242 7.14672852 C-15.78216064 6.43353455 -15.06358887 5.72034058 -14.32324219 4.98553467 C-13.66281418 4.33941727 -13.00238617 3.69329987 -12.32194519 3.02760315 C-11.74951175 2.46371667 -11.1770783 1.89983019 -10.58729839 1.31885624 C-7.11492092 -1.56627659 -4.13001562 -1.1185459 0 0 Z " fill="#000000" transform="translate(116,296)"/>
<path d="M0 0 C2.375 1.125 2.375 1.125 4 3 C5.10922613 6.4016268 5.43056825 8.13762241 3.81420898 11.375 C1.79287906 14.29968568 -0.42669663 16.63539097 -2.96484375 19.125 C-3.4394252 19.59437988 -3.91400665 20.06375977 -4.40296936 20.54736328 C-5.90975608 22.0364617 -7.4230871 23.51866132 -8.9375 25 C-10.44746258 26.48218372 -11.95587008 27.96586824 -13.46131897 29.45263672 C-14.82890102 30.80250836 -16.20130454 32.14749014 -17.57397461 33.4921875 C-19.8915531 35.8878971 -21.94647968 38.37780388 -24 41 C-27.4609621 44.33994944 -29.84912711 45.98081879 -34.75 46.0625 C-38 45 -38 45 -39.9375 43.375 C-41.51757465 39.84306842 -41.64178588 37.85071526 -41 34 C-36.11095925 26.88648229 -29.00578743 20.85255389 -22.90063477 14.77026367 C-21.17019863 13.04525287 -19.4452551 11.31487572 -17.72070312 9.58398438 C-16.62011271 8.48405367 -15.51921272 7.38443262 -14.41796875 6.28515625 C-13.90340622 5.76856949 -13.38884369 5.25198273 -12.85868835 4.71974182 C-8.44436691 0.3345443 -6.30660896 -0.43493855 0 0 Z " fill="#000000" transform="translate(250,431)"/>
<path d="M0 0 C2.44988842 2.44988842 2.7658669 3.56604793 3 7 C0.82872342 12.57361182 -2.74060868 16.19307018 -6.8984375 20.33203125 C-7.57041168 21.00924728 -8.24238586 21.68646332 -8.9347229 22.38420105 C-10.35146923 23.80734744 -11.77207417 25.2266618 -13.19628906 26.64233398 C-15.37320059 28.81070765 -17.53075848 30.9971319 -19.6875 33.18554688 C-21.06918105 34.56883939 -22.45195697 35.95103936 -23.8359375 37.33203125 C-24.47880707 37.9861348 -25.12167664 38.64023834 -25.7840271 39.31416321 C-31.49161979 44.93406482 -31.49161979 44.93406482 -36 45 C-39.09653751 44.0638375 -40.70423322 43.29576678 -43 41 C-43.93249455 37.05166659 -43.87515286 33.43676503 -41.73864746 29.92919922 C-39.89688107 27.80661061 -37.9615897 25.87069658 -35.921875 23.9375 C-35.19889221 23.22013672 -34.47590942 22.50277344 -33.73101807 21.76367188 C-32.20465529 20.25741175 -30.66756748 18.76195189 -29.12060547 17.27685547 C-26.75062207 15.00059747 -24.41441886 12.69361309 -22.08203125 10.37890625 C-20.59300082 8.91737854 -19.10217477 7.45767751 -17.609375 6 C-16.90818542 5.31156006 -16.20699585 4.62312012 -15.48455811 3.91381836 C-14.82417542 3.2822583 -14.16379272 2.65069824 -13.48339844 2 C-12.61735992 1.1646875 -12.61735992 1.1646875 -11.73382568 0.3125 C-7.61169879 -2.80793569 -4.58374804 -1.89328723 0 0 Z " fill="#000000" transform="translate(83,263)"/>
<path d="M0 0 C1.625 2.8125 1.625 2.8125 2 6 C-0.12700735 11.57681258 -3.75191226 15.20432246 -7.8984375 19.33203125 C-8.57041168 20.00924728 -9.24238586 20.68646332 -9.9347229 21.38420105 C-11.35146923 22.80734744 -12.77207417 24.2266618 -14.19628906 25.64233398 C-16.37320059 27.81070765 -18.53075848 29.9971319 -20.6875 32.18554688 C-22.06918105 33.56883939 -23.45195697 34.95103936 -24.8359375 36.33203125 C-25.47880707 36.9861348 -26.12167664 37.64023834 -26.7840271 38.31416321 C-32.46678889 43.90961542 -32.46678889 43.90961542 -37 44 C-40.28990097 43.21669024 -41.68969889 42.35033996 -43.9375 39.8125 C-45.1197468 36.68302317 -44.8962719 35.06749132 -43.90103149 31.9178772 C-42.13351522 28.1556567 -39.1428237 25.47506249 -36.19921875 22.60546875 C-35.52582962 21.93203934 -34.85244049 21.25860992 -34.15864563 20.56477356 C-32.73809883 19.14956913 -31.31145954 17.74045692 -29.87915039 16.3371582 C-27.69104696 14.190979 -25.52511509 12.02418034 -23.36132812 9.85351562 C-21.97521792 8.47789632 -20.58788837 7.10350432 -19.19921875 5.73046875 C-18.55321213 5.08466354 -17.90720551 4.43885834 -17.24162292 3.77348328 C-11.41077441 -1.90621157 -7.7359311 -4.67075085 0 0 Z " fill="#000000" transform="translate(471,207)"/>
<path d="M0 0 C2.54617692 2.20668667 2.96356829 3.8482012 3.75 7.125 C2.91919385 11.41749844 2.03083619 12.43602862 -0.87109375 15.55859375 C-1.68723145 16.43773438 -2.50336914 17.316875 -3.34423828 18.22265625 C-7.77406019 22.85527751 -12.27056406 27.41490516 -16.8125 31.9375 C-17.73998047 32.86884766 -18.66746094 33.80019531 -19.62304688 34.75976562 C-20.51701172 35.65244141 -21.41097656 36.54511719 -22.33203125 37.46484375 C-23.13358643 38.265271 -23.9351416 39.06569824 -24.76098633 39.89038086 C-30.63631558 45.42616976 -30.63631558 45.42616976 -35.0625 45.375 C-39 45 -39 45 -40.9375 43.9375 C-42.71181202 40.70198984 -43.12234499 38.73152229 -43 35 C-38.15321886 27.5367161 -30.38569512 21.19955511 -24.10107422 14.91577148 C-22.23506065 13.04754292 -20.37722851 11.17141581 -18.51953125 9.29492188 C-17.33121785 8.10367898 -16.14243289 6.91290626 -14.953125 5.72265625 C-14.3999762 5.16232193 -13.84682739 4.60198761 -13.2769165 4.02467346 C-8.79680638 -0.42881395 -6.21179613 -1.68236145 0 0 Z " fill="#000000" transform="translate(300,36)"/>
</svg>
