<?xml version="1.0" encoding="UTF-8"?>
<svg version="1.1" xmlns="http://www.w3.org/2000/svg" width="512" height="512">
<path d="M0 0 C1.05704132 0.00182281 2.11408264 0.00364563 3.20315552 0.00552368 C18.79743813 0.05077406 33.99695858 0.51156732 49.375 3.3125 C50.39416504 3.48942383 51.41333008 3.66634766 52.46337891 3.84863281 C67.02788398 6.41219823 81.29518467 9.78522819 95.375 14.3125 C96.23593262 14.58900391 97.09686523 14.86550781 97.98388672 15.15039062 C134.15755828 27.01851616 166.49167779 46.21061699 193.74707031 72.73144531 C195.21209012 74.15428098 196.69483743 75.55880889 198.1796875 76.9609375 C221.83303326 99.73004604 244.95335178 137.8457592 245.625 171.5625 C245.375 175.3125 245.375 175.3125 245 177.734375 C244.18048574 183.36853557 244.47614029 186.28483161 247.3125 191.19921875 C251.52656935 199.58087874 251.16975941 210.28176813 248.55078125 219.08203125 C244.35634589 230.14008811 237.68214824 237.90368227 227.29296875 243.46484375 C225.375 244.3125 225.375 244.3125 223.375 244.3125 C223.705 252.5625 224.035 260.8125 224.375 269.3125 C227.675 270.9625 230.975 272.6125 234.375 274.3125 C237.3984375 276.59375 237.3984375 276.59375 239.75 278.8125 C240.54148437 279.5446875 241.33296875 280.276875 242.1484375 281.03125 C246.10238725 285.08231431 248.98359152 289.11515829 251.5 294.1875 C251.99757813 295.17492187 252.49515625 296.16234375 253.0078125 297.1796875 C258.01952258 308.66366316 258.50564716 324.06007762 254.75 336.0625 C252.86255367 340.73714306 250.38490575 345.02887316 247.64453125 349.25390625 C246.22581932 351.3786894 246.22581932 351.3786894 245.375 354.3125 C246.11110022 356.42074446 246.11110022 356.42074446 247.25 358.6875 C251.50100935 368.81316809 251.35846248 379.70873375 247.37109375 389.87109375 C244.32435567 396.47738722 244.32435567 396.47738722 241.66674805 398.81518555 C237.66956324 402.49976413 235.99004728 405.38407256 235.60820007 410.90301514 C235.49454912 414.56334681 235.5090248 418.21373154 235.5625 421.875 C235.57058372 424.81391725 235.5602141 427.75253596 235.54296875 430.69140625 C235.5385955 431.77358429 235.5385955 431.77358429 235.53413391 432.87762451 C235.30737609 454.13755316 229.12257925 471.86010116 214.6875 487.5625 C199.0398643 502.24768192 180.17283922 507.62978573 159.1446228 507.57992554 C157.72021197 507.58366801 156.29580319 507.58827189 154.87139761 507.59365618 C150.97991255 507.60582808 147.08851383 507.60563261 143.19701409 507.60326743 C138.99096891 507.60285778 134.78495086 507.61391255 130.57891846 507.62338257 C122.34654639 507.63996205 114.11420297 507.64549075 105.8818156 507.64660732 C99.18596279 507.64755933 92.49011939 507.65167723 85.79426956 507.65800858 C66.78761205 507.67561331 47.78097707 507.68484875 28.77431135 507.68334763 C27.23884706 507.68322776 27.23884706 507.68322776 25.67236328 507.68310547 C24.64746255 507.68302371 23.62256182 507.68294195 22.5666035 507.68285771 C5.9655028 507.68204521 -10.63550708 507.70117564 -27.23658152 507.7293822 C-44.30468912 507.75815216 -61.3727525 507.77192021 -78.44088495 507.77019465 C-88.01435647 507.76953213 -97.5877328 507.77496377 -107.1611824 507.79655075 C-115.31378306 507.81481681 -123.46624537 507.81906558 -131.6188577 507.8055319 C-135.7728028 507.79902928 -139.92648294 507.79878622 -144.08040237 507.8162384 C-147.89410644 507.83209538 -151.70733823 507.82897883 -155.52103166 507.81167014 C-157.53084296 507.80720277 -159.54066967 507.82215785 -161.55042231 507.83814943 C-182.07934174 507.68475779 -200.37069997 500.44724589 -215.02734375 485.93359375 C-230.10534611 469.90224015 -234.67688766 451.17989963 -234.828125 429.66796875 C-234.8347113 428.83860306 -234.84129761 428.00923737 -234.8480835 427.15473938 C-234.86856231 423.73804695 -234.88134428 420.32220364 -234.85498047 416.90551758 C-234.79261961 406.26293346 -235.09998943 399.12728119 -241.625 390.3125 C-245.51622116 380.02156606 -245.54164502 371.13576665 -242.18359375 360.79296875 C-241.57279978 358.08070184 -241.57437701 356.86401297 -242.625 354.3125 C-244.08652052 352.31461889 -244.08652052 352.31461889 -245.875 350.3125 C-256.14795856 337.56642178 -256.6956009 322.96019265 -255.625 307.3125 C-254.83336379 302.95171539 -253.59059037 299.2742974 -251.625 295.3125 C-251.20089844 294.44753906 -250.77679688 293.58257812 -250.33984375 292.69140625 C-244.53987493 282.07697863 -235.23476583 273.18242194 -223.625 269.3125 C-223.45088897 264.8963301 -223.34420238 260.48103997 -223.25 256.0625 C-223.19972656 254.80824219 -223.14945313 253.55398438 -223.09765625 252.26171875 C-223.04290801 248.84907827 -223.0583139 245.67912927 -223.625 242.3125 C-226.23175113 239.52509442 -226.23175113 239.52509442 -229.625 238.3125 C-238.58423993 230.89237 -243.68216159 221.40726437 -244.87890625 209.86328125 C-245.13860081 204.12486928 -244.19675955 199.53188118 -242.4375 194.0625 C-240.72691392 188.9193738 -240.72691392 188.9193738 -241.8125 183.75 C-242.7096875 182.0484375 -242.7096875 182.0484375 -243.625 180.3125 C-249.46008645 155.89433566 -232.70030323 126.27192476 -220.6640625 106.01171875 C-208.51879933 87.07638229 -192.53846778 69.88482099 -174.625 56.3125 C-174.09680664 55.90257812 -173.56861328 55.49265625 -173.02441406 55.0703125 C-135.55949336 26.04305015 -89.45867955 8.52258897 -42.625 2.3125 C-41.97966309 2.22636444 -41.33432617 2.14022888 -40.66943359 2.05148315 C-27.10747546 0.29393319 -13.66370273 -0.04900561 0 0 Z M-46.625 24.3125 C-47.60436523 24.48942383 -48.58373047 24.66634766 -49.59277344 24.84863281 C-76.79987822 29.83215501 -103.2333787 38.14915915 -127.625 51.3125 C-128.62805176 51.84810547 -128.62805176 51.84810547 -129.65136719 52.39453125 C-147.18724711 61.80686699 -162.7053463 73.29190639 -177.1875 86.95849609 C-178.51248191 88.20651744 -179.84946224 89.44176777 -181.1875 90.67578125 C-202.41279371 110.91464304 -218.83036293 140.27189737 -223.625 169.3125 C-223.54995596 173.81514261 -223.18415654 175.63244475 -220.3125 179.125 C-215.56810251 182.98671888 -212.63565678 183.56305838 -206.46812725 183.56976891 C-205.74298511 183.57327498 -205.01784297 183.57678105 -204.27072683 183.58039337 C-201.82792585 183.58973667 -199.38536174 183.58477656 -196.94255066 183.57992554 C-195.17867075 183.58366033 -193.41479249 183.58826116 -191.65091687 183.59365618 C-186.79357609 183.60592283 -181.93630399 183.60562141 -177.07895124 183.60326743 C-171.84433573 183.60286019 -166.60974252 183.61388956 -161.37513733 183.62338257 C-151.11561142 183.64001367 -140.85610848 183.64549307 -130.59657022 183.64660732 C-122.2590974 183.64755681 -113.92163218 183.65166211 -105.58416176 183.65800858 C-81.95878798 183.67562681 -58.3334324 183.68484655 -34.708052 183.68334763 C-32.79655186 183.68322776 -32.79655186 183.68322776 -30.84643555 183.68310547 C-29.5705506 183.68302371 -28.29466566 183.68294195 -26.98011754 183.68285771 C-6.29865137 183.68204466 14.38274199 183.70118548 35.06418709 183.7293822 C56.28711562 183.75808942 77.51000862 183.77192369 98.73295707 183.77019465 C110.65310119 183.76953 122.573169 183.77505527 134.49329567 183.79655075 C144.64196894 183.81473411 154.79053131 183.81913332 164.93921379 183.8055319 C170.11879298 183.79898785 175.29815923 183.79893684 180.47771835 183.8162384 C185.21822255 183.83191072 189.95834391 183.82916543 194.69883844 183.81167014 C196.41484989 183.80858733 198.13088951 183.81228061 199.84686778 183.82339029 C202.17857752 183.83748794 204.50894003 183.82694495 206.84060383 183.81027794 C208.78360795 183.81093004 208.78360795 183.81093004 210.76586467 183.81159532 C215.2863214 183.18647639 217.60884143 181.86401836 221.375 179.3125 C223.96269639 175.83528298 224.375 173.83641409 224.375 169.5 C220.64591742 145.85602959 209.02251601 123.89555857 194.375 105.3125 C193.47394531 104.10400391 193.47394531 104.10400391 192.5546875 102.87109375 C182.65989039 89.87078673 170.48560644 78.96113701 157.375 69.3125 C156.52679688 68.68085937 155.67859375 68.04921875 154.8046875 67.3984375 C147.63463374 62.21612142 140.02778352 57.73527573 132.375 53.3125 C131.79153809 52.9707373 131.20807617 52.62897461 130.60693359 52.27685547 C96.31150976 32.34988056 52.78063294 21.30754771 13.1796875 21.109375 C12.23744324 21.10236069 11.29519897 21.09534637 10.32440186 21.08811951 C7.29955207 21.07070902 4.27489806 21.06426698 1.25 21.0625 C0.21655457 21.06182526 -0.81689087 21.06115051 -1.88165283 21.06045532 C-17.02204185 21.07617911 -31.71046797 21.48491912 -46.625 24.3125 Z M222.34444618 201.78953171 C214.66205183 204.11786297 206.8074649 203.72021081 198.86386108 203.67999268 C197.08314121 203.68201896 195.30242243 203.6853606 193.52170718 203.68989825 C188.64559795 203.69852238 183.76968012 203.68850307 178.89358759 203.67535591 C173.62839024 203.66443733 168.36321016 203.67087416 163.0980072 203.67514038 C152.79081569 203.68076899 142.48369868 203.67046817 132.17651986 203.65485242 C120.17294154 203.63730305 108.16937763 203.63589295 96.16578849 203.63523683 C74.74950697 203.63354936 53.33325936 203.61774107 31.91699219 203.59375 C11.1354138 203.57048682 -9.64614308 203.55632435 -30.42773438 203.55273438 C-32.34810133 203.55240022 -32.34810133 203.55240022 -34.30726357 203.55205932 C-36.88634926 203.55161672 -39.46543495 203.5511747 -42.04452064 203.55073325 C-43.3167645 203.55051369 -44.58900836 203.55029412 -45.89980507 203.5500679 C-47.16883672 203.54985192 -48.43786837 203.54963593 -49.74535552 203.5494134 C-69.55112865 203.5457122 -89.35689832 203.53435308 -109.16266764 203.5219375 C-116.34081284 203.51750354 -123.51895772 203.51406473 -130.69710375 203.51131538 C-142.08184312 203.506882 -153.46656968 203.49910511 -164.85130097 203.48454097 C-170.05324831 203.47793718 -175.25518439 203.47286856 -180.45713615 203.47208023 C-185.21892317 203.47129264 -189.98068168 203.46587958 -194.74245982 203.45676073 C-196.46503583 203.45425509 -198.18761526 203.45341836 -199.9101928 203.45441952 C-202.25264963 203.45551803 -204.59501759 203.4504791 -206.93746376 203.44392776 C-208.23828097 203.44268127 -209.53909818 203.44143477 -210.87933409 203.4401505 C-214.86423729 203.30434691 -218.67860516 202.86393197 -222.625 202.3125 C-224.20034088 207.89779949 -223.33732142 212.28903654 -220.625 217.3125 C-216.35765979 222.17892685 -211.65410184 225.83593957 -205.08203125 226.61328125 C-199.23996266 226.63916929 -194.41463452 225.88187893 -188.875 224.046875 C-176.65337549 220.05787255 -161.44497689 221.41275815 -149.7890625 226.56640625 C-143.70405869 229.76582802 -138.06545665 233.6245387 -132.44921875 237.578125 C-124.33061948 242.56382082 -114.31925742 243.33631692 -105.15234375 241.1640625 C-98.21909773 238.82797651 -92.18544181 234.69618484 -86.125 230.6875 C-73.31809506 222.39420339 -59.19008318 220.83119087 -44.30078125 222.73828125 C-33.09892307 225.17606881 -23.48855407 231.55278486 -14.0625 237.83203125 C-5.93777421 242.76676054 3.39165563 243.1733902 12.55859375 241.23046875 C19.0498853 239.11472185 24.60904512 235.14274619 30.26171875 231.40234375 C44.27742153 222.19537582 59.74160699 220.09323946 76.1875 223.4375 C86.13629137 226.07172432 94.22149786 231.71467312 102.55078125 237.578125 C110.66938052 242.56382082 120.68074258 243.33631692 129.84765625 241.1640625 C136.78090227 238.82797651 142.81455819 234.69618484 148.875 230.6875 C160.60442877 223.09193868 174.68023368 220.1318016 188.50390625 222.70947266 C190.57847712 223.20339502 192.63294941 223.74117452 194.6875 224.3125 C202.52933566 226.48515032 209.95742115 228.11280266 217.6875 224.75 C222.61421935 221.84657402 226.3598876 218.30637988 228.22265625 212.8125 C229.24220409 208.27517452 229.48511894 204.86641857 228.375 200.3125 C226.02798264 200.3125 224.54996828 200.97713736 222.34444618 201.78953171 Z M-190.203125 245.33984375 C-193.625 246.3125 -193.625 246.3125 -201.625 247.3125 C-201.625 253.5825 -201.625 259.8525 -201.625 266.3125 C-68.305 266.3125 65.015 266.3125 202.375 266.3125 C202.375 260.0425 202.375 253.7725 202.375 247.3125 C184.23651466 241.33223566 184.23651466 241.33223566 165.671875 244.13671875 C161.72066792 246.15936047 158.14404635 248.72221981 154.5 251.24609375 C140.98386841 260.18363576 126.22929688 263.93658494 110.125 261.6875 C100.12677691 259.62587179 91.70858498 255.2270559 83.35791016 249.52319336 C74.36458682 243.4248359 66.18268484 241.42835484 55.375 242.3125 C47.39089721 243.93737597 40.89855849 248.33850049 34.14428711 252.65966797 C19.35739844 262.11777331 4.81762946 263.58086687 -12.3359375 260.88671875 C-21.39214338 258.67531964 -29.40353609 252.725275 -37.1171875 247.68359375 C-45.80374627 242.02212062 -54.82585512 241.03994163 -65.04296875 242.70703125 C-70.90334924 244.36160133 -75.54095788 247.81145106 -80.5 251.24609375 C-94.01613159 260.18363576 -108.77070312 263.93658494 -124.875 261.6875 C-134.46107903 259.70061417 -142.27833248 255.71156813 -150.25 250.1875 C-163.33544262 241.16226261 -175.04931605 240.3775049 -190.203125 245.33984375 Z M-232.625 304.3125 C-236.49056759 313.46779166 -236.01438722 322.15746684 -232.9140625 331.44140625 C-229.76018398 338.83421324 -223.68556718 344.06530652 -216.48452759 347.40032959 C-209.2105739 350.23115118 -201.74160711 349.84029112 -194.06787109 349.76660156 C-192.41124499 349.7654715 -190.75461689 349.76611003 -189.09799194 349.76837158 C-184.6274741 349.76951349 -180.15739053 349.7460896 -175.68697309 349.71807575 C-171.0051748 349.69297426 -166.32336521 349.69071323 -161.64151001 349.68597412 C-152.78775579 349.67356996 -143.93420048 349.64078317 -135.08053362 349.60057616 C-124.99587845 349.55577857 -114.91121349 349.53385136 -104.82648349 349.51379442 C-84.09254489 349.47204814 -63.358785 349.40174611 -42.625 349.3125 C-47.15013045 343.95118148 -47.15013045 343.95118148 -51.96826172 338.85571289 C-52.54841034 338.2756398 -53.12855896 337.69556671 -53.72628784 337.09791565 C-54.32965973 336.49970505 -54.93303162 335.90149445 -55.5546875 335.28515625 C-56.18988312 334.65137558 -56.82507874 334.01759491 -57.47952271 333.36460876 C-59.48398716 331.36568594 -61.49192214 329.37029216 -63.5 327.375 C-64.87002389 326.00999867 -66.23981774 324.6447664 -67.609375 323.27929688 C-70.94526543 319.95435789 -74.28427036 316.63257647 -77.625 313.3125 C-82.03179861 317.00328906 -86.22688939 320.80058593 -90.26953125 324.89453125 C-90.7653923 325.39417892 -91.26125336 325.8938266 -91.7721405 326.40861511 C-93.32976292 327.97828865 -94.88403507 329.55121252 -96.4375 331.125 C-98.5036386 333.21771273 -100.57306565 335.3070929 -102.64453125 337.39453125 C-103.55307861 338.31468018 -104.46162598 339.2348291 -105.39770508 340.18286133 C-108.59878588 343.24359001 -110.9595112 343.85710352 -115.43695068 343.76991272 C-123.11809201 342.16416658 -129.55632487 332.05024214 -134.44936562 326.49869919 C-157.09205772 298.33771309 -157.09205772 298.33771309 -188.01400757 283.73344421 C-204.94478882 283.41115696 -223.97890215 288.68301542 -232.625 304.3125 Z M-144.625 287.3125 C-140.85375755 291.81704825 -136.9643403 296.11443876 -132.7890625 300.24609375 C-132.00273941 301.03029442 -132.00273941 301.03029442 -131.20053101 301.83033752 C-129.5527213 303.47262345 -127.90144099 305.1113665 -126.25 306.75 C-125.12086045 307.87411467 -123.99195222 308.99846174 -122.86328125 310.12304688 C-120.11984812 312.85555235 -117.37330015 315.58489009 -114.625 318.3125 C-111.26164406 316.85504576 -109.07965995 315.00132146 -106.515625 312.3984375 C-105.76152344 311.63789063 -105.00742188 310.87734375 -104.23046875 310.09375 C-103.06451172 308.90265625 -103.06451172 308.90265625 -101.875 307.6875 C-101.08222656 306.88570313 -100.28945312 306.08390625 -99.47265625 305.2578125 C-97.51885507 303.28047154 -95.56987897 301.29861091 -93.625 299.3125 C-96.10381557 294.0905402 -98.44189149 290.18160135 -103.625 287.3125 C-110.49081718 285.95014637 -117.67383938 286.56260242 -124.625 286.8125 C-126.56372879 286.85266748 -128.50253735 286.88916252 -130.44140625 286.921875 C-135.17125261 287.00964066 -139.89724486 287.14746021 -144.625 287.3125 Z M-73.625 287.3125 C-69.01532497 292.74753904 -69.01532497 292.74753904 -64.17007446 297.88768005 C-63.55600739 298.5031218 -62.94194031 299.11856354 -62.30926514 299.75265503 C-61.33174286 300.72478439 -61.33174286 300.72478439 -60.33447266 301.71655273 C-59.63133942 302.419832 -58.92820618 303.12311127 -58.20376587 303.84770203 C-55.90122958 306.14954698 -53.59518187 308.44783902 -51.2890625 310.74609375 C-49.68316139 312.35012792 -48.0774823 313.9543844 -46.47201538 315.55885315 C-42.26240446 319.7646607 -38.04979819 323.96745543 -33.83654785 328.1696167 C-29.53113569 332.46476772 -25.2285814 336.76277946 -20.92578125 341.06054688 C-12.49497228 349.48065701 -4.06099416 357.89758507 4.375 366.3125 C9.14287661 362.3355323 13.64019411 358.18456014 18.00952148 353.77563477 C18.63167542 353.15202057 19.25382935 352.52840637 19.89483643 351.88589478 C21.23378859 350.5431628 22.57158526 349.19927775 23.90832329 347.85434151 C26.02998373 345.71981069 28.15484552 343.58851276 30.28053284 341.45799255 C35.55800195 336.16721793 40.83000657 330.87100902 46.10217285 325.57495117 C50.56471231 321.09260578 55.02934466 316.61236458 59.49672127 312.13484001 C61.57919325 310.04593616 63.658604 307.95401846 65.73789978 305.86195374 C77.21063123 294.3468462 77.21063123 294.3468462 83.14369202 289.4249115 C83.55002365 289.0578157 83.95635529 288.69071991 84.375 288.3125 C84.375 287.9825 84.375 287.6525 84.375 287.3125 C32.235 287.3125 -19.905 287.3125 -73.625 287.3125 Z M75.59936523 324.66235352 C72.95384559 328.74858064 69.99745987 331.74779413 66.22706604 334.80860901 C63.24441333 337.23054453 60.57875117 339.96305685 57.875 342.6875 C57.33875 343.21988281 56.8025 343.75226563 56.25 344.30078125 C53.58458385 346.44659515 53.58458385 346.44659515 52.375 349.3125 C72.93327357 349.40605653 93.49151189 349.47653463 114.04995537 349.51974869 C123.59620161 349.54034954 133.14231537 349.56842266 142.68847656 349.61425781 C151.01161037 349.65420155 159.33464819 349.67995081 167.65787518 349.68885398 C172.0625536 349.69405599 176.4669575 349.70623066 180.8715477 349.73542023 C185.02316458 349.76270863 189.17439562 349.77091809 193.32609367 349.76493073 C194.84416874 349.76602499 196.36225763 349.77389876 197.88025475 349.7893219 C209.64919121 349.90296225 218.88822823 348.46057947 227.6875 340.17578125 C230.20583261 337.39512232 231.74431859 334.69929984 233.375 331.3125 C233.9628125 330.136875 233.9628125 330.136875 234.5625 328.9375 C237.30632176 320.07284508 236.47226618 311.57546931 232.6875 303.125 C228.76712498 295.96416739 222.95110941 291.21797701 215.375 288.3125 C211.19561091 287.15342981 206.99314908 286.8571607 202.68310547 286.5324707 C201.80318971 286.4658319 200.92327394 286.3991931 200.01669407 286.33053493 C188.43913268 285.49266491 176.85199378 284.97265306 165.25 284.625 C164.13824024 284.59146801 163.02648048 284.55793602 161.88103104 284.52338791 C121.25922697 283.45024506 98.08673933 289.07687797 75.59936523 324.66235352 Z M219.29898071 367.80332947 C211.07623541 369.89482156 202.99735321 369.61313992 194.59130859 369.45922852 C192.82568089 369.43873638 191.06003368 369.41987161 189.29437256 369.40249634 C185.51304359 369.36360601 181.73192571 369.31678422 177.95075607 369.26471138 C171.95486367 369.18573227 165.95911339 369.14649322 159.96279907 369.11643982 C158.43865342 369.10856055 158.43865342 369.10856055 156.88371694 369.1005221 C154.80702641 369.0898804 152.73033537 369.07933818 150.65364385 369.06889331 C136.71232506 368.99737088 122.7725245 368.90107547 108.83251953 368.69213867 C99.40293519 368.55110464 89.97521597 368.47497012 80.54454672 368.47188514 C75.56660552 368.46771161 70.59371319 368.43170987 65.61701584 368.31585884 C41.82528187 366.85493813 41.82528187 366.85493813 21.30060768 376.78534603 C18.49270119 379.84757193 15.98235302 382.98085631 13.71492958 386.46279812 C11.99523809 388.83674122 10.27914478 390.1109845 7.39453125 390.75390625 C2.89338106 391.00087201 0.09607944 390.60231655 -3.375 387.625 C-5.83425802 385.23465909 -8.07822833 382.77256751 -10.22108173 380.10160351 C-15.03975788 374.35922346 -19.35142169 369.77813686 -27.05906618 368.85221064 C-31.20768551 368.62348554 -35.32351601 368.67621074 -39.4753418 368.77661133 C-41.34280077 368.77368417 -43.21025814 368.76499647 -45.07766724 368.7510376 C-50.1139634 368.7292489 -55.1465485 368.78660897 -60.18226218 368.85831285 C-65.46929414 368.91925827 -70.75611081 368.90440766 -76.04341125 368.89738464 C-86.05088999 368.89510969 -96.05684343 368.95707207 -106.06390458 369.0439536 C-120.7422798 369.16840669 -135.42089936 369.19375506 -150.09972095 369.22174358 C-152.27105531 369.2260452 -154.44238958 369.23039263 -156.61372375 369.23478699 C-158.20456031 369.23786024 -158.20456031 369.23786024 -159.82753497 369.24099559 C-166.10966408 369.25526205 -172.3913912 369.28722079 -178.67334974 369.33546889 C-182.58522825 369.36468654 -186.49713039 369.38646179 -190.40906143 369.40730286 C-192.21580152 369.41894589 -194.02252285 369.43416689 -195.82919884 369.45332909 C-204.65407324 369.54608254 -213.01108729 369.53638556 -221.625 367.3125 C-224.10099587 371.97158617 -223.78159696 375.22002085 -222.625 380.3125 C-219.97028221 386.83868123 -215.82075289 390.06191134 -209.625 393.3125 C-203.06475623 395.35484004 -197.80942652 394.45159277 -191.4375 392.3125 C-178.24756946 388.34133812 -162.15875055 388.26066456 -149.625 394.3125 C-145.45303738 396.6618209 -141.43361944 399.22281787 -137.44921875 401.875 C-126.90462942 408.80094627 -116.37593951 411.23775652 -103.875 408.76953125 C-97.73227342 406.55939483 -92.51081273 402.64668124 -87.17407227 398.9675293 C-73.5327358 389.66069317 -57.88555566 388.24625407 -41.77734375 390.9609375 C-34.02502168 393.16512142 -27.39747784 397.02295521 -20.625 401.3125 C-18.8370604 402.42269163 -17.0456001 403.52724149 -15.25 404.625 C-14.49976563 405.09550781 -13.74953125 405.56601562 -12.9765625 406.05078125 C-5.02500272 410.31714971 4.27262007 410.5781788 13.01171875 408.765625 C19.32031283 406.49495956 24.85742148 402.57315563 30.46777344 398.9675293 C44.65550472 389.92715554 59.55900916 388.43534223 76.08203125 390.85546875 C84.0841202 392.99942466 90.72377232 397.33066008 97.55078125 401.875 C108.09537058 408.80094627 118.62406049 411.23775652 131.125 408.76953125 C137.25738592 406.56311537 142.43622553 402.65210957 147.75341797 398.9675293 C152.9999135 395.39219415 158.23115824 392.99386117 164.375 391.3125 C164.98915771 391.13960449 165.60331543 390.96670898 166.23608398 390.78857422 C177.40592179 388.30242153 189.80211785 389.8623319 200.49609375 393.41015625 C207.24885578 395.5266936 213.14510377 394.49207359 219.375 391.3125 C224.48509998 388.06955193 226.74301081 384.71013446 228.828125 379.02734375 C229.7332812 374.53388975 228.73215234 370.62237567 227.375 366.3125 C224.28464978 366.3125 222.24307216 366.91506659 219.29898071 367.80332947 Z M-187.9375 412.3125 C-196.51902221 414.89971052 -204.73341929 414.67916312 -213.625 414.3125 C-213.98095423 436.88547464 -214.22585407 456.06776795 -197.625 473.3125 C-186.04248915 484.1381339 -172.02824824 486.61632645 -156.76679993 486.57992554 C-155.35847629 486.58366584 -153.95015474 486.58826887 -152.54183644 486.59365618 C-148.68564698 486.60585481 -144.82954449 486.60562943 -140.97334015 486.60326743 C-136.80889885 486.60285847 -132.64448513 486.61390606 -128.48005676 486.62338257 C-120.32595507 486.63997666 -112.17188231 486.64549141 -104.01776514 486.64660732 C-97.38715142 486.64755862 -90.75654722 486.65167297 -84.12593651 486.65800858 C-65.31361577 486.67561717 -46.50131782 486.68484812 -27.68898878 486.68334763 C-26.67537493 486.68326772 -25.66176107 486.6831878 -24.61743164 486.68310547 C-23.60257544 486.68302371 -22.58771923 486.68294195 -21.54210981 486.68285771 C-5.10051806 486.68204507 11.34098202 486.7011782 27.78254726 486.7293822 C44.67768523 486.7581348 61.57277853 486.77192117 78.46794158 486.77019465 C87.94800902 486.76953154 97.42798038 486.77498922 106.90802574 486.79655075 C114.98061189 486.81479389 123.0530584 486.81908426 131.12565627 486.8055319 C135.24073662 486.79901784 139.35554933 486.79882817 143.47060394 486.8162384 C147.24537406 486.83204399 151.019666 486.82903009 154.79442499 486.81167014 C156.79064263 486.80718148 158.78687555 486.82219863 160.7830345 486.83814943 C175.38516389 486.727362 188.66142456 482.29585006 199.46484375 472.30859375 C212.2132702 458.98661846 214.58218127 443.88998505 214.4375 426.25 C214.43073242 424.66541992 214.43073242 424.66541992 214.42382812 423.04882812 C214.41215918 420.46999092 214.39578885 417.89127706 214.375 415.3125 C213.52679688 415.28671875 212.67859375 415.2609375 211.8046875 415.234375 C205.24507814 414.91720707 199.69894295 414.27512955 193.4375 412.25 C183.72701109 409.27473235 173.36470071 408.47534627 163.95703125 412.84375 C160.09600755 415.0400358 156.40145604 417.48262155 152.70703125 419.94506836 C138.60653989 429.21390937 123.09619691 431.59111767 106.55859375 428.62890625 C97.45105578 425.98761064 89.45842726 421.47830545 81.6875 416.125 C72.55824275 410.02281226 64.17394789 409.38997681 53.375 410.3125 C45.95623061 411.80898996 40.10079117 416.42752251 33.99658203 420.6574707 C28.7500865 424.23280585 23.51884176 426.63113883 17.375 428.3125 C16.76156738 428.48539551 16.14813477 428.65829102 15.51611328 428.83642578 C-0.39234263 432.37365372 -16.25744344 428.45090871 -29.8359375 420.12109375 C-33.10118288 418.00371474 -36.32737611 415.83923082 -39.4921875 413.57421875 C-47.29280547 408.95956746 -57.62029745 409.09767578 -66.328125 410.859375 C-72.60505464 413.12248569 -78.13337194 417.0687838 -83.71801758 420.6574707 C-97.49703211 429.4384564 -112.36829719 431.5079176 -128.44140625 428.62890625 C-137.54894422 425.98761064 -145.54157274 421.47830545 -153.3125 416.125 C-164.18278126 408.84630552 -175.51314845 408.56653135 -187.9375 412.3125 Z " fill="#000000" transform="translate(255.625,2.6875)"/>
<path d="M0 0 C1.54059082 0.32726074 1.54059082 0.32726074 3.11230469 0.66113281 C51.67451266 11.52584842 101.63145239 38.09679454 129.0625 81.0625 C141.69112459 101.69790862 141.69112459 101.69790862 140.0625 111.0625 C137.53881975 114.73330764 135.89214117 115.82114984 131.625 117.0625 C127.29688283 117.0625 125.66193108 116.48319644 122.0625 114.0625 C119.93192568 111.06683806 118.3306822 107.84468327 116.6875 104.5625 C110.44861666 92.69149696 103.29802879 82.84129519 94.0625 73.0625 C93.06863281 71.97195312 93.06863281 71.97195312 92.0546875 70.859375 C80.13975431 58.26488289 65.24426148 49.1753851 50.0625 41.0625 C49.38171387 40.69672852 48.70092773 40.33095703 47.99951172 39.95410156 C29.22803857 30.0548102 8.49391005 24.05775149 -12.26904297 20.08935547 C-22.19830452 18.11734185 -22.19830452 18.11734185 -25.9375 14.0625 C-27.53836627 10.86076746 -27.43667089 7.53672941 -26.9375 4.0625 C-20.83180185 -5.50309377 -9.65530426 -2.05992841 0 0 Z " fill="#000000" transform="translate(312.9375,48.9375)"/>
<path d="M0 0 C2.75569447 2.18159145 4.43588747 3.87177494 6 7 C6.37387586 10.96308413 6.38935825 13.29915515 4.4375 16.8125 C1.30280083 19.62569156 -0.82493923 20.43389006 -5 21 C-9.00111604 19.86635046 -11.25762777 18.88605718 -13.9375 15.6875 C-15.22223005 12.43788871 -15.49566337 10.4696436 -15 7 C-11.13234277 0.16713889 -7.65736223 -1.21671386 0 0 Z " fill="#000000" transform="translate(214,128)"/>
<path d="M0 0 C2.75569447 2.18159145 4.43588747 3.87177494 6 7 C6.37387586 10.96308413 6.38935825 13.29915515 4.4375 16.8125 C1.30280083 19.62569156 -0.82493923 20.43389006 -5 21 C-9.00111604 19.86635046 -11.25762777 18.88605718 -13.9375 15.6875 C-15.22223005 12.43788871 -15.49566337 10.4696436 -15 7 C-11.13234277 0.16713889 -7.65736223 -1.21671386 0 0 Z " fill="#000000" transform="translate(114,128)"/>
<path d="M0 0 C3.67080764 2.52368025 4.75864984 4.17035883 6 8.4375 C6 12.53094236 5.22004022 14.59065251 3 18 C-1.01858595 20.6790573 -4.27641721 20.69610694 -9 20 C-11.87029869 18.20606332 -13.49131638 17.01736724 -15 14 C-15.5811138 6.91041162 -15.5811138 6.91041162 -13.125 3.0625 C-9.22556807 -0.72224276 -5.23389564 -0.78644028 0 0 Z " fill="#000000" transform="translate(285,135)"/>
<path d="M0 0 C3.02182284 2.05741129 4.69011377 3.49949825 5.4453125 7.15625 C5.65056702 11.26134032 5.33688603 13.46098235 3.125 17 C-0.14840013 20.08084718 -2.46126475 20.33387487 -6.9609375 20.29296875 C-10.13134567 19.83745033 -11.8192402 18.24684343 -14 16 C-15.73765543 12.52468913 -15.59585352 8.7911999 -15 5 C-10.58053726 -0.73335706 -6.94670018 -1.6767897 0 0 Z " fill="#000000" transform="translate(256,41)"/>
<path d="M0 0 C2.46810594 2.1516821 3.74159986 3.68402403 4.37890625 6.9296875 C4.60432912 10.78369142 4.24527155 12.61574124 2.125 15.9375 C-1.08262695 19.05078498 -3.40782126 19.40913011 -7.89453125 19.34375 C-11.78521443 18.70853642 -13.39157143 16.92652961 -16 14 C-17.41754037 10.16430254 -17.07293007 8.26892965 -16 4.3125 C-12.05358125 -2.22375605 -6.72894222 -3.04706818 0 0 Z " fill="#000000" transform="translate(164,92)"/>
<path d="M0 0 C3.10228981 2.89547049 3.74426434 5.82298419 4 10 C3.22047316 13.27401274 2.15616648 14.83005412 -0.125 17.3125 C-3.86524737 19.50786259 -6.75814428 19.87407936 -11 19 C-13.8100346 17.20636089 -15.50940468 15.98119065 -17 13 C-17.57268722 6.01321586 -17.57268722 6.01321586 -15.375 2.125 C-10.2957568 -2.41958602 -6.21608453 -2.5802615 0 0 Z " fill="#000000" transform="translate(242,92)"/>
</svg>
