<?xml version="1.0" encoding="UTF-8"?>
<svg version="1.1" xmlns="http://www.w3.org/2000/svg" width="512" height="512">
<path d="M0 0 C11.22511592 9.78472494 17.40357862 20.59497887 21 35 C21.17633469 35.6841951 21.35266937 36.3683902 21.53434753 37.07331848 C22.20615184 41.29568903 22.16448121 45.46769669 22.17700195 49.73706055 C22.18357315 50.71349518 22.19014435 51.68992981 22.19691467 52.69595337 C22.2166128 55.92620938 22.22830836 59.15641876 22.23828125 62.38671875 C22.24235678 63.4960206 22.2464323 64.60532246 22.25063133 65.74823952 C22.27148656 71.63041623 22.28578542 77.51256972 22.29516602 83.39477539 C22.30617295 89.42738526 22.34050811 95.45962043 22.38033772 101.49209881 C22.4066862 106.16545727 22.41487437 110.83872936 22.41844749 115.51215553 C22.42327386 117.73296423 22.43477266 119.95377013 22.45348549 122.17450523 C22.58672942 139.04868476 20.97692865 154.56160262 14.875 170.4375 C14.58206055 171.21134033 14.28912109 171.98518066 13.98730469 172.7824707 C6.46041586 191.99696677 -4.75324107 209.25431036 -18 225 C-18.41797852 225.5067627 -18.83595703 226.01352539 -19.26660156 226.53564453 C-30.33858027 239.95418627 -42.29321038 252.25404258 -56 263 C-57.70909604 264.43659311 -59.41740628 265.8741215 -61.125 267.3125 C-108.77006158 306.04505357 -167.20752559 326.90202206 -228 332 C-229.54119507 332.13027588 -229.54119507 332.13027588 -231.11352539 332.26318359 C-242.13690222 333.09930001 -253.13647183 333.24302058 -264.1875 333.25 C-265.63774063 333.25101212 -265.63774063 333.25101212 -267.11727905 333.25204468 C-315.96877879 333.19814638 -368.77571222 323.76882514 -407 291 C-407.53963379 290.53867676 -408.07926758 290.07735352 -408.63525391 289.60205078 C-432.21668322 269.18693476 -450.28522636 241.48361039 -454 210 C-454.15224985 206.48446317 -454.16723765 202.97186446 -454.17700195 199.45336914 C-454.18357315 198.41490845 -454.19014435 197.37644775 -454.19691467 196.30651855 C-454.21656121 192.88273025 -454.2282933 189.45898571 -454.23828125 186.03515625 C-454.24235678 184.85899687 -454.2464323 183.68283749 -454.25063133 182.47103691 C-454.27145897 176.24102838 -454.28577291 170.01104163 -454.29516602 163.78100586 C-454.30620121 157.38282013 -454.34057774 150.98498495 -454.38033772 144.58692265 C-454.40662912 139.6357107 -454.41486912 134.68458057 -454.41844749 129.73330498 C-454.42328398 127.37687256 -454.43481277 125.02044306 -454.45348549 122.66407967 C-454.64709987 96.6041614 -449.63563394 73.37685817 -431.25 53.75 C-406.25365035 30.33132923 -371.36438673 24.75696245 -338.375 24.875 C-337.71271393 24.87588623 -337.05042786 24.87677246 -336.36807251 24.87768555 C-328.9606454 24.88926156 -321.5784447 24.97659315 -314.1875 25.5 C-260.74037262 29.17004912 -213.30745238 19.8994839 -165.25 -3.6875 C-118.0551857 -26.76743499 -43.66756897 -37.24586765 0 0 Z M-169 15 C-207.08139924 33.12153541 -245.65060731 41.27123781 -287.8125 41.125 C-288.56133453 41.12411377 -289.31016907 41.12322754 -290.08169556 41.12231445 C-298.1284565 41.11117455 -306.15716882 41.06811329 -314.1875 40.5 C-334.79237781 39.08461224 -355.67928958 39.02749779 -376 43 C-376.69432129 43.13390137 -377.38864258 43.26780273 -378.10400391 43.40576172 C-392.81502498 46.40171146 -406.96101581 52.75096147 -418 63 C-419.03833984 63.88558594 -419.03833984 63.88558594 -420.09765625 64.7890625 C-431.76172632 75.35190052 -438.31090078 91.83024855 -439.12475586 107.38427734 C-440.06905355 139.98461073 -429.65088596 165.01897385 -408 189 C-407.33355469 189.73863281 -406.66710937 190.47726562 -405.98046875 191.23828125 C-374.07881515 224.75180788 -323.1359747 237.12381477 -278.51844788 238.233078 C-255.86310533 238.67483861 -233.47889957 237.9351933 -211 235 C-209.38472412 234.79117188 -209.38472412 234.79117188 -207.73681641 234.578125 C-139.19423208 225.32053662 -70.95089201 187.61109981 -28 133 C-27.20851563 132.02546875 -26.41703125 131.0509375 -25.6015625 130.046875 C-5.69376222 105.05222355 9.82773494 74.70982388 7 42 C4.66530348 29.22549577 -2.01806556 17.21913143 -12.5625 9.5 C-60.7796603 -22.64477354 -120.96352483 -7.96394867 -169 15 Z M6 108 C5.56171875 108.81339844 5.1234375 109.62679687 4.671875 110.46484375 C-3.64109822 125.48564293 -13.56733171 139.20406459 -25 152 C-25.46293457 152.51933105 -25.92586914 153.03866211 -26.40283203 153.57373047 C-34.797653 162.94867216 -43.35777223 171.88815625 -53.203125 179.76171875 C-55.00179385 181.20115625 -56.78465305 182.66069712 -58.546875 184.14453125 C-124.40521608 239.52540897 -210.99463213 257.49824907 -295.18359375 251.49609375 C-342.96398585 247.28197037 -391.07274521 230.86007881 -423.54296875 194.08203125 C-428.0151691 188.47222827 -431.99011405 182.5179948 -435.921875 176.52124023 C-437.05283895 174.83513018 -437.05283895 174.83513018 -439 173 C-439.07537299 177.7098458 -439.12916471 182.41932425 -439.16479492 187.12963867 C-439.17968159 188.72475312 -439.19999768 190.31982817 -439.22631836 191.91479492 C-439.44660569 205.62876126 -438.45785305 218.742238 -432.875 231.5 C-432.57424561 232.20229736 -432.27349121 232.90459473 -431.96362305 233.62817383 C-426.01249684 247.10033666 -417.95635077 258.21455153 -408 269 C-407.31164062 269.75925781 -406.62328125 270.51851562 -405.9140625 271.30078125 C-374.79097769 304.06537897 -324.76065685 316.82362018 -281.11767578 318.16845703 C-257.60476308 318.75302573 -234.33201107 318.04658875 -211 315 C-209.38472412 314.79117188 -209.38472412 314.79117188 -207.73681641 314.578125 C-155.39773859 307.50903586 -106.66950346 284.34458862 -66 251 C-65.14607666 250.30269775 -65.14607666 250.30269775 -64.27490234 249.59130859 C-50.93706777 238.62999262 -38.56944446 226.67926239 -28 213 C-27.21496094 212.03191406 -26.42992187 211.06382812 -25.62109375 210.06640625 C-5.27112068 184.75517547 7.49982696 156.5249921 7.125 123.8125 C7.11494397 122.27279232 7.10582279 120.73307824 7.09765625 119.19335938 C7.07586468 115.46210413 7.04148142 111.73109446 7 108 C6.67 108 6.34 108 6 108 Z " fill="#000000" transform="translate(472,101)"/>
<path d="M0 0 C5.81225023 5.59055578 10.18713075 12.22827175 14.6875 18.875 C25.91523729 35.2419038 38.00644739 41.50419313 56.9375 47.1875 C58.1754834 47.56648438 59.4134668 47.94546875 60.68896484 48.3359375 C70.17598227 51.21897025 79.73496059 53.81257218 89.3125 56.375 C99.81687746 59.188689 110.22702344 62.1697518 120.5625 65.5625 C122.16472412 66.07876953 122.16472412 66.07876953 123.79931641 66.60546875 C133.46001968 69.85286734 143.7514915 74.08795555 150.5 82 C152.28456378 86.32052284 152.32524774 90.26986805 151.6875 94.875 C148.16676131 102.83493094 140.38814933 106.34289178 132.69262695 109.43237305 C71.00745018 132.85753498 -8.50906524 138.01851696 -69.5637207 110.75292969 C-83.33795012 104.37584381 -95.40206709 96.46509205 -106.3125 85.875 C-107.06917969 85.19179688 -107.82585937 84.50859375 -108.60546875 83.8046875 C-122.97475865 70.39994546 -131.95835332 51.15891785 -132.71704102 31.5144043 C-132.91105874 18.55258341 -129.38854391 7.76115174 -120.640625 -1.98828125 C-91.19017407 -30.36895084 -29.87836334 -25.03825463 0 0 Z M-111.25 10.75 C-117.4954411 18.57153118 -118.12739846 26.01587639 -117.3125 35.875 C-114.51707323 55.29188326 -102.50027491 70.6544674 -87.51953125 82.5390625 C-56.12142524 105.40881572 -16.5635714 113.12158241 21.625 113.0625 C22.71323563 113.06159363 22.71323563 113.06159363 23.82345581 113.06066895 C35.87320896 113.03354216 47.74476034 112.55694726 59.6875 110.875 C60.60692383 110.74609375 61.52634766 110.6171875 62.47363281 110.484375 C87.1933176 106.8996473 113.32182334 102.48124201 135.6875 90.875 C134.98125713 87.64825547 134.98125713 87.64825547 132.00390625 86.33203125 C130.76003404 85.76719769 129.50778367 85.22063718 128.25 84.6875 C127.54101562 84.38489258 126.83203125 84.08228516 126.1015625 83.77050781 C107.16893654 75.97237309 86.92068438 71.19007861 67.17382812 65.90722656 C59.04454846 63.72037477 50.97491947 61.41485721 42.9765625 58.78515625 C42.26133423 58.55279266 41.54610596 58.32042908 40.8092041 58.08102417 C20.93132981 51.39887262 10.11484534 39.53954569 -1.4765625 22.73828125 C-13.32696712 5.81250413 -28.40434827 -0.17780557 -48.0234375 -3.8125 C-69.02656267 -7.15074506 -95.75931577 -5.74321286 -111.25 10.75 Z " fill="#000000" transform="translate(194.3125,185.125)"/>
<path d="M0 0 C9.15277466 8.70796692 13.42942946 18.48910568 13.93188477 31.1262207 C14.27827659 53.98038338 3.05950098 75.54461968 -12.31079102 91.98657227 C-26.5362904 106.56925943 -44.43162173 110.61769116 -64.21337891 111.03515625 C-106.859776 111.33009567 -166.89056031 96.47669256 -198.47265625 66.05078125 C-202.79211764 61.03980516 -204.79828018 56.82613285 -204.6875 50.10546875 C-204.08291868 44.32347284 -200.54295228 40.83574895 -196.47265625 37.05078125 C-184.89603276 28.7792123 -170.53849095 27.34408692 -156.90527344 24.72851562 C-133.52736581 20.11279219 -113.10349199 10.6854316 -92.22070312 -0.5144043 C-64.200615 -15.41436466 -26.89236388 -21.1995096 0 0 Z M-92.47543335 16.79724121 C-116.3615129 29.45698988 -139.8999542 37.67811968 -166.70629883 41.93847656 C-174.81448118 43.31203209 -183.03017762 45.78661819 -189.47265625 51.05078125 C-186.02258291 58.79109047 -178.33108573 62.57976799 -171.09765625 66.30078125 C-169.7360437 67.00521362 -169.7360437 67.00521362 -168.34692383 67.72387695 C-138.51113932 82.81513007 -104.77505978 95.19796891 -71.04174805 95.29101562 C-68.93952707 95.30064669 -66.83831751 95.33169836 -64.73632812 95.36328125 C-48.68854652 95.489847 -35.47230591 92.8347277 -23.41015625 81.55078125 C-11.20108593 68.78500804 -1.57219799 51.25144166 -1.09765625 33.36328125 C-1.2430128 28.02300797 -1.91464112 23.75087409 -4.47265625 19.05078125 C-4.78976562 18.4475 -5.106875 17.84421875 -5.43359375 17.22265625 C-9.86859565 9.98825599 -17.99152176 6.02113956 -25.921875 3.640625 C-51.20577332 -2.20603449 -70.40229963 5.05365837 -92.47543335 16.79724121 Z " fill="#000000" transform="translate(434.47265625,129.94921875)"/>
<path d="M0 0 C26.31649627 4.53495758 54.81945835 3.29352647 80.83764648 -2.52636719 C84.1323561 -3.09399224 86.77832926 -2.80775414 89.97460938 -1.89453125 C91.97460938 -0.26953125 91.97460938 -0.26953125 92.97460938 2.10546875 C92.76426626 8.10024761 92.76426626 8.10024761 90.68139648 10.75170898 C88.68012671 12.3390414 87.29189014 12.73084394 84.79101562 13.203125 C83.95739502 13.36393555 83.12377441 13.52474609 82.26489258 13.69042969 C81.36472412 13.84801758 80.46455566 14.00560547 79.53710938 14.16796875 C78.5911792 14.3371582 77.64524902 14.50634766 76.6706543 14.68066406 C48.94234715 19.47646225 19.70068754 20.40730152 -8.02539062 15.10546875 C-8.7250293 14.97736816 -9.42466797 14.84926758 -10.14550781 14.71728516 C-21.32664505 12.62594775 -21.32664505 12.62594775 -24.02539062 9.10546875 C-24.88275679 6.00576031 -25.28417947 3.95241408 -24.33789062 0.85546875 C-19.22140462 -5.96651259 -7.29095549 -1.29988792 0 0 Z " fill="#000000" transform="translate(179.025390625,384.89453125)"/>
<path d="M0 0 C2.5 2.0625 2.5 2.0625 4 5 C4 8.625 4 8.625 3 12 C-1.69631998 16.37067764 -8.29575688 17.71220347 -14.25 19.6875 C-15.45269531 20.10322266 -16.65539062 20.51894531 -17.89453125 20.94726562 C-24.09326622 23.01918088 -29.44792113 24.79090183 -36 24 C-38.5625 21.9375 -38.5625 21.9375 -40 19 C-40 15.375 -40 15.375 -39 12 C-36.36213303 9.60640674 -33.91798366 8.46187843 -30.515625 7.5 C-29.23558594 7.12875 -29.23558594 7.12875 -27.9296875 6.75 C-27.04539062 6.5025 -26.16109375 6.255 -25.25 6 C-17.84845808 3.89630131 -17.84845808 3.89630131 -10.59375 1.34375 C-6.68696734 -0.117047 -4.12629265 -0.63481425 0 0 Z " fill="#000000" transform="translate(328,364)"/>
</svg>
