<?xml version="1.0" encoding="UTF-8"?>
<svg version="1.1" xmlns="http://www.w3.org/2000/svg" width="512" height="512">
<path d="M0 0 C8.23435115 6.75681637 13.35884245 14.271797 14.6875 25 C15.05719703 30.78945555 13.84998968 35.66354495 12.05078125 41.14453125 C11.58925174 45.90967356 14.19472107 49.28851529 17.06755066 52.91166687 C20.20417939 56.49973911 23.54295898 59.90607498 26.87329102 63.3137207 C28.08131272 64.56140831 29.27486886 65.82326812 30.45336914 67.09887695 C37.26899147 74.83962024 37.26899147 74.83962024 46.34106445 79.0234375 C49.74397128 79.06545945 49.74397128 79.06545945 52.88183594 78.59936523 C59.98643338 77.73396866 65.82236335 80.91378872 71.28100586 85.12304688 C77.63658709 90.59816046 83.36083425 96.80473389 89.20117188 102.81762695 C90.97395508 104.63883252 92.7559774 106.4506066 94.5390625 108.26171875 C95.07359039 108.81800461 95.60811829 109.37429047 96.15884399 109.94743347 C101.27830946 115.13341479 105.93360327 117.50254078 113.30859375 118.05859375 C114.56978027 118.16333008 115.8309668 118.26806641 117.13037109 118.37597656 C117.79188171 118.42629028 118.45339233 118.476604 119.13494873 118.52844238 C122.63616047 118.79976052 126.1324221 119.12320612 129.62890625 119.44921875 C130.32761841 119.51428619 131.02633057 119.57935364 131.74621582 119.64639282 C177.23626887 123.99783018 222.11529431 141.13063372 256.75 171.25 C257.71292969 172.07886719 258.67585938 172.90773438 259.66796875 173.76171875 C271.72778646 184.34514377 284.04439789 197.33646672 290.60766602 212.19116211 C291.56865694 214.41193335 291.56865694 214.41193335 293.75 217.25 C296.72007215 217.86942681 298.7359924 218.04322662 301.6875 217.9375 C317.59294998 218.13629689 329.90314588 224.00374221 341.4296875 234.84375 C350.24293065 243.98340956 355.07456415 254.70464068 356.75 267.25 C357.30266037 267.24111755 357.85532074 267.23223511 358.42472839 267.2230835 C364.18351892 267.13450094 369.94211551 267.07422079 375.70141602 267.03027344 C377.8499335 267.01017414 379.9983964 266.98289007 382.14672852 266.94824219 C385.23727905 266.89965087 388.32710555 266.87701421 391.41796875 266.859375 C392.37648239 266.83872986 393.33499603 266.81808472 394.32255554 266.79681396 C398.43470978 266.79543439 401.1553764 266.96184868 404.89575195 268.77441406 C407.00393647 271.58902775 407.41807434 273.52795048 407.18319702 277.03265381 C406.36607453 281.21514666 404.49782804 284.80889657 402.55078125 288.5703125 C402.11871872 289.43260468 401.68665619 290.29489685 401.24150085 291.18331909 C400.32849135 292.9973036 399.40774727 294.80741358 398.47973633 296.61376953 C397.06759568 299.36507197 395.68145295 302.12829839 394.29882812 304.89453125 C393.40515036 306.66221977 392.51001586 308.42917273 391.61328125 310.1953125 C391.20161209 311.01419952 390.78994293 311.83308655 390.36579895 312.67678833 C386.98530275 319.22213023 383.4386591 324.67702437 376.9375 328.5 C376.14730469 328.97953125 375.35710937 329.4590625 374.54296875 329.953125 C367.73668639 333.11352464 361.30362746 333.4850077 353.9375 333.625 C340.40757887 334.13735672 329.98783429 337.89564944 320.24829102 347.77294922 C316.36945845 352.05933806 313.82682746 356.57567875 311.3125 361.75 C305.89973012 372.36285054 300.22485705 378.42504765 288.75 382.25 C287.20071385 382.34359927 285.64770941 382.3808861 284.09560204 382.38422108 C282.65284198 382.39090784 282.65284198 382.39090784 281.18093526 382.39772969 C280.12191114 382.39754533 279.06288701 382.39736097 277.97177124 382.39717102 C276.84849761 382.40084771 275.72522397 382.4045244 274.56791174 382.4083125 C270.78403947 382.41937214 267.00019463 382.42319706 263.21630859 382.42700195 C260.5112891 382.43273177 257.80627374 382.4398986 255.10125732 382.44691467 C246.96891598 382.46667898 238.83657339 382.47674574 230.70421404 382.48564246 C226.87400223 382.49002585 223.0437918 382.49539257 219.21358109 382.50063133 C206.47976404 382.51764439 193.74594786 382.53213801 181.0121212 382.53938007 C177.7074623 382.54128995 174.40280341 382.54321029 171.09814453 382.54516602 C170.27679215 382.54564976 169.45543977 382.5461335 168.60919793 382.5466319 C155.3073142 382.5549301 142.00552047 382.58026311 128.70367603 382.61274669 C115.0450759 382.64582933 101.38652148 382.66382996 87.72788107 382.66702431 C80.05984711 382.66918841 72.39194433 382.67792224 64.72394943 382.70348549 C58.19262609 382.72520906 51.6614658 382.73323485 45.13011043 382.72351871 C41.79923321 382.71897848 38.4689646 382.72303161 35.13808823 382.74028015 C31.52181883 382.75795783 27.90640048 382.75091194 24.29013062 382.73774719 C23.24449082 382.74871644 22.19885102 382.75968568 21.12152517 382.77098733 C11.41053843 382.68573916 4.51421512 379.63129129 -2.54296875 373.01953125 C-5.61274633 369.83735907 -7.65332812 366.51205143 -9.5390625 362.5234375 C-15.6202618 349.67812348 -23.88270818 340.606217 -37.4765625 335.5859375 C-42.39553734 334.01952856 -47.05824867 333.81945399 -52.1875 333.75 C-63.06133192 333.37847492 -72.99590147 332.06505073 -81.25 324.25 C-87.16343132 316.88037769 -91.17295761 308.03007586 -95.39306641 299.62963867 C-96.6279531 297.18164588 -97.88585974 294.74637733 -99.14453125 292.31054688 C-99.93894192 290.73770662 -100.73195989 289.164162 -101.5234375 287.58984375 C-102.08579605 286.51294533 -102.08579605 286.51294533 -102.65951538 285.41429138 C-105.10298079 280.46230683 -106.05859667 276.77806488 -105.25 271.25 C-103.13909717 268.43175712 -101.5516661 267.44360665 -98.0562439 266.92370605 C-95.33265626 266.78473091 -92.64443701 266.80065041 -89.91796875 266.859375 C-88.92622147 266.86503479 -87.93447418 266.87069458 -86.91267395 266.87652588 C-83.75378586 266.89886656 -80.59604364 266.94905962 -77.4375 267 C-75.29233412 267.02006794 -73.14715041 267.0383182 -71.00195312 267.0546875 C-65.75091297 267.09872355 -60.50053836 267.1656125 -55.25 267.25 C-55.26369629 266.01193604 -55.27739258 264.77387207 -55.29150391 263.49829102 C-55.2900276 260.67314513 -55.20862733 258.04377707 -54.5859375 255.27734375 C-54.43680908 254.61331543 -54.28768066 253.94928711 -54.1340332 253.26513672 C-53.96605225 252.5795166 -53.79807129 251.89389648 -53.625 251.1875 C-53.44606201 250.45289551 -53.26712402 249.71829102 -53.08276367 248.96142578 C-46.23694059 222.11517399 -29.466896 197.93676799 -5.49902344 183.64160156 C3.22183076 178.66129939 12.39099672 174.85228963 21.75 171.25 C21.22043701 170.47398437 20.69087402 169.69796875 20.14526367 168.8984375 C18.16494994 165.98798628 16.19226543 163.07265308 14.22436523 160.15380859 C13.37478242 158.89692246 12.522297 157.64199284 11.66674805 156.38916016 C0.26385042 139.68088634 0.26385042 139.68088634 0.5 129.125 C0.51546875 127.96742188 0.5309375 126.80984375 0.546875 125.6171875 C0.75 122.25 0.75 122.25 1.62402344 119.45678711 C2.0900922 116.01749116 2.0900922 116.01749116 -0.59570312 113.0144043 C-1.72177746 111.8489064 -2.86852782 110.70315892 -4.03125 109.57421875 C-4.63755249 108.96359085 -5.24385498 108.35296295 -5.86853027 107.72383118 C-7.15483765 106.43714256 -8.44990589 105.15916145 -9.75292969 103.8894043 C-11.73803852 101.94919095 -13.68627112 99.97686634 -15.6328125 97.99804688 C-16.8885604 96.75052251 -18.14631118 95.50501035 -19.40625 94.26171875 C-19.98572388 93.67323654 -20.56519775 93.08475433 -21.16223145 92.47843933 C-25.01286599 88.77916036 -27.70402588 87.36133336 -33.25 87.25 C-34.301875 87.559375 -35.35375 87.86875 -36.4375 88.1875 C-45.84048824 90.80800492 -54.57175288 89.55569426 -63.25 85.25 C-71.11811895 80.64094592 -77.21825474 73.78689377 -79.77734375 64.9296875 C-81.8869494 52.96944389 -80.32549878 43.00320989 -73.5625 33 C-68.1813138 26.30401515 -61.6035323 22.76882405 -53.25 21.25 C-53.14816406 20.3734375 -53.04632813 19.496875 -52.94140625 18.59375 C-51.29584601 10.63556035 -45.8990102 3.87032213 -39.23046875 -0.60546875 C-27.07862583 -7.62813143 -11.73814099 -8.3302936 0 0 Z M-35.0625 17.25 C-37.73163096 21.36117822 -38.6025927 25.92494711 -39.57421875 30.67578125 C-40.25 33.25 -40.25 33.25 -42.25 35.25 C-44.38671875 35.7421875 -44.38671875 35.7421875 -46.9375 36.125 C-53.46118264 37.36581572 -58.13275633 39.27403728 -62.1875 44.8125 C-64.99666308 49.79829938 -65.14873041 54.67454282 -64.25 60.25 C-62.22911804 66.07615969 -58.26072748 69.62257974 -52.9375 72.5 C-47.96497193 73.88768225 -43.69251815 73.66964164 -38.8125 72.25 C-32.62730604 70.5138052 -26.41390109 70.38612557 -20.44702148 73.00683594 C-11.7467317 77.92981356 -4.6043245 86.76596719 2.375 93.8125 C3.28378906 94.72580078 4.19257812 95.63910156 5.12890625 96.58007812 C7.33827955 98.80107971 9.54526031 101.02440033 11.75 103.25 C14.68230193 101.92879172 16.73664899 100.50361803 18.984375 98.2109375 C19.55800781 97.63085938 20.13164063 97.05078125 20.72265625 96.453125 C21.30917969 95.84984375 21.89570312 95.2465625 22.5 94.625 C23.10199219 94.01398438 23.70398438 93.40296875 24.32421875 92.7734375 C25.80405305 91.27011376 27.27764676 89.76065144 28.75 88.25 C27.11802645 84.01680972 23.95470848 81.27178448 20.75390625 78.19921875 C19.54334293 77.01395458 18.33306539 75.82839847 17.12304688 74.64257812 C15.21992603 72.7889909 13.3137893 70.93874416 11.40209961 69.09399414 C9.55205252 67.30469843 7.71493018 65.50288583 5.87890625 63.69921875 C5.31007217 63.15730392 4.7412381 62.6153891 4.15516663 62.05705261 C-0.27614137 57.68183342 -2.86169214 53.52347703 -3.61328125 47.1875 C-3.53614608 42.72552732 -3.43004201 38.87485168 -2.1875 34.5625 C-0.58614524 28.90437984 -1.239076 24.19696475 -3.9375 19 C-7.60779481 14.63532509 -11.29223197 10.72618116 -17.23046875 10.01171875 C-24.49146996 9.76754349 -30.33174818 11.47424628 -35.0625 17.25 Z M36.203125 102.43359375 C35.705849 102.93037125 35.208573 103.42714874 34.69622803 103.9389801 C33.65405872 104.98347578 32.61554582 106.03163144 31.58056641 107.08325195 C29.99930772 108.68820266 28.40504225 110.27931334 26.80859375 111.86914062 C19.23648469 118.98396635 19.23648469 118.98396635 16 128.5 C16.1615784 135.4074764 20.01626516 140.36031071 23.82421875 145.84765625 C25.92591534 148.88175193 27.61756484 151.9162419 29.20703125 155.24609375 C31.72966219 160.21701771 34.15378757 164.9210907 38.75 168.25 C45.87789656 170.43020746 53.45383891 169.68999407 60.80664062 169.32617188 C84.84458231 168.70408845 109.27215988 182.76104922 126.28613281 198.68798828 C137.20284978 209.37651906 144.99992754 222.13939274 150.75 236.25 C151.12898437 237.178125 151.50796875 238.10625 151.8984375 239.0625 C155.37308607 248.46756379 156.12087879 256.93223232 157.75 267.25 C185.8 267.25 213.85 267.25 242.75 267.25 C244.18994185 262.93306512 244.18994185 262.93306512 245.609375 258.609375 C251.19851949 242.23416221 260.69312091 231.02662815 276.11328125 223.0234375 C276.65339844 222.76820313 277.19351562 222.51296875 277.75 222.25 C273.17569399 213.82209857 268.05509931 206.46618099 261.75 199.25 C260.95464844 198.32058594 260.15929687 197.39117187 259.33984375 196.43359375 C253.65437492 189.95522277 247.57610902 184.49651354 240.75 179.25 C239.81414062 178.51007813 238.87828125 177.77015625 237.9140625 177.0078125 C203.14122059 150.06585188 160.00697737 137.44940826 116.64697266 134.32446289 C96.68386157 132.78239323 86.96137728 123.90124594 73.5 110 C71.02437536 107.44439364 68.5388234 104.89905506 66.046875 102.359375 C65.4884491 101.77605408 64.93002319 101.19273315 64.35467529 100.59173584 C60.30602426 96.4675497 57.21658856 94.47423532 51.3125 93.9375 C44.69494844 94.51798698 40.7781678 97.84371775 36.203125 102.43359375 Z M8.75 194.25 C7.44482422 194.94416016 7.44482422 194.94416016 6.11328125 195.65234375 C-16.84062659 208.66075934 -30.79160201 229.19160688 -38.05859375 254.01171875 C-39.19542736 258.62961529 -39.25 262.38470044 -39.25 267.25 C12.23 267.25 63.71 267.25 116.75 267.25 C116.11340244 260.71427775 116.11340244 260.71427775 115.36328125 254.19140625 C115.26402344 253.40636719 115.16476563 252.62132812 115.0625 251.8125 C114.90201172 250.60787109 114.90201172 250.60787109 114.73828125 249.37890625 C114.75 247.25 114.75 247.25 116.75 244.25 C120.79007043 243.35220657 123.79876272 243.10118211 127.75 244.25 C128.40035371 246.76974253 129.04537493 249.29065935 129.6875 251.8125 C129.86990234 252.51697266 130.05230469 253.22144531 130.24023438 253.94726562 C131.3615514 258.37137098 132.18456329 262.72055438 132.75 267.25 C136.05 267.25 139.35 267.25 142.75 267.25 C139.23267094 242.04247506 128.41675088 218.94589301 107.84765625 203 C78.4674486 181.91747524 41.17462763 176.93082139 8.75 194.25 Z M266.75 249.25 C262.77416455 255.08286147 260.70035281 260.42376516 258.75 267.25 C285.81 267.25 312.87 267.25 340.75 267.25 C337.26961513 255.64871711 332.60054826 246.00857255 321.953125 239.5546875 C302.14686764 229.14886193 281.93633615 232.5653464 266.75 249.25 Z M-84.25 283.25 C-82.23947392 289.28157824 -79.74764925 294.69499049 -76.9375 300.375 C-76.46376953 301.36371094 -75.99003906 302.35242188 -75.50195312 303.37109375 C-72.54642303 309.34684406 -70.19403842 313.36383511 -64.00759888 316.3223877 C-60.76170379 317.41425506 -58.09537803 317.51544442 -54.67138672 317.53710938 C-52.70442337 317.55723083 -52.70442337 317.55723083 -50.69772339 317.57775879 C-49.65445704 317.58160332 -49.65445704 317.58160332 -48.59011459 317.58552551 C-46.40439322 317.59384629 -44.21908332 317.61437732 -42.03347778 317.63806152 C-36.60895483 317.69434117 -31.18433225 317.72971181 -25.75964355 317.76568604 C-21.16762444 317.79692345 -16.57580756 317.83609581 -11.98395157 317.88594055 C-9.83073476 317.90600725 -7.67767434 317.91432606 -5.52438354 317.92224121 C-3.56687668 317.94236267 -3.56687668 317.94236267 -1.56982422 317.96289062 C-0.41908417 317.97018188 0.73165588 317.97747314 1.91726685 317.98498535 C4.75 318.25 4.75 318.25 7.75 320.25 C8.62113444 324.17010499 9.12871915 327.42022458 7.75 331.25 C4.18928688 332.29882391 0.69472103 332.55386953 -3 332.8125 C-4.17046875 332.89628906 -5.3409375 332.98007812 -6.546875 333.06640625 C-7.43890625 333.12699219 -8.3309375 333.18757813 -9.25 333.25 C-8.89808594 333.69988281 -8.54617187 334.14976562 -8.18359375 334.61328125 C-2.90538158 341.49011643 2.19884127 348.62550849 5.75 356.5625 C7.77074659 360.79561571 10.79984451 363.74650233 14.75 366.25 C17.66905593 367.14989993 20.2992977 367.37666129 23.34562397 367.38142776 C24.2688877 367.38526891 25.19215144 367.38911005 26.14339286 367.3930676 C27.15417701 367.39220112 28.16496115 367.39133463 29.20637512 367.39044189 C30.82117996 367.39489858 30.82117996 367.39489858 32.46860713 367.3994453 C36.08821008 367.40814054 39.70778 367.40964124 43.32739258 367.41113281 C45.91757783 367.41576036 48.5077624 367.42078494 51.09794617 367.42617798 C58.14340744 367.43975468 65.18886301 367.44578488 72.23433518 367.45018864 C76.63388772 367.45295197 81.03343807 367.45718947 85.43298912 367.46169281 C97.61526381 367.4738842 109.79753674 367.48418404 121.97981739 367.4875679 C123.14913932 367.48789725 123.14913932 367.48789725 124.34208391 367.48823325 C125.12348957 367.48845153 125.90489522 367.48866981 126.70997983 367.4888947 C128.29338825 367.48933817 129.87679666 367.48978473 131.46020508 367.49023438 C132.2456292 367.4904558 133.03105332 367.49067723 133.84027817 367.49090537 C146.56791196 367.49485368 159.2954885 367.51230928 172.02310017 367.5355939 C185.09185631 367.55930958 198.16058371 367.57176984 211.22936171 367.57293582 C218.5664152 367.57385242 225.90339408 367.57960089 233.24042702 367.59775543 C240.14080723 367.61476947 247.04104363 367.61640742 253.94143867 367.60761642 C256.47505828 367.60684433 259.0086854 367.61121137 261.54228592 367.62107468 C264.99925179 367.63374419 268.45571186 367.6279441 271.91267395 367.61749268 C273.41881192 367.62957728 273.41881192 367.62957728 274.95537692 367.64190602 C281.34701199 367.5966687 286.35422166 366.91758079 291.53515625 362.84765625 C294.50772905 359.27511463 296.57582521 355.70803918 298.5625 351.5 C301.29937753 345.71241631 304.81121704 341.15463579 308.9921875 336.33203125 C310.85751774 334.57679139 310.85751774 334.57679139 310.75 333.25 C309.88970373 333.24503478 309.88970373 333.24503478 309.01202774 333.23996925 C295.05736106 333.15875223 281.10280437 333.06653871 267.14828873 332.96247292 C260.39998898 332.91234907 253.65170138 332.86590617 246.90332031 332.828125 C240.39343334 332.79166872 233.88366715 332.74495952 227.37389374 332.69193649 C224.88757384 332.67337269 222.40122565 332.65827212 219.91486359 332.64665604 C216.4382215 332.6298278 212.96188288 332.60080048 209.48535156 332.56884766 C208.45244995 332.56668747 207.41954834 332.56452728 206.35534668 332.56230164 C205.40746277 332.55113815 204.45957886 332.53997467 203.48297119 332.5284729 C202.66073185 332.52294214 201.83849251 332.51741138 200.99133682 332.51171303 C198.48995871 332.21963589 196.87779552 331.58398477 194.75 330.25 C193.22508002 327.20016004 193.51437452 324.6076631 193.75 321.25 C194.85256672 319.55058193 194.85256672 319.55058193 196.75 318.25 C199.68928051 317.87641239 199.68928051 317.87641239 203.3589325 317.87818909 C204.03372093 317.87436452 204.70850937 317.87053996 205.40374595 317.8665995 C207.67000773 317.85729706 209.93566134 317.86931651 212.2019043 317.88110352 C213.82481643 317.87863612 215.44772697 317.87479834 217.07063293 317.86968994 C220.56887293 317.86134236 224.06695021 317.86216777 227.56519127 317.86987495 C233.09991882 317.88144606 238.63443659 317.86930419 244.16914368 317.85325623 C257.92083462 317.81703697 271.67252108 317.8108292 285.42425537 317.81335449 C296.10285402 317.81506654 306.78128163 317.80791017 317.45983249 317.77337593 C322.95802157 317.75659861 328.4557935 317.75836302 333.9539808 317.77419865 C337.38185748 317.78000769 340.80953771 317.76923326 344.23737907 317.75395203 C345.82238929 317.75023466 347.40743286 317.75330819 348.99241257 317.76382256 C360.45703946 317.8565282 360.45703946 317.8565282 370.75 313.25 C372.48305574 311.58368063 372.48305574 311.58368063 373.41796875 309.6484375 C373.80259277 308.95331055 374.1872168 308.25818359 374.58349609 307.54199219 C375.16091553 306.40745605 375.16091553 306.40745605 375.75 305.25 C376.18521973 304.42918945 376.62043945 303.60837891 377.06884766 302.76269531 C378.43362073 300.1490493 379.75322119 297.51683368 381.0625 294.875 C381.51689453 293.97394531 381.97128906 293.07289063 382.43945312 292.14453125 C382.86806641 291.28472656 383.29667969 290.42492187 383.73828125 289.5390625 C384.12540283 288.76256348 384.51252441 287.98606445 384.91137695 287.18603516 C385.88249251 285.29577315 385.88249251 285.29577315 385.75 283.25 C230.65 283.25 75.55 283.25 -84.25 283.25 Z " fill="#000000" transform="translate(105.25,129.75)"/>
<path d="M0 0 C2.5625 2.0625 2.5625 2.0625 4 5 C4.51902824 11.48785302 0.86771245 15.19413593 -2.93359375 20.171875 C-5.88940131 24.21725245 -8.05451968 28.39422273 -10 33 C-10.3196875 33.75410156 -10.639375 34.50820313 -10.96875 35.28515625 C-15.18160074 46.96801549 -13.99551952 59.81129698 -9 71 C-8.43345703 72.28003906 -8.43345703 72.28003906 -7.85546875 73.5859375 C-4.8157959 79.70201641 -0.83784921 84.85805695 3.375 90.1875 C13.16437359 102.61818622 20.9809464 116.9113053 22 133 C22.05285156 133.72316406 22.10570312 134.44632813 22.16015625 135.19140625 C22.91289332 155.05711924 14.2451845 173.58612274 1 188 C-2.09173752 189.54586876 -4.59429552 189.29359521 -8 189 C-10.4375 187.4375 -10.4375 187.4375 -12 185 C-12.65267265 179.08338052 -11.37609487 176.35563488 -7.8125 171.6875 C-6.97859987 170.55014111 -6.14917666 169.40948649 -5.32421875 168.265625 C-4.92251465 167.71068359 -4.52081055 167.15574219 -4.10693359 166.58398438 C3.33404411 155.93619802 6.55334971 143.01980535 4.56640625 130.203125 C1.92402242 117.79540964 -3.95045202 107.90778801 -11.86547852 98.25927734 C-18.9260955 89.5634804 -24.50046144 79.6643833 -28 69 C-28.22429687 68.34644531 -28.44859375 67.69289063 -28.6796875 67.01953125 C-33.51902183 49.88298435 -29.06140055 31.6881162 -21.0078125 16.3828125 C-10.24102691 -1.75733598 -10.24102691 -1.75733598 0 0 Z " fill="#000000" transform="translate(262,0)"/>
<path d="M0 0 C2.4375 1.5625 2.4375 1.5625 4 4 C4.6627024 9.88593746 3.10854996 13.17394095 -0.25 17.8125 C-1.08232447 19.04578406 -1.90917493 20.2827804 -2.73046875 21.5234375 C-3.12540527 22.11995117 -3.5203418 22.71646484 -3.92724609 23.33105469 C-9.32935733 31.73543166 -10.17153307 40.14473498 -9 50 C-6.73901556 58.39365462 -2.17259594 65.132742 3 72 C14.06249295 86.94280093 21.02203688 102.121273 18.375 121.125 C15.90159445 133.39439331 9.72234003 147.84613591 -1 155 C-4.49672962 154.93971156 -6.8982551 154.69777177 -9.875 152.8125 C-11.50175713 150.19161351 -11.7760994 148.07116985 -12 145 C-10.7421875 142.359375 -10.7421875 142.359375 -8.875 139.75 C-2.31115146 130.10730035 3.44003906 120.03070608 2 108 C-0.40691363 96.64282668 -5.55316499 88.01013343 -13 79.25 C-23.5811043 66.34269961 -27.07517841 51.4224832 -26 35 C-24.19117356 22.71642408 -17.45956529 9.99526335 -9 1 C-5.90826248 -0.54586876 -3.40570448 -0.29359521 0 0 Z " fill="#000000" transform="translate(209,17)"/>
<path d="M0 0 C3.35253304 0.77366147 5.00164948 1.1557494 7.25 3.75 C8.41977222 7.25931667 8.49908604 9.0906546 7.1875 12.5625 C5.62824976 15.12771814 4.00579638 17.58702102 2.3125 20.0625 C-1.47878737 25.65512043 -5.06652541 31.91525408 -5.75 38.75 C-5.84474609 39.66265625 -5.84474609 39.66265625 -5.94140625 40.59375 C-6.67668528 53.68646056 -0.29377467 63.74269148 7.25 73.75 C17.98245868 88.42978444 23.91548353 102.16167228 22.25 120.75 C20.22661901 132.39398494 14.18738838 147.72853296 4.4375 155.125 C1.08267571 156.08352123 -1.40072315 155.6025432 -4.75 154.75 C-7.35089603 152.56860333 -7.69559655 150.99234265 -8.4375 147.6875 C-7.53002709 142.49015514 -4.98779413 139.64602006 -1.79296875 135.53515625 C4.95260288 126.33899454 6.0835593 116.93160264 5.25 105.75 C3.48159225 97.53649172 -0.79209489 91.37345135 -5.75 84.75 C-16.58867851 69.59049695 -24.28833269 55.71246388 -22.41796875 36.3046875 C-20.37979018 24.75939212 -13.0866855 2.6173371 0 0 Z " fill="#000000" transform="translate(306.75,16.25)"/>
<path d="M0 0 C17.74993499 3.05973414 34.30865464 12.46173834 46.75976562 25.40625 C49.32241099 29.28682727 49.80708981 31.16168181 48.94726562 35.71875 C47.44726562 38.15625 47.44726562 38.15625 44.94726562 39.71875 C41.50013398 40.47828748 40.17909195 40.76332244 36.94726562 39.71875 C34.57798729 37.72191504 32.5757789 35.5180372 30.48242188 33.234375 C19.23241847 22.07104342 4.08097368 17.47962942 -11.25024414 15.8815918 C-17.45523159 15.15570242 -17.45523159 15.15570242 -20.61132812 12.84765625 C-22.76432634 9.66775374 -22.58744116 7.46169751 -22.05273438 3.71875 C-17.18212503 -3.03258969 -7.41538083 -1.0159989 0 0 Z " fill="#000000" transform="translate(171.052734375,323.28125)"/>
<path d="M0 0 C2.48644844 1.69627249 4.48446604 3.75886855 6.5546875 5.93359375 C7.43521286 6.82329613 7.43521286 6.82329613 8.33352661 7.73097229 C10.19522054 9.61949773 12.03472071 11.52812598 13.875 13.4375 C15.13407863 14.71811379 16.39448271 15.99742585 17.65625 17.27539062 C27.85074306 27.65668752 27.85074306 27.65668752 28.375 32.375 C28 36 28 36 25.875 38.4375 C22.34235438 40.3574161 20.95656546 40.85337686 17 40 C10.2402304 35.06945912 4.44684357 28.59763324 -1.4375 22.6875 C-2.34693359 21.78193359 -3.25636719 20.87636719 -4.19335938 19.94335938 C-5.05638672 19.07904297 -5.91941406 18.21472656 -6.80859375 17.32421875 C-7.59032959 16.54135498 -8.37206543 15.75849121 -9.17749023 14.9519043 C-12.1240995 11.7960917 -12.41073343 9.30473895 -12.33984375 4.98046875 C-12 3 -12 3 -9.9375 0.4375 C-6.02146921 -1.47885549 -4.20530021 -1.08425215 0 0 Z " fill="#000000" transform="translate(273,286)"/>
<path d="M0 0 C2.17578125 1.37109375 2.17578125 1.37109375 4.3125 3.4375 C5.57513672 4.64599609 5.57513672 4.64599609 6.86328125 5.87890625 C7.90975783 6.91836185 8.95520887 7.95885031 10 9 C11.45173139 10.42587444 12.90356189 11.85164798 14.35546875 13.27734375 C17.39195366 16.27735629 20.4243241 19.28125224 23.4375 22.3046875 C24.07558594 22.94390137 24.71367187 23.58311523 25.37109375 24.24169922 C28.80553038 27.94895531 29.40206409 30.28819834 29.2421875 35.12890625 C29 37 29 37 27.9375 38.9375 C24.70198984 40.71181202 22.73152229 41.12234499 19 41 C17.28198242 39.84106445 17.28198242 39.84106445 15.48046875 38.17578125 C14.78397217 37.53608398 14.08747559 36.89638672 13.36987305 36.23730469 C12.58781494 35.49899414 11.80575684 34.76068359 11 34 C9.65965698 32.75718262 9.65965698 32.75718262 8.29223633 31.48925781 C5.83528708 29.18715394 3.40707652 26.86271317 0.99707031 24.51196289 C-0.00750717 23.53933136 -1.02004236 22.57485723 -2.04003906 21.6184082 C-10.48504493 13.68942615 -10.48504493 13.68942615 -11.72705078 9.61474609 C-11.83110791 6.00715927 -11.21089941 4.24811696 -8.875 1.5 C-5.51164796 -0.25479237 -3.75007575 -0.37453348 0 0 Z " fill="#000000" transform="translate(160,248)"/>
<path d="M0 0 C2.34257744 1.77968132 4.38819102 3.80334558 6.45703125 5.890625 C7.33967903 6.76397491 7.33967903 6.76397491 8.24015808 7.65496826 C9.47621895 8.88395125 10.7072059 10.11805617 11.93334961 11.35693359 C13.80848662 13.2459569 15.70640396 15.10972257 17.60742188 16.97265625 C18.80874408 18.17302736 20.00866321 19.37480464 21.20703125 20.578125 C21.77363968 21.13147522 22.34024811 21.68482544 22.92402649 22.25494385 C26.24938494 25.6602785 27.89975678 28.02548477 28 33 C25.86956522 37.56521739 25.86956522 37.56521739 23 39 C19.71063053 39.45802623 17.16579595 39.72314648 14.25637817 37.91842651 C12.39866794 36.3249925 10.68295486 34.65315364 8.97265625 32.90234375 C8.33887558 32.27526016 7.70509491 31.64817657 7.05210876 31.00209045 C5.72004887 29.67478295 4.39674405 28.33863809 3.08178711 26.99438477 C1.06867383 24.94378878 -0.97904847 22.93321495 -3.03320312 20.92382812 C-4.32516699 19.62723841 -5.61495762 18.32847882 -6.90234375 17.02734375 C-7.51472397 16.42913315 -8.12710419 15.83092255 -8.75804138 15.21458435 C-11.77723086 12.07600806 -12.91402269 10.65924428 -13.49438477 6.20922852 C-12.90966556 2.41360684 -12.04791633 1.26416642 -9 -1 C-5.07750085 -2.30749972 -3.75706747 -1.67132888 0 0 Z " fill="#000000" transform="translate(286,349)"/>
<path d="M0 0 C0.67151596 -0.00004028 1.34303192 -0.00008057 2.03489685 -0.00012207 C3.4477581 0.00521657 4.86062026 0.02272902 6.27319336 0.05175781 C8.43110132 0.09370155 10.5858927 0.09281638 12.74414062 0.0859375 C23.09356332 0.16478967 23.09356332 0.16478967 26.25366211 1.90820312 C28.79385499 4.55537168 28.74572133 7.02063614 28.87109375 10.59375 C28.09198555 13.21438667 27.4816096 14.19699047 25.19897461 15.68041992 C20.55107474 17.50399553 15.38488105 16.92566607 10.45385742 16.90942383 C8.44329535 16.90626524 6.43420835 16.92973616 4.42382812 16.95507812 C3.14958984 16.95572266 1.87535156 16.95636719 0.5625 16.95703125 C-0.60079834 16.96001221 -1.76409668 16.96299316 -2.96264648 16.96606445 C-6.45216786 16.55573828 -8.3321691 15.68358103 -11.12890625 13.59375 C-12.5732148 10.70513291 -12.50579131 8.79727299 -12.12890625 5.59375 C-8.41416583 0.83455254 -5.95620388 -0.03386174 0 0 Z " fill="#000000" transform="translate(260.12890625,446.40625)"/>
</svg>
