<?xml version="1.0" encoding="UTF-8"?>
<svg version="1.1" xmlns="http://www.w3.org/2000/svg" width="512" height="512">
<path d="M0 0 C3.03971068 1.97999503 5.47746854 4.40754763 8 7 C8.79857422 7.74636719 8.79857422 7.74636719 9.61328125 8.5078125 C10.79429969 9.61896788 11.90581835 10.80323882 13 12 C13 12.66 13 13.32 13 14 C13.70793701 13.77860352 14.41587402 13.55720703 15.14526367 13.32910156 C39.11732179 5.88635934 39.11732179 5.88635934 51.1875 3.625 C51.94893311 3.48223633 52.71036621 3.33947266 53.49487305 3.19238281 C55.99174382 2.75417708 58.49229754 2.37138859 61 2 C62.68041382 1.7361853 62.68041382 1.7361853 64.39477539 1.46704102 C75.95388385 -0.18594016 87.39924944 -0.35672947 99.0625 -0.3125 C100.05856262 -0.31067719 101.05462524 -0.30885437 102.08087158 -0.30697632 C116.59330287 -0.26223255 130.72309519 0.19530957 145 3 C145.89557617 3.16097168 146.79115234 3.32194336 147.71386719 3.48779297 C191.38606158 11.38886255 235.44791588 31.31369201 268.046875 61.921875 C271.3835905 65.20517443 271.3835905 65.20517443 275.8125 65.9375 C277.22614726 65.33165117 278.62436883 64.68781558 280 64 C287.13469083 63.42462171 287.13469083 63.42462171 290.26171875 65.50390625 C292.32867604 68.47196402 292.22087153 70.39614737 292.04370117 73.93676758 C291.49343383 85.92247577 296.40718725 91.32358939 304.12988281 99.82177734 C329.23074604 129.05805694 344.43042678 168.65373212 352 206 C352.19754883 206.9276416 352.39509766 207.8552832 352.59863281 208.81103516 C355.85563628 224.61896281 356.39382927 240.23014663 356.4375 256.3125 C356.4467601 257.75301224 356.4467601 257.75301224 356.45620728 259.22262573 C356.51469189 273.37152027 355.30653022 287.04287646 353 301 C352.81203857 302.13783936 352.62407715 303.27567871 352.43041992 304.44799805 C351.96347705 307.04270694 351.44475729 309.61358294 350.875 312.1875 C350.67036133 313.11344971 350.46572266 314.03939941 350.25488281 314.9934082 C342.54287211 348.16000486 328.11679226 379.55859415 308 407 C307.5786377 407.57830566 307.15727539 408.15661133 306.72314453 408.75244141 C301.40469158 416.00223416 295.68020198 422.73120794 289.53125 429.28125 C287.39184482 431.57912963 285.3398101 433.91658807 283.3125 436.3125 C280.47882489 439.57592678 277.42428162 442.39279431 274.125 445.1796875 C272.69934979 446.40092463 271.30311315 447.657291 269.9375 448.9453125 C229.16166377 487.31424173 168.84174237 511.92321551 112.76953125 512.203125 C111.82459808 512.21018463 110.87966492 512.21724426 109.90609741 512.22451782 C70.48292292 512.45229455 70.48292292 512.45229455 54 509 C52.53771973 508.70198486 52.53771973 508.70198486 51.04589844 508.39794922 C4.62563355 498.68766191 -37.62301767 478.14097213 -72.6875 446.08984375 C-74.64985514 444.31643159 -76.64661409 442.61849755 -78.6875 440.9375 C-81.80332636 438.28542454 -84.42782948 435.35641122 -87.0703125 432.23828125 C-89.20876295 429.75785188 -91.44635003 427.38793455 -93.6875 425 C-126.14027512 389.25776054 -146.81348179 342.51590683 -154 295 C-154.17660156 293.87827393 -154.35320312 292.75654785 -154.53515625 291.60083008 C-156.19581913 279.96655216 -156.39766291 268.42700733 -156.375 256.6875 C-156.37478851 255.67487091 -156.37457703 254.66224182 -156.37435913 253.618927 C-156.3406376 237.40941877 -155.37698285 221.89984529 -152 206 C-151.81808105 205.09217773 -151.63616211 204.18435547 -151.44873047 203.24902344 C-147.73264037 184.92428245 -142.12275455 166.59569386 -133.99462891 149.73120117 C-132.14678272 146.0120355 -132.14678272 146.0120355 -133 142 C-134.82922185 140.35617947 -134.82922185 140.35617947 -137.11328125 138.78515625 C-137.94923828 138.18123047 -138.78519531 137.57730469 -139.64648438 136.95507812 C-140.52626953 136.33052734 -141.40605469 135.70597656 -142.3125 135.0625 C-144.04006013 133.82742917 -145.76539802 132.58924286 -147.48828125 131.34765625 C-148.64130737 130.52793335 -148.64130737 130.52793335 -149.81762695 129.69165039 C-155.85551003 125.0114298 -155.85551003 125.0114298 -156.5625 120.0625 C-156.67101756 116.85165683 -156.01934458 116.02208301 -153.84765625 113.54296875 C-150.94999413 110.95534456 -147.97997361 108.58445191 -144.875 106.25 C-138.798529 101.63658995 -132.86307435 96.8831959 -127 92 C-126.02546875 91.21238281 -125.0509375 90.42476563 -124.046875 89.61328125 C-115.81061568 82.85568349 -108.23177351 75.44687503 -100.6875 67.9375 C-99.91981796 67.17758255 -99.91981796 67.17758255 -99.1366272 66.40231323 C-92.283815 59.60418394 -86.02436315 52.55620071 -80 45 C-79.04111924 43.8636214 -78.07615791 42.73230529 -77.1015625 41.609375 C-71.56523653 35.21727625 -66.41854188 28.66228425 -61.52783203 21.76074219 C-58.19995031 17.09997516 -58.19995031 17.09997516 -56 16 C-51.94572149 15.44078917 -49.42330916 15.10512092 -45.90625 17.31640625 C-41.47197652 21.12817595 -37.69110229 25.4783997 -34 30 C-29.82508248 25.99612193 -26.18563414 21.69205157 -22.5625 17.1875 C-22.01529297 16.51396484 -21.46808594 15.84042969 -20.90429688 15.14648438 C-17.57685774 11.03148568 -14.3754412 6.85035201 -11.27709961 2.55981445 C-8.4190113 -0.93097625 -4.14692014 -0.89643441 0 0 Z M22 29 C22.59056664 31.940842 23.19672423 34.87692898 23.8125 37.8125 C24.0609668 39.06256836 24.0609668 39.06256836 24.31445312 40.33789062 C24.5706543 41.54155273 24.5706543 41.54155273 24.83203125 42.76953125 C24.98389893 43.50792236 25.1357666 44.24631348 25.29223633 45.00708008 C26.14190185 47.39956703 26.99469905 48.45029188 29 50 C31.03754222 50.7773439 31.03754222 50.7773439 33.31640625 51.2109375 C34.57964722 51.49602173 34.57964722 51.49602173 35.8684082 51.78686523 C36.7574585 51.98094971 37.64650879 52.17503418 38.5625 52.375 C49.15861511 54.86581798 58.28288213 57.95248564 66 66 C67.59633757 69.19267515 67.36932376 72.52693615 67 76 C66 78 66 78 64 79 C60.77408011 79.55619308 59.08795505 79.76926089 56 79 C54.0390625 77.60546875 54.0390625 77.60546875 52 75.8125 C44.9109869 69.7710043 35.57598712 68.15979112 26.73828125 65.91015625 C26.05781738 65.73508545 25.37735352 65.56001465 24.67626953 65.37963867 C22.79198609 64.90151274 20.90196482 64.44616796 19.01171875 63.9921875 C15.88192633 62.96110154 14.96873237 62.5314673 13 60 C11.98852539 57.0925293 11.98852539 57.0925293 11.09765625 53.57421875 C10.76443359 52.30255859 10.43121094 51.03089844 10.08789062 49.72070312 C9.5739257 47.70720451 9.06382942 45.69276333 8.55493164 43.67797852 C8.05770181 41.72431861 7.5465509 39.77421876 7.03515625 37.82421875 C6.7400415 36.65979248 6.44492676 35.49536621 6.14086914 34.2956543 C4.45878377 29.43657653 1.82620693 25.44358624 -2 22 C-6.35920885 23.54452155 -8.52921952 26.93339542 -11.1875 30.5 C-15.17159704 35.71192574 -19.27941057 40.70014924 -23.734375 45.5234375 C-25.62195756 47.5867605 -27.46616933 49.675108 -29.30078125 51.78515625 C-32.9364583 55.95077286 -36.66357433 60.02208736 -40.4375 64.0625 C-41.05431641 64.73087891 -41.67113281 65.39925781 -42.30664062 66.08789062 C-46.06085501 70.10775181 -49.95947916 73.815942 -54.13598633 77.39428711 C-56.70262135 79.60525745 -59.15630051 81.93070308 -61.625 84.25 C-66.6521899 88.93782582 -71.93612331 93.20011538 -77.45556641 97.29589844 C-80.4675549 99.57705577 -82.70675042 101.38058071 -84 105 C-83.22398438 105.65484375 -82.44796875 106.3096875 -81.6484375 106.984375 C-78.7320929 109.447066 -75.81946241 111.9141128 -72.90820312 114.3828125 C-71.64726759 115.45144568 -70.38556219 116.51917118 -69.12304688 117.5859375 C-56.73531997 128.05884227 -56.73531997 128.05884227 -51.55078125 133.44921875 C-49.88209941 135.11790059 -48.12185068 136.61045188 -46.3125 138.125 C-40.90221614 142.79084557 -36.20575168 148.12949508 -31.42675781 153.42480469 C-30.16688656 154.81575084 -28.89306719 156.19403572 -27.6171875 157.5703125 C-22.74500405 162.86160851 -18.25337808 168.37694594 -13.89233398 174.09155273 C-11.14049425 177.67052914 -8.26028196 180.87458582 -5 184 C-4.32195312 182.92363281 -3.64390625 181.84726563 -2.9453125 180.73828125 C17.31303838 148.84348081 17.31303838 148.84348081 25 145 C28.2747881 144.71523582 30.36311555 144.67295123 33.3125 146.1875 C35.46657771 148.50113902 35.85008899 149.85186888 36 153 C34.59600505 157.98418206 31.42513641 161.28439815 28.125 165.125 C18.25552967 176.94322805 10.25174689 190.00525614 3.3046875 203.7265625 C2 206 2 206 0 207 C-5.68428373 207.55910987 -5.68428373 207.55910987 -8 207 C-12.17782863 203.40053527 -15.45698687 199.03757109 -18.8125 194.6875 C-19.56563477 193.71973633 -19.56563477 193.71973633 -20.33398438 192.73242188 C-21.55905681 191.15732875 -22.7799632 189.57899684 -24 188 C-28.45368181 192.04294443 -31.37739872 196.4714563 -34.4375 201.625 C-34.91759521 202.420271 -35.39769043 203.21554199 -35.89233398 204.03491211 C-39.05957072 209.31471128 -42.06849149 214.64984839 -44.87890625 220.12890625 C-46 222 -46 222 -48 223 C-53.68428373 223.55910987 -53.68428373 223.55910987 -56 223 C-59.75311975 219.73899548 -62.65668821 215.97098567 -65.625 212 C-72.86358007 202.43860223 -80.65434944 193.37111686 -88.734375 184.51171875 C-90.00128485 183.10719628 -91.26136964 181.69615726 -92.49487305 180.26220703 C-97.21421401 174.78075766 -102.20098026 169.6156856 -107.3125 164.5 C-108.12267578 163.67757812 -108.93285156 162.85515625 -109.76757812 162.0078125 C-110.54166016 161.23179687 -111.31574219 160.45578125 -112.11328125 159.65625 C-112.81235596 158.95306641 -113.51143066 158.24988281 -114.23168945 157.52539062 C-115.86317976 155.78227282 -115.86317976 155.78227282 -118 156 C-125.14397011 172.66566097 -131.08538529 189.2760141 -135 207 C-135.22445801 208.01594238 -135.44891602 209.03188477 -135.68017578 210.07861328 C-141.53701641 238.1581861 -141.98840945 270.90881784 -136 299 C-135.80132324 299.9688916 -135.60264648 300.9377832 -135.39794922 301.93603516 C-127.64827734 338.96611527 -112.60113799 373.30406264 -89 403 C-88.29617187 403.89589844 -87.59234375 404.79179687 -86.8671875 405.71484375 C-48.55131696 453.57534871 7.86056764 486.3918859 69 494 C133.6910828 501.03566441 198.35890959 484.28426985 249.35986328 443.33154297 C263.23337217 432.06835192 275.99810188 420.13397002 287 406 C287.78761719 405.02933594 288.57523437 404.05867188 289.38671875 403.05859375 C319.27419977 365.57021489 338.78875869 315.80433414 339.23828125 267.62890625 C339.24802979 266.7572583 339.25777832 265.88561035 339.26782227 264.98754883 C339.43975944 245.627423 339.19957208 226.99158712 335 208 C334.71116943 206.65591064 334.71116943 206.65591064 334.41650391 205.28466797 C327.69535818 174.65488525 315.03588666 136.40650738 292 114 C291.98541748 115.01425049 291.97083496 116.02850098 291.95581055 117.07348633 C291.89783747 120.83654029 291.82060541 124.59899521 291.73754883 128.36157227 C291.70429464 129.99005409 291.67626416 131.61865131 291.65356445 133.24731445 C291.62002643 135.58855361 291.56771415 137.92873486 291.51171875 140.26953125 C291.50532883 140.99775589 291.4989389 141.72598053 291.49235535 142.47627258 C291.34684121 147.47872362 291.34684121 147.47872362 289.78979492 149.81884766 C287.54754672 151.29859077 285.28265346 152.48135434 282.8515625 153.62890625 C281.84609375 154.10650391 280.840625 154.58410156 279.8046875 155.07617188 C278.75539063 155.56666016 277.70609375 156.05714844 276.625 156.5625 C275.5834375 157.05685547 274.541875 157.55121094 273.46875 158.06054688 C269.01885515 160.16315065 264.58602459 162.20940965 260 164 C259.97812622 165.0669812 259.97812622 165.0669812 259.95581055 166.15551758 C259.88138994 169.37506332 259.78471 172.59356518 259.6875 175.8125 C259.66494141 176.93205078 259.64238281 178.05160156 259.61914062 179.20507812 C259.58369141 180.27822266 259.54824219 181.35136719 259.51171875 182.45703125 C259.48553467 183.44678955 259.45935059 184.43654785 259.43237305 185.45629883 C258.92431446 188.4452669 258.40755513 189.21630763 256 191 C252.41749886 193.05994769 248.66530393 194.78167213 244.9375 196.5625 C243.93783203 197.05685547 242.93816406 197.55121094 241.90820312 198.06054688 C231.2171699 203.19418791 219.82126605 206.28054737 208.1171875 202.37109375 C205.51376595 201.36450768 202.95141315 200.27304534 200.38500977 199.17626953 C191.43300461 195.40027774 185.56888631 195.24995371 176.578125 198.87890625 C175.04370651 199.5461458 173.51154202 200.21867014 171.984375 200.90234375 C162.84889379 204.75997342 152.41086262 205.01089422 143 202 C140.99070922 201.16792353 138.99096845 200.31251161 137 199.4375 C129.28281552 196.12591126 123.42286937 194.88287735 115.375 197.75 C112.8875533 198.75401131 110.43240987 199.80642116 107.984375 200.90234375 C97.73869288 205.22877675 86.35245769 204.90504815 76.09277344 200.85131836 C73.04942886 199.48221021 70.05377131 198.04174248 67.0625 196.5625 C66.03576172 196.07201172 65.00902344 195.58152344 63.95117188 195.07617188 C54.98018374 190.71715403 54.98018374 190.71715403 53 188 C52.70400565 185.37557845 52.59005654 182.98821415 52.61181641 180.36328125 C52.60393097 179.19942398 52.60393097 179.19942398 52.59588623 178.01205444 C52.58267416 175.44533198 52.59142834 172.87922886 52.6015625 170.3125 C52.59954211 168.5303536 52.59663096 166.74820801 52.59286499 164.96606445 C52.58844001 161.23022595 52.59487824 157.49460257 52.60888672 153.75878906 C52.62597876 148.96670916 52.6161385 144.1751333 52.59816933 139.3830719 C52.58733615 135.70280144 52.59077567 132.02265075 52.5985527 128.34237671 C52.60055601 126.57530661 52.59809088 124.80822568 52.59111404 123.04116821 C52.58350715 120.57272476 52.59509247 118.10510105 52.61181641 115.63671875 C52.60574371 114.90415863 52.59967102 114.17159851 52.59341431 113.4168396 C52.62970523 110.53002614 52.67200961 108.49096645 54.30136108 106.05200195 C57.3886999 104.13994964 60.55893187 104.42149736 64 105 C67.45984827 106.22631078 70.6763719 107.82284841 73.9375 109.5 C75.63356225 110.34485973 77.33014763 111.18867037 79.02734375 112.03125 C79.76718506 112.40830078 80.50702637 112.78535156 81.26928711 113.17382812 C82.8307764 114.07179887 82.8307764 114.07179887 84 114 C84.00586624 113.43037033 84.01173248 112.86074066 84.01777649 112.27384949 C84.08163964 106.35272804 84.16604038 100.43215371 84.26245117 94.51147461 C84.29573508 92.30093594 84.32375612 90.09031157 84.34643555 87.87963867 C84.37991759 84.70454334 84.43223052 81.53023583 84.48828125 78.35546875 C84.49467117 77.36475876 84.5010611 76.37404877 84.50764465 75.35331726 C84.53733589 73.97222527 84.53733589 73.97222527 84.56762695 72.56323242 C84.58428154 71.34744759 84.58428154 71.34744759 84.60127258 70.10710144 C85.10070436 67.46782117 85.85096999 66.58028582 88 65 C96.22242619 63.84740825 101.96456185 67.59364873 109.046875 71.35742188 C115.98188242 74.8910217 122.31239579 77.01545079 130.1015625 75.328125 C130.93429687 74.97234375 131.76703125 74.6165625 132.625 74.25 C133.54796875 73.87746094 134.4709375 73.50492188 135.421875 73.12109375 C136.95629349 72.4538542 138.48845798 71.78132986 140.015625 71.09765625 C149.15110621 67.24002658 159.58913738 66.98910578 169 70 C171.00929078 70.83207647 173.00903155 71.68748839 175 72.5625 C182.71718448 75.87408874 188.57713063 77.11712265 196.625 74.25 C199.1124467 73.24598869 201.56759013 72.19357884 204.015625 71.09765625 C213.15377295 67.2389005 223.58624253 66.99282748 233 70 C236.0511947 71.24858099 239.06804643 72.56491896 242.08984375 73.8828125 C246.18716617 75.45574433 249.61611411 75.92929216 254 76 C254.66 75.34 255.32 74.68 256 74 C240.90711303 61.54034012 225.33056625 51.10797862 208 42 C207.3493457 41.65227539 206.69869141 41.30455078 206.02832031 40.94628906 C185.13635144 29.91369345 161.19030465 23.0208996 138 19 C137.29875 18.87689453 136.5975 18.75378906 135.875 18.62695312 C131.26732607 17.85443636 126.65570728 17.35395442 122 17 C121.1224707 16.93296875 120.24494141 16.8659375 119.34082031 16.796875 C85.88296829 14.44974744 53.94832592 19.13061269 22 29 Z M-52 38 C-53.47985342 39.77026307 -54.95892351 41.54117075 -56.4375 43.3125 C-56.8927002 43.85720947 -57.34790039 44.40191895 -57.81689453 44.96313477 C-60.7057958 48.42650494 -63.549289 51.92221182 -66.375 55.4375 C-71.15418659 61.29179359 -76.26589388 66.79953228 -81.4296875 72.31201172 C-83.02883876 74.03099987 -84.61026979 75.76479732 -86.1875 77.50390625 C-91.19592978 83.01511876 -96.15520665 88.35073256 -102 93 C-98.01788621 93 -96.77172724 91.59605396 -93.625 89.1875 C-93.10115723 88.78660156 -92.57731445 88.38570312 -92.03759766 87.97265625 C-85.85062926 83.18889889 -79.90643343 78.12308683 -74 73 C-72.824375 71.99453125 -72.824375 71.99453125 -71.625 70.96875 C-62.29492267 62.80493234 -53.71741061 53.80466526 -45 45 C-46.98825638 41.473551 -48.13555254 39.4658249 -52 38 Z M139.984375 88.90234375 C129.94636129 93.14108483 118.50975222 93.02924054 108.453125 88.97265625 C106.8946707 88.2753224 105.34611904 87.55506539 103.8125 86.8046875 C102.02585838 85.86474236 102.02585838 85.86474236 100 86 C100 87.65 100 89.3 100 91 C114.16672356 98.96077589 114.16672356 98.96077589 129.765625 99.25 C132.566013 98.27062933 135.27541725 97.1723467 138 96 C147.94928443 92.03059637 158.67268867 89.95705662 169 94 C171.125 96.25 171.125 96.25 172 99 C171.87737042 102.06573955 171.59017734 104.10642163 169.890625 106.6796875 C166.95521226 108.72962449 164.3929567 108.1705676 160.875 108 C154.59793469 107.80007899 149.80018999 108.55781474 144 111 C144 111.66 144 112.32 144 113 C152.05154456 116.44232702 158.28787315 116.85025671 166.51171875 113.62109375 C167.78003026 113.08398666 169.04692978 112.54353485 170.3125 112 C180.35358285 107.70788958 190.46255543 106.6286692 201 110 C203.00929078 110.83207647 205.00903155 111.68748839 207 112.5625 C215.37084627 116.17450409 221.80026579 117.00266562 230.3828125 113.69140625 C230.91648437 113.46324219 231.45015625 113.23507813 232 113 C232 112.34 232 111.68 232 111 C227.6951705 109.44791862 223.68207475 108.08800964 219.125 107.5 C216 107 216 107 214.0625 105.9375 C212.3512118 102.81691564 212.46044392 99.47558203 213 96 C215 93 215 93 218.875 92.125 C226.50095573 91.52424143 233.81364093 93.8396625 240.625 97.125 C247.42943904 100.28245553 253.36773565 100.84617892 260.5 98.375 C265.80784276 96.20946073 270.93509994 93.6807714 276 91 C276 89.35 276 87.7 276 86 C272.7293862 87.06294949 269.59065063 88.1795392 266.4375 89.5625 C255.09491923 93.81325685 243.77751469 92.17411474 233 87.4375 C225.28281552 84.12591126 219.42286937 82.88287735 211.375 85.75 C208.8875533 86.75401131 206.43240987 87.80642116 203.984375 88.90234375 C194.84889379 92.75997342 184.41086262 93.01089422 175 90 C172.99070922 89.16792353 170.99096845 88.31251161 169 87.4375 C157.85884325 82.65662047 150.83984544 84.04262733 139.984375 88.90234375 Z M-109 100 C-116.7094608 106.28290703 -124.36967528 112.62142139 -132 119 C-130.54701296 122.52426645 -128.77225083 124.2183007 -125.75 126.5 C-117.02385462 133.27574423 -108.33687013 140.31846428 -100.68994141 148.31274414 C-98.94801455 150.05190284 -97.12936372 151.63676573 -95.25390625 153.23046875 C-91.18500619 156.77052343 -87.4724132 160.54307038 -83.8125 164.5 C-83.17103027 165.1899707 -82.52956055 165.87994141 -81.86865234 166.59082031 C-71.98137166 177.28438084 -62.51956559 188.17827721 -54 200 C-51.68172377 197.82148711 -49.93136128 195.56708263 -48.1875 192.91015625 C-47.66929688 192.12576172 -47.15109375 191.34136719 -46.6171875 190.53320312 C-46.08351563 189.71787109 -45.54984375 188.90253906 -45 188.0625 C-43.93854806 186.44852899 -42.87608104 184.83522501 -41.8125 183.22265625 C-41.34457031 182.50859619 -40.87664062 181.79453613 -40.39453125 181.05883789 C-38.99158398 178.98757488 -37.5169986 176.9888232 -36 175 C-37.70318475 170.67816871 -40.85433097 167.68682734 -44 164.375 C-44.61012939 163.72837402 -45.22025879 163.08174805 -45.84887695 162.41552734 C-61.37935799 145.88876754 -61.37935799 145.88876754 -78.4375 131 C-81.32356163 128.74746409 -84.09134678 126.37770379 -86.875 124 C-90.02404075 121.3414512 -93.12622397 118.86221893 -96.578125 116.61328125 C-97.46588623 116.03223633 -97.46588623 116.03223633 -98.37158203 115.43945312 C-100.02965273 114.3737814 -101.70578094 113.33635829 -103.3828125 112.30078125 C-106.6568207 109.42258598 -107.14331936 107.211211 -108 103 C-108.33 102.01 -108.66 101.02 -109 100 Z M100 110 C100.33 111.32 100.66 112.64 101 114 C101.99 113.67 102.98 113.34 104 113 C104 112.34 104 111.68 104 111 C102.68 110.67 101.36 110.34 100 110 Z M266.875 113 C265.88693359 113.42925781 265.88693359 113.42925781 264.87890625 113.8671875 C263.25119329 114.57488879 261.62541041 115.28702624 260 116 C260 117.98 260 119.96 260 122 C265.68502535 120.35433477 270.76681636 117.70967216 276 115 C276 113.35 276 111.7 276 110 C272.70039859 110 269.85394348 111.69044465 266.875 113 Z M107.984375 128.90234375 C97.94636129 133.14108483 86.50975222 133.02924054 76.453125 128.97265625 C74.8946707 128.2753224 73.34611904 127.55506539 71.8125 126.8046875 C70.02585838 125.86474236 70.02585838 125.86474236 68 126 C68 127.65 68 129.3 68 131 C82.16672356 138.96077589 82.16672356 138.96077589 97.765625 139.25 C101.26105499 138.02755454 104.63717762 136.61010072 108.015625 135.09765625 C117.15110621 131.24002658 127.58913738 130.98910578 137 134 C139.00929078 134.83207647 141.00903155 135.68748839 143 136.5625 C150.71718448 139.87408874 156.57713063 141.11712265 164.625 138.25 C167.1124467 137.24598869 169.56759013 136.19357884 172.015625 135.09765625 C181.15110621 131.24002658 191.58913738 130.98910578 201 134 C203.00929078 134.83207647 205.00903155 135.68748839 207 136.5625 C214.61376767 139.82971065 220.52504956 141.11534061 228.5 138.375 C233.80784276 136.20946073 238.93509994 133.6807714 244 131 C244 129.35 244 127.7 244 126 C240.7293862 127.06294949 237.59065063 128.1795392 234.4375 129.5625 C223.09491923 133.81325685 211.77751469 132.17411474 201 127.4375 C193.28281552 124.12591126 187.42286937 122.88287735 179.375 125.75 C176.8875533 126.75401131 174.43240987 127.80642116 171.984375 128.90234375 C162.84889379 132.75997342 152.41086262 133.01089422 143 130 C140.99070922 129.16792353 138.99096845 128.31251161 137 127.4375 C125.85884325 122.65662047 118.83984544 124.04262733 107.984375 128.90234375 Z M269.6875 135.875 C266.48532316 137.33147398 263.28182622 138.72961566 260 140 C260 141.98 260 143.96 260 146 C265.68502535 144.35433477 270.76681636 141.70967216 276 139 C276 137.35 276 135.7 276 134 C273.47857414 134 271.97594697 134.82116056 269.6875 135.875 Z M107.984375 152.90234375 C97.94636129 157.14108483 86.50975222 157.02924054 76.453125 152.97265625 C74.8946707 152.2753224 73.34611904 151.55506539 71.8125 150.8046875 C70.02585838 149.86474236 70.02585838 149.86474236 68 150 C68 151.65 68 153.3 68 155 C81.94253061 162.89185747 81.94253061 162.89185747 97.3203125 163.3671875 C98.83123248 162.83964595 100.33449638 162.28952001 101.828125 161.71484375 C105.89052343 160.37775937 110.07814694 160.03907347 114 162 C115.58495415 165.16990831 115.71140218 168.54063253 115 172 C111.23037174 176.87695657 104.63002111 178.54987414 98.8046875 179.546875 C88.81161752 180.53909471 80.80888642 179.20649086 71.8125 174.8046875 C70.02585838 173.86474236 70.02585838 173.86474236 68 174 C68 175.65 68 177.3 68 179 C82.16672356 186.96077589 82.16672356 186.96077589 97.765625 187.25 C101.26105499 186.02755454 104.63717762 184.61010072 108.015625 183.09765625 C117.15110621 179.24002658 127.58913738 178.98910578 137 182 C139.00929078 182.83207647 141.00903155 183.68748839 143 184.5625 C150.71718448 187.87408874 156.57713063 189.11712265 164.625 186.25 C167.1124467 185.24598869 169.56759013 184.19357884 172.015625 183.09765625 C181.15110621 179.24002658 191.58913738 178.98910578 201 182 C203.00929078 182.83207647 205.00903155 183.68748839 207 184.5625 C214.61376767 187.82971065 220.52504956 189.11534061 228.5 186.375 C233.80784276 184.20946073 238.93509994 181.6807714 244 179 C244 177.35 244 175.7 244 174 C240.62502674 175.09686631 237.30247071 176.26691534 234 177.5625 C223.19108785 181.61584206 212.08861565 180.52815222 201.58203125 175.9453125 C200.85371094 175.59210938 200.12539063 175.23890625 199.375 174.875 C192.47381493 171.67265153 186.57478919 171.16444035 179.375 173.75 C177.57637259 174.48314996 175.78415617 175.23230462 174 176 C161.43184778 181.01423689 150.61048937 181.09175772 137.93359375 176.203125 C135.53386042 175.06975697 134.21002455 174.42004911 133 172 C132.54929577 164.90140845 132.54929577 164.90140845 134 162 C137.92185306 160.03907347 142.10947657 160.37775937 146.171875 161.71484375 C146.89890625 161.99457031 147.6259375 162.27429688 148.375 162.5625 C156.40531722 165.40315643 162.72175912 163.26005794 170.3125 160 C180.35358285 155.70788958 190.46255543 154.6286692 201 158 C203.00929078 158.83207647 205.00903155 159.68748839 207 160.5625 C214.61376767 163.82971065 220.52504956 165.11534061 228.5 162.375 C233.80784276 160.20946073 238.93509994 157.6807714 244 155 C244 153.35 244 151.7 244 150 C240.7293862 151.06294949 237.59065063 152.1795392 234.4375 153.5625 C223.09491923 157.81325685 211.77751469 156.17411474 201 151.4375 C193.28281552 148.12591126 187.42286937 146.88287735 179.375 149.75 C176.8875533 150.75401131 174.43240987 151.80642116 171.984375 152.90234375 C162.84889379 156.75997342 152.41086262 157.01089422 143 154 C140.99070922 153.16792353 138.99096845 152.31251161 137 151.4375 C125.85884325 146.65662047 118.83984544 148.04262733 107.984375 152.90234375 Z " fill="#000000" transform="translate(156,0)"/>
<path d="M0 0 C3.41190698 0.96710744 4.3115681 2.66175672 6.21875 5.62890625 C7.6908649 8.69035451 8.9077542 11.82200941 10.09375 15.00390625 C10.43817139 15.92075195 10.78259277 16.83759766 11.13745117 17.78222656 C18.92734414 39.11105096 24.29757974 62.1776831 24.421875 84.95703125 C24.42888931 85.82006363 24.43590363 86.68309601 24.44313049 87.57228088 C24.46053751 90.34120968 24.46698244 93.10992475 24.46875 95.87890625 C24.46942474 96.82398041 24.47009949 97.76905457 24.47079468 98.74276733 C24.45542172 112.26939191 24.10711736 125.36686517 21.21875 138.62890625 C21.05246094 139.45406738 20.88617188 140.27922852 20.71484375 141.12939453 C13.61770111 176.08282201 -1.44509408 208.79581074 -23.78125 236.62890625 C-25.00521484 238.15837891 -25.00521484 238.15837891 -26.25390625 239.71875 C-53.36177536 272.94121415 -89.98659754 297.56615264 -130.78125 310.62890625 C-131.4530127 310.85030273 -132.12477539 311.07169922 -132.81689453 311.29980469 C-150.74138159 317.16976174 -169.71278589 320.80668617 -188.6015625 320.76171875 C-189.50446014 320.76267548 -190.40735779 320.7636322 -191.33761597 320.76461792 C-193.2317512 320.76529375 -195.12588884 320.76348149 -197.02001953 320.75927734 C-199.90532658 320.75390797 -202.79047888 320.75924918 -205.67578125 320.765625 C-207.52604201 320.76496436 -209.37630267 320.76368348 -211.2265625 320.76171875 C-212.08089874 320.76374298 -212.93523499 320.76576721 -213.81546021 320.76785278 C-226.00743832 320.72048267 -226.00743832 320.72048267 -230.21875 318.12890625 C-232.2141676 314.93623809 -232.30240764 312.54913782 -232.41015625 308.84765625 C-231.46686173 305.51976005 -229.622661 304.50481064 -226.78125 302.62890625 C-223.94482422 302.2824707 -223.94482422 302.2824707 -220.8359375 302.4921875 C-219.68649658 302.55575439 -218.53705566 302.61932129 -217.3527832 302.68481445 C-216.13292725 302.76948975 -214.91307129 302.85416504 -213.65625 302.94140625 C-211.10575823 303.07217982 -208.55496359 303.19717364 -206.00390625 303.31640625 C-204.76141113 303.37570312 -203.51891602 303.435 -202.23876953 303.49609375 C-183.11234983 304.23079028 -162.95128028 301.60612102 -144.78125 295.62890625 C-145.9259375 294.17484375 -145.9259375 294.17484375 -147.09375 292.69140625 C-153.19112728 284.03035898 -153.80047961 274.83458318 -152.34008789 264.51000977 C-151.7440815 261.32905995 -151.09197222 258.1667037 -150.40625 255.00390625 C-146.5434195 236.96987779 -145.4015742 219.41573679 -145.46875 201.00390625 C-145.47024048 199.99177063 -145.47173096 198.97963501 -145.4732666 197.93682861 C-145.52550428 178.1968352 -147.44055923 159.69858666 -151.49316406 140.37890625 C-153.87805783 128.71730147 -153.50668094 119.8984104 -147.53125 109.44140625 C-143.53792788 103.45142308 -137.76087379 99.34528722 -130.9453125 96.99609375 C-121.11995749 95.32897575 -112.10980188 95.76259089 -103.34765625 100.76953125 C-99.47799571 103.57312093 -96.63692349 106.83274149 -93.78125 110.62890625 C-93.12125 111.28890625 -92.46125 111.94890625 -91.78125 112.62890625 C-91.93271484 111.87383789 -92.08417969 111.11876953 -92.24023438 110.34082031 C-92.93235261 106.85573879 -93.60686887 103.36746159 -94.28125 99.87890625 C-94.51972656 98.69167969 -94.75820313 97.50445312 -95.00390625 96.28125 C-97.64718973 82.46065353 -98.16815135 71.39675827 -90.15625 59.37890625 C-85.95807812 54.09906254 -79.50570155 49.76987817 -72.78125 48.62890625 C-62.18183939 47.68594067 -53.75561 48.20299047 -44.78125 54.62890625 C-35.89269461 62.32371736 -33.18883556 72.77055027 -30.71875 83.87890625 C-30.46198486 85.01336182 -30.20521973 86.14781738 -29.94067383 87.31665039 C-27.65626633 97.68099778 -25.96292045 108.08393528 -24.78125 118.62890625 C-24.6877124 119.37962402 -24.5941748 120.1303418 -24.49780273 120.90380859 C-23.38428923 131.01663605 -23.49651389 141.21752679 -23.46875 151.37890625 C-23.46513458 152.39259277 -23.46151917 153.4062793 -23.45779419 154.45068359 C-23.43249215 172.15443555 -24.78253071 189.18181218 -27.78125 206.62890625 C-28.11510184 208.62881976 -28.4485764 210.62879641 -28.78125 212.62890625 C-7.75527491 182.9483 6.08972932 144.5368932 6.45703125 107.9765625 C6.4668251 107.16753479 6.47661896 106.35850708 6.48670959 105.52496338 C6.79174275 73.7658303 3.67629143 41.54398911 -10.78125 12.62890625 C-11.34705566 5.61291609 -11.34705566 5.61291609 -9.34375 2.12890625 C-6.1174334 0.24033068 -3.68219163 0.10718709 0 0 Z M-77.59375 71.69140625 C-81.83045267 78.60392113 -79.35957906 86.65999048 -77.78125 94.06640625 C-77.59046875 94.98873047 -77.3996875 95.91105469 -77.203125 96.86132812 C-76.73530792 99.11854554 -76.26122253 101.37424805 -75.78125 103.62890625 C-74.99004761 102.98900757 -74.99004761 102.98900757 -74.18286133 102.33618164 C-73.4792749 101.78438232 -72.77568848 101.23258301 -72.05078125 100.6640625 C-71.35831299 100.11371338 -70.66584473 99.56336426 -69.95239258 98.99633789 C-66.34558666 96.72469503 -63.94945648 96.99307814 -59.78125 97.62890625 C-57.78125 98.62890625 -57.78125 98.62890625 -56.78125 100.62890625 C-56.09476513 104.67916696 -55.81497132 107.09971756 -58.03515625 110.61328125 C-60.58924196 113.57625771 -63.2329099 116.18835219 -66.28515625 118.640625 C-71.44867585 122.97715398 -71.44867585 122.97715398 -73.12890625 129.3125 C-72.87137534 132.81562595 -72.45282898 136.18277469 -71.78125 139.62890625 C-71.20503906 139.30535156 -70.62882813 138.98179687 -70.03515625 138.6484375 C-66.42591003 137.01583219 -63.72815226 137.31566004 -59.78125 137.62890625 C-57.78125 138.62890625 -57.78125 138.62890625 -56.78125 140.62890625 C-56.08875732 144.71461305 -55.81492095 147.11499073 -58.0703125 150.6484375 C-60.52527646 153.49014236 -63.02352297 156.0398605 -65.9921875 158.34765625 C-69.76681679 161.45457134 -71.86755652 163.78352071 -72.5078125 168.69140625 C-72.82987785 172.67619294 -72.85883137 176.63346592 -72.78125 180.62890625 C-72.04132813 180.14164062 -71.30140625 179.654375 -70.5390625 179.15234375 C-66.54980443 176.94864595 -64.29209801 177.19237257 -59.78125 177.62890625 C-57.78125 178.62890625 -57.78125 178.62890625 -56.78125 180.62890625 C-56.09701253 184.6659073 -55.83469116 187.08771429 -58 190.61328125 C-62.05821743 195.39891501 -66.83839729 199.51755256 -71.546875 203.6484375 C-72.28421875 204.30199219 -73.0215625 204.95554687 -73.78125 205.62890625 C-74.33941406 206.08136719 -74.89757812 206.53382813 -75.47265625 207 C-79.23523858 211.68357263 -79.60321688 219.75955848 -80.15625 225.56640625 C-79.54497538 230.55848232 -77.94651319 233.57732727 -74.21875 236.94140625 C-69.49951135 240.20857147 -65.4263792 240.25325234 -59.78125 239.62890625 C-54.6904418 237.12978222 -51.98099684 234.13505117 -50.1394043 228.75317383 C-49.48587814 226.47256556 -48.90287553 224.18450095 -48.34375 221.87890625 C-48.13202148 221.0185376 -47.92029297 220.15816895 -47.70214844 219.27172852 C-45.07486029 208.18650261 -43.27354666 196.91900257 -41.78125 185.62890625 C-41.67522461 184.82751221 -41.56919922 184.02611816 -41.45996094 183.20043945 C-40.34981168 173.16831104 -40.53730602 163.02140274 -40.53125 152.94140625 C-40.53057526 151.93413483 -40.52990051 150.9268634 -40.52920532 149.8890686 C-40.5451446 134.91552835 -40.9796199 120.37905303 -43.78125 105.62890625 C-43.97412598 104.58959961 -44.16700195 103.55029297 -44.36572266 102.47949219 C-46.8939269 83.25009163 -46.8939269 83.25009163 -56.78125 67.62890625 C-64.10030132 62.7495387 -72.06929056 65.4049524 -77.59375 71.69140625 Z M-133.59375 119.69140625 C-137.83045267 126.60392113 -135.35957906 134.65999048 -133.78125 142.06640625 C-133.59046875 142.98873047 -133.3996875 143.91105469 -133.203125 144.86132812 C-132.73530792 147.11854554 -132.26122253 149.37424805 -131.78125 151.62890625 C-130.99004761 150.98900757 -130.99004761 150.98900757 -130.18286133 150.33618164 C-129.4792749 149.78438232 -128.77568848 149.23258301 -128.05078125 148.6640625 C-127.35831299 148.11371338 -126.66584473 147.56336426 -125.95239258 146.99633789 C-122.34558666 144.72469503 -119.94945648 144.99307814 -115.78125 145.62890625 C-113.78125 146.62890625 -113.78125 146.62890625 -112.78125 148.62890625 C-112.09476513 152.67916696 -111.81497132 155.09971756 -114.03515625 158.61328125 C-116.58924196 161.57625771 -119.2329099 164.18835219 -122.28515625 166.640625 C-127.44867585 170.97715398 -127.44867585 170.97715398 -129.12890625 177.3125 C-128.87137534 180.81562595 -128.45282898 184.18277469 -127.78125 187.62890625 C-127.20503906 187.30535156 -126.62882812 186.98179687 -126.03515625 186.6484375 C-122.42591003 185.01583219 -119.72815226 185.31566004 -115.78125 185.62890625 C-113.78125 186.62890625 -113.78125 186.62890625 -112.78125 188.62890625 C-112.08875732 192.71461305 -111.81492095 195.11499073 -114.0703125 198.6484375 C-116.52527646 201.49014236 -119.02352297 204.0398605 -121.9921875 206.34765625 C-125.76681679 209.45457134 -127.86755652 211.78352071 -128.5078125 216.69140625 C-128.82987785 220.67619294 -128.85883137 224.63346592 -128.78125 228.62890625 C-128.04132813 228.14164062 -127.30140625 227.654375 -126.5390625 227.15234375 C-122.54980443 224.94864595 -120.29209801 225.19237257 -115.78125 225.62890625 C-113.78125 226.62890625 -113.78125 226.62890625 -112.78125 228.62890625 C-112.10867489 232.59709938 -111.83673989 235.05472273 -113.9296875 238.54296875 C-116.65243642 241.77042235 -119.71481351 244.58230405 -122.84765625 247.40234375 C-123.38229492 247.88469482 -123.91693359 248.3670459 -124.46777344 248.86401367 C-125.53283678 249.8153743 -126.60747486 250.75614783 -127.69238281 251.68481445 C-134.13330972 257.34398476 -135.39425789 265.06239932 -136.09375 273.31640625 C-135.60899846 278.45477254 -134.04434357 281.48904132 -130.21875 284.94140625 C-126.12335088 287.77668257 -122.71038715 288.40582804 -117.78125 287.62890625 C-113.16445059 285.5788177 -109.40286677 283.00066828 -106.78125 278.62890625 C-105.76754152 275.77996222 -105.04912976 272.88000914 -104.34375 269.94140625 C-104.13202148 269.07652588 -103.92029297 268.21164551 -103.70214844 267.32055664 C-101.0836352 256.21739311 -99.27559068 244.93446679 -97.78125 233.62890625 C-97.67522461 232.82751221 -97.56919922 232.02611816 -97.45996094 231.20043945 C-96.34981168 221.16831104 -96.53730602 211.02140274 -96.53125 200.94140625 C-96.53057526 199.93413483 -96.52990051 198.9268634 -96.52920532 197.8890686 C-96.5451446 182.91552835 -96.9796199 168.37905303 -99.78125 153.62890625 C-99.97412598 152.58959961 -100.16700195 151.55029297 -100.36572266 150.47949219 C-102.8939269 131.25009163 -102.8939269 131.25009163 -112.78125 115.62890625 C-120.10030132 110.7495387 -128.06929056 113.4049524 -133.59375 119.69140625 Z M-83.78125 251.62890625 C-85.10125 257.89890625 -86.42125 264.16890625 -87.78125 270.62890625 C-80.75107749 267.00043012 -74.83001548 262.71795111 -68.78125 257.62890625 C-71.9445345 255.95688445 -75.1634418 254.70669489 -78.53125 253.50390625 C-80.26375 252.88515625 -81.99625 252.26640625 -83.78125 251.62890625 Z " fill="#000000" transform="translate(455.78125,159.37109375)"/>
<path d="M0 0 C4.46618738 2.30885293 8.99260915 3.65899042 13.8125 5 C30.17092218 9.60191803 42.22230576 17.80478481 51.3125 32.5 C56.84398396 43.32012227 58.02120366 54.64196501 58.625 66.625 C59.14519084 74.51619696 61.22114054 82.04105981 63.15625 89.6796875 C70.78847452 120.79544946 63.63557806 153.29698093 47.36328125 180.34375 C27.70108132 210.60481199 -0.47246508 235.53061058 -36.34765625 243.609375 C-56.15900016 247.40028419 -76.87377949 244.92300817 -94.6875 235.5 C-95.62722656 235.02046875 -96.56695312 234.5409375 -97.53515625 234.046875 C-111.84420868 226.27964233 -122.54281006 215.28781698 -132.0703125 202.23828125 C-137.55515325 194.79642335 -143.2647679 189.12564959 -150.6875 183.5 C-162.88411064 173.93403087 -172.11949906 159.9823686 -174.6875 144.5 C-176.4278807 123.25688995 -172.83154411 106.8523619 -160.0625 89.4375 C-156.24044169 84.14607261 -154.05559859 78.54786854 -151.6875 72.5 C-141.55808749 48.02586877 -128.1964008 25.57704486 -106.6875 9.5 C-105.85089844 8.82582031 -105.01429688 8.15164062 -104.15234375 7.45703125 C-74.08467444 -15.98940168 -33.12912549 -17.73186415 0 0 Z M-104.6875 30.5 C-105.34363281 31.07234375 -105.99976563 31.6446875 -106.67578125 32.234375 C-121.5232894 45.98338016 -130.13347939 64.8450789 -137.32446289 83.31176758 C-140.254547 90.60737849 -143.57842307 97.02816705 -148.125 103.4375 C-156.71527774 115.60163698 -159.29039303 126.69215777 -157.6875 141.5 C-154.91379963 155.47757994 -146.28056099 165.5608727 -135.1875 174 C-127.71392801 179.69170834 -122.16766998 186.04611991 -116.75390625 193.6953125 C-104.17241727 210.77188923 -86.90813319 223.76583736 -65.6875 227.5 C-37.64975771 229.62696067 -14.45076844 220.76422309 6.71875 202.6171875 C24.01744995 187.36602731 36.92146602 168.37374442 44.3125 146.5 C44.53550781 145.84805664 44.75851562 145.19611328 44.98828125 144.52441406 C51.26545667 125.25964718 49.23535937 105.14935404 44.59277344 85.79003906 C42.77957498 78.14977306 41.69198841 70.770549 41.1875 62.9375 C40.24426198 49.07354759 36.77061895 39.38763846 26.5 29.75 C19.53700109 23.98661888 11.67124831 22.00793671 3.1003418 19.63842773 C-2.32938291 18.06863543 -7.25870999 15.95251805 -12.3125 13.4375 C-46.05052688 -3.21278728 -77.9418669 6.38922684 -104.6875 30.5 Z " fill="#000000" transform="translate(238.6875,219.5)"/>
<path d="M0 0 C10.25043521 7.74112867 18.70526266 17.59173526 20.6875 30.6875 C21.96836177 44.82795902 21.06844427 57.71255554 12.4375 69.5625 C4.06048815 79.29647921 -6.30950268 87.6011099 -19.55273438 88.90869141 C-36.29194278 89.71018162 -48.24843021 87.01387295 -61.27734375 76.03125 C-69.90636197 68.02533375 -74.97975631 57.73921602 -75.62890625 46.03125 C-76.18819388 29.34451548 -72.52277041 17.35708981 -61 4.9375 C-44.70456176 -10.48496833 -18.58433045 -12.3339951 0 0 Z M-51.6875 20 C-52.60189765 21.20014692 -53.47797748 22.43050045 -54.3125 23.6875 C-54.725 24.30882812 -55.1375 24.93015625 -55.5625 25.5703125 C-59.3965359 32.57275306 -59.55079811 40.93367069 -58.3125 48.6875 C-55.24366396 58.58841626 -49.25642614 65.23241136 -40.25 70.125 C-32.35965975 73.27840588 -22.73309304 72.94051701 -14.8125 70.0625 C-6.30215712 66.00458817 -1.45066822 60.10270114 2.6875 51.6875 C5.43864015 43.61748891 4.60631259 33.54987259 0.99609375 25.9296875 C-4.24884802 16.94283205 -11.64813953 11.77665632 -21.734375 9.02734375 C-33.02744796 7.28532718 -43.98864761 11.68214441 -51.6875 20 Z " fill="#000000" transform="translate(219.3125,295.3125)"/>
<path d="M0 0 C4.45850936 0.79616239 5.90783917 1.93313458 8.5 5.625 C9.29902617 13.22080572 6.70503064 20.4754086 4.80859375 27.76171875 C1.08503413 42.5288113 0.09268464 56.85217583 0.125 72 C0.12487915 72.87429657 0.1247583 73.74859314 0.12463379 74.64938354 C0.16155104 93.4739645 2.19092736 111.4856186 7.765625 129.5390625 C8.89068528 134.26670941 9.22085928 138.15193973 7.0625 142.5625 C3.81994075 145.17236476 1.77263545 145.21964665 -2.28125 145.2890625 C-5.75068083 144.25067651 -6.6188964 142.72170429 -8.5 139.625 C-9.78569916 136.03901568 -10.68625082 132.39227099 -11.5625 128.6875 C-11.94764771 127.09264771 -11.94764771 127.09264771 -12.34057617 125.46557617 C-20.74265783 89.4692333 -20.14332413 52.46678731 -11.625 16.5625 C-11.39272705 15.54502686 -11.1604541 14.52755371 -10.92114258 13.47924805 C-9.210781 6.67059373 -7.60627562 1.3582635 0 0 Z " fill="#000000" transform="translate(49.5,183.375)"/>
<path d="M0 0 C1.42572327 0.00081573 1.42572327 0.00081573 2.88024902 0.00164795 C18.00491568 0.04138445 32.41023371 0.90514987 47.1875 4.375 C48.1863623 4.60525879 49.18522461 4.83551758 50.21435547 5.07275391 C83.06928584 12.80302078 83.06928584 12.80302078 88.1875 19.375 C88.68359375 21.62890625 88.68359375 21.62890625 88.625 23.9375 C88.62306641 25.08412109 88.62306641 25.08412109 88.62109375 26.25390625 C88.05989078 28.9992505 87.52033352 29.80546579 85.1875 31.375 C78.87953604 33.17727542 74.50393055 31.46136619 68.625 29.25 C52.98274366 23.7110163 36.74129216 19.8331919 20.1875 18.375 C19.44258301 18.30796875 18.69766602 18.2409375 17.93017578 18.171875 C8.5259459 17.38456173 -0.75047342 17.22250875 -10.1640625 17.8671875 C-11.24304558 17.94102661 -11.24304558 17.94102661 -12.34382629 18.01635742 C-15.93630194 18.27059068 -19.52394873 18.5552162 -23.11108398 18.87597656 C-25.08443726 19.03404785 -25.08443726 19.03404785 -27.09765625 19.1953125 C-28.85928101 19.35410889 -28.85928101 19.35410889 -30.65649414 19.51611328 C-34.26419936 19.35480334 -35.96606576 18.54849918 -38.8125 16.375 C-40.37950442 13.24099115 -40.66414561 9.74344905 -39.8125 6.375 C-30.4543341 -2.53088102 -12.16576418 -0.02618398 0 0 Z " fill="#000000" transform="translate(255.8125,31.625)"/>
<path d="M0 0 C0.66 -0.0103125 1.32 -0.020625 2 -0.03125 C5.05368756 0.77988576 6.09111769 1.96980288 8 4.5 C8.60114553 7.49736221 8.56057764 10.45109277 8.53125 13.5 C8.5350769 14.37269531 8.53890381 15.24539062 8.54284668 16.14453125 C8.5455649 17.98699092 8.53820994 19.82948924 8.52148438 21.671875 C8.50007248 24.49045934 8.52128801 27.30649485 8.546875 30.125 C8.54423171 31.91667229 8.53910669 33.70834299 8.53125 35.5 C8.53934692 36.34175781 8.54744385 37.18351562 8.55578613 38.05078125 C8.46235399 43.88715618 8.46235399 43.88715618 6.09179688 47.02929688 C3.8272647 48.62144695 2.7390083 49.042797 0 49 C-0.99 49.01546875 -0.99 49.01546875 -2 49.03125 C-5.05368756 48.22011424 -6.09111769 47.03019712 -8 44.5 C-8.60114553 41.50263779 -8.56057764 38.54890723 -8.53125 35.5 C-8.5350769 34.62730469 -8.53890381 33.75460938 -8.54284668 32.85546875 C-8.5455649 31.01300908 -8.53820994 29.17051076 -8.52148438 27.328125 C-8.50007248 24.50954066 -8.52128801 21.69350515 -8.546875 18.875 C-8.54423171 17.08332771 -8.53910669 15.29165701 -8.53125 13.5 C-8.53934692 12.65824219 -8.54744385 11.81648438 -8.55578613 10.94921875 C-8.46235399 5.11284382 -8.46235399 5.11284382 -6.09179688 1.97070312 C-3.8272647 0.37855305 -2.7390083 -0.042797 0 0 Z " fill="#000000" transform="translate(184,79.5)"/>
<path d="M0 0 C0.66 -0.0103125 1.32 -0.020625 2 -0.03125 C5.05368756 0.77988576 6.09111769 1.96980288 8 4.5 C8.60114553 7.49736221 8.56057764 10.45109277 8.53125 13.5 C8.5350769 14.37269531 8.53890381 15.24539062 8.54284668 16.14453125 C8.5455649 17.98699092 8.53820994 19.82948924 8.52148438 21.671875 C8.50007248 24.49045934 8.52128801 27.30649485 8.546875 30.125 C8.54423171 31.91667229 8.53910669 33.70834299 8.53125 35.5 C8.53934692 36.34175781 8.54744385 37.18351562 8.55578613 38.05078125 C8.46235399 43.88715618 8.46235399 43.88715618 6.09179688 47.02929688 C3.8272647 48.62144695 2.7390083 49.042797 0 49 C-0.99 49.01546875 -0.99 49.01546875 -2 49.03125 C-5.05368756 48.22011424 -6.09111769 47.03019712 -8 44.5 C-8.60114553 41.50263779 -8.56057764 38.54890723 -8.53125 35.5 C-8.5350769 34.62730469 -8.53890381 33.75460938 -8.54284668 32.85546875 C-8.5455649 31.01300908 -8.53820994 29.17051076 -8.52148438 27.328125 C-8.50007248 24.50954066 -8.52128801 21.69350515 -8.546875 18.875 C-8.54423171 17.08332771 -8.53910669 15.29165701 -8.53125 13.5 C-8.53934692 12.65824219 -8.54744385 11.81648438 -8.55578613 10.94921875 C-8.46235399 5.11284382 -8.46235399 5.11284382 -6.09179688 1.97070312 C-3.8272647 0.37855305 -2.7390083 -0.042797 0 0 Z " fill="#000000" transform="translate(152,79.5)"/>
<path d="M0 0 C0.66 -0.0103125 1.32 -0.020625 2 -0.03125 C5.05368756 0.77988576 6.09111769 1.96980288 8 4.5 C8.60114553 7.49736221 8.56057764 10.45109277 8.53125 13.5 C8.5350769 14.37269531 8.53890381 15.24539062 8.54284668 16.14453125 C8.5455649 17.98699092 8.53820994 19.82948924 8.52148438 21.671875 C8.50007248 24.49045934 8.52128801 27.30649485 8.546875 30.125 C8.54423171 31.91667229 8.53910669 33.70834299 8.53125 35.5 C8.53934692 36.34175781 8.54744385 37.18351562 8.55578613 38.05078125 C8.46235399 43.88715618 8.46235399 43.88715618 6.09179688 47.02929688 C3.8272647 48.62144695 2.7390083 49.042797 0 49 C-0.99 49.01546875 -0.99 49.01546875 -2 49.03125 C-5.05368756 48.22011424 -6.09111769 47.03019712 -8 44.5 C-8.60114553 41.50263779 -8.56057764 38.54890723 -8.53125 35.5 C-8.5350769 34.62730469 -8.53890381 33.75460938 -8.54284668 32.85546875 C-8.5455649 31.01300908 -8.53820994 29.17051076 -8.52148438 27.328125 C-8.50007248 24.50954066 -8.52128801 21.69350515 -8.546875 18.875 C-8.54423171 17.08332771 -8.53910669 15.29165701 -8.53125 13.5 C-8.53934692 12.65824219 -8.54744385 11.81648438 -8.55578613 10.94921875 C-8.46235399 5.11284382 -8.46235399 5.11284382 -6.09179688 1.97070312 C-3.8272647 0.37855305 -2.7390083 -0.042797 0 0 Z " fill="#000000" transform="translate(120,79.5)"/>
</svg>
