<?xml version="1.0" encoding="UTF-8"?>
<svg version="1.1" xmlns="http://www.w3.org/2000/svg" width="512" height="512">
<path d="M0 0 C0.71882355 0.0012085 1.43764709 0.00241699 2.17825317 0.00366211 C32.14155892 0.13933439 60.41610508 8.04655531 87.1875 21.375 C88.30608398 21.92607422 88.30608398 21.92607422 89.44726562 22.48828125 C112.9444959 34.16469243 133.41401095 50.25005527 152.5625 68.0625 C153.21637695 68.66787598 153.87025391 69.27325195 154.54394531 69.89697266 C159.06604856 74.14839474 163.15901113 78.65771804 167.1875 83.375 C168.47333984 84.82132813 168.47333984 84.82132813 169.78515625 86.296875 C197.85438056 118.50308482 217.33683748 158.15195358 224.1875 200.375 C224.38085938 201.55578125 224.57421875 202.7365625 224.7734375 203.953125 C226.84224863 221.63643029 226.80035592 242.15199991 222.1875 259.375 C221.89746094 260.46409668 221.89746094 260.46409668 221.6015625 261.57519531 C217.73200065 275.49486919 211.87561444 288.92583868 202.5625 300.0625 C199.20107052 304.40792357 198.84194347 306.98977947 199.375 312.4375 C199.61283203 314.20673828 199.61283203 314.20673828 199.85546875 316.01171875 C200.5140781 322.68304404 198.44259726 328.16041945 194.5 333.5 C191.1066573 336.9402235 187.34173133 339.05749213 183.0390625 341.15234375 C181.98742165 341.67031273 181.98742165 341.67031273 180.91453552 342.19874573 C173.62524494 345.73492468 166.16682874 348.8246396 158.65274048 351.84628296 C155.3036806 353.1930446 151.96047871 354.5540968 148.616745 355.91401672 C146.85475904 356.63046473 145.09247818 357.34618786 143.32991028 358.061203 C133.19741397 362.1739268 123.09868353 366.367602 113 370.5625 C111.28070559 371.27602114 109.56138657 371.98948298 107.84204102 372.70288086 C99.28753448 376.25307609 90.73556527 379.80932066 82.1875 383.375 C82.59218506 383.99415283 82.99687012 384.61330566 83.41381836 385.2512207 C85.98207203 389.26565806 87.29811559 391.39526194 86.75 396.25 C83.8135233 402.1229534 78.67577044 403.55454221 72.84765625 405.78125 C72.0227066 406.10206543 71.19775696 406.42288086 70.34780884 406.75341797 C67.65093301 407.80025172 64.95062038 408.83786868 62.25 409.875 C60.3661398 410.60312113 58.48243329 411.33164005 56.59887695 412.06054688 C51.95542109 413.85533631 47.308887 415.6419862 42.66101074 417.42529297 C40.4818776 418.26197341 38.30363335 419.10089265 36.12597656 419.94140625 C27.83289563 423.1392875 19.51975397 426.2806638 11.1875 429.375 C10.05519958 429.79561707 10.05519958 429.79561707 8.90002441 430.22473145 C-21.48332641 441.49753273 -52.07261116 452.11694452 -82.8125 462.375 C-83.71826782 462.67770813 -84.62403564 462.98041626 -85.55725098 463.29229736 C-105.85110338 470.06986191 -126.23351899 476.49063232 -146.75 482.5625 C-147.69760193 482.84339478 -148.64520386 483.12428955 -149.621521 483.41369629 C-152.31807331 484.21101986 -155.01607414 485.00318623 -157.71484375 485.79296875 C-158.89815025 486.14203529 -158.89815025 486.14203529 -160.10536194 486.49815369 C-183.61702976 493.32903277 -206.52469811 492.19841333 -228.2421875 480.45703125 C-232.81447882 477.86398822 -236.85248318 474.82244679 -240.8125 471.375 C-241.39902344 470.93027344 -241.98554688 470.48554688 -242.58984375 470.02734375 C-256.61624267 459.11792237 -265.87041866 440.0796545 -268.52685547 422.73535156 C-269.05556479 418.3664954 -269.28741945 414.02357668 -269.375 409.625 C-269.40207031 408.81788574 -269.42914063 408.01077148 -269.45703125 407.17919922 C-269.33655003 387.60476586 -261.05383755 367.77250959 -255.21613693 349.31805801 C-254.55202898 347.2168705 -253.89032517 345.11493937 -253.22927856 343.01278687 C-234.28983584 282.80434487 -213.57275666 223.25009279 -190.8125 164.375 C-190.5209906 163.61928711 -190.2294812 162.86357422 -189.92913818 162.08496094 C-188.14426779 157.46316396 -186.3324379 152.85314953 -184.5 148.25 C-184.07396484 147.15929199 -183.64792969 146.06858398 -183.20898438 144.94482422 C-182.81388672 143.9704541 -182.41878906 142.99608398 -182.01171875 141.9921875 C-181.68002686 141.16315918 -181.34833496 140.33413086 -181.0065918 139.47998047 C-179.60116149 137.00244619 -178.23700896 135.84564656 -175.8125 134.375 C-171.72602215 133.75314467 -170.10603861 134.20330761 -166.5 136.3125 C-163.8125 138.375 -163.8125 138.375 -162.8125 139.375 C-156.59360407 125.40246775 -150.68396366 111.31066426 -144.85549927 97.17175293 C-143.62000007 94.17537398 -142.38232789 91.17989991 -141.14428711 88.18457031 C-137.57891083 79.55198937 -134.02144824 70.91702607 -130.5344696 62.25242615 C-129.19897748 58.93851149 -127.85187924 55.62938559 -126.50302124 52.32089233 C-125.88452113 50.79464061 -125.27173743 49.26605765 -124.66519165 47.73501587 C-120.29848461 36.71696618 -115.91065523 27.30192166 -104.546875 22.22265625 C-97.28894009 19.97269643 -91.17507889 20.54361642 -84.5 24 C-81.80150468 25.26181856 -81.80150468 25.26181856 -78.8125 25.375 C-74.78050313 23.39808021 -71.41213985 20.92913421 -67.82421875 18.25390625 C-48.67642692 4.05626713 -23.22201539 -0.07282905 0 0 Z M-30.8125 20.375 C-31.49376953 20.57367676 -32.17503906 20.77235352 -32.87695312 20.97705078 C-43.33991035 24.12017587 -52.56259843 28.59930868 -61.8125 34.375 C-61.8125 35.695 -61.8125 37.015 -61.8125 38.375 C-59.77150153 40.38060544 -57.79922124 42.11723405 -55.5625 43.875 C-54.38930934 44.82128785 -53.21740549 45.76917358 -52.046875 46.71875 C-51.2125293 47.39164063 -51.2125293 47.39164063 -50.36132812 48.078125 C-48.38939188 49.72927969 -46.58582108 51.51389075 -44.8125 53.375 C-40.59643795 52.00324465 -40.59643795 52.00324465 -36.4921875 50.3359375 C-26.83584408 46.87316712 -17.26002593 49.7351069 -8.1184082 53.24023438 C1.74069765 56.96407294 8.61421112 54.47005407 18.09765625 50.86328125 C26.18433794 47.96249499 35.01626493 46.61545544 43.1640625 50.140625 C47.6865163 52.89949643 51.38624772 56.72108308 55.1875 60.375 C56.76086959 61.86476058 58.34371014 63.34460615 59.9375 64.8125 C60.61296875 65.45058594 61.2884375 66.08867188 61.984375 66.74609375 C67.20447338 70.60563457 72.71448689 70.65335366 78.9375 70.8125 C88.52205694 71.2190765 98.13429963 72.14807548 105.1875 79.375 C108.93789038 84.40015361 111.43650172 89.82323641 113.75 95.625 C117.90160731 105.77049037 123.52304208 108.93944655 133.1875 113.375 C143.11784693 118.10700233 149.0871294 121.74557774 153.1875 132.375 C154.39974183 137.86077789 154.47788432 143.41276277 154.6171875 149.00976562 C154.93913884 156.4750124 157.23856011 161.84997749 162.4375 167.3125 C163.22898437 168.16457031 164.02046875 169.01664063 164.8359375 169.89453125 C166.29713095 171.43582334 167.7603076 172.97524091 169.2265625 174.51171875 C175.59175859 181.40509068 177.53632313 187.03448853 177.44360352 196.39916992 C177.02413418 201.27325163 175.41670121 205.57833582 173.6875 210.125 C169.94293676 220.14423679 169.57695351 226.42370071 173.1875 236.5 C175.95006758 244.75179416 178.55885192 253.30511979 175.23828125 261.8046875 C174.2586712 263.68141411 173.22698041 265.53076056 172.1875 267.375 C172.36397646 271.54866831 175.37202858 274.26486508 178 277.25 C181.37754947 281.12847824 184.41558472 285.04590154 187.1875 289.375 C193.13067392 287.22702362 195.48020419 280.99253812 198.14404297 275.65869141 C200.06515809 271.4541732 201.58917059 267.128331 203.0625 262.75 C203.34843018 261.9046167 203.63436035 261.0592334 203.92895508 260.18823242 C207.57327044 248.80672155 208.55423612 237.72458468 208.5 225.8125 C208.49626877 224.82597443 208.49626877 224.82597443 208.49246216 223.81951904 C208.42801114 212.75369738 207.77229156 202.15115553 205.1875 191.375 C204.9723877 190.47716797 204.75727539 189.57933594 204.53564453 188.65429688 C192.34001999 139.673092 161.27486615 94.07108224 121.1875 63.375 C120.64432129 62.95541016 120.10114258 62.53582031 119.54150391 62.10351562 C85.5164069 35.95238917 44.40897535 16.87459901 0.875 17.0625 C-0.14705536 17.06573273 -0.14705536 17.06573273 -1.1897583 17.06903076 C-11.36252997 17.12061773 -20.98217779 17.5060183 -30.8125 20.375 Z M-103.8125 43.375 C-105.0906974 45.83883324 -106.17817428 48.17304882 -107.203125 50.734375 C-107.50488647 51.45905472 -107.80664795 52.18373444 -108.11755371 52.93037415 C-109.11096491 55.32390941 -110.08664715 57.72425884 -111.0625 60.125 C-111.76218155 61.82006135 -112.46305095 63.51463282 -113.16503906 65.20874023 C-114.64003979 68.77369989 -116.10792324 72.34146995 -117.5703125 75.91162109 C-119.76956731 81.27756835 -121.99106768 86.6340833 -124.21875 91.98828125 C-126.38296819 97.19049075 -128.54589776 102.39317304 -130.69580078 107.60131836 C-133.66264356 114.78838681 -136.63084531 121.97380375 -139.67614746 129.12806702 C-140.83448057 131.84957867 -141.98535933 134.57421334 -143.13586426 137.29904175 C-143.91555906 139.1358125 -144.70712547 140.96752964 -145.49902344 142.79907227 C-145.95567383 143.88244873 -146.41232422 144.9658252 -146.8828125 146.08203125 C-147.28258301 147.0150708 -147.68235352 147.94811035 -148.09423828 148.90942383 C-148.90984373 151.70915172 -148.79302575 152.67348335 -147.8125 155.375 C-146.35878663 157.26983013 -146.35878663 157.26983013 -144.46531677 159.08294678 C-143.39045013 160.1639994 -143.39045013 160.1639994 -142.29386902 161.26689148 C-141.10704277 162.43753899 -141.10704277 162.43753899 -139.89624023 163.63183594 C-139.06704071 164.46147354 -138.23784119 165.29111115 -137.3835144 166.14588928 C-135.1100863 168.41758546 -132.8301397 170.68248606 -130.54713321 172.94454861 C-128.16213705 175.31079134 -125.7856335 177.68553213 -123.40821838 180.05938721 C-118.90578535 184.55249586 -114.39575962 189.03790246 -109.88296038 193.52059674 C-104.74532269 198.62470269 -99.61620066 203.73732952 -94.48777854 208.85069227 C-83.93880473 219.36830816 -73.37917697 229.87516775 -62.8125 240.375 C-59.27721378 238.98864123 -55.98954129 237.45419448 -52.6640625 235.6171875 C-38.74111843 228.06455671 -24.95305908 222.03811111 -9.8125 217.375 C-2.17270517 181.67714914 -6.7092935 144.10827253 -22.8125 111.375 C-23.11913574 110.74400391 -23.42577148 110.11300781 -23.74169922 109.46289062 C-37.81918076 80.82627189 -62.91946637 51.04413461 -92.8125 38.375 C-98.46262588 37.43689292 -100.18406821 39.17504029 -103.8125 43.375 Z M20.125 67.3125 C5.55308254 73.143973 -5.26186705 71.54887991 -19.92578125 66.25 C-23.75628882 65.08892599 -26.83245087 65.23775693 -30.8125 65.375 C-30.8125 69.47660995 -28.66202348 71.45402751 -26.1875 74.5 C-23.0046153 78.42603489 -20.417096 82.06312923 -18.1875 86.625 C-16.92229988 88.86990588 -16.92229988 88.86990588 -14.8125 90.375 C-10.75314415 91.13002242 -6.9052942 91.2669466 -2.7890625 91.29296875 C7.90065302 91.51348351 17.24232997 96.48649975 24.875 103.8125 C27.55774131 106.22375255 27.55774131 106.22375255 31.25 106.25 C31.82878906 106.10820313 32.40757812 105.96640625 33.00390625 105.8203125 C49.76959526 102.40119167 69.14403176 108.08316478 83.3125 117 C99.96984998 128.7283587 109.81819521 144.42325594 114.61621094 164.05053711 C115.7926831 170.89670009 115.14280583 177.84578108 114.71875 184.74804688 C114.36450316 190.96732674 114.36450316 190.96732674 116.6472168 196.54882812 C118.46438164 198.34974472 118.46438164 198.34974472 120.42822266 199.91381836 C125.83238351 204.40228667 128.59669583 213.1624302 130.015625 219.90234375 C130.1875 222.375 130.1875 222.375 129.734375 225.69140625 C129.27056684 229.67242627 129.11708973 232.49586858 130.1875 236.375 C133.97027295 240.36702699 139.25180965 242.61691369 144.05761719 245.14550781 C148.47246594 247.69401518 152.1292925 251.17359009 155.9296875 254.5390625 C157.9611144 256.5852986 157.9611144 256.5852986 160.1875 256.375 C160.88442888 249.40571119 158.88647152 244.1241942 156.37890625 237.64453125 C152.05082187 225.76713248 154.24671125 215.83906683 158.69726562 204.40600586 C161.1423917 198.09114603 161.1423917 198.09114603 161.1875 191.375 C160.2569498 189.30410422 160.2569498 189.30410422 158.75 187.5625 C158.20601562 186.88445312 157.66203125 186.20640625 157.1015625 185.5078125 C155.03613135 183.20633208 152.85570853 181.07868177 150.625 178.9375 C140.68367629 169.18027488 139.04517449 158.77660449 138.61621094 145.40234375 C138.40137262 139.99928345 138.05674855 136.24424855 134.15625 132.34375 C130.19289572 129.71542032 126.01908088 127.81857304 121.6875 125.875 C107.36454347 119.44831353 102.56397235 110.60662953 95.9909668 96.82128906 C93.40282865 91.13215804 93.40282865 91.13215804 88.5 87.7109375 C85.80399151 87.31928762 83.1212078 87.18732168 80.40039062 87.08544922 C62.94317158 86.41135095 53.36967578 82.14574916 41.328125 69.390625 C38.1918753 66.43751397 35.71199285 64.57642812 31.37890625 64.00390625 C27.30679531 64.47740752 23.9023531 65.77122707 20.125 67.3125 Z M-5.8125 107.375 C-5.53051758 108.17905273 -5.24853516 108.98310547 -4.95800781 109.81152344 C0.51237999 125.51480702 5.58894583 140.89163398 8.1875 157.375 C11.11154838 157.68861228 11.11154838 157.68861228 12.65234375 156.1953125 C18.53574933 149.42237344 21.99899689 141.98911726 21.5703125 132.88671875 C20.40727403 125.25576228 17.02739856 118.46386947 11.1875 113.375 C5.57465739 109.36582671 0.97603181 108.04670736 -5.8125 107.375 Z M36.1875 121.375 C36.435 122.674375 36.435 122.674375 36.6875 124 C38.66850923 138.66538173 36.57233315 151.58149278 28.17578125 163.93359375 C24.75635476 168.13230015 20.48251491 172.07478089 15.37841797 174.08886719 C13.28492085 174.99407679 11.82266989 175.77515109 10.1875 177.375 C9.16798792 180.82034193 9.25449897 184.1781031 9.3125 187.75 C9.29674258 189.61200172 9.27847218 191.47398372 9.2578125 193.3359375 C9.25555664 194.28823242 9.25330078 195.24052734 9.25097656 196.22167969 C9.13559695 201.95338365 8.64892785 207.66233404 8.1875 213.375 C13.20939033 213.1923997 18.22275075 212.94640445 23.23876953 212.64257812 C24.9429791 212.54816925 26.6482238 212.47077777 28.35400391 212.41113281 C38.24028517 212.42827119 38.24028517 212.42827119 46.61108398 208.10742188 C48.13259605 205.56457668 49.20057067 203.16125432 50.1875 200.375 C55.68879712 192.02820437 66.50572739 186.38254874 76.1875 184.375 C77.99331755 184.29508896 79.80181809 184.26730177 81.609375 184.27734375 C82.63417969 184.28056641 83.65898437 184.28378906 84.71484375 184.28710938 C85.77832031 184.29548828 86.84179688 184.30386719 87.9375 184.3125 C89.01644531 184.31701172 90.09539062 184.32152344 91.20703125 184.32617188 C93.86724383 184.33794273 96.52734365 184.35438601 99.1875 184.375 C100.05154591 167.02207799 95.78413901 152.54249848 84.1875 139.375 C73.95380114 128.40741039 59.6784194 121.94245281 44.70703125 121.203125 C41.85864371 121.18976797 39.03212259 121.23661296 36.1875 121.375 Z M-169.8125 158.375 C-171.15141561 161.66442366 -172.48267703 164.95689109 -173.8125 168.25 C-174.38484375 169.65572266 -174.38484375 169.65572266 -174.96875 171.08984375 C-175.3296875 171.98574219 -175.690625 172.88164062 -176.0625 173.8046875 C-176.39765625 174.63210449 -176.7328125 175.45952148 -177.078125 176.31201172 C-177.92428719 178.32406304 -177.92428719 178.32406304 -177.8125 180.375 C-167.9125 180.375 -158.0125 180.375 -147.8125 180.375 C-152.60749288 174.74484413 -152.60749288 174.74484413 -157.64453125 169.41015625 C-158.29744141 168.75595703 -158.95035156 168.10175781 -159.62304688 167.42773438 C-160.28369141 166.77095703 -160.94433594 166.11417969 -161.625 165.4375 C-162.30498047 164.75365234 -162.98496094 164.06980469 -163.68554688 163.36523438 C-164.33201172 162.72005859 -164.97847656 162.07488281 -165.64453125 161.41015625 C-166.22952393 160.8262915 -166.8145166 160.24242676 -167.41723633 159.64086914 C-168.62194764 158.26301155 -168.62194764 158.26301155 -169.8125 158.375 Z M-184.8125 197.375 C-186.95283196 203.17590681 -189.08897133 208.97833318 -191.22119141 214.78222656 C-191.94757072 216.75758831 -192.67510633 218.73252525 -193.40380859 220.70703125 C-194.44931405 223.54056439 -195.49069017 226.37558506 -196.53125 229.2109375 C-196.85935669 230.09743988 -197.18746338 230.98394226 -197.5255127 231.89730835 C-197.97597961 233.128358 -197.97597961 233.128358 -198.43554688 234.38427734 C-198.70202026 235.10819672 -198.96849365 235.83211609 -199.24304199 236.57797241 C-199.91319473 238.37857759 -199.91319473 238.37857759 -199.8125 240.375 C-162.8525 240.375 -125.8925 240.375 -87.8125 240.375 C-89.7925 238.065 -91.7725 235.755 -93.8125 233.375 C-94.86606001 232.02075166 -95.90695387 230.65638291 -96.92553711 229.27563477 C-113.24333198 207.36203502 -113.24333198 207.36203502 -136.88916016 195.70068359 C-152.76631958 193.83306086 -169.01721137 195.30193692 -184.8125 197.375 Z M63.34179688 210.94702148 C62.77041992 211.65387085 62.77041992 211.65387085 62.1875 212.375 C63.25726074 212.59265015 63.25726074 212.59265015 64.34863281 212.81469727 C81.55750166 216.36005572 97.90850702 220.75963234 114.1875 227.375 C113.04005875 217.89871796 109.76688018 210.93421267 102.1875 204.9375 C89.24830584 195.47571427 72.9451613 199.35494536 63.34179688 210.94702148 Z M-48.8125 252.375 C-47.26842568 256.04771805 -45.05056501 258.38361205 -42.24411011 261.18389893 C-41.77687629 261.65284159 -41.30964247 262.12178426 -40.82825005 262.60493731 C-39.26374735 264.17273037 -37.69221104 265.73327491 -36.12060547 267.29394531 C-34.99674246 268.41724411 -33.87331979 269.54098363 -32.75030518 270.66513062 C-29.70126422 273.71474569 -26.64609346 276.7581524 -23.58979559 279.80049229 C-20.39647165 282.98131887 -17.20880564 286.16780516 -14.02053833 289.35369873 C-7.98263988 295.3853795 -1.93966099 301.41194363 4.10515392 307.436692 C10.98688193 314.29607002 17.8629359 321.16112381 24.73851609 328.0266633 C38.88186724 342.14910591 53.03233862 356.26439567 67.1875 370.375 C69.74959692 369.41812634 72.31134178 368.46032798 74.87289429 367.5019989 C75.95431654 367.09827977 75.95431654 367.09827977 77.05758572 366.68640471 C82.26504697 364.73703962 87.42102769 362.6936672 92.5390625 360.51953125 C93.34666519 360.17980789 94.15426788 359.84008453 94.98634338 359.49006653 C97.59618211 358.39184808 100.20432038 357.28965206 102.8125 356.1875 C106.5916111 354.59566347 110.371815 353.00643519 114.15234375 351.41796875 C115.60973717 350.80532166 115.60973717 350.80532166 117.09657288 350.18029785 C124.36618601 347.12860848 131.65015366 344.11286613 138.94140625 341.11328125 C139.98576843 340.68342422 141.03013062 340.2535672 142.10614014 339.8106842 C146.1960971 338.12793822 150.28632216 336.445883 154.37896729 334.76968384 C157.20551119 333.61200018 160.03057807 332.45077314 162.85546875 331.2890625 C163.68389786 330.95123245 164.51232697 330.6134024 165.36585999 330.26533508 C174.62227864 326.85099066 174.62227864 326.85099066 182.25 321 C183.47264788 317.57658594 183.08195125 315.90704236 182.1875 312.375 C180.87963779 309.68441601 179.31216742 307.19678571 177.6875 304.6875 C177.23898682 303.98415527 176.79047363 303.28081055 176.32836914 302.55615234 C172.37173966 296.45649365 167.99384646 290.83176593 163.1875 285.375 C162.42308594 284.50101562 161.65867187 283.62703125 160.87109375 282.7265625 C158.67171644 280.24807639 156.44076316 277.80449603 154.1875 275.375 C153.64996094 274.78332031 153.11242187 274.19164062 152.55859375 273.58203125 C124.95119117 244.45241599 82.9080744 228.7373676 43.43359375 227.1484375 C10.51918667 226.32746556 -20.74626769 235.44118385 -48.8125 252.375 Z M-206.8125 257.375 C-208.81020281 263.17608002 -210.8039319 268.97850425 -212.79394531 274.78222656 C-213.47188245 276.75753909 -214.15091555 278.73247583 -214.83105469 280.70703125 C-215.80690357 283.54069157 -216.7788391 286.37566763 -217.75 289.2109375 C-218.05623291 290.09743988 -218.36246582 290.98394226 -218.67797852 291.89730835 C-219.09841431 293.128358 -219.09841431 293.128358 -219.52734375 294.38427734 C-219.77605225 295.10819672 -220.02476074 295.83211609 -220.28100586 296.57797241 C-220.90703937 298.38231608 -220.90703937 298.38231608 -220.8125 300.375 C-157.1225 300.375 -93.4325 300.375 -27.8125 300.375 C-29.7925 298.065 -31.7725 295.755 -33.8125 293.375 C-34.79384654 292.03986407 -35.75438531 290.68865508 -36.67559814 289.31134033 C-46.76849043 274.77462432 -59.25874329 259.20817092 -77.36743164 255.44360352 C-95.75315861 252.4863615 -114.9160698 253.81934639 -133.42281389 254.78203535 C-141.44208898 255.19166456 -149.46274227 255.38411123 -157.48994398 255.5633502 C-173.94303806 255.93535122 -190.37503175 256.56434646 -206.8125 257.375 Z M-226.8125 317.375 C-228.23177532 321.6032956 -229.64742383 325.83279741 -231.0625 330.0625 C-231.45824219 331.24134766 -231.85398437 332.42019531 -232.26171875 333.63476562 C-234.25652981 339.60284789 -236.21946778 345.5798259 -238.109375 351.58203125 C-238.43776367 352.62464111 -238.76615234 353.66725098 -239.10449219 354.74145508 C-239.94231175 357.40334564 -239.94231175 357.40334564 -239.8125 360.375 C-150.0525 360.375 -60.2925 360.375 32.1875 360.375 C30.2075 358.065 28.2275 355.755 26.1875 353.375 C25.11774347 352.03572556 24.05665421 350.68939935 23.01073837 349.33142471 C10.39082779 333.29769255 -3.15903476 316.48280255 -24.45514655 313.80398631 C-35.38446132 312.85228463 -46.33886385 313.23327357 -57.28129482 313.72481823 C-63.26530551 313.95385273 -69.25038139 313.97131003 -75.23809814 314.01373291 C-86.51599795 314.12451949 -97.78094975 314.41824555 -109.05320859 314.78231454 C-121.91047516 315.18832781 -134.76844716 315.38351249 -147.63055372 315.5633502 C-174.03164644 315.93709424 -200.42134063 316.56796115 -226.8125 317.375 Z M-245.8125 377.375 C-246.62770635 380.10338435 -247.43974843 382.83264417 -248.25 385.5625 C-248.59514648 386.71588867 -248.59514648 386.71588867 -248.94726562 387.89257812 C-250.56427771 393.35292327 -251.93728553 398.47186603 -251.9453125 404.203125 C-251.94660156 405.08484375 -251.94789063 405.9665625 -251.94921875 406.875 C-251.94535156 407.7825 -251.94148438 408.69 -251.9375 409.625 C-251.94136719 410.54796875 -251.94523437 411.4709375 -251.94921875 412.421875 C-251.94792969 413.2984375 -251.94664062 414.175 -251.9453125 415.078125 C-251.94418457 415.87895508 -251.94305664 416.67978516 -251.94189453 417.50488281 C-252.01715286 419.38921774 -252.01715286 419.38921774 -250.8125 420.375 C-247.86286035 420.50856946 -244.93552463 420.5763852 -241.98416138 420.60292053 C-240.57668587 420.62113575 -240.57668587 420.62113575 -239.14077652 420.63971895 C-235.9690521 420.67909574 -232.79729975 420.71089687 -229.62548828 420.74243164 C-227.36016093 420.76832699 -225.09483606 420.79443989 -222.82951355 420.820755 C-201.97215642 421.05339832 -181.11376123 421.18279646 -160.25540352 421.28612614 C-157.45086657 421.30027048 -154.64633118 421.31468684 -151.84179688 421.3293457 C-151.14486602 421.33297717 -150.44793517 421.33660863 -149.72988521 421.34035014 C-138.54852389 421.4003288 -127.36861739 421.51986465 -116.18805303 421.66358025 C-104.65154401 421.81060325 -93.11585836 421.8926218 -81.57844532 421.92108625 C-75.1242491 421.93884114 -68.67302616 421.98275047 -62.21976089 422.09724617 C-30.41949673 422.63758923 -4.60311904 419.66668644 24.50703812 406.45557976 C31.62747855 403.24166798 38.93856431 400.50122728 46.22979236 397.70364296 C51.56770063 395.64173528 56.87508844 393.50151198 62.1875 391.375 C59.64787019 385.52852684 55.2547114 381.13340558 50.1875 377.375 C45.99820239 376.03336585 42.12025645 376.05899682 37.74765015 376.17245483 C36.5303744 376.16391059 35.31309865 376.15536634 34.05893576 376.14656317 C30.7044492 376.13300409 27.35588458 376.16396435 24.00211883 376.21434379 C20.37718256 376.25774279 16.75241199 376.24289989 13.12728882 376.23532104 C6.85515891 376.23009071 0.58407346 376.26132306 -5.68779373 376.31769943 C-14.75554307 376.39915406 -23.82279009 376.42503225 -32.89086561 376.43757935 C-47.60477575 376.45943721 -62.31812985 376.52590823 -77.03173828 376.62060547 C-91.32012154 376.71247002 -105.60835349 376.78321749 -119.89697266 376.82568359 C-120.77849611 376.82831083 -121.66001957 376.83093806 -122.56825586 376.83364491 C-126.99083365 376.84669579 -131.41341252 376.85933275 -135.8359921 376.87176394 C-172.49522057 376.97534249 -209.1538169 377.15139549 -245.8125 377.375 Z M-244.8125 437.375 C-240.39440243 450.6292927 -228.88875938 460.8294101 -216.62109375 467.09375 C-207.29075447 471.35014956 -198.90357026 473.57468522 -188.6875 473.75 C-187.91535156 473.78738281 -187.14320313 473.82476562 -186.34765625 473.86328125 C-167.37424658 474.13219572 -147.52092034 464.98359571 -129.58856201 459.34332275 C-126.83430606 458.47846755 -124.0784294 457.61884608 -121.32253838 456.75921822 C-102.40878496 450.85675552 -83.58563076 444.71045905 -64.8125 438.375 C-64.8125 438.045 -64.8125 437.715 -64.8125 437.375 C-124.2125 437.375 -183.6125 437.375 -244.8125 437.375 Z " fill="#000000" transform="translate(277.8125,10.625)"/>
</svg>
