<?xml version="1.0" encoding="UTF-8"?>
<svg version="1.1" xmlns="http://www.w3.org/2000/svg" width="512" height="512">
<path d="M0 0 C1.87552551 -0.01279495 1.87552551 -0.01279495 3.78894043 -0.02584839 C5.17736829 -0.02514932 6.56579605 -0.02422623 7.95422363 -0.02310181 C9.41463566 -0.02908558 10.87504453 -0.03589078 12.33544922 -0.04345703 C16.30697473 -0.06114939 20.27841409 -0.06581404 24.2499752 -0.0670886 C26.73408784 -0.06851005 29.21817857 -0.07277974 31.70228577 -0.07808304 C40.37742502 -0.09660087 49.05250277 -0.10475232 57.72766113 -0.10317993 C65.79772198 -0.1019812 73.86751421 -0.12302615 81.93750715 -0.15466726 C88.8752745 -0.18089359 95.81295455 -0.19154442 102.75077105 -0.19026911 C106.88992778 -0.18976092 111.02884637 -0.19536328 115.16795349 -0.21662521 C119.06850274 -0.23611254 122.9685895 -0.23606122 126.86915588 -0.22159195 C128.29327069 -0.21951498 129.71741521 -0.22413774 131.14147949 -0.23631287 C141.9306757 -0.32250598 152.12122677 0.70711829 160.33117676 8.39242554 C161.09043457 9.07562866 161.84969238 9.75883179 162.63195801 10.46273804 C165.01867676 13.26742554 165.01867676 13.26742554 165.75198746 15.68791389 C167.02005281 19.18755854 168.12782052 20.87524231 171.01867676 23.26742554 C178.37509552 25.34633878 186.56348278 24.54370304 194.12316895 24.43099976 C196.53144809 24.43149311 198.93972983 24.43644045 201.34799194 24.44551086 C206.53429517 24.4554454 211.71954438 24.43508173 216.9056015 24.38766098 C224.41452158 24.31940989 231.92262239 24.31034952 239.43180814 24.31630684 C251.62960659 24.32475495 263.82690589 24.29156669 276.02453613 24.2293396 C287.84678635 24.16917089 299.6689659 24.1184842 311.49133301 24.08773804 C312.21890355 24.08583619 312.94647409 24.08393433 313.69609222 24.08197485 C321.64694433 24.06168046 329.59778953 24.04656859 337.54866409 24.03894234 C338.59835566 24.03793009 338.59835566 24.03793009 339.66925313 24.0368974 C342.46768013 24.03430392 345.26610691 24.03182162 348.06453457 24.03006043 C356.24225815 24.02486467 364.41953952 24.00352465 372.59711149 23.95239003 C378.33893609 23.91709228 384.08068552 23.90097268 389.82260513 23.89152718 C392.17277689 23.88409088 394.52293876 23.86971863 396.87302017 23.84781075 C400.08805782 23.81865169 403.30224616 23.8143148 406.51739502 23.81573486 C407.44134717 23.80115325 408.36529932 23.78657163 409.31725001 23.77154815 C418.87238951 23.82933695 426.44343476 26.99324942 433.33898926 33.55648804 C440.43336162 40.78284872 443.4082533 48.0977817 443.51867676 58.26742554 C443.33865051 70.83852636 438.45178588 78.00818423 429.70617676 86.51742554 C421.98831515 91.54300984 414.668457 92.85758263 405.58972168 92.78500366 C403.94634827 92.79551758 403.94634827 92.79551758 402.26977539 92.8062439 C398.6793012 92.82372796 395.08962649 92.81223874 391.49914551 92.79867554 C388.99192657 92.80137222 386.48470866 92.8052561 383.97749329 92.81027222 C378.06920658 92.81690451 372.16120703 92.80298286 366.25296241 92.78166914 C360.87331512 92.76447374 355.49404617 92.77667172 350.11442298 92.79621553 C344.27630103 92.81657139 338.43838317 92.81439808 332.60024452 92.8026886 C330.12310015 92.80002068 327.64594201 92.80329333 325.16881371 92.81260681 C321.71239007 92.82275625 318.25700533 92.80729482 314.80065918 92.78500366 C313.26623924 92.79714905 313.26623924 92.79714905 311.70082092 92.80953979 C307.28373106 92.75671902 304.73632098 92.70735908 300.90730286 90.3600769 C297.94940411 87.08264107 297.68550602 84.72870714 297.72570801 80.30648804 C298.18122642 77.13607987 299.77183333 75.44818534 302.01867676 73.26742554 C304.32188159 72.11582312 305.63591194 72.13560504 308.19828796 72.12266541 C309.07440735 72.11576691 309.95052673 72.10886841 310.85319519 72.10176086 C311.81683487 72.09914749 312.78047455 72.09653412 313.77331543 72.09384155 C315.2930748 72.08381104 315.2930748 72.08381104 316.84353638 72.07357788 C319.04959587 72.05950306 321.25567015 72.0476168 323.46175194 72.03763008 C326.95460208 72.02124757 330.44734337 71.99800907 333.94013977 71.97273254 C343.87324614 71.9018928 353.80639789 71.84190756 363.73962402 71.7906189 C369.81092458 71.75878871 375.88210183 71.71749795 381.95330238 71.67042351 C384.26688729 71.65442214 386.58050064 71.64209198 388.89412498 71.63351631 C392.13523203 71.62133337 395.37605061 71.59716897 398.61706543 71.57040405 C399.57058395 71.56981491 400.52410248 71.56922577 401.5065155 71.56861877 C408.18485105 71.49571283 413.68072658 71.25717037 418.95617676 66.76742554 C421.52999979 63.27865545 421.7357029 59.91892168 421.49914551 55.67367554 C420.67480961 51.54529415 419.24169158 50.01041688 416.01867676 47.26742554 C410.37064245 45.17292669 405.19970543 44.97606204 399.21742249 44.98895264 C398.24772315 44.98316023 397.27802382 44.97736783 396.27893966 44.9713999 C393.03923796 44.9544346 389.79967902 44.95152636 386.55993652 44.94857788 C384.23380689 44.93927733 381.90768058 44.92910846 379.58155823 44.9181366 C373.27226368 44.89083701 366.96299146 44.87568723 360.65365338 44.86270857 C354.72632165 44.84866189 348.79903125 44.82552747 342.87172889 44.80243821 C331.13467885 44.757013 319.3976186 44.72038057 307.66052246 44.68930054 C296.2617412 44.65909748 284.86298491 44.62473916 273.4642334 44.58480835 C272.76114151 44.5823468 272.05804961 44.57988525 271.33365191 44.57734911 C267.80630529 44.56497417 264.27895897 44.5525177 260.75161278 44.5400207 C231.50733625 44.43651688 202.26302563 44.34783634 173.01867676 44.26742554 C173.01867676 53.50742554 173.01867676 62.74742554 173.01867676 72.26742554 C176.57004395 72.20941772 180.12141113 72.15140991 183.78039551 72.09164429 C187.22234871 72.05264363 190.66427723 72.02228745 194.10632324 71.99276733 C196.49738595 71.96763239 198.8883719 71.9335192 201.2791748 71.89022827 C204.7172744 71.82953492 208.15435772 71.80120482 211.59289551 71.77914429 C212.66077805 71.75333786 213.72866058 71.72753143 214.8289032 71.70094299 C222.27281363 71.69813362 222.27281363 71.69813362 226.17028809 74.67294312 C228.89988277 78.50432638 229.473878 80.53333265 229.01867676 85.26742554 C225.86078202 90.84637291 225.86078202 90.84637291 223.01867676 92.26742554 C221.38493973 92.33574824 219.7483533 92.34057478 218.11340332 92.3140564 C217.09184143 92.3017247 216.07027954 92.28939301 215.01776123 92.27668762 C213.35532379 92.25470055 213.35532379 92.25470055 211.65930176 92.23226929 C209.32336977 92.22623882 206.98742896 92.22307405 204.65148926 92.22250366 C200.95916332 92.2207847 197.27005391 92.2049495 193.57824707 92.14071655 C190.02044007 92.08329414 186.46742858 92.08957193 182.90930176 92.10726929 C181.80910706 92.07439316 180.70891235 92.04151703 179.57537842 92.00764465 C176.42484456 92.05650263 173.98615091 92.19833685 171.01867676 93.26742554 C168.89016669 95.62972353 167.58418198 97.87783632 166.23052979 100.74839783 C162.55727935 108.38382838 155.53497056 112.08745508 148.01867676 115.26742554 C144.54085093 116.42670081 141.83064419 116.3805562 138.16320801 116.36508179 C137.17075325 116.36295937 137.17075325 116.36295937 136.1582489 116.36079407 C134.04917848 116.3552055 131.94021499 116.34265518 129.83117676 116.32992554 C128.39953767 116.32490906 126.96789691 116.32034641 125.53625488 116.31625366 C122.03036088 116.30523984 118.52452926 116.28798308 115.01867676 116.26742554 C115.62993408 117.00493042 116.24119141 117.7424353 116.87097168 118.50228882 C117.67639404 119.47923706 118.48181641 120.4561853 119.31164551 121.46273804 C120.10852783 122.42711792 120.90541016 123.3914978 121.72644043 124.38510132 C132.12962323 137.46636408 135.8122594 151.77024118 134.01867676 168.26742554 C131.85097213 179.31460474 127.22433049 187.82290033 119.95617676 196.26742554 C111.70962716 205.94297467 110.34851596 213.75002775 110.01867676 226.26742554 C110.7598877 226.29320679 111.50109863 226.31898804 112.26477051 226.34555054 C128.19715536 227.20359819 146.10404958 231.14592196 160.13195801 239.01351929 C164.78038683 241.0326609 167.82669921 239.71117434 172.42883301 237.99789429 C173.63410645 237.4887146 174.83937988 236.97953491 176.08117676 236.45492554 C182.95783053 233.63453513 189.8161403 231.14962148 197.01867676 229.26742554 C198.13887207 228.96707397 199.25906738 228.66672241 200.41320801 228.35726929 C237.88342862 220.0605675 277.24986011 228.35012675 309.33117676 248.70492554 C323.58383717 258.00510187 323.58383717 258.00510187 328.73742676 264.40023804 C333.92125541 270.83111981 340.05537845 271.95248023 347.74475098 273.91757202 C371.70563049 280.2179009 391.87633786 296.98012109 404.34680176 318.15414429 C411.58317095 330.91665806 415.87717105 343.62498639 417.01867676 358.26742554 C417.62864502 358.24124146 418.23861328 358.21505737 418.86706543 358.18807983 C421.64650434 358.08376835 424.42553115 358.01899571 427.20617676 357.95492554 C428.16588379 357.91303101 429.12559082 357.87113647 430.11437988 357.82797241 C434.58654125 357.75059938 437.26514058 357.81717597 441.16320801 360.14633179 C443.83217883 364.63582165 443.68602769 368.38620877 443.51867676 373.51742554 C443.50022705 374.49598511 443.48177734 375.47454468 443.46276855 376.48275757 C442.2979305 415.85620932 422.73702608 450.79650653 394.70617676 477.45492554 C370.44407951 498.87894579 337.94992134 512.43680131 305.49661255 512.40786743 C304.44906968 512.41083855 303.40152682 512.41380968 302.32224023 512.41687083 C298.81821223 512.42553009 295.31421851 512.42706376 291.81018066 512.42855835 C289.29489062 512.4331886 286.77960128 512.43821355 284.26431274 512.44360352 C277.43322489 512.45671236 270.60214826 512.46320716 263.77104998 512.46761417 C259.49854312 512.47038301 255.22603851 512.47462162 250.95353317 512.47911835 C239.1048554 512.49130892 227.25617941 512.50160733 215.4074955 512.50499344 C214.6498742 512.505213 213.8922529 512.50543257 213.11167338 512.50565879 C211.97263777 512.50598621 211.97263777 512.50598621 210.81059134 512.50632024 C209.27204299 512.50676369 207.73349464 512.50721025 206.19494629 512.50765991 C205.05020505 512.50799206 205.05020505 512.50799206 203.88233773 512.50833091 C191.53670795 512.51227273 179.1911374 512.52970885 166.84553047 512.55301943 C154.14501506 512.57680476 141.44452928 512.58919861 128.74399126 512.59036136 C121.62352099 512.59127431 114.50312785 512.59692983 107.38267899 512.61518097 C100.67674596 512.63230987 93.97098337 512.63378124 87.26502609 512.62504196 C84.81461953 512.62427546 82.36420489 512.6285627 79.91381836 512.63850021 C37.76014803 512.79931565 1.2948734 499.02089779 -28.98132324 469.26742554 C-53.92954701 444.39345244 -68.84112894 409.31614559 -69.35632324 374.14242554 C-69.39370605 373.16660522 -69.43108887 372.19078491 -69.46960449 371.18539429 C-69.52437695 366.72448161 -69.41655793 364.01183329 -67.13366699 360.10726929 C-62.49271855 357.39861164 -58.43532116 357.72502469 -53.16882324 357.95492554 C-52.18978027 357.97748413 -51.2107373 358.00004272 -50.20202637 358.02328491 C-47.79354869 358.08202827 -45.38823247 358.16410425 -42.98132324 358.26742554 C-42.95554199 357.4540271 -42.92976074 356.64062866 -42.90319824 355.80258179 C-41.21779904 321.74985697 -25.38247097 291.43926975 -1.98132324 267.26742554 C-1.22335449 266.48109741 -0.46538574 265.69476929 0.31555176 264.88461304 C3.69660133 261.4400099 7.0636538 258.05920645 11.01867676 255.26742554 C11.67867676 255.26742554 12.33867676 255.26742554 13.01867676 255.26742554 C12.41539551 254.41922241 11.81211426 253.57101929 11.19055176 252.69711304 C1.52508101 238.6980106 -1.92938152 224.8394349 0.49133301 207.97445679 C2.57764079 198.31747524 6.79944813 190.42152861 13.58117676 183.26742554 C20.11935572 176.31027389 24.28911802 167.96950592 24.01867676 158.26742554 C23.25156064 148.32687912 18.63533878 140.95162816 11.95617676 133.76742554 C7.51263739 128.97420265 3.01867676 123.02827865 3.01867676 116.26742554 C2.42699707 116.32543335 1.83531738 116.38344116 1.22570801 116.44320679 C-3.11646716 116.6911287 -5.30401319 116.7330762 -8.98132324 114.20492554 C-11.38945562 110.66798111 -11.98132324 108.54179147 -11.98132324 104.26742554 C-10.46615697 100.2522349 -9.57579795 98.66374201 -5.98132324 96.26742554 C-2.79382324 96.14242554 -2.79382324 96.14242554 0.01867676 96.26742554 C0.03285645 95.68476929 0.04703613 95.10211304 0.06164551 94.50180054 C0.60601285 85.14456734 4.09771383 77.16686603 9.01867676 69.26742554 C7.70512207 69.25324585 6.39156738 69.23906616 5.03820801 69.22445679 C3.30249625 69.17754566 1.56682024 69.12929833 -0.16882324 69.07992554 C-1.46529785 69.07122437 -1.46529785 69.07122437 -2.78796387 69.06234741 C-7.20437469 68.91005738 -9.39897302 68.69142386 -13.05554199 66.02914429 C-15.09034719 63.1110768 -15.66114795 61.77620672 -15.60632324 58.26742554 C-15.61921387 57.44242554 -15.63210449 56.61742554 -15.64538574 55.76742554 C-14.6659865 52.08027545 -12.93676333 50.64296524 -9.98132324 48.26742554 C-7.12530849 47.82793687 -4.89078867 47.67722567 -2.05554199 47.77914429 C-1.3079512 47.78621902 -0.56036041 47.79329376 0.20988464 47.80058289 C2.58469078 47.82844909 4.95709026 47.89116422 7.33117676 47.95492554 C8.94637694 47.98001885 10.5616143 48.00283023 12.17687988 48.02328491 C16.12506495 48.07824907 20.07146364 48.16446027 24.01867676 48.26742554 C24.0391238 46.69716842 24.05356222 45.1268325 24.06555176 43.55648804 C24.07860352 42.24478638 24.07860352 42.24478638 24.09191895 40.90658569 C23.88626287 33.49611173 21.39117831 27.74492705 18.01867676 21.26742554 C17.31782959 21.26331665 16.61698242 21.25920776 15.89489746 21.25497437 C12.70614471 21.22199182 9.51929071 21.15134222 6.33117676 21.07992554 C5.22838379 21.07412476 4.12559082 21.06832397 2.98937988 21.06234741 C-5.1955081 20.83979759 -5.1955081 20.83979759 -9.18835449 17.93148804 C-11.46744925 14.54512066 -11.98132324 12.34730194 -11.98132324 8.26742554 C-9.50439484 1.70356528 -6.871508 0.02114698 0 0 Z M42.01867676 20.26742554 C42.15435059 20.84460327 42.29002441 21.42178101 42.42980957 22.01644897 C45.78740465 36.63862432 46.31742736 51.67886926 39.01867676 65.26742554 C35.65624858 70.44757664 31.99829402 75.26943155 27.76867676 79.76742554 C22.27435493 86.07238501 20.24742517 94.29589355 20.65539551 102.52523804 C21.88241699 111.78727114 25.79787934 117.58224081 31.86730957 124.34750366 C41.22976416 134.93771794 44.86128045 147.30637321 45.01867676 161.26742554 C44.16951574 174.58667333 39.63589958 185.2017759 31.01867676 195.26742554 C23.79869861 203.77986891 20.25477039 210.77215323 20.61633301 222.15414429 C21.84121625 231.63212429 26.24888954 237.85924809 32.73352051 244.56039429 C41.78868177 255.28727763 45.70943091 269.65027834 44.80773926 283.50961304 C43.00206965 297.71648522 36.81591625 308.81028203 27.26867676 319.32992554 C22.13309659 326.03471076 20.33193685 332.90038238 20.62414551 341.29867554 C21.44934408 347.50809056 23.76810442 353.59421106 28.01867676 358.26742554 C30.23136878 358.81580149 30.23136878 358.81580149 32.68664551 358.65805054 C33.57932129 358.64515991 34.47199707 358.63226929 35.39172363 358.61898804 C36.32049316 358.58547241 37.2492627 358.55195679 38.20617676 358.51742554 C39.14654785 358.49937866 40.08691895 358.48133179 41.05578613 358.46273804 C43.37777564 358.41559104 45.69771365 358.34980785 48.01867676 358.26742554 C47.80211426 357.38441772 47.58555176 356.50140991 47.36242676 355.59164429 C43.64563367 339.57157777 44.41433374 326.05587155 52.01867676 311.26742554 C54.15928281 308.09152637 56.53508182 305.17960544 59.01867676 302.26742554 C65.26039079 294.86653604 69.90035298 286.49188989 69.33117676 276.51351929 C68.09741308 267.64584288 64.80198802 261.99082238 59.01867676 255.26742554 C48.48289292 242.78140086 43.75178935 229.65522715 45.01867676 213.26742554 C46.83805314 199.73788114 52.65899855 189.38874994 61.99914551 179.61898804 C67.30999425 173.43498234 69.36127833 165.78186104 69.22961426 157.76351929 C68.52509404 149.42669675 65.31690876 143.55367283 60.01867676 137.26742554 C50.3564507 125.55757542 44.14701613 112.86648514 44.67102051 97.28305054 C46.47071174 81.67224571 52.39999811 70.84538882 62.74914551 59.22445679 C68.13024057 52.21328818 70.01135767 44.00033465 69.01867676 35.26742554 C67.53841014 29.85199469 65.87488322 24.46159782 62.01867676 20.26742554 C59.80598474 19.71904958 59.80598474 19.71904958 57.35070801 19.87680054 C56.01169434 19.89613647 56.01169434 19.89613647 54.64562988 19.91586304 C53.71686035 19.94937866 52.78809082 19.98289429 51.83117676 20.01742554 C50.89080566 20.03547241 49.95043457 20.05351929 48.98156738 20.07211304 C46.65957787 20.11926003 44.33963986 20.18504323 42.01867676 20.26742554 Z M86.01867676 20.26742554 C86.23523926 21.05504272 86.45180176 21.84265991 86.67492676 22.65414429 C90.93240421 39.30955376 89.59525122 54.13112856 81.05383301 69.20101929 C78.41921912 73.17063906 75.31971393 76.48173497 72.03820801 79.91976929 C66.34526777 86.53767467 64.45677216 94.69838044 65.01867676 103.26742554 C66.81609065 112.45251515 71.15373317 119.28635688 77.51867676 126.01742554 C86.60891303 136.13560427 89.59257324 149.5218013 89.32727051 162.77133179 C87.93082428 178.59183024 80.86519166 188.94811693 70.97180176 200.75961304 C65.83421804 207.35627053 64.25219181 214.99517288 65.01867676 223.26742554 C66.41276579 231.19710626 69.91791782 236.21344326 75.01867676 242.26742554 C85.5846663 255.3596289 90.05093567 268.46454428 89.01867676 285.26742554 C87.04246156 298.51476642 80.94197136 308.51530331 72.29602051 318.43539429 C66.74164003 325.34264274 64.17033082 333.42038931 65.01867676 342.26742554 C66.26136016 348.18844644 67.8345019 353.7733118 72.01867676 358.26742554 C75.45910732 359.01252101 78.76934202 358.83356567 82.26867676 358.64242554 C83.20453613 358.61535522 84.14039551 358.58828491 85.10461426 358.56039429 C87.41164916 358.48977077 89.71398445 358.39123132 92.01867676 358.26742554 C91.68867676 357.02992554 91.35867676 355.79242554 91.01867676 354.51742554 C88.770056 343.19343611 88.06371953 328.91210552 93.01867676 318.26742554 C93.4092627 317.40504272 93.79984863 316.54265991 94.20227051 315.65414429 C96.90192281 310.24719195 100.18038589 305.74279564 104.14367676 301.20492554 C111.11635561 293.03513014 113.8243634 286.24364735 113.38195801 275.42367554 C112.33001729 266.28423361 108.00062612 260.76285053 102.09753418 254.09042358 C93.3399831 244.09422241 89.42589261 232.105028 89.58117676 218.89242554 C89.5894751 217.97412964 89.59777344 217.05583374 89.60632324 216.10971069 C89.95699734 201.98041486 95.56705281 190.93639788 105.20617676 180.70492554 C111.81454831 173.45496452 113.75922171 166.17945182 113.39367676 156.43539429 C112.38044799 147.87572206 108.48692133 142.18823367 103.04211426 135.70101929 C91.21080591 121.47147276 88.73544274 107.32011554 90.01867676 89.26742554 C92.137928 77.79924881 98.41246479 68.8338878 106.18664551 60.43539429 C112.24316524 53.26829737 113.3695243 45.8178618 113.30773926 36.67367554 C112.84123063 31.17643879 111.20833524 26.01576403 107.73742676 21.65927124 C105.48791018 19.83761016 104.21820041 19.91966394 101.35070801 19.97445679 C100.45803223 19.98412476 99.56535645 19.99379272 98.64562988 20.00375366 C97.71686035 20.02889038 96.78809082 20.0540271 95.83117676 20.07992554 C94.42062012 20.10022827 94.42062012 20.10022827 92.98156738 20.12094116 C90.66002638 20.15629458 88.33964023 20.2056388 86.01867676 20.26742554 Z M131.01867676 20.26742554 C131.16305176 20.85265991 131.30742676 21.43789429 131.45617676 22.04086304 C135.04797272 38.65291937 134.16364878 55.10861405 124.86633301 69.73226929 C122.66754619 72.74920934 120.26716453 75.56765058 117.83117676 78.39242554 C112.89287214 84.16987064 110.01867676 88.47389838 110.01867676 96.26742554 C114.16437376 96.35538233 118.30982688 96.40813706 122.45617676 96.45492554 C124.20317871 96.49263062 124.20317871 96.49263062 125.98547363 96.53109741 C133.63335412 96.59572739 140.96556742 96.49816487 147.17492676 91.54867554 C147.84008301 90.66695679 147.84008301 90.66695679 148.51867676 89.76742554 C148.98273926 89.17961304 149.44680176 88.59180054 149.92492676 87.98617554 C151.94014749 84.8194001 152.15094883 82.08201821 152.17980957 78.43222046 C152.18941711 77.4507756 152.19902466 76.46933075 152.20892334 75.45814514 C152.21317322 74.39876236 152.2174231 73.33937958 152.22180176 72.24789429 C152.23035187 70.61090324 152.23035187 70.61090324 152.23907471 68.94084167 C152.24852539 66.63003509 152.25505896 64.31921503 152.25891113 62.00839233 C152.26860988 58.47926206 152.29963048 54.95071581 152.33117676 51.42172241 C152.3377076 49.17628316 152.34295775 46.93083975 152.34680176 44.68539429 C152.35914856 43.6320842 152.37149536 42.57877411 152.38421631 41.49354553 C152.36238472 34.28520336 151.5416981 29.79044687 146.26867676 24.51742554 C141.31330603 21.08678426 136.9491262 20.15591281 131.01867676 20.26742554 Z M187.01867676 255.26742554 C187.7186377 255.9493396 188.41859863 256.63125366 189.13977051 257.33383179 C191.18041669 259.36444318 193.0689481 261.4730694 194.92883301 263.66976929 C195.97913959 264.8485778 197.02992759 266.02695753 198.08117676 267.20492554 C198.57811035 267.81916382 199.07504395 268.4334021 199.58703613 269.06625366 C201.3342358 270.96351956 202.67746355 272.16775226 205.01867676 273.26742554 C208.06463564 273.20176889 210.76860449 272.63052108 213.7376709 271.95223999 C232.69222395 267.99602887 254.19835224 270.79403396 271.40539551 279.50961304 C274.95124298 280.5378558 276.6347398 279.66155687 280.01867676 278.26742554 C295.9377519 272.85702091 295.9377519 272.85702091 303.01867676 271.26742554 C299.90503816 267.8324778 296.4747312 265.55990328 292.45617676 263.32992554 C291.52092163 262.80725098 291.52092163 262.80725098 290.56677246 262.27401733 C259.12809484 244.91091815 220.37344521 240.44777525 187.01867676 255.26742554 Z M126.01867676 250.26742554 C126.34480957 250.8874646 126.67094238 251.50750366 127.00695801 252.14633179 C129.85481566 257.91765393 131.15322744 262.39523046 131.64367676 268.82992554 C132.29810886 272.58910528 132.78788797 275.23973721 135.79406738 277.74984741 C140.50484027 280.66080931 145.57769853 282.81400307 150.61730957 285.08480835 C163.46182747 291.41043307 173.11567047 302.66342039 181.01867676 314.26742554 C181.55621582 315.04859741 182.09375488 315.82976929 182.64758301 316.63461304 C190.82777542 329.32138665 194.05498428 343.6769395 197.01867676 358.26742554 C204.60867676 358.26742554 212.19867676 358.26742554 220.01867676 358.26742554 C218.83531468 334.30434346 209.11421798 309.23092125 193.01867676 291.26742554 C192.32129395 290.45144897 191.62391113 289.63547241 190.90539551 288.79476929 C175.64875207 271.26182381 153.46179794 254.70635973 130.01867676 250.26742554 C128.69867676 250.26742554 127.37867676 250.26742554 126.01867676 250.26742554 Z M13.01867676 282.26742554 C12.40250488 282.81656616 11.78633301 283.36570679 11.15148926 283.93148804 C-7.71223006 301.53160893 -18.5022744 328.2069599 -21.98132324 353.26742554 C-21.98132324 354.91742554 -21.98132324 356.56742554 -21.98132324 358.26742554 C-13.73132324 358.26742554 -5.48132324 358.26742554 3.01867676 358.26742554 C2.35867676 354.30742554 1.69867676 350.34742554 1.01867676 346.26742554 C-0.47937323 327.6288966 4.73772987 313.82143665 16.76867676 299.57992554 C22.32300368 292.92984705 24.45299752 286.89403385 25.01867676 278.26742554 C24.66801291 275.41120067 24.66801291 275.41120067 24.01867676 273.26742554 C20.59592754 273.26742554 15.46513307 280.01084345 13.01867676 282.26742554 Z M219.01867676 291.26742554 C219.52656738 292.19941772 220.03445801 293.13140991 220.55773926 294.09164429 C225.0313411 302.35756114 229.19428471 310.67702976 233.01867676 319.26742554 C235.60092452 316.0663903 238.12922025 312.82981008 240.62268066 309.55917358 C244.61288169 304.3265377 248.65878685 299.20098517 253.01867676 294.26742554 C247.69878878 291.98747354 243.0614416 291.1388546 237.28039551 291.16976929 C235.68034668 291.17460327 235.68034668 291.17460327 234.04797363 291.17953491 C232.94518066 291.18791382 231.8423877 291.19629272 230.70617676 291.20492554 C229.0229834 291.21169312 229.0229834 291.21169312 227.30578613 291.21859741 C224.54336166 291.23035241 221.78104678 291.24678477 219.01867676 291.26742554 Z M263.70227051 313.42367554 C253.11877942 324.63878691 242.01867676 342.08998273 242.01867676 358.26742554 C249.60867676 358.26742554 257.19867676 358.26742554 265.01867676 358.26742554 C266.00867676 355.62742554 266.99867676 352.98742554 268.01867676 350.26742554 C274.83292939 334.68952649 283.42409981 324.47997998 299.45617676 317.89242554 C311.45641494 313.34538306 327.59804889 313.13721154 339.48742676 318.00570679 C355.5936109 326.03394364 364.8876801 336.24010781 371.01867676 353.26742554 C371.67867676 354.91742554 372.33867676 356.56742554 373.01867676 358.26742554 C380.60867676 358.26742554 388.19867676 358.26742554 396.01867676 358.26742554 C391.7922771 336.0232168 382.09103293 317.20465842 362.98742676 304.11117554 C330.86002134 284.15836586 291.02242436 286.39455478 263.70227051 313.42367554 Z M130.01867676 298.26742554 C129.7389502 298.89648804 129.45922363 299.52555054 129.17102051 300.17367554 C126.23908073 306.43350837 122.82480847 311.30893806 118.01867676 316.26742554 C120.84083239 318.46676061 123.72682837 320.30531378 126.83117676 322.07992554 C139.50017271 329.67760786 145.83283787 339.53563493 151.01867676 353.26742554 C151.67867676 354.91742554 152.33867676 356.56742554 153.01867676 358.26742554 C160.60867676 358.26742554 168.19867676 358.26742554 176.01867676 358.26742554 C173.2835588 343.37622777 168.68883782 331.12117136 159.01867676 319.26742554 C158.39090332 318.47594116 157.76312988 317.68445679 157.11633301 316.86898804 C150.55134325 309.0017406 142.17388853 302.84503142 133.01867676 298.26742554 C132.02867676 298.26742554 131.03867676 298.26742554 130.01867676 298.26742554 Z M302.01867676 339.26742554 C301.32387207 339.6915271 300.62906738 340.11562866 299.91320801 340.55258179 C293.4596504 344.89934948 288.91444941 350.68433493 287.01867676 358.26742554 C308.13867676 358.26742554 329.25867676 358.26742554 351.01867676 358.26742554 C346.19407956 347.41208183 341.26297494 340.65265412 330.22180176 336.11898804 C320.95758141 333.65606116 310.18132235 334.01650523 302.01867676 339.26742554 Z M110.01867676 337.26742554 C109.42813163 345.2397848 111.58764488 351.62087772 116.01867676 358.26742554 C118.64564739 358.48879947 121.0276164 358.54904579 123.64367676 358.45492554 C124.35008301 358.44139038 125.05648926 358.42785522 125.78430176 358.41390991 C127.52941804 358.37853593 129.27414284 358.32472775 131.01867676 358.26742554 C126.72223261 348.8518139 121.67381339 343.03751662 113.01867676 337.26742554 C112.02867676 337.26742554 111.03867676 337.26742554 110.01867676 337.26742554 Z M-47.98132324 378.26742554 C-47.10066103 389.02421937 -47.10066103 389.02421937 -44.91882324 399.39242554 C-44.59663818 400.59222046 -44.59663818 400.59222046 -44.26794434 401.81625366 C-39.31919424 419.30663861 -30.69277752 434.42860971 -18.98132324 448.26742554 C-18.29296387 449.09113647 -17.60460449 449.91484741 -16.89538574 450.76351929 C4.04217189 474.98910493 34.22320081 489.2599956 65.95848083 491.80155945 C75.9724877 492.48699559 85.98778084 492.41544127 96.02087402 492.41268921 C98.21543942 492.41568674 100.41000429 492.41909062 102.60456848 492.42286682 C108.53058314 492.43165143 114.45658334 492.43404261 120.38260388 492.43468261 C124.095865 492.43539636 127.80912252 492.43753683 131.52238274 492.44017982 C143.83957302 492.44894021 156.15675457 492.45360181 168.47394801 492.45284935 C169.13557617 492.45280939 169.79720433 492.45276944 170.47888184 492.45272827 C171.47256193 492.45266695 171.47256193 492.45266695 172.48631638 492.45260439 C182.53951568 492.45222375 192.59268386 492.4600107 202.64587402 492.47323608 C214.36750521 492.48860277 226.08911341 492.49699149 237.81075519 492.49627286 C243.99784644 492.49601944 250.18489778 492.49878373 256.37198067 492.50945091 C262.19894408 492.51922405 268.02583021 492.51914879 273.85279655 492.51193428 C275.97417694 492.51089973 278.09556237 492.51318288 280.2169342 492.51929474 C290.6379073 492.54733986 300.9630105 492.34653506 311.34495544 491.38505554 C312.17736805 491.30857165 313.00978065 491.23208775 313.86741787 491.15328616 C344.89770074 487.95140746 373.21745011 471.57180526 393.61633301 448.26351929 C409.21635147 428.8078865 422.01867676 403.68556036 422.01867676 378.26742554 C266.91867676 378.26742554 111.81867676 378.26742554 -47.98132324 378.26742554 Z " fill="#000000" transform="translate(68.9813232421875,-0.267425537109375)"/>
<path d="M0 0 C2.75569447 2.18159145 4.43588747 3.87177494 6 7 C6.59873168 12.26883876 5.25400021 14.8846468 2 19 C-1.45739557 20.72869779 -5.21975568 20.48966895 -9 20 C-11.87029869 18.20606332 -13.49131638 17.01736724 -15 14 C-15.5811138 6.91041162 -15.5811138 6.91041162 -13.125 3.0625 C-9.24699241 -0.70144855 -5.21240222 -0.82822281 0 0 Z " fill="#000000" transform="translate(337,72)"/>
</svg>
