<?xml version="1.0" encoding="UTF-8"?>
<svg version="1.1" xmlns="http://www.w3.org/2000/svg" width="512" height="512">
<path d="M0 0 C1.31653564 0.01135986 1.31653564 0.01135986 2.65966797 0.02294922 C9.45514723 0.19532112 15.05969495 1.24051655 21.125 4.4375 C22.41083984 5.07365234 22.41083984 5.07365234 23.72265625 5.72265625 C34.22850484 11.41134349 39.85804866 19.46240881 44.125 30.4375 C44.98480469 30.46328125 45.84460938 30.4890625 46.73046875 30.515625 C62.52765664 31.27361439 74.67555457 35.24209893 85.5625 47 C92.125 54.76893939 92.125 54.76893939 92.125 59.4375 C93.3315625 59.7159375 93.3315625 59.7159375 94.5625 60 C105.07342148 64.24124902 112.39132843 72.92753547 117.09375 82.98046875 C119.09241234 87.74243319 120.16905721 91.69523769 120.0390625 96.8359375 C119.99917756 100.64096035 120.07297717 103.77325098 121.125 107.4375 C123.96079168 109.74715423 126.63433511 110.89252685 130.03515625 112.21484375 C135.2410405 114.2748207 138.6238494 117.6079727 142.125 121.875 C143.526366 125.46600037 143.14740666 127.75683602 142.125 131.4375 C139.74865543 134.27083391 138.32233117 134.41635738 134.625 134.8125 C131.0329151 134.42763376 129.59915383 134.01061998 127.125 131.4375 C127.125 130.7775 127.125 130.1175 127.125 129.4375 C126.53976562 129.14746094 125.95453125 128.85742188 125.3515625 128.55859375 C124.00433944 127.88025512 122.66354021 127.18863413 121.3359375 126.47265625 C116.77159314 124.05452488 112.3498367 122.54295554 107.32421875 121.34375 C104.54730721 120.19944542 103.56603705 119.05411991 102.125 116.4375 C102.05078125 114.5 102.05078125 114.5 102.4375 112.4375 C103.83207395 102.78641436 104.06662913 94.14732793 99.125 85.4375 C97.58132091 83.7045086 97.58132091 83.7045086 96.125 82.4375 C95.98964844 83.16453125 95.85429687 83.8915625 95.71484375 84.640625 C92.99706881 97.3344241 87.41479754 106.50432276 77.125 114.4375 C78.58896635 121.60794742 80.59291529 128.48672289 82.875 135.4375 C83.19726562 136.46617187 83.51953125 137.49484375 83.8515625 138.5546875 C85.80851611 144.51656942 88.12671853 149.41831178 91.76904297 154.52929688 C101.14402982 167.72247246 103.25367521 185.90411997 100.78369141 201.60742188 C99.3541058 208.62750081 97.1150991 215.31167178 93.6640625 221.60546875 C92.90642488 223.49977048 92.90642488 223.49977048 93.921875 225.54296875 C95.13680193 227.51674647 95.13680193 227.51674647 96.75 229.5625 C98.125 231.4375 98.125 231.4375 98.125 233.4375 C107.61222932 229.29518861 114.51605208 224.65098825 118.40625 214.7578125 C120.58966822 207.70916891 120.44236287 201.44286133 118.125 194.4375 C117.320625 192.9215625 117.320625 192.9215625 116.5 191.375 C115.11658292 188.41951806 114.21395461 185.88178256 114.30859375 182.58203125 C116.22713273 177.54242407 121.95765158 174.57332653 126.125 171.4375 C130.55751346 167.40982969 132.59152499 162.41858012 134.71875 156.92578125 C136.43292415 153.89264532 137.98136134 152.87390105 141.125 151.4375 C144.28061104 151.56372444 146.27610587 151.75636352 148.765625 153.75390625 C150.74325864 156.20321688 150.77126649 158.56723369 150.67578125 161.6328125 C148.84599502 170.95044733 143.01336772 180.39305244 135.7265625 186.421875 C134.93378906 187.41960937 134.93378906 187.41960937 134.125 188.4375 C134.38527565 191.44691772 134.38527565 191.44691772 135.5 194.6875 C138.61393082 207.40711571 136.07811621 217.991379 130.07421875 229.3515625 C124.16266937 238.71052845 116.74982138 244.35932947 106.25 247.875 C101.96867849 249.27512513 101.96867849 249.27512513 98.76171875 252.20703125 C98.20187237 253.55225454 97.67144886 254.91002468 97.16796875 256.27734375 C93.54139896 263.78855385 84.03552402 269.14962916 77.51025391 274.21020508 C73.46076627 277.35622789 69.51812762 280.6004486 65.625 283.9375 C60.72875929 288.12845683 55.72424032 292.14587157 50.63671875 296.1015625 C45.89764058 299.79908503 41.2532429 303.60246225 36.625 307.4375 C31.43060076 311.74166415 26.20058739 315.98420621 20.875 320.125 C16.36833848 323.63018118 11.96269264 327.22528481 7.625 330.9375 C2.73117081 335.12565914 -2.27019137 339.14107273 -7.35449219 343.0949707 C-12.93222951 347.44748249 -18.38494028 351.94539657 -23.83666992 356.45410156 C-28.27434761 360.12310737 -32.73935807 363.75190067 -37.24609375 367.3359375 C-40.67922286 370.0804003 -44.08983668 372.85208326 -47.5 375.625 C-48.1818335 376.17921631 -48.86366699 376.73343262 -49.56616211 377.30444336 C-53.03606502 380.12584205 -56.50372508 382.94995657 -59.96875 385.77734375 C-66.28969203 390.93042667 -72.62904844 396.05032979 -79.0625 401.0625 C-84.148522 405.02624751 -89.09133485 409.12739744 -93.98999023 413.31958008 C-98.35453203 417.03796176 -102.83738696 420.58255256 -107.36328125 424.1015625 C-112.10235942 427.79908503 -116.7467571 431.60246225 -121.375 435.4375 C-126.56939924 439.74166415 -131.79941261 443.98420621 -137.125 448.125 C-141.63166152 451.63018118 -146.03730736 455.22528481 -150.375 458.9375 C-155.27161166 463.12804039 -160.27573795 467.14585467 -165.36328125 471.1015625 C-170.10236953 474.79909292 -174.74649615 478.60276585 -179.375 482.4375 C-186.2271418 488.10837073 -193.15224829 493.66863051 -200.18115234 499.11865234 C-201.9468734 500.49346139 -203.70231173 501.88071578 -205.45703125 503.26953125 C-206.61697615 504.17995684 -207.7771249 505.09012278 -208.9375 506 C-209.95972656 506.80566406 -210.98195312 507.61132812 -212.03515625 508.44140625 C-217.06418214 511.97625113 -220.92476253 512.76687405 -227.0625 512.875 C-228.29355469 512.91496094 -229.52460938 512.95492187 -230.79296875 512.99609375 C-241.43086917 512.17222307 -248.87399535 504.16233396 -255.95263672 497.00683594 C-257.02047288 495.94578879 -258.08936673 494.88580523 -259.15922546 493.82679749 C-262.04035741 490.96830977 -264.90562822 488.09441416 -267.76748419 485.21664333 C-270.77563479 482.19575958 -273.79605087 479.18717794 -276.81448364 476.17657471 C-281.87850893 471.12162306 -286.93195269 466.05627288 -291.97949219 460.98486328 C-297.80284973 455.13428433 -303.6440203 449.30195495 -309.49473941 443.47874808 C-314.53266532 438.46355981 -319.56072255 433.43863377 -324.58075726 428.40553689 C-327.5725029 425.40602425 -330.5674573 422.40992516 -333.5713768 419.42259979 C-336.39493849 416.6135519 -339.20585505 413.79241843 -342.00774574 410.96175957 C-343.03376714 409.92916485 -344.06399667 408.90073061 -345.09884071 407.87697792 C-351.83180518 401.20952017 -357.0030447 395.38731261 -358.40625 385.8125 C-358.39078125 384.141875 -358.39078125 384.141875 -358.375 382.4375 C-358.3853125 381.32375 -358.395625 380.21 -358.40625 379.0625 C-357.16476762 370.59120844 -352.81184916 364.58203929 -347.3125 358.25 C-346.04943728 356.75764685 -344.78773414 355.26414203 -343.52734375 353.76953125 C-342.59510986 352.6705249 -342.59510986 352.6705249 -341.64404297 351.54931641 C-339.1469359 348.56836469 -336.75533407 345.51191195 -334.375 342.4375 C-329.64539928 336.35822412 -324.76614453 330.41021585 -319.85766602 324.47485352 C-316.19530577 320.04540114 -312.57247855 315.58916657 -308.99609375 311.08984375 C-306.14304033 307.52221342 -303.25849326 303.98054387 -300.375 300.4375 C-296.85919035 296.11659635 -293.3477555 291.79315945 -289.875 287.4375 C-285.83507614 282.37047685 -281.74228624 277.34695383 -277.65234375 272.3203125 C-274.08560367 267.93429802 -270.54292735 263.5303099 -267.01953125 259.109375 C-264.77636271 256.31460764 -262.5144877 253.53574944 -260.25024414 250.75805664 C-255.59343906 245.04499951 -250.96895749 239.3130903 -246.4375 233.5 C-241.22333748 226.81860752 -235.83794914 220.2850259 -230.4375 213.75390625 C-222.88285683 204.61435845 -215.4233205 195.39641046 -208.03125 186.125 C-204.59288725 181.8395044 -201.11998273 177.5821273 -197.65234375 173.3203125 C-194.71177738 169.70430281 -191.78055924 166.08176075 -188.875 162.4375 C-185.30548051 157.96797346 -181.72055222 153.51109898 -178.125 149.0625 C-177.56941406 148.3715625 -177.01382813 147.680625 -176.44140625 146.96875 C-169.07049026 137.86665035 -169.07049026 137.86665035 -165.4375 136.5625 C-162.34533348 136.41166261 -160.58971554 136.97008619 -157.875 138.4375 C-155.51879563 141.97180656 -155.38508387 143.27321287 -155.875 147.4375 C-158.90123195 152.50075975 -162.65719142 156.92419041 -166.4375 161.4375 C-170.82402324 166.71588896 -175.16301614 172.01870289 -179.375 177.4375 C-184.10590291 183.51580079 -188.98381706 189.4647377 -193.89233398 195.40014648 C-197.55884643 199.83462075 -201.18602259 204.29568335 -204.765625 208.80078125 C-207.55025684 212.28157105 -210.37074972 215.73268783 -213.1875 219.1875 C-217.28077602 224.21101263 -221.32861575 229.26435316 -225.3125 234.375 C-230.52666252 241.05639248 -235.91205086 247.5899741 -241.3125 254.12109375 C-248.86714317 263.26064155 -256.3266795 272.47858954 -263.71875 281.75 C-267.15711275 286.0354956 -270.63001727 290.2928727 -274.09765625 294.5546875 C-277.66439633 298.94070198 -281.20707265 303.3446901 -284.73046875 307.765625 C-286.97363729 310.56039236 -289.2355123 313.33925056 -291.49975586 316.11694336 C-296.15656094 321.83000049 -300.78104251 327.5619097 -305.3125 333.375 C-309.37991134 338.58695331 -313.53942246 343.71557625 -317.75 348.8125 C-318.33362305 349.51914795 -318.91724609 350.2257959 -319.51855469 350.95385742 C-320.7041783 352.38890571 -321.88988833 353.82388261 -323.07568359 355.25878906 C-326.07902783 358.89540289 -329.0755798 362.5373837 -332.0625 366.1875 C-332.87340088 367.17049072 -332.87340088 367.17049072 -333.70068359 368.17333984 C-339.25089443 374.53821184 -339.25089443 374.53821184 -341.3125 382.4375 C-341.34150391 383.3965625 -341.34150391 383.3965625 -341.37109375 384.375 C-340.02877048 389.95568257 -335.10172924 392.95781816 -330.5 395.8125 C-329.57525879 396.39221558 -329.57525879 396.39221558 -328.63183594 396.98364258 C-313.09014721 406.56584034 -296.6483465 412.46463431 -278.875 416.4375 C-278.92140625 415.33277344 -278.9678125 414.22804688 -279.015625 413.08984375 C-279.52165591 395.30702566 -277.49801364 375.75887403 -269.875 359.4375 C-266.06550527 356.89783684 -263.33992095 356.8502557 -258.875 357.4375 C-256.9375 358.5625 -256.9375 358.5625 -255.875 360.4375 C-254.86298641 364.79510236 -254.93598178 367.896753 -256.0546875 372.2109375 C-256.32410156 373.2834375 -256.59351563 374.3559375 -256.87109375 375.4609375 C-257.30615234 377.11996094 -257.30615234 377.11996094 -257.75 378.8125 C-266.49738614 412.8434269 -262.93620851 448.33932577 -245.29785156 478.97973633 C-239.90611011 488.52842659 -239.90611011 488.52842659 -231.875 495.4375 C-227.30910373 496.39200849 -224.0496751 496.18205828 -220.05859375 493.65234375 C-217.58216594 491.65499728 -215.19825235 489.61039572 -212.875 487.4375 C-214.15485976 484.70673931 -215.3961859 482.78267669 -217.3125 480.375 C-222.09063358 473.78739572 -223.63556381 465.42342004 -222.875 457.4375 C-220.95017466 447.58881034 -216.39047041 439.35264943 -207.98828125 433.65625 C-199.41286585 428.71072393 -189.71940603 427.92181677 -180.0703125 430.05859375 C-172.03438603 432.87492312 -165.76753053 438.56648534 -160.875 445.4375 C-160.09898437 444.77105469 -159.32296875 444.10460937 -158.5234375 443.41796875 C-152.25267468 438.05833401 -145.90231717 432.83942124 -139.39013672 427.77612305 C-134.64993813 424.07767635 -130.00436158 420.2734647 -125.375 416.4375 C-120.18060076 412.13333585 -114.95058739 407.89079379 -109.625 403.75 C-105.11833848 400.24481882 -100.71269264 396.64971519 -96.375 392.9375 C-91.47838834 388.74695961 -86.47426205 384.72914533 -81.38671875 380.7734375 C-76.64764058 377.07591497 -72.0032429 373.27253775 -67.375 369.4375 C-62.18060076 365.13333585 -56.95058739 360.89079379 -51.625 356.75 C-47.11833848 353.24481882 -42.71269264 349.64971519 -38.375 345.9375 C-33.47838834 341.74695961 -28.47426205 337.72914533 -23.38671875 333.7734375 C-18.64764058 330.07591497 -14.0032429 326.27253775 -9.375 322.4375 C-4.18060076 318.13333585 1.04941261 313.89079379 6.375 309.75 C10.88166152 306.24481882 15.28730736 302.64971519 19.625 298.9375 C24.52161166 294.74695961 29.52573795 290.72914533 34.61328125 286.7734375 C39.35236293 283.07591223 43.99666753 279.27243376 48.625 275.4375 C53.8647516 271.0975752 59.13689569 266.81169103 64.5 262.625 C68.83648114 259.23718216 73.15757002 255.83419695 77.4375 252.375 C78.32050781 251.66214844 79.20351563 250.94929687 80.11328125 250.21484375 C82.72587791 247.90662729 83.05690381 246.74702813 83.8125 243.3125 C82.87013378 238.0009813 80.52829038 236.62796948 76.2734375 233.53515625 C32.85430911 204.60702728 -18.79487991 194.06558377 -70.18334961 204.11181641 C-110.97670219 212.60109462 -146.9994466 230.42925377 -177.38183594 259.04150391 C-178.87985019 260.44203457 -180.39373434 261.82296764 -181.9140625 263.19921875 C-194.65675022 274.76029368 -207.54779245 286.62576263 -217.875 300.4375 C-218.36419922 301.08799316 -218.85339844 301.73848633 -219.35742188 302.40869141 C-226.07799163 311.38625923 -232.36465852 320.48887597 -237.97265625 330.203125 C-243.20776305 339.10388152 -243.20776305 339.10388152 -245.875 340.4375 C-249.53046065 340.84366229 -251.46417682 340.65184253 -254.75 338.9375 C-257.21102729 336.04217377 -257.32022507 334.35347758 -257.20947266 330.62255859 C-256.61471324 326.73708652 -254.70696745 323.77706275 -252.625 320.5 C-251.95706421 319.41017822 -251.95706421 319.41017822 -251.27563477 318.29833984 C-238.11012073 297.1288305 -222.23843504 278.74330907 -204.6875 261.125 C-203.84405029 260.27687744 -203.00060059 259.42875488 -202.1315918 258.55493164 C-197.76612384 254.20060555 -193.33254574 249.99950385 -188.65551758 245.98168945 C-186.13389555 243.79476236 -183.73328737 241.48495759 -181.3125 239.1875 C-174.64465278 232.9580956 -167.31794418 227.69433352 -159.875 222.4375 C-160.0915625 221.79683594 -160.308125 221.15617188 -160.53125 220.49609375 C-162.92653497 213.05518535 -164.04989601 206.89916221 -160.98046875 199.4921875 C-158.12781591 194.19008364 -153.87871657 188.863445 -148.01953125 186.83984375 C-140.76208575 185.47824651 -133.09375082 185.23195281 -126.59765625 189.09375 C-123.56252164 191.46129264 -120.89169931 194.1450856 -118.875 197.4375 C-118.875 198.4275 -118.875 199.4175 -118.875 200.4375 C-117.83666016 200.06782104 -117.83666016 200.06782104 -116.77734375 199.69067383 C-94.17592612 191.71578297 -70.11655399 184.10123633 -45.875 184.4375 C-47.92633008 147.08599789 -56.17962821 111.44794885 -77.875 80.4375 C-78.50535156 79.50550781 -79.13570313 78.57351562 -79.78515625 77.61328125 C-82.26441502 74.14231897 -83.99443614 71.85943685 -87.875 70 C-95.04833125 71.04611081 -99.3229976 78.00865645 -103.5078125 83.3984375 C-106.40922983 87.12335942 -109.39024361 90.77927543 -112.375 94.4375 C-115.97581078 98.86125057 -119.56865648 103.29034522 -123.125 107.75 C-123.73472656 108.51183594 -124.34445313 109.27367188 -124.97265625 110.05859375 C-126.38008205 111.8185985 -127.7830523 113.58216829 -129.18359375 115.34765625 C-130.36115234 116.81525391 -130.36115234 116.81525391 -131.5625 118.3125 C-132.26761719 119.19679688 -132.97273437 120.08109375 -133.69921875 120.9921875 C-135.93837094 123.5087212 -138.09113689 125.53880799 -140.875 127.4375 C-144.34258942 127.37771398 -146.76326749 127.04715977 -149.8125 125.375 C-151.55132634 122.20419902 -151.40282102 118.92418325 -150.875 115.4375 C-149.40540156 112.94518101 -148.12336418 111.12990156 -146.25 109 C-145.75999512 108.4107373 -145.26999023 107.82147461 -144.76513672 107.21435547 C-143.70492448 105.9420345 -142.63640822 104.67659644 -141.56054688 103.41748047 C-139.25442237 100.70851904 -137.00609621 97.95375494 -134.75268555 95.20092773 C-132.98827206 93.0481909 -131.21586999 90.90226977 -129.44140625 88.7578125 C-125.92159271 84.49936778 -122.42394561 80.22329186 -118.9375 75.9375 C-118.39488525 75.27218262 -117.85227051 74.60686523 -117.29321289 73.92138672 C-114.42883968 70.39743927 -111.6512818 66.82968084 -108.9375 63.1875 C-106.847413 60.41451329 -105.8300428 59.41281761 -102.6875 57.6875 C-98.62542486 54.43783989 -98.19963745 50.6726903 -96.86328125 45.76171875 C-93.34878485 33.94023085 -85.35474373 25.56716143 -74.875 19.4375 C-62.56489902 13.31021665 -48.79608092 13.13047303 -35.875 17.4375 C-34.7303125 15.9215625 -34.7303125 15.9215625 -33.5625 14.375 C-24.90974159 4.3141276 -12.97754157 -0.15774361 0 0 Z M-19.90234375 23.390625 C-22.61849282 26.20896582 -24.68650466 29.26025713 -26.68359375 32.6171875 C-27.875 34.4375 -27.875 34.4375 -29.875 35.4375 C-34.28992712 35.88800277 -37.26757279 35.41826225 -41.1875 33.5 C-48.68309414 29.94276888 -55.59206151 29.62867695 -63.42578125 32.37109375 C-71.45252334 35.86599102 -76.95157394 40.52008266 -80.875 48.4375 C-81.81571546 51.78444785 -81.81571546 51.78444785 -81.875 54.4375 C-81.26011719 54.84742188 -80.64523437 55.25734375 -80.01171875 55.6796875 C-74.94335938 59.05859375 -74.94335938 59.05859375 -69.875 62.4375 C-67.44681318 61.66850957 -67.44681318 61.66850957 -64.875 60.25 C-47.86977126 52.05981765 -29.35563839 51.72639942 -11.5625 57.625 C-6.12727974 59.71261869 -1.4182377 62.33599605 3.33203125 65.69140625 C10.44752833 70.13983589 18.42257229 72.65900908 26.36328125 75.22265625 C28.50330278 75.92498526 30.64327532 76.62746357 32.78320312 77.33007812 C36.12455622 78.42101647 39.46668841 79.5094773 42.80981445 80.5949707 C46.05895959 81.65189864 49.3049813 82.7180075 52.55078125 83.78515625 C53.55184402 84.10710464 54.5529068 84.42905304 55.58430481 84.76075745 C56.51594955 85.06795212 57.4475943 85.37514679 58.4074707 85.69165039 C59.22415726 85.95716202 60.04084381 86.22267365 60.88227844 86.49623108 C64.13003984 87.85931463 66.54567267 89.30694705 68.171875 92.48046875 C68.40390625 93.18816406 68.6359375 93.89585938 68.875 94.625 C69.23851562 95.69814453 69.23851562 95.69814453 69.609375 96.79296875 C69.77953125 97.33566406 69.9496875 97.87835938 70.125 98.4375 C76.4451064 92.81962764 79.80116579 86.21405454 80.375 77.75 C80.21944162 69.3498473 76.59334861 61.72078609 71.125 55.4375 C64.92970119 50.32392003 59.0100874 47.14192517 50.875 47.25 C49.73675781 47.26160156 48.59851563 47.27320312 47.42578125 47.28515625 C44.57283236 47.41683081 41.87714363 47.7347298 39.0625 48.1875 C35.125 48.4375 35.125 48.4375 32.99609375 46.84375 C30.78102879 43.99514872 30.11880469 41.67926741 29.25 38.1875 C26.84649302 29.93237796 23.68993378 24.86731152 16.5 20.0625 C4.19693875 13.34001893 -9.1392691 14.24884835 -19.90234375 23.390625 Z M-60.875 75.4375 C-60.45347656 76.20835938 -60.03195312 76.97921875 -59.59765625 77.7734375 C-59.04980469 78.77632812 -58.50195312 79.77921875 -57.9375 80.8125 C-57.39222656 81.81023437 -56.84695313 82.80796875 -56.28515625 83.8359375 C-55.4600241 85.35820346 -54.64935609 86.88878783 -53.875 88.4375 C-53.25496094 88.2209375 -52.63492187 88.004375 -51.99609375 87.78125 C-41.35692431 84.43618363 -29.91254192 83.58266899 -19.4453125 87.97265625 C-10.28075468 93.19561853 -3.73202874 100.84044921 -0.421875 110.8046875 C0.23529616 113.9684972 0.10661059 116.89757504 0.0625 120.125 C0.08089683 123.44648015 0.08089683 123.44648015 1.125 126.4375 C5.01204361 129.6042973 9.97681565 132.4375 15.125 132.4375 C18.4610401 121.76217169 17.14259064 109.03463594 12.50390625 98.8671875 C4.62272411 84.98023199 -5.89567042 75.91730288 -20.875 70.4375 C-34.52754529 66.77333301 -48.58991309 68.31214959 -60.875 75.4375 Z M27.125 92.4375 C27.79987955 96.01306377 28.66989852 99.49000205 29.625 103 C31.18498483 109.12579407 31.80101377 115.13652646 32.125 121.4375 C33.35734375 121.60765625 34.5896875 121.7778125 35.859375 121.953125 C45.33591929 123.32033041 54.1763427 124.91876649 63.125 128.4375 C62.50771982 125.9304761 61.83803496 123.45871423 61.09765625 120.984375 C60.37145758 118.33622884 59.86347779 115.89488834 59.43359375 113.203125 C58.468079 108.41927067 57.43217407 104.15418917 54.125 100.4375 C46.53527164 95.89803747 36.02760403 92.4375 27.125 92.4375 Z M-45.875 103.4375 C-45.46636719 104.65308594 -45.05773437 105.86867188 -44.63671875 107.12109375 C-42.600311 113.230317 -40.64512265 119.36517169 -38.6875 125.5 C-38.31947266 126.65177734 -37.95144531 127.80355469 -37.57226562 128.99023438 C-36.6726769 131.80583025 -35.77360002 134.62158845 -34.875 137.4375 C-33.99618164 136.83675659 -33.99618164 136.83675659 -33.09960938 136.22387695 C-28.95958574 133.42324776 -24.90354551 130.76746061 -20.375 128.625 C-17.41258951 127.33792094 -17.41258951 127.33792094 -14.875 125.4375 C-14.01148084 118.96818429 -15.05366213 113.74491371 -18.875 108.4375 C-23.66988852 103.31310492 -28.21536968 100.42120744 -35.3125 100.125 C-39.45638489 100.20122531 -42.31024708 101.24380589 -45.875 103.4375 Z M30.125 137.4375 C29.3983203 139.34728633 28.69424412 141.26568515 28 143.1875 C27.60554688 144.25484375 27.21109375 145.3221875 26.8046875 146.421875 C25.93478743 149.32384011 25.93478743 149.32384011 26.6015625 151.796875 C28.09046998 153.73761747 28.09046998 153.73761747 31.03125 153.90625 C32.2171875 153.9165625 33.403125 153.926875 34.625 153.9375 C45.26067951 154.45843124 52.10670668 157.42639896 59.85546875 164.796875 C66.8990298 172.99213708 69.4165969 181.93997241 69.359375 192.51171875 C69.05206757 196.34793982 68.05023027 199.72480627 66.78125 203.34375 C65.97545709 205.54891541 65.97545709 205.54891541 66.125 208.4375 C67.88871818 209.47057771 69.66125033 210.48862049 71.4375 211.5 C72.42363281 212.06847656 73.40976562 212.63695312 74.42578125 213.22265625 C77.137594 214.80981604 77.137594 214.80981604 80.125 213.4375 C81.34270172 211.02055424 81.34270172 211.02055424 82.25 208.125 C82.58257812 207.15949219 82.91515625 206.19398438 83.2578125 205.19921875 C83.54398437 204.28785156 83.83015625 203.37648438 84.125 202.4375 C84.32222656 201.82390625 84.51945312 201.2103125 84.72265625 200.578125 C87.33734259 186.66697823 84.48976925 172.5960103 76.80859375 160.77734375 C67.87339256 148.35927992 56.51965297 140.75505654 41.4375 137.6875 C37.64237247 137.40107528 33.93007703 137.37074426 30.125 137.4375 Z M-25.875 151.4375 C-26.7721875 152.21609375 -27.669375 152.9946875 -28.59375 153.796875 C-32.54331242 158.60730638 -31.12545871 164.99615621 -30.6875 170.8125 C-30.61724609 172.02550781 -30.54699219 173.23851562 -30.47460938 174.48828125 C-30.29830835 177.47364529 -30.0977277 180.45530005 -29.875 183.4375 C-21.69583209 186.1638893 -8.62876067 188.08866931 -0.62207031 184.39941406 C6.13285015 179.55160149 10.89032643 172.11162137 13 164.125 C13.2155767 157.76548737 11.32416532 152.59605017 7.4375 147.5625 C3.22041057 143.06357539 -1.38802326 141.74837209 -7.375 141 C-14.86215792 141.93589474 -20.65636431 146.16022795 -25.875 151.4375 Z M28.125 169.4375 C27.76148438 170.2109375 27.39796875 170.984375 27.0234375 171.78125 C26.52070313 172.8228125 26.01796875 173.864375 25.5 174.9375 C25.01273437 175.9584375 24.52546875 176.979375 24.0234375 178.03125 C21.73715108 182.13339353 19.01893327 185.74936255 16.125 189.4375 C16.68783691 189.59307373 17.25067383 189.74864746 17.83056641 189.90893555 C29.08696565 193.0344387 40.19925663 196.28755378 51.125 200.4375 C54.05229947 194.11453314 54.79331318 189.27183124 53.125 182.4375 C50.59632378 177.38014756 46.70129061 173.697178 42.125 170.4375 C38.97569107 169.38773036 36.73685544 169.33618405 33.4375 169.375 C32.44363281 169.38402344 31.44976562 169.39304688 30.42578125 169.40234375 C29.66652344 169.41394531 28.90726562 169.42554688 28.125 169.4375 Z M-145.3125 204.625 C-147.15102045 207.31475208 -147.15102045 207.31475208 -146.625 210.25 C-146.25375 211.3328125 -146.25375 211.3328125 -145.875 212.4375 C-141.72823868 212.4375 -140.56291935 211.9598055 -137.125 209.9375 C-136.32578125 209.4734375 -135.5265625 209.009375 -134.703125 208.53125 C-134.09984375 208.1703125 -133.4965625 207.809375 -132.875 207.4375 C-134.1839572 204.31552522 -134.1839572 204.31552522 -136.875 202.4375 C-140.85114146 201.91887285 -142.2714579 201.89585966 -145.3125 204.625 Z M-299.875 428.4375 C-294.91305145 434.43250997 -289.5273376 439.90177037 -284 445.375 C-283.12085938 446.24962891 -282.24171875 447.12425781 -281.3359375 448.02539062 C-279.1845654 450.16507048 -277.03088208 452.30236597 -274.875 454.4375 C-273.57289991 451.83329982 -274.0617672 450.69479641 -274.65234375 447.8671875 C-274.83603516 446.97128906 -275.01972656 446.07539063 -275.20898438 445.15234375 C-275.40814453 444.21519531 -275.60730469 443.27804687 -275.8125 442.3125 C-276.10543945 440.89517578 -276.10543945 440.89517578 -276.40429688 439.44921875 C-276.8885432 437.11066334 -277.37901572 434.77358912 -277.875 432.4375 C-280.97811638 431.76588005 -284.08265168 431.10106325 -287.1875 430.4375 C-288.06857422 430.24671875 -288.94964844 430.0559375 -289.85742188 429.859375 C-290.70498047 429.67890625 -291.55253906 429.4984375 -292.42578125 429.3125 C-293.59620972 429.06113281 -293.59620972 429.06113281 -294.7902832 428.8046875 C-297.01461908 428.35076853 -297.01461908 428.35076853 -299.875 428.4375 Z M-204.8125 452.6875 C-206.60982955 457.33941177 -207.72108845 461.82684205 -206.14453125 466.69140625 C-204.53634376 470.03717562 -202.88585743 473.17204902 -199.875 475.4375 C-195.41035551 474.77723971 -192.46563769 472.01386176 -189.0625 469.25 C-188.44101074 468.75330811 -187.81952148 468.25661621 -187.17919922 467.74487305 C-183.00328145 464.39374009 -178.89293159 460.9771064 -174.875 457.4375 C-176.19728429 451.75167757 -178.27755302 449.7213907 -182.875 446.4375 C-191.63390498 443.51786501 -198.81458672 445.72218136 -204.8125 452.6875 Z " fill="#000000" transform="translate(359.875,-0.4375)"/>
<path d="M0 0 C5.85863664 5.01995214 9.05547472 9.73190936 9.8359375 17.5546875 C9.93052146 26.04832674 9.5107181 31.71505137 3.76953125 38.1171875 C-1.78960728 43.46550042 -7.39201325 45.74735856 -15 46.5625 C-22.2379553 45.78700479 -29.28909386 43.46321841 -34.5 38.1875 C-39.32918476 31.19393968 -41.427815 24.67037999 -40.5 16.1875 C-38.68631319 9.02015934 -35.4215593 3.65354998 -29.5 -0.8125 C-20.48340853 -6.12444845 -8.57518388 -6.23065795 0 0 Z M-23.375 15.9375 C-25.07946691 19.34643382 -24.46849323 21.57179194 -23.5 25.1875 C-21.39451873 28.15076994 -20.02570041 29.01972327 -16.5625 30.125 C-12.87119268 30.2003328 -11.3873919 29.43324926 -8.5 27.1875 C-5.99968346 23.43702518 -5.96396446 21.62893734 -6.5 17.1875 C-8.77896243 14.19229223 -10.504622 12.5856512 -14 11.1875 C-18.15274121 11.1875 -20.43323223 13.19185008 -23.375 15.9375 Z " fill="#000000" transform="translate(243.5,283.8125)"/>
<path d="M0 0 C5.12007147 4.64378575 9.02706755 8.96894148 10 16 C10.21299798 23.51098157 8.89951571 29.22041042 4 35 C-0.06690579 39.18432302 -4.20309651 41.69201831 -10.05078125 42.3359375 C-18.03016343 42.43149896 -23.80779376 41.9577428 -29.74609375 36.3515625 C-35.44969465 30.0871759 -36.4694597 24.61051721 -36.30859375 16.2265625 C-35.71253767 9.99438122 -33.29606481 5.96252691 -28.8125 1.6875 C-20.24356618 -4.98532931 -9.27452686 -6.03922679 0 0 Z M-19 15 C-20.30746709 16.09923541 -20.30746709 16.09923541 -20.3125 18.8125 C-20.25462944 22.03678432 -20.25462944 22.03678432 -18.375 24.375 C-16.05155987 26.19887378 -16.05155987 26.19887378 -13 26.5625 C-9.84209798 26.23917924 -9.84209798 26.23917924 -7.5625 23.8125 C-5.77470722 21.15352661 -5.77470722 21.15352661 -6.0625 18.375 C-7.36058173 15.08652628 -8.67845082 13.61672295 -11.875 12.125 C-14.94607567 11.94434849 -16.53692932 13.26919358 -19 15 Z " fill="#000000" transform="translate(365,250)"/>
<path d="M0 0 C1.90625 0.484375 1.90625 0.484375 4.40625 2.609375 C6.1531468 5.95759387 6.46091566 7.7601913 5.90625 11.484375 C4.84375 13.796875 4.84375 13.796875 2.90625 15.484375 C-1.06719161 16.58810878 -3.18374772 16.89981083 -6.96875 15.171875 C-9.09375 13.484375 -9.09375 13.484375 -10.09375 11.484375 C-10.49991229 7.82891435 -10.30809253 5.89519818 -8.59375 2.609375 C-5.56459317 0.03459169 -3.88724229 -0.26108344 0 0 Z " fill="#000000" transform="translate(286.09375,237.515625)"/>
<path d="M0 0 C2.66589042 0.54323805 3.75768995 0.96351964 5.875 2.75 C7.21538506 5.84964046 7.42167869 7.71409302 6.875 11.0625 C4.41905875 14.38524404 2.9493356 15.83868008 -1.125 16.6875 C-5.1993356 15.83868008 -6.66905875 14.38524404 -9.125 11.0625 C-9.75 8.0625 -9.75 8.0625 -9.125 5.0625 C-6.50620524 1.2161452 -4.62486834 -0.35838463 0 0 Z " fill="#000000" transform="translate(226.125,380.9375)"/>
<path d="M0 0 C3.32920557 0.56667329 4.71584456 0.94921042 6.9375 3.5 C8.04123378 7.47344161 8.35293583 9.58999772 6.625 13.375 C4.9375 15.5 4.9375 15.5 2.9375 16.5 C-0.75657253 16.9104525 -2.6435823 16.72767266 -5.9375 14.9375 C-8.0625 12.5 -8.0625 12.5 -8.6875 9.0625 C-7.74703346 3.70184071 -5.478871 0.89450955 0 0 Z " fill="#000000" transform="translate(263.0625,121.5)"/>
<path d="M0 0 C1.90625 0.484375 1.90625 0.484375 4.40625 2.609375 C6.16209708 5.97474856 6.54281938 7.74452991 5.90625 11.484375 C3.83729835 14.42865235 2.39715073 15.32770455 -1.03125 16.421875 C-4.69247681 16.49659391 -6.2242174 15.69801444 -9.09375 13.484375 C-10.52037219 10.63113063 -10.40408868 8.64982951 -10.09375 5.484375 C-7.60378974 0.71195116 -5.15439468 -0.34619069 0 0 Z " fill="#000000" transform="translate(156.09375,352.515625)"/>
<path d="M0 0 C1.91015625 0.4453125 1.91015625 0.4453125 4.47265625 2.5078125 C6.3464113 6.33679022 6.03978326 8.37865526 4.91015625 12.4453125 C3.23331223 15.09296095 2.05876764 15.40008295 -0.96484375 16.3203125 C-4.69116086 16.46936518 -6.17144022 15.69665237 -9.08984375 13.4453125 C-10.63571251 10.35357498 -10.38343896 7.85101698 -10.08984375 4.4453125 C-7.53315462 0.29069266 -4.61630624 -0.25885829 0 0 Z " fill="#000000" transform="translate(65.08984375,356.5546875)"/>
</svg>
