<?xml version="1.0" encoding="UTF-8"?>
<svg version="1.1" xmlns="http://www.w3.org/2000/svg" width="512" height="512">
<path d="M0 0 C1.43224159 -0.01475876 1.43224159 -0.01475876 2.89341736 -0.02981567 C23.82566787 -0.20097687 44.26831455 -0.20915358 64.82421875 4.23828125 C66.49871094 4.60034668 66.49871094 4.60034668 68.20703125 4.96972656 C123.7727102 17.4343752 123.7727102 17.4343752 134.73828125 31.734375 C135.59569681 33.30128941 136.44298893 34.87381051 137.27734375 36.453125 C140.08469996 39.69292749 144.21480628 39.18099786 148.2734375 39.5625 C165.03265188 42.75209746 181.89194971 61.85070922 193.82421875 73.23828125 C194.69691406 74.06972656 195.56960938 74.90117188 196.46875 75.7578125 C201.90528539 81.06073105 206.85453539 86.6136879 211.53466797 92.59375 C212.45281333 93.76463738 213.37697329 94.93081909 214.30517578 96.09375 C231.73752722 117.95532531 245.15069547 142.01371315 254.82421875 168.23828125 C255.09717773 168.96273437 255.37013672 169.6871875 255.65136719 170.43359375 C263.72363736 192.06608044 268.74896063 215.58427264 269.19921875 238.67578125 C269.2254834 239.5052124 269.25174805 240.33464355 269.27880859 241.18920898 C269.29661664 247.97886938 267.65769531 253.32030738 262.859375 258.26171875 C262.20839844 258.70773437 261.55742187 259.15375 260.88671875 259.61328125 C260.23832031 260.07476562 259.58992188 260.53625 258.921875 261.01171875 C253.51466969 264.17347381 249.15297614 264.51215449 243.0234375 264.43359375 C241.76887505 264.42934891 241.76887505 264.42934891 240.4889679 264.42501831 C237.82973649 264.41386445 235.17084757 264.38876888 232.51171875 264.36328125 C230.70378092 264.35324524 228.89583779 264.34412048 227.08789062 264.3359375 C222.66653563 264.31394084 218.24543517 264.27944419 213.82421875 264.23828125 C213.83088058 265.35835068 213.83754242 266.4784201 213.84440613 267.63243103 C213.90533631 278.21050453 213.95024851 288.78854222 213.97965527 299.36675167 C213.99528202 304.80455299 214.01646567 310.24221213 214.05053711 315.67993164 C214.08323717 320.93190971 214.10109424 326.18375139 214.10885048 331.43582344 C214.11437489 333.43519804 214.12516262 335.43456554 214.14140892 337.43388176 C214.16332472 340.24376173 214.16617978 343.05308483 214.16479492 345.86303711 C214.18097366 347.09087669 214.18097366 347.09087669 214.19747925 348.34352112 C214.15956945 355.49583605 212.59639453 361.55470078 208.63671875 367.55078125 C203.59650538 372.36698514 198.17119817 374.83266164 191.19140625 375.33984375 C184.74302827 375.06318067 178.25134032 373.04487038 173.82421875 368.23828125 C168.36340964 360.95551484 168.10240298 354.21628284 168.15234375 345.33984375 C168.13286717 343.3357404 168.1133874 341.33163707 168.09371567 339.32753563 C168.07267969 336.54546699 168.0744142 333.76357913 168.07562256 330.98144531 C168.07237867 326.08683755 168.02965017 321.19238252 167.99188232 316.29794312 C167.97411539 313.69709327 167.96383681 311.09617945 167.96173096 308.49526978 C167.95792419 307.32330048 167.95411743 306.15133118 167.95019531 304.94384766 C167.94950043 303.39571884 167.94950043 303.39571884 167.9487915 301.8163147 C167.93481394 299.11994768 167.93481394 299.11994768 166.82421875 296.23828125 C165.17421875 296.56828125 163.52421875 296.89828125 161.82421875 297.23828125 C161.72625 298.37265625 161.62828125 299.50703125 161.52734375 300.67578125 C159.80903115 318.7360878 159.80903115 318.7360878 152.01171875 326.05078125 C145.91991591 330.98491676 139.63172434 333.23828125 131.82421875 333.23828125 C122.50959124 332.23805279 116.39812791 328.32183073 110.3046875 321.43359375 C106.19606432 315.34112349 106.55854893 308.99757953 106.62890625 301.93359375 C106.63092041 300.97638428 106.63293457 300.0191748 106.63500977 299.03295898 C106.64542979 295.4763506 106.67335225 291.91981083 106.69921875 288.36328125 C106.74046875 280.40203125 106.78171875 272.44078125 106.82421875 264.23828125 C80.75421875 264.23828125 54.68421875 264.23828125 27.82421875 264.23828125 C35.24921875 277.10828125 35.24921875 277.10828125 42.82421875 290.23828125 C64.07421875 327.07161458 85.32421875 363.90494792 106.57421875 400.73828125 C107.19361328 401.81174805 107.81300781 402.88521484 108.45117188 403.99121094 C109.69518804 406.14780831 110.93868168 408.30470719 112.18164062 410.46191406 C115.39386339 416.03527224 118.61615668 421.60250103 121.85546875 427.16015625 C125.54679985 433.49978241 129.19860676 439.86087623 132.82421875 446.23828125 C133.26362793 447.00188965 133.70303711 447.76549805 134.15576172 448.55224609 C138.37305297 455.94532564 141.64044658 462.54913371 139.82421875 471.23828125 C137.7643927 477.9644431 134.64143092 482.26389386 128.57421875 485.81640625 C97.08716182 502.09664591 61.40355699 512.25942785 25.8125 512.44140625 C24.88967224 512.44842056 23.96684448 512.45543488 23.01605225 512.46266174 C20.05622417 512.4800617 17.09659609 512.48651344 14.13671875 512.48828125 C12.62064529 512.48929337 12.62064529 512.48929337 11.07394409 512.49032593 C-3.53979035 512.47480332 -17.80714152 512.15088142 -32.17578125 509.23828125 C-33.08150879 509.06135742 -33.98723633 508.88443359 -34.92041016 508.70214844 C-96.96734426 496.3376071 -96.96734426 496.3376071 -107.83984375 480.87109375 C-108.50113281 479.66066406 -108.50113281 479.66066406 -109.17578125 478.42578125 C-110.38270425 476.06280453 -110.38270425 476.06280453 -112.17578125 474.23828125 C-115.39728899 473.37010475 -118.49293668 473.10124077 -121.8125 472.79296875 C-127.57761622 471.8421598 -131.58268481 468.69111107 -136.17578125 465.23828125 C-137.19285156 464.49191406 -138.20992188 463.74554688 -139.2578125 462.9765625 C-156.36918352 450.23432966 -171.93444593 435.9926239 -185.17578125 419.23828125 C-185.90152344 418.37976563 -186.62726563 417.52125 -187.375 416.63671875 C-215.57495404 383.26923387 -232.76461775 340.98252919 -240.17578125 298.23828125 C-240.41941406 296.954375 -240.66304687 295.67046875 -240.9140625 294.34765625 C-242.08640015 287.48908227 -242.39499752 280.68259761 -242.48828125 273.73828125 C-242.51498901 272.46355957 -242.51498901 272.46355957 -242.54223633 271.16308594 C-242.53559654 266.0249119 -241.78046568 262.78955166 -239.17578125 258.23828125 C-239.37752632 255.48109867 -240.00427379 253.59438835 -241.19921875 251.11328125 C-252.04917196 219.17101901 -230.59110168 170.10428499 -216.80200195 141.33081055 C-206.46092985 120.43780151 -193.23224142 101.13676194 -177.17578125 84.23828125 C-176.00197562 82.89029801 -174.83480693 81.53649354 -173.67578125 80.17578125 C-166.22725862 71.64826703 -158.05009054 64.24492545 -149.17578125 57.23828125 C-148.0227722 56.30681251 -146.87045767 55.37448359 -145.71875 54.44140625 C-128.24096909 40.3573923 -128.24096909 40.3573923 -118.42578125 39.42578125 C-113.95681757 39.06002167 -113.95681757 39.06002167 -110.61328125 36.44140625 C-110.22140625 35.69375 -109.82953125 34.94609375 -109.42578125 34.17578125 C-101.42330293 19.44555566 -73.06863877 13.49065301 -58.11328125 9.05078125 C-39.37691463 3.71552171 -19.50951195 0.16571999 0 0 Z M-85.17578125 36.42578125 C-85.92359863 36.74651611 -86.67141602 37.06725098 -87.44189453 37.39770508 C-93.04605705 39.8698275 -93.04605705 39.8698275 -97.17578125 44.23828125 C-97.18257873 49.95496597 -95.00761189 53.95187373 -92.11328125 58.67578125 C-91.73623047 59.31193359 -91.35917969 59.94808594 -90.97070312 60.60351562 C-90.04937623 62.15461027 -89.11401532 63.69735468 -88.17578125 65.23828125 C-83.29067067 62.62082694 -78.62438419 59.87191925 -74.05078125 56.73828125 C-62.13465555 49.25417505 -50.08249192 47.63797053 -36.33300781 46.06912231 C-26.84487887 44.98572583 -17.69451772 43.34231197 -8.42578125 40.98828125 C9.92596316 36.52795024 24.3756349 38.23002398 42.61303711 42.52929688 C51.22321699 44.54652564 59.69858721 46.02527251 68.51171875 46.92578125 C86.39142316 48.81562034 99.03882133 55.04531788 113.82421875 65.23828125 C116.69722028 62.03377955 118.95624273 58.55840029 121.13671875 54.86328125 C121.93529297 53.52136719 121.93529297 53.52136719 122.75 52.15234375 C124.17741729 48.28014993 124.09705123 46.16510484 122.82421875 42.23828125 C120.41234989 40.45877327 118.57983237 39.39970628 115.88671875 38.23828125 C115.17016113 37.90779785 114.45360352 37.57731445 113.71533203 37.23681641 C111.43214321 36.20179059 109.13280634 35.21519783 106.82421875 34.23828125 C106.10959473 33.92858398 105.3949707 33.61888672 104.65869141 33.29980469 C44.2045141 7.35321034 -25.41628186 10.46908126 -85.17578125 36.42578125 Z M-9.9440918 56.8190918 C-20.00036608 59.40848614 -30.05278418 60.67059664 -40.36767578 61.68066406 C-51.01531301 62.83635112 -60.10396462 65.85237947 -69.11328125 71.73828125 C-70.39525391 72.558125 -70.39525391 72.558125 -71.703125 73.39453125 C-74.46512371 75.45403108 -76.7961135 77.75218829 -79.17578125 80.23828125 C-69.8585433 97.04348883 -69.8585433 97.04348883 -60.23828125 113.67578125 C-59.86219727 114.31354492 -59.48611328 114.95130859 -59.09863281 115.60839844 C-57.17161349 118.87375715 -55.23772892 122.13470873 -53.29150391 125.38867188 C-51.54657728 128.30673522 -49.81603775 131.2330075 -48.09225464 134.16360474 C-47.07084257 135.89183744 -46.03566946 137.61191348 -45.00024414 139.33178711 C-44.06233032 140.93098999 -44.06233032 140.93098999 -43.10546875 142.5625 C-42.54069824 143.51213623 -41.97592773 144.46177246 -41.39404297 145.44018555 C-40.00294802 148.6352435 -39.82420188 150.78791867 -40.17578125 154.23828125 C-42.26688788 157.29451402 -43.46884974 158.10291139 -47.11328125 158.80078125 C-51.09445108 158.06954597 -52.76781464 156.32549218 -55.17578125 153.23828125 C-57.57071554 149.4109826 -59.71447572 145.45773361 -61.86328125 141.48828125 C-63.11580793 139.21278175 -64.36971734 136.93804282 -65.625 134.6640625 C-66.2339209 133.55756348 -66.8428418 132.45106445 -67.47021484 131.31103516 C-69.64385542 127.39499733 -71.88831143 123.52615457 -74.17578125 119.67578125 C-74.55484619 119.03680908 -74.93391113 118.39783691 -75.32446289 117.73950195 C-76.1350938 116.37311463 -76.9458922 115.00682668 -77.75683594 113.640625 C-80.79385462 108.49880397 -83.79402805 103.33533654 -86.80078125 98.17578125 C-87.42984375 97.09675537 -88.05890625 96.01772949 -88.70703125 94.90600586 C-90.19689841 92.3502629 -91.68648536 89.79435713 -93.17578125 87.23828125 C-111.56030852 95.16225597 -122.45690035 104.41474982 -134.11328125 120.73828125 C-139.51813935 128.22922493 -145.68331712 134.81131988 -152.30078125 141.23828125 C-163.00539518 152.00907518 -166.78587065 162.98278865 -171.17578125 177.23828125 C-172.13745377 180.30662148 -173.11574815 183.36891226 -174.11328125 186.42578125 C-174.34893799 187.14805908 -174.58459473 187.87033691 -174.82739258 188.61450195 C-176.96573722 194.97414202 -179.62041314 201.06419298 -182.46069336 207.1394043 C-186.26672335 215.33037498 -187.47766001 222.30097888 -187.36328125 231.30078125 C-187.36263672 232.26822266 -187.36199219 233.23566406 -187.36132812 234.23242188 C-187.33124858 239.11533444 -186.98820229 243.36375504 -186.17578125 248.23828125 C-125.12578125 248.23828125 -64.07578125 248.23828125 -1.17578125 248.23828125 C-2.5736717 244.74355514 -3.8929432 241.78834637 -5.72265625 238.5625 C-6.23111084 237.66362061 -6.73956543 236.76474121 -7.26342773 235.83862305 C-8.08629272 234.39676636 -8.08629272 234.39676636 -8.92578125 232.92578125 C-9.49562744 231.92264893 -10.06547363 230.9195166 -10.65258789 229.88598633 C-18.59206495 215.94567886 -26.58237469 202.02012475 -34.99023438 188.35595703 C-36.54429449 185.58002675 -37.25001413 183.4302951 -37.17578125 180.23828125 C-36.11328125 177.42578125 -36.11328125 177.42578125 -34.17578125 175.23828125 C-30.71332919 174.0339501 -29.01685776 173.84148339 -25.68041992 175.41552734 C-22.80641294 177.5070895 -21.65378316 179.28404639 -19.9765625 182.40234375 C-19.41243652 183.43327148 -18.84831055 184.46419922 -18.26708984 185.52636719 C-17.68008301 186.62754883 -17.09307617 187.72873047 -16.48828125 188.86328125 C-15.23841476 191.15312792 -13.98710875 193.44218945 -12.734375 195.73046875 C-12.12577637 196.84905273 -11.51717773 197.96763672 -10.89013672 199.12011719 C-8.68859016 203.12441121 -6.39206244 207.06454353 -4.05078125 210.98828125 C1.70031183 220.66589122 7.25927467 230.45279828 12.82421875 240.23828125 C16.26283111 236.23175327 18.71425918 232.04540224 21.19921875 227.42578125 C25.16707525 220.16809126 29.26316252 212.99723952 33.44921875 205.86328125 C38.63262991 197.02103347 43.75109865 188.14406245 48.82421875 179.23828125 C54.36373714 169.51684419 59.95797069 159.82932808 65.60766602 150.17138672 C71.11099809 140.76047849 76.56010147 131.31877885 82 121.87109375 C84.29193233 117.8914604 86.58992581 113.91548811 88.89729309 109.9447937 C89.92210958 108.18101089 90.94571801 106.41653231 91.96899414 104.65185547 C93.24838946 102.44639308 94.52997516 100.24219923 95.81420898 98.03955078 C99.38476659 91.87675158 102.72847707 85.65329667 105.82421875 79.23828125 C91.40883666 67.86944898 78.56797494 62.67722839 60.13671875 60.92578125 C51.12859119 59.98188496 42.58275498 58.34112473 33.82421875 56.05078125 C17.71679817 51.97915926 6.08932282 52.58128908 -9.9440918 56.8190918 Z M-125.73828125 59.55078125 C-126.64682861 60.22475952 -126.64682861 60.22475952 -127.57373047 60.91235352 C-134.0076346 65.74572161 -140.1450572 70.91462057 -146.17578125 76.23828125 C-146.68351074 76.68284668 -147.19124023 77.12741211 -147.71435547 77.58544922 C-192.30105728 116.78679932 -222.26494478 175.42021409 -226.5546875 234.77734375 C-226.91157323 240.95430188 -226.91157323 240.95430188 -224.78515625 246.578125 C-220.68391309 249.18744887 -216.67249016 248.66113059 -211.92578125 248.48828125 C-210.98992187 248.47023437 -210.0540625 248.4521875 -209.08984375 248.43359375 C-206.7841111 248.38653798 -204.4804718 248.32081838 -202.17578125 248.23828125 C-202.19672852 247.40280762 -202.21767578 246.56733398 -202.23925781 245.70654297 C-202.30841758 242.53438594 -202.35804999 239.36261939 -202.39550781 236.18994141 C-202.42494515 234.17063481 -202.47583201 232.1516766 -202.52734375 230.1328125 C-202.65429016 217.24775192 -199.60777438 206.45274484 -193.92578125 194.98828125 C-189.70345841 186.0803383 -186.7196817 176.98940737 -184.00292969 167.52246094 C-181.16304703 157.71000771 -178.14098898 147.96376071 -171.73828125 139.86328125 C-171.31925537 139.33202637 -170.90022949 138.80077148 -170.46850586 138.25341797 C-166.48663178 133.34260731 -161.97501313 129.00846752 -157.43554688 124.62084961 C-151.62248393 118.90366734 -146.98166486 112.54396218 -142.32617188 105.87597656 C-131.66572923 90.69977766 -119.36414753 81.402971 -102.17578125 74.23828125 C-102.85679457 70.41908491 -104.59856637 67.49948886 -106.55078125 64.17578125 C-107.15664062 63.13292969 -107.7625 62.09007812 -108.38671875 61.015625 C-110.39246167 57.73644861 -110.39246167 57.73644861 -113.17578125 55.23828125 C-118.5415083 54.35531351 -121.6298837 56.40264428 -125.73828125 59.55078125 Z M133.1796875 63.7578125 C129.87502482 68.63799071 129.87502482 68.63799071 128.82421875 74.23828125 C129.87480469 74.74617188 130.92539062 75.2540625 132.0078125 75.77734375 C148.97963223 84.05894446 160.56494007 93.18056237 171.28564453 108.83911133 C176.53795598 116.43972297 182.47393152 123.12450058 189.1953125 129.48046875 C200.99105003 140.64246648 206.77235024 153.44955686 211.140625 168.86328125 C211.61678954 170.53043441 212.09469883 172.19709009 212.57421875 173.86328125 C212.81664307 174.70665039 213.05906738 175.55001953 213.30883789 176.41894531 C215.44390019 183.5569433 218.29802097 190.22800405 221.57714844 196.91259766 C227.47171744 209.18116061 229.41841969 220.62325199 229.07421875 234.11328125 C229.05407955 235.49476514 229.03584216 236.8762781 229.01953125 238.2578125 C228.97299146 241.5854076 228.90763035 244.91144162 228.82421875 248.23828125 C232.07391644 248.35466161 235.32307705 248.42558706 238.57421875 248.48828125 C239.95480469 248.53855469 239.95480469 248.53855469 241.36328125 248.58984375 C246.70873796 248.73602266 246.70873796 248.73602266 251.40234375 246.47265625 C257.45707644 236.95807631 251.70131288 219.14233118 249.56640625 208.87109375 C239.97693266 165.93793998 220.91120885 126.53669422 190.82421875 94.23828125 C189.61083656 92.84683459 188.40224072 91.45119486 187.19921875 90.05078125 C179.12461012 80.80674655 169.96389558 72.95331953 160.19921875 65.55078125 C159.47476562 64.99583984 158.7503125 64.44089844 158.00390625 63.86914062 C150.96440056 58.05871303 150.96440056 58.05871303 142.76171875 54.61328125 C137.66019721 55.69871136 135.86005819 59.65130634 133.1796875 63.7578125 Z M119.82421875 87.23828125 C119.41284668 87.96080078 119.00147461 88.68332031 118.57763672 89.42773438 C110.79574026 103.08866267 102.98279559 116.72864442 95.04418945 130.29931641 C88.88885024 140.82523349 82.80164764 151.39012292 76.71533203 161.95605469 C73.58741727 167.38488067 70.45563427 172.81147406 67.32421875 178.23828125 C66.07419996 180.40493708 64.82419997 182.57160375 63.57421875 184.73828125 C56.07421875 197.73828125 56.07421875 197.73828125 54.19604492 200.9934082 C52.95619152 203.1427354 51.71676525 205.29230906 50.4777832 207.44213867 C47.55258112 212.51662614 44.62310152 217.58849742 41.67831421 222.65164185 C40.28873245 225.04143793 38.90159703 227.43264961 37.51464844 229.82397461 C36.53558622 231.50968714 35.55299269 233.19334712 34.5703125 234.87695312 C33.97734375 235.89982422 33.384375 236.92269531 32.7734375 237.9765625 C32.25096436 238.87415283 31.72849121 239.77174316 31.19018555 240.6965332 C29.86507825 243.16225118 28.8416621 245.63396508 27.82421875 248.23828125 C28.61512815 248.2415914 29.40603754 248.24490154 30.22091389 248.248312 C49.44937392 248.32946818 68.67775321 248.42153625 87.90610218 248.52580833 C97.20471864 248.57596893 106.50332613 248.62241141 115.80200195 248.66015625 C123.90500899 248.69305705 132.00794712 248.73287759 140.11087817 248.78107131 C144.40286801 248.80635538 148.69481202 248.82813097 152.98685646 248.84162521 C157.02434322 248.85442832 161.06167297 248.87646362 165.09907341 248.90566444 C166.58296133 248.91475396 168.06687455 248.92043365 169.55078888 248.92249489 C171.57290134 248.92580757 173.59497904 248.94244321 175.61701965 248.95980835 C176.74990323 248.96533911 177.88278681 248.97086987 179.05000019 248.97656822 C181.82421875 249.23828125 181.82421875 249.23828125 184.82421875 251.23828125 C185.65993876 254.70973358 186.18120602 257.19478001 185.01171875 260.61328125 C183.82421875 262.23828125 183.82421875 262.23828125 181.82421875 263.23828125 C179.94576967 263.35810382 178.06321044 263.41557286 176.18115234 263.44360352 C175.00007904 263.46354874 173.81900574 263.48349396 172.60214233 263.50404358 C170.68179672 263.52911232 170.68179672 263.52911232 168.72265625 263.5546875 C167.41591949 263.5754686 166.10918274 263.59624969 164.7628479 263.61766052 C161.28752975 263.67287419 157.81215222 263.7222865 154.33673096 263.77050781 C150.79083975 263.82072802 147.24503485 263.87641137 143.69921875 263.93164062 C136.74096025 264.03921353 129.78262379 264.14066042 122.82421875 264.23828125 C122.72270318 270.69769857 122.65270499 277.15690977 122.60449219 283.61694336 C122.58439108 285.81396167 122.55710569 288.01092657 122.52246094 290.20776367 C122.47387782 293.36780991 122.4512347 296.52714812 122.43359375 299.6875 C122.41294861 300.66788742 122.39230347 301.64827484 122.37103271 302.65837097 C122.36961423 306.98052882 122.40197178 309.52600893 124.64160156 313.30395508 C127.64376046 315.96459322 129.85200934 316.69967658 133.82421875 317.23828125 C138.41776246 315.86021814 141.4376774 314.48102142 143.82421875 310.23828125 C144.94588533 306.87328152 145.00269898 304.09273235 145.13671875 300.55078125 C145.53456057 294.70974004 146.09277617 289.89671743 149.82421875 285.23828125 C156.21677428 280.15032889 161.87961261 279.48837999 169.82421875 280.23828125 C175.73085775 281.79683978 178.83440569 284.88584853 181.9140625 290.04296875 C183.7829265 294.55070081 183.9502636 299.27634191 183.98193359 304.10424805 C183.99219574 305.23529465 184.00245789 306.36634125 184.01303101 307.53166199 C184.02033234 308.73808853 184.02763367 309.94451508 184.03515625 311.1875 C184.06320278 313.75195975 184.09186706 316.3164128 184.12109375 318.88085938 C184.16249508 322.91674949 184.20046094 326.95250453 184.22558594 330.98852539 C184.25050718 334.88840532 184.29892373 338.78784313 184.34765625 342.6875 C184.35253555 344.50624886 184.35253555 344.50624886 184.35751343 346.36174011 C184.3740799 347.48333023 184.39064636 348.60492035 184.40771484 349.76049805 C184.4158017 350.74833786 184.42388855 351.73617767 184.43222046 352.75395203 C184.88669298 355.63421804 185.53738928 356.49591097 187.82421875 358.23828125 C189.67645545 359.24306162 189.67645545 359.24306162 191.82421875 359.23828125 C194.55605574 358.08254114 194.55605574 358.08254114 196.82421875 356.23828125 C197.7388023 353.49453059 197.9507107 351.88726532 197.95552063 349.06335449 C197.95952881 348.21373642 197.96353699 347.36411835 197.96766663 346.48875427 C197.96713791 345.55982864 197.96660919 344.63090302 197.96606445 343.67382812 C197.96953888 342.6930983 197.97301331 341.71236847 197.97659302 340.70191956 C197.98394911 338.57061837 197.98929528 336.43930952 197.99288368 334.30799866 C198.00004047 330.93797557 198.01569973 327.56809881 198.03422546 324.19812012 C198.08674291 314.61598677 198.13471117 305.03393445 198.15014648 295.45166016 C198.16020333 289.59309528 198.18946625 283.73489946 198.23146629 277.8764801 C198.24381093 275.64053635 198.24889127 273.40454057 198.24666786 271.16856384 C198.24432637 268.04621684 198.26639265 264.92493754 198.29418945 261.80273438 C198.28758804 260.87380875 198.28098663 259.94488312 198.27418518 258.98780823 C198.36580723 252.74415073 198.36580723 252.74415073 200.69621277 250.17248535 C203.22178847 249.06374637 205.32409068 248.73171073 208.07421875 248.55078125 C208.96625 248.48503906 209.85828125 248.41929687 210.77734375 248.3515625 C211.79054688 248.29548828 211.79054688 248.29548828 212.82421875 248.23828125 C215.68535149 235.37254343 215.36466496 220.2276877 209.82421875 208.23828125 C208.41149887 205.0998125 207.0210447 201.95186649 205.63671875 198.80078125 C205.2490332 197.9288916 204.86134766 197.05700195 204.46191406 196.15869141 C200.54916053 187.10905601 197.75441167 177.75351589 195.0949707 168.27563477 C192.29811413 158.65098267 188.30031422 151.60218142 181.51171875 144.23828125 C180.73570312 143.39136719 179.9596875 142.54445312 179.16015625 141.671875 C177.04604263 139.4693787 174.8618702 137.38944572 172.63671875 135.30078125 C168.12182961 130.87286895 164.52039386 125.90766893 160.82421875 120.80078125 C148.99508942 104.46464179 138.18663879 95.4596375 119.82421875 87.23828125 Z M-224.78515625 265.8984375 C-231.55412639 277.28780017 -223.60168044 301.59129469 -220.703125 313.53125 C-205.92847914 370.6679616 -170.02405362 425.81019454 -119.17578125 457.23828125 C-116.13237998 458.07178076 -116.13237998 458.07178076 -113.17578125 457.23828125 C-108.52541857 452.8204367 -105.04035777 446.95759038 -102.17578125 441.23828125 C-102.17578125 440.24828125 -102.17578125 439.25828125 -102.17578125 438.23828125 C-102.71879883 437.99295654 -103.26181641 437.74763184 -103.82128906 437.49487305 C-122.68742934 428.85022074 -134.01848749 418.65673538 -146.11328125 401.73828125 C-151.33081309 394.50303202 -157.23104363 388.07910464 -163.67578125 381.92578125 C-175.59000743 370.03234779 -180.73046567 356.83874707 -185.26733398 341.00268555 C-185.50524658 340.17293213 -185.74315918 339.34317871 -185.98828125 338.48828125 C-186.22683838 337.65272705 -186.46539551 336.81717285 -186.71118164 335.95629883 C-188.81980868 328.84758228 -191.66559089 322.21590907 -194.92895508 315.56347656 C-200.82339522 303.29507526 -202.76997678 291.85309832 -202.42578125 278.36328125 C-202.40564205 276.98179736 -202.38740466 275.6002844 -202.37109375 274.21875 C-202.32455396 270.8911549 -202.25919285 267.56512088 -202.17578125 264.23828125 C-205.42547894 264.12190089 -208.67463955 264.05097544 -211.92578125 263.98828125 C-212.84617188 263.95476562 -213.7665625 263.92125 -214.71484375 263.88671875 C-220.03747127 263.76513583 -220.03747127 263.76513583 -224.78515625 265.8984375 Z M-186.17578125 264.23828125 C-188.4000056 277.58362734 -188.87660922 291.76388886 -183.17578125 304.23828125 C-181.76557474 307.37784626 -180.37357663 310.52515108 -178.98828125 313.67578125 C-178.6005957 314.54759033 -178.21291016 315.41939941 -177.81347656 316.31762695 C-173.90097378 325.36747829 -171.10600347 334.7229422 -168.4465332 344.20092773 C-165.66088809 353.78699852 -161.68407085 360.83710418 -154.92578125 368.17578125 C-154.15234375 369.02011719 -153.37890625 369.86445313 -152.58203125 370.734375 C-150.2619347 373.14863132 -147.85724452 375.43707494 -145.42578125 377.73828125 C-140.20593851 382.86882652 -136.14711636 388.65061531 -131.93383789 394.61621094 C-121.12260428 409.86368449 -110.05965995 417.67890829 -93.17578125 425.23828125 C-92.61201782 424.26109131 -92.61201782 424.26109131 -92.03686523 423.26416016 C-29.42578125 314.73828125 -29.42578125 314.73828125 -27.54760742 311.4831543 C-26.30775402 309.3338271 -25.06832775 307.18425344 -23.8293457 305.03442383 C-20.90414362 299.95993636 -17.97466402 294.88806508 -15.02987671 289.82492065 C-13.64029495 287.43512457 -12.25315953 285.04391289 -10.86621094 282.65258789 C-9.88714872 280.96687536 -8.90455519 279.28321538 -7.921875 277.59960938 C-7.32890625 276.57673828 -6.7359375 275.55386719 -6.125 274.5 C-5.60252686 273.60240967 -5.08005371 272.70481934 -4.54174805 271.7800293 C-2.92951733 268.89421457 -2.92951733 268.89421457 -1.17578125 264.23828125 C-62.22578125 264.23828125 -123.27578125 264.23828125 -186.17578125 264.23828125 Z M12.82421875 272.23828125 C12.29803955 273.18574219 12.29803955 273.18574219 11.76123047 274.15234375 C4.11436736 287.9053026 -3.65668164 301.57197176 -11.61328125 315.1484375 C-15.30791435 321.45398544 -18.96430806 327.78122561 -22.61328125 334.11328125 C-23.23581787 335.19343506 -23.85835449 336.27358887 -24.49975586 337.38647461 C-25.76154951 339.57624459 -27.02318659 341.7661048 -28.28466797 343.95605469 C-31.41258273 349.38488067 -34.54436573 354.81147406 -37.67578125 360.23828125 C-38.92580004 362.40493708 -40.17580003 364.57160375 -41.42578125 366.73828125 C-48.92578125 379.73828125 -48.92578125 379.73828125 -50.8034668 382.99267578 C-52.044816 385.14452039 -53.28586754 387.29653673 -54.52661133 389.44873047 C-57.43558128 394.49380187 -60.34738648 399.53716546 -63.27011108 404.57427979 C-64.30321065 406.35508126 -65.33534296 408.13643983 -66.3671875 409.91796875 C-67.66084213 412.15085208 -68.95630289 414.38269035 -70.25390625 416.61328125 C-73.41680694 422.07710529 -76.42876639 427.55339193 -79.17578125 433.23828125 C-71.52428217 438.96558677 -64.13711429 444.11450507 -55.40625 448.08203125 C-53.17578125 449.23828125 -53.17578125 449.23828125 -52.17578125 451.23828125 C-51.71912889 457.51725121 -51.71912889 457.51725121 -53.36328125 460.11328125 C-55.68741255 461.55584551 -57.45314648 461.9218775 -60.17578125 462.23828125 C-70.23424801 459.73126159 -78.82804947 453.11134391 -87.17578125 447.23828125 C-89.96498321 450.5853236 -92.30819897 453.93091109 -94.42578125 457.73828125 C-95.20695313 459.115 -95.20695313 459.115 -96.00390625 460.51953125 C-97.27096231 463.45910131 -97.72824545 465.08718912 -97.17578125 468.23828125 C-94.07728213 472.59113256 -89.23598042 474.38830168 -84.48828125 476.48828125 C-83.61397461 476.8759668 -82.73966797 477.26365234 -81.83886719 477.66308594 C-22.2401502 503.35471105 44.73381238 502.78461138 104.82421875 479.23828125 C108.12816235 477.86826391 111.39184542 476.43008529 114.63671875 474.92578125 C115.34207764 474.60053467 116.04743652 474.27528809 116.77416992 473.94018555 C120.10721328 472.32869151 121.72735538 471.3835763 123.82421875 468.23828125 C123.60756153 462.4724037 121.69171279 458.58289588 118.76171875 453.80078125 C118.38466797 453.16462891 118.00761719 452.52847656 117.61914062 451.87304688 C116.69781373 450.32195223 115.76245282 448.77920782 114.82421875 447.23828125 C109.87711542 449.88895143 105.11849786 452.68344958 100.44921875 455.80078125 C89.65018083 462.72903431 77.95820862 464.89231042 65.37744141 466.17651367 C55.16207678 467.21961463 45.40643276 468.92048414 35.44921875 471.42578125 C14.09650561 476.58161524 -9.00995644 474.85578054 -29.51977539 466.25537109 C-31.17578125 465.23828125 -31.17578125 465.23828125 -32.17578125 463.23828125 C-32.63978303 456.85825675 -32.63978303 456.85825675 -30.90405273 454.5390625 C-27.73628303 452.15484482 -23.92446133 452.8285148 -20.17578125 453.23828125 C-15.94407352 454.07312243 -11.78810591 455.15850633 -7.61328125 456.23828125 C8.61234248 460.12782312 20.45382194 459.88935453 36.53759766 455.65966797 C46.67121506 453.06523143 56.80641085 451.77898362 67.19165039 450.70800781 C82.49395111 449.01604611 93.85138504 442.66939607 105.82421875 433.23828125 C101.53375308 424.27376524 96.82876448 415.68845196 91.7421875 407.15625 C88.31552564 401.40465107 84.97718458 395.60273349 81.63671875 389.80078125 C80.99927734 388.69444336 80.36183594 387.58810547 79.70507812 386.44824219 C78.39642246 384.17672448 77.08799326 381.90507628 75.77978516 379.63330078 C72.63089821 374.16658145 69.47738611 368.70253238 66.32421875 363.23828125 C65.07419525 361.07162814 63.82419528 358.90496146 62.57421875 356.73828125 C61.64609375 355.12953125 61.64609375 355.12953125 60.69921875 353.48828125 C45.07421875 326.40494792 29.44921875 299.32161458 13.82421875 272.23828125 C13.49421875 272.23828125 13.16421875 272.23828125 12.82421875 272.23828125 Z " fill="#000000" transform="translate(243.17578125,-0.23828125)"/>
<path d="M0 0 C7.59269939 5.20069043 14.55562061 12.89535158 17.15234375 21.8828125 C19.25163291 34.06215952 17.99702296 45.60472898 10.875 55.9375 C4.13187994 64.18096427 -4.92876391 68.85587937 -15.375 70.625 C-27.49583036 71.47558459 -37.07848734 67.63909529 -46.30859375 60.03125 C-53.22565685 53.72407848 -56.99385509 45.69399974 -57.578125 36.390625 C-57.73016738 24.98744651 -55.81103627 15.8160413 -48.125 7.0625 C-46.76375 5.8559375 -46.76375 5.8559375 -45.375 4.625 C-44.83359375 4.13 -44.2921875 3.635 -43.734375 3.125 C-31.29161624 -7.3310998 -13.81660758 -8.24833259 0 0 Z M-35.25 16.875 C-40.2033851 22.3800382 -41.99284653 27.80135167 -41.71484375 35.140625 C-40.74590869 42.22387437 -36.89340361 46.80823657 -31.4453125 51.2109375 C-26.3166544 54.71390775 -21.44756446 54.99106312 -15.50390625 54.0859375 C-8.42059563 52.55230327 -4.57770915 48.21382695 -0.375 42.625 C2.38225308 38.06953839 2.26416476 32.80144545 1.625 27.625 C-0.46392449 21.12110537 -4.36795399 16.53857474 -10.125 12.875 C-19.28013712 9.35379342 -27.88668151 10.00669452 -35.25 16.875 Z " fill="#000000" transform="translate(161.375,320.375)"/>
<path d="M0 0 C9.19338518 6.55665903 15.18370381 15.31881727 17.2890625 26.43359375 C18.79427097 36.95147025 16.04780646 46.47033925 10.3359375 55.35546875 C3.77385788 64.03578174 -4.111621 68.31439944 -14.70703125 70.01953125 C-26.07469678 71.25882085 -34.9815218 69.30077162 -44.39453125 62.64453125 C-51.52864831 56.39762125 -55.83066007 48.65942041 -58.20703125 39.51953125 C-58.26890625 38.57078125 -58.33078125 37.62203125 -58.39453125 36.64453125 C-58.45640625 36.01675781 -58.51828125 35.38898438 -58.58203125 34.7421875 C-59.1240561 25.37532057 -56.14693608 15.60488097 -50.08203125 8.41796875 C-36.53580619 -5.81811037 -17.74294044 -10.04371995 0 0 Z M-38.171875 19.734375 C-41.80330852 25.40776475 -43.0515185 30.38831139 -42.09765625 37.1171875 C-40.47194197 42.96072716 -37.0668308 47.25687843 -32.45703125 51.08203125 C-26.34227271 54.20180601 -21.12016476 55.38059344 -14.39453125 53.64453125 C-7.73570014 51.45000122 -3.86668759 47.6781144 -0.39453125 41.64453125 C1.88913047 36.18360104 2.11018123 31.32140105 0.60546875 25.64453125 C-2.33521034 19.09269823 -6.69614865 14.33292331 -13.26953125 11.33203125 C-23.20893251 9.14536297 -31.86565704 11.46075756 -38.171875 19.734375 Z " fill="#000000" transform="translate(186.39453125,167.35546875)"/>
<path d="M0 0 C8.50550306 8.13104695 12.71607599 16.86843467 13.125 28.625 C12.96794141 39.17036242 9.50246692 47.7569587 2.3125 55.5 C-6.62022417 63.77911021 -15.40507658 67.26863658 -27.609375 67.0859375 C-37.29604686 66.3121501 -46.95109962 61.7943958 -53.5625 54.625 C-61.6278362 44.33711377 -63.39344538 33.58375664 -62.25 20.875 C-59.91279205 9.88344489 -54.02525681 2.43950561 -44.76953125 -3.65234375 C-30.35776133 -12.07596741 -12.70720874 -10.73474649 0 0 Z M-41.55078125 15 C-46.23532632 20.16915318 -46.74042651 25.60219182 -46.5390625 32.29296875 C-46.15583139 35.71615474 -45.15611521 38.01582719 -43.25 40.875 C-42.38375 42.174375 -42.38375 42.174375 -41.5 43.5 C-36.88162044 48.3749562 -31.62575057 50.61532688 -25 51.125 C-17.61694464 50.63279631 -12.7324673 48.22840032 -7.7265625 42.75390625 C-3.726163 37.6634508 -2.6760173 32.68508741 -2.90625 26.36328125 C-3.80808556 19.83522158 -7.14795334 15.16436126 -12.25 11.12890625 C-22.79925478 4.515018 -32.78762962 6.73612419 -41.55078125 15 Z " fill="#000000" transform="translate(253.25,70.125)"/>
<path d="M0 0 C7.45806871 6.67047094 12.24262711 15.14699159 13.015625 25.28515625 C13.21008087 37.5682856 10.18994274 46.74274076 1.7734375 55.8203125 C-6.40028835 63.63300805 -16.05587988 67.0622319 -27.30859375 66.89453125 C-38.12172386 65.86750397 -46.60254448 61.64433053 -53.9296875 53.7421875 C-60.49303859 45.66044922 -63.75680516 36.11355635 -62.96875 25.7421875 C-61.64524442 15.77771759 -57.83670151 6.4074786 -50.1875 -0.37890625 C-34.32713886 -11.5820651 -15.46480045 -12.5027923 0 0 Z M-39 11.43359375 C-44.0955577 16.52915145 -46.32646081 21.1752198 -46.5 28.30859375 C-46.41882698 35.77651201 -44.62757744 40.12556001 -39.4375 45.43359375 C-33.66274878 49.32044553 -28.25200947 51.48866509 -21.1875 50.62109375 C-13.99363965 48.58219215 -9.38498789 44.75038004 -5.1875 38.62109375 C-2.65760196 33.34130654 -2.24905947 27.93092292 -3.83984375 22.3203125 C-6.38370333 15.8241904 -10.07667478 11.45429959 -16.5 8.58984375 C-24.75331864 5.65774371 -31.63693064 6.68850461 -39 11.43359375 Z " fill="#000000" transform="translate(259.1875,371.37890625)"/>
<path d="M0 0 C9.1689473 7.73750827 14.56583258 16.38758865 15.86328125 28.46875 C16.19923933 38.79504056 13.32401556 48.45042464 6.53515625 56.3203125 C-1.00337474 63.93592458 -10.00498863 68.60496799 -20.80859375 69.28125 C-31.65679938 69.14915617 -41.73122127 65.41212735 -49.77734375 58.05078125 C-57.16720544 49.72137724 -60.21378904 40.22700106 -60.375 29.25 C-59.7139419 18.83466236 -55.65169046 9.94879162 -48 2.8125 C-34.18673764 -8.50188073 -15.13173952 -10.73297803 0 0 Z M-39.3125 17 C-42.96407953 22.75400411 -45.2467779 28.41727311 -43.9375 35.27734375 C-41.78374087 42.83045736 -38.21248543 47.31522065 -31.375 51.25 C-25.92787987 53.5278866 -21.02766526 53.84749236 -15.375 52.25 C-8.80244937 49.15640532 -4.37846492 44.87371282 -1.375 38.25 C0.5281894 31.8282706 -0.09592199 26.44064055 -2.9765625 20.46484375 C-6.04148916 15.61061633 -10.23584587 12.27501135 -15.375 9.8125 C-24.55271669 8.09167812 -32.72762278 9.89943962 -39.3125 17 Z " fill="#000000" transform="translate(421.375,170.75)"/>
<path d="M0 0 C4.64837492 4.75401981 7.26796486 10.07192415 7.77734375 16.74609375 C7.67514217 24.46961338 5.20648373 30.31872823 -0.25 35.8125 C-6.16303527 40.23131254 -11.95719385 41.51782614 -19.25 40.8125 C-25.86133526 39.41591949 -30.7556289 35.76147415 -35.25 30.8125 C-38.97158684 24.88122097 -39.03937071 18.61741995 -38.25 11.8125 C-36.44255171 5.1056164 -31.80967816 0.72486612 -26.25 -3.1875 C-17.25847697 -7.58760701 -7.95122547 -5.35178637 0 0 Z M-20 12.4375 C-22.49004737 14.6494704 -22.49004737 14.6494704 -22.875 17.8125 C-22.47979528 20.96677259 -22.47979528 20.96677259 -20.0625 23.25 C-17.40352661 25.03779278 -17.40352661 25.03779278 -14.625 24.75 C-12.01535851 23.71987836 -10.79001643 23.16305139 -9.25 20.8125 C-8.6981337 17.10711199 -8.75630759 15.48251113 -11 12.4375 C-14.41385465 9.97193831 -16.46684426 10.34972616 -20 12.4375 Z " fill="#000000" transform="translate(320.25,397.1875)"/>
<path d="M0 0 C5.72173184 4.09862832 8.86393988 8.96797936 10.5625 15.75 C11.54612638 22.42206811 10.2480702 28.09810604 6.5625 33.75 C1.89486913 38.96384299 -2.64906591 42.23255343 -9.71484375 42.99609375 C-16.81511688 43.35712459 -22.76443435 41.91781863 -28.2265625 37.20703125 C-32.98413597 32.08619478 -35.0973854 26.76244364 -35.875 19.875 C-35.56212091 13.25239258 -33.11963999 6.8763719 -28.25 2.3125 C-19.87540469 -3.94622091 -9.23691966 -5.42540263 0 0 Z M-18.4375 15.75 C-19.77300847 18.59627591 -19.77300847 18.59627591 -19.4375 21.75 C-17.52083333 24.83333333 -17.52083333 24.83333333 -14.4375 26.75 C-10.85856498 26.8215787 -9.202542 26.4163269 -6.5 24.0625 C-5.01114576 20.82205253 -5.29675393 19.10094158 -6.4375 15.75 C-11.20944109 12.07927608 -13.66555891 12.07927608 -18.4375 15.75 Z " fill="#000000" transform="translate(338.4375,193.25)"/>
<path d="M0 0 C4.66545733 3.86183789 6.94351743 9.14800525 8 15 C8.43754784 22.05164315 7.04348224 27.37947575 2.8125 33.0546875 C-1.17358551 37.33285686 -6.06850135 40.54373087 -12 41 C-13.051875 41.103125 -14.10375 41.20625 -15.1875 41.3125 C-22.35593775 40.72492313 -28.08232465 38.47297194 -33 33.125 C-37.87578016 26.88400139 -38.91663295 20.77962836 -38 13 C-36.14192232 5.77936901 -32.07107696 1.17386541 -26 -3 C-17.07447762 -7.46276119 -7.96236798 -5.3554717 0 0 Z M-19.8125 13.125 C-22.30339948 15.81259963 -22.30339948 15.81259963 -22.0625 19.125 C-21.18706667 22.01645649 -21.18706667 22.01645649 -19.3125 23.9375 C-16.07205253 25.42635424 -14.35094158 25.14074607 -11 24 C-8.82979708 21.91078244 -8.82979708 21.91078244 -8 19 C-8.48762261 15.78683477 -8.48762261 15.78683477 -10 13 C-14.07033286 10.28644476 -15.87993358 10.15372759 -19.8125 13.125 Z " fill="#000000" transform="translate(389,118)"/>
<path d="M0 0 C5.28632468 3.93158556 8.83266901 8.93745898 10.125 15.4375 C10.70580834 22.1748768 9.55211187 27.55014302 6.125 33.4375 C1.55576799 38.71642123 -3.12861262 41.92459708 -10.15234375 42.68359375 C-17.46240305 43.05529168 -23.40104895 41.55344846 -28.921875 36.6015625 C-34.20317729 30.9056125 -36.40684536 25.65863508 -36.18359375 17.87109375 C-35.40711268 11.74770508 -33.22791313 6.26587652 -28.6875 2 C-20.05629129 -4.45049993 -9.38420059 -5.70534454 0 0 Z M-18.875 15.4375 C-20.21050847 18.28377591 -20.21050847 18.28377591 -19.875 21.4375 C-17.95833333 24.52083333 -17.95833333 24.52083333 -14.875 26.4375 C-11.29606498 26.5090787 -9.640042 26.1038269 -6.9375 23.75 C-5.44864576 20.50955253 -5.73425393 18.78844158 -6.875 15.4375 C-11.64694109 11.76677608 -14.10305891 11.76677608 -18.875 15.4375 Z " fill="#000000" transform="translate(102.875,199.5625)"/>
<path d="M0 0 C5.62190491 3.35174881 9.56334243 8.22193737 11.5625 14.4375 C12.39974732 22.04087387 12.40834412 29.2172498 7.5625 35.4375 C3.20249624 40.05579782 -1.03859132 43.06322837 -7.48828125 43.7734375 C-15.46766343 43.86899896 -21.24529376 43.3952428 -27.18359375 37.7890625 C-32.88719465 31.5246759 -33.9069597 26.04801721 -33.74609375 17.6640625 C-33.05565497 10.4450444 -29.77887352 6.20133229 -24.31640625 1.6640625 C-17.37256019 -2.86892641 -7.57669887 -3.40805181 0 0 Z M-15.8125 16 C-17.78965682 18.45253412 -17.78965682 18.45253412 -17.3125 22.0625 C-16.73009286 25.48292055 -16.73009286 25.48292055 -14.4375 27.4375 C-9.77521115 27.9015446 -9.77521115 27.9015446 -5.5 26.3125 C-3.90759717 23.50237736 -3.98430675 21.60985276 -4.4375 18.4375 C-6.42072993 15.6462875 -7.56736121 14.61152776 -10.9375 13.9375 C-13.54713005 14.29688071 -13.54713005 14.29688071 -15.8125 16 Z " fill="#000000" transform="translate(267.4375,152.5625)"/>
<path d="M0 0 C5.17917268 5.23687934 7.28684964 9.95194492 7.375 17.3125 C7.24339482 24.17145237 6.05964103 28.68847569 1.38671875 33.74609375 C-4.47664434 39.16742947 -10.2252551 40.55371859 -18.12109375 40.37109375 C-25.0462358 39.47843636 -30.30663891 36.36708741 -34.5625 30.875 C-38.82293491 24.67142055 -38.60679627 18.31622929 -38 11 C-36.32014477 4.72584189 -32.25552655 0.61893714 -27 -3 C-18.18391734 -7.86756687 -7.62971344 -6.38766706 0 0 Z M-21 13 C-22.30746709 14.09923541 -22.30746709 14.09923541 -22.3125 16.8125 C-22.24098892 20.03085641 -22.24098892 20.03085641 -20.4375 22.4375 C-17.97376884 24.33441535 -17.97376884 24.33441535 -14.375 23.9375 C-10.74483076 23.3249155 -10.74483076 23.3249155 -9 20 C-8.54142465 15.84597876 -8.54142465 15.84597876 -10.25 12.1875 C-14.65025831 9.20161044 -16.7248611 9.99584834 -21 13 Z " fill="#000000" transform="translate(272,313)"/>
<path d="M0 0 C5.75070545 3.205011 9.60552611 7.75407834 11.6875 14 C12.32822532 21.67820011 12.6014556 28.72335084 7.6875 35 C2.24497264 40.95018176 -2.55195857 43.46107078 -10.625 44.375 C-18.95255122 43.52813038 -24.61771036 40.52999805 -29.9375 34.09765625 C-34.06378517 27.80272689 -34.26560986 21.32703203 -33.3125 14 C-30.91017051 7.45541856 -27.20948296 3.20128642 -21.14453125 -0.16015625 C-14.28581296 -3.30434481 -6.83531526 -3.0862484 0 0 Z M-17.3125 18 C-18.0625 21 -18.0625 21 -17.3125 24 C-15.2440113 26.5714939 -15.2440113 26.5714939 -12.3125 28 C-9.41768392 27.93107581 -7.90564642 27.38861317 -5.5 25.8125 C-3.70277983 23.06937448 -3.85475875 21.20418874 -4.3125 18 C-6.29572993 15.2087875 -7.44236121 14.17402776 -10.8125 13.5 C-14.18263879 14.17402776 -15.32927007 15.2087875 -17.3125 18 Z " fill="#000000" transform="translate(152.3125,108)"/>
<path d="M0 0 C5.99645699 3.36998952 9.4766741 8.61752231 11.625 15.0625 C12.31916678 23.44589876 11.26666722 29.21321348 6.4375 36.25 C0.95111735 41.73638265 -3.58174135 43.31660367 -11.375 43.625 C-18.65809405 43.39910724 -22.81853123 41.63725395 -27.89453125 36.53515625 C-32.37938477 31.45576883 -34.26706593 26.86234645 -34.375 20.0625 C-33.65801926 13.33653779 -31.70471887 7.92807624 -26.44140625 3.3984375 C-18.44898421 -2.79019021 -9.51167401 -4.2001474 0 0 Z M-17.375 17.0625 C-17.80560657 20.50735259 -18.00835287 22.90756242 -16.3125 26 C-13.22006242 27.69585287 -10.81985259 27.49310657 -7.375 27.0625 C-5.18952316 25.62101025 -5.18952316 25.62101025 -4.375 23.0625 C-4.36831283 19.44192732 -4.36831283 19.44192732 -5.375 16.0625 C-9.79366613 13.11672258 -13.69880755 12.84168645 -17.375 17.0625 Z " fill="#000000" transform="translate(186.375,268.9375)"/>
<path d="M0 0 C5.99645699 3.36998952 9.4766741 8.61752231 11.625 15.0625 C12.36363813 22.44888129 11.80109289 28.78614987 7.625 35.0625 C3.3802612 39.74981821 -1.03542565 42.69476198 -7.42578125 43.3984375 C-15.38810136 43.49379463 -21.23889244 43.05055897 -27.12109375 37.37890625 C-32.21414946 31.69959953 -34.26163911 26.70806257 -34.375 19.0625 C-33.58930925 12.19082373 -30.64110422 6.90076799 -25.4375 2.3125 C-17.8195047 -3.28439451 -8.64623045 -3.79335375 0 0 Z M-16.1875 15.3125 C-17.58705 17.37499474 -18.22764484 18.55746229 -18.375 21.0625 C-17.22713059 23.30606294 -16.1654233 25.2720767 -14.375 27.0625 C-10.82877897 27.45652456 -8.976154 27.44785513 -5.9375 25.5 C-4.04058465 23.03626884 -4.04058465 23.03626884 -4.4375 19.4375 C-5.0500845 15.80733076 -5.0500845 15.80733076 -8.375 14.0625 C-12.52902124 13.60392465 -12.52902124 13.60392465 -16.1875 15.3125 Z " fill="#000000" transform="translate(106.375,279.9375)"/>
<path d="M0 0 C5.17917268 5.23687934 7.28684964 9.95194492 7.375 17.3125 C7.24339482 24.17145237 6.05964103 28.68847569 1.38671875 33.74609375 C-4.4801656 39.17068527 -10.21770635 40.53361475 -18.11328125 40.3828125 C-24.15216737 39.58198592 -29.10831651 36.84317878 -33.4375 32.625 C-37.8023945 25.29197724 -39.00582705 19.58381946 -38 11 C-36.24254662 4.73384181 -32.27716831 0.63383958 -27 -3 C-18.18391734 -7.86756687 -7.62971344 -6.38766706 0 0 Z M-21 13 C-22.30746709 14.09923541 -22.30746709 14.09923541 -22.3125 16.8125 C-22.24098892 20.03085641 -22.24098892 20.03085641 -20.4375 22.4375 C-17.97376884 24.33441535 -17.97376884 24.33441535 -14.375 23.9375 C-10.74483076 23.3249155 -10.74483076 23.3249155 -9 20 C-8.54142465 15.84597876 -8.54142465 15.84597876 -10.25 12.1875 C-14.65025831 9.20161044 -16.7248611 9.99584834 -21 13 Z " fill="#000000" transform="translate(324,74)"/>
</svg>
