<?xml version="1.0" encoding="UTF-8"?>
<svg version="1.1" xmlns="http://www.w3.org/2000/svg" width="512" height="512">
<path d="M0 0 C1.24716797 -0.05607422 1.24716797 -0.05607422 2.51953125 -0.11328125 C7.86138409 0.73922528 11.07700481 3.93760271 14.265625 8.078125 C15.33504037 9.56426717 16.39182885 11.05955634 17.4375 12.5625 C17.99526123 13.35011719 18.55302246 14.13773438 19.12768555 14.94921875 C22.89051545 20.31472553 26.50592691 25.76850254 30 31.3125 C30.42635742 31.98829102 30.85271484 32.66408203 31.29199219 33.36035156 C34.1875 38.05675359 34.1875 38.05675359 34.1875 40.3125 C34.83372314 40.09634033 35.47994629 39.88018066 36.14575195 39.6574707 C89.91518678 21.87913382 89.91518678 21.87913382 105.3125 27.4375 C109.40924032 30.10928716 111.64035125 32.67105374 113.1875 37.3125 C113.49613131 43.76504761 112.63891143 49.78215586 111.5 56.125 C111.22990112 57.63852051 111.22990112 57.63852051 110.9543457 59.18261719 C105.93321537 86.43956905 97.46534095 112.93963581 79.47265625 134.45703125 C77.6470932 136.7382049 76.31705979 138.64673889 75.1875 141.3125 C75.57421875 141.85777344 75.9609375 142.40304688 76.359375 142.96484375 C86.92546933 158.26475757 89.13434172 173.92420769 86.1875 192.3125 C87.08210938 192.25449219 87.97671875 192.19648438 88.8984375 192.13671875 C97.11620866 191.8300855 103.50989016 192.19095704 110.1875 197.3125 C116.91170921 204.38048269 117.62075011 210.80051047 117.46484375 220.1953125 C116.48122152 245.33884995 108.78153605 290.71846395 90.1875 309.3125 C83.2601257 309.98289106 83.2601257 309.98289106 79.6875 307.75 C77.59909709 304.35634527 77.86450112 302.28020228 78.1875 298.3125 C79.14197163 295.32769256 80.43579815 292.52915494 81.75 289.6875 C84.88183687 282.60257966 87.6344688 275.48167949 90.0625 268.125 C90.34810791 267.26503418 90.63371582 266.40506836 90.92797852 265.51904297 C92.57433789 260.46494185 93.89082951 255.49918198 95.1875 250.3125 C-59.2525 250.3125 -213.6925 250.3125 -372.8125 250.3125 C-361.47923203 290.99743675 -361.47923203 290.99743675 -337.8125 327.3125 C-337.41160156 326.44109375 -337.01070313 325.5696875 -336.59765625 324.671875 C-326.0594973 302.59192291 -308.7583538 282.84212984 -285.8125 273.3125 C-285.1525 273.3125 -284.4925 273.3125 -283.8125 273.3125 C-283.585625 272.405 -283.35875 271.4975 -283.125 270.5625 C-281.56374164 266.69652693 -280.35680486 265.46990296 -276.8125 263.3125 C-263.83560076 258.59362755 -250.23766357 261.2697253 -238 266.75 C-227.52365478 272.24020432 -218.52374509 280.55188603 -211.55859375 290.05859375 C-207.42989249 295.38803587 -203.19116305 298.41196692 -197.3125 301.4375 C-182.89786889 309.24432112 -169.64538198 320.45976631 -163.8125 336.3125 C-162.17663336 341.94582986 -161.42239348 347.08177192 -161.375 352.9375 C-161.32569336 354.02417969 -161.32569336 354.02417969 -161.27539062 355.1328125 C-161.23522271 359.16421049 -161.63500004 361.59343169 -164.21484375 364.7734375 C-166.8125 367.3125 -166.8125 367.3125 -168.8125 368.3125 C-169.75449002 371.03347117 -170.60984309 373.74449107 -171.4375 376.5 C-177.27650733 394.72374509 -188.66241603 410.45653274 -202.8125 423.3125 C-203.4725 423.6425 -204.1325 423.9725 -204.8125 424.3125 C-198.69200338 426.50094137 -192.62765955 428.13617404 -186.25 429.375 C-185.47076172 429.53548828 -184.69152344 429.69597656 -183.88867188 429.86132812 C-169.07539637 432.79570012 -154.56182317 433.72122431 -139.5 433.6875 C-138.58107971 433.68695618 -137.66215942 433.68641235 -136.71539307 433.68585205 C-121.09708437 433.64354436 -106.13244161 432.56173189 -90.8125 429.3125 C-89.80171387 429.10351074 -88.79092773 428.89452148 -87.74951172 428.67919922 C-66.4071441 424.14152431 -45.9929248 416.70426823 -26.8125 406.3125 C-26.08869141 405.92980957 -25.36488281 405.54711914 -24.61914062 405.15283203 C-7.18594242 395.93463835 8.25605053 384.77518241 22.82421875 371.453125 C24.88779213 369.58397093 26.99264613 367.78926638 29.125 366 C41.13144188 355.45834403 50.80355003 342.41395445 59.94921875 329.39453125 C63.09562474 325.06204552 63.09562474 325.06204552 66.1875 324.3125 C69.23487897 324.49907422 71.3933182 324.81955957 74 326.4375 C75.90633806 329.44750746 76.67201325 331.81108427 76.1875 335.3125 C56.55254887 380.04076706 -0.95700972 416.25582124 -44.20361328 433.31298828 C-70.34538769 443.32837518 -98.48199406 450.36790116 -126.60546875 450.515625 C-127.50587387 450.52268463 -128.40627899 450.52974426 -129.33396912 450.53701782 C-167.05458986 450.76566333 -167.05458986 450.76566333 -183.8125 447.3125 C-184.88113281 447.09255371 -185.94976562 446.87260742 -187.05078125 446.64599609 C-198.29381196 444.27292718 -209.52478385 441.84386723 -220.296875 437.78125 C-223.70773906 437.14568527 -225.61453601 438.0109566 -228.8125 439.3125 C-229.96363281 439.76367188 -231.11476562 440.21484375 -232.30078125 440.6796875 C-232.91630859 440.92372314 -233.53183594 441.16775879 -234.16601562 441.41918945 C-240.62310234 443.95164856 -247.05520603 446.04767274 -253.8125 447.625 C-254.49352783 447.78403809 -255.17455566 447.94307617 -255.8762207 448.10693359 C-264.90230671 450.1112605 -273.655655 450.526207 -282.89160156 450.55273438 C-284.91253791 450.56238085 -286.93242858 450.59345742 -288.953125 450.625 C-302.98934099 450.67993627 -317.74213597 448.8909163 -328.90234375 439.56640625 C-345.20898319 422.40340063 -347.25812959 394.02535659 -347.05078125 371.609375 C-346.93591217 367.3240552 -346.36817692 363.25587498 -345.63305664 359.03955078 C-344.39624008 351.88170457 -344.39624008 351.88170457 -346.3671875 345.0546875 C-348.60429483 342.07786548 -348.60429483 342.07786548 -351.18359375 339.265625 C-353.97239825 336.13288175 -356.07449479 332.97711606 -358.1875 329.375 C-358.73531128 328.44361206 -358.73531128 328.44361206 -359.29418945 327.4934082 C-360.48363268 325.44212372 -361.65160944 323.3800749 -362.8125 321.3125 C-363.24852539 320.5376123 -363.68455078 319.76272461 -364.13378906 318.96435547 C-379.20470977 291.89132626 -388.87542062 262.87888131 -393.8125 232.3125 C-394.00457031 231.136875 -394.19664062 229.96125 -394.39453125 228.75 C-396.77327449 209.1865042 -396.77327449 209.1865042 -392.07421875 201.81640625 C-388.09510908 197.07350464 -383.70109833 194.14665358 -377.8125 192.3125 C-374.12992582 192.08358323 -370.49624553 192.13264262 -366.8125 192.3125 C-367.3075 190.5490625 -367.3075 190.5490625 -367.8125 188.75 C-370.12124007 178.20287808 -369.57857762 167.42058712 -365.8125 157.3125 C-365.54566406 156.59578125 -365.27882813 155.8790625 -365.00390625 155.140625 C-360.54541944 144.91582859 -351.8818115 139.31024154 -341.8125 135.3125 C-331.26906002 131.8958916 -320.99256981 131.24046373 -310 131.1875 C-308.76237915 131.18036987 -308.76237915 131.18036987 -307.49975586 131.1730957 C-303.47278996 131.18418249 -299.74172015 131.3082774 -295.8125 132.3125 C-295.57789063 131.49910156 -295.34328125 130.68570313 -295.1015625 129.84765625 C-293.8303164 126.36136014 -292.27822484 123.33337818 -290.48730469 120.09814453 C-276.2012768 94.28991459 -268.95302829 66.47043238 -265.8125 37.3125 C-266.8025 37.8075 -266.8025 37.8075 -267.8125 38.3125 C-271.86513598 38.85285146 -273.34980231 38.65449395 -276.6875 36.1875 C-278.8125 33.3125 -278.8125 33.3125 -279.4375 30.3125 C-278.5884278 26.23695344 -276.98207338 24.98534724 -273.8125 22.3125 C-271.24801843 21.05755417 -268.61122104 20.23205074 -265.87890625 19.41796875 C-265.12334946 19.18088699 -264.36779266 18.94380524 -263.58934021 18.69953918 C-261.99895416 18.20411046 -260.4061933 17.71624809 -258.8112793 17.2355957 C-256.38045061 16.50164572 -253.95874985 15.74217119 -251.53710938 14.97851562 C-249.98484652 14.49847262 -248.43212594 14.01990672 -246.87890625 13.54296875 C-246.15997696 13.31804245 -245.44104767 13.09311615 -244.70033264 12.8613739 C-240.63595256 11.64889542 -237.05232063 10.88731861 -232.8125 11.3125 C-229.14349171 13.94461465 -227.97240469 15.40104326 -227.1875 19.875 C-227.8125 23.3125 -227.8125 23.3125 -230.125 25.75 C-232.8125 27.3125 -232.8125 27.3125 -235.8125 27.3125 C-235.41160156 28.10527344 -235.01070312 28.89804687 -234.59765625 29.71484375 C-219.92477529 59.82585796 -209.41134175 94.52901775 -210.8125 128.3125 C-209.73871094 128.37308594 -208.66492188 128.43367187 -207.55859375 128.49609375 C-206.12238685 128.58057651 -204.68618942 128.66522054 -203.25 128.75 C-202.54552734 128.78931641 -201.84105469 128.82863281 -201.11523438 128.86914062 C-196.6326459 129.13768279 -192.24956503 129.61866197 -187.8125 130.3125 C-187.43738281 129.66023437 -187.06226563 129.00796875 -186.67578125 128.3359375 C-186.16402344 127.46195312 -185.65226563 126.58796875 -185.125 125.6875 C-184.37669922 124.39972656 -184.37669922 124.39972656 -183.61328125 123.0859375 C-174.35207564 108.82247551 -158.53871898 101.40726985 -142.55859375 97.1015625 C-127.24059003 93.87503825 -112.89296359 95.27226821 -98.8125 102.3125 C-98.53277344 101.55066406 -98.25304687 100.78882813 -97.96484375 100.00390625 C-92.39727429 85.66428203 -83.70571611 76.09600821 -69.76171875 69.53515625 C-62.43489936 66.49768013 -55.68955119 66.0164939 -47.8125 66.3125 C-47.44125 65.075 -47.07 63.8375 -46.6875 62.5625 C-41.5281264 47.18218722 -41.5281264 47.18218722 -36.84375 43.95703125 C-33.57065179 42.91845201 -31.09316326 43.47742208 -27.8125 44.3125 C-25.17476118 46.52479708 -24.86596477 47.98502829 -24.3125 51.375 C-25.01351361 56.89548221 -27.31648821 61.38287671 -29.8125 66.3125 C-29.26722656 66.48265625 -28.72195313 66.6528125 -28.16015625 66.828125 C-23.18362944 68.42741909 -18.47381777 70.28638558 -13.7578125 72.54296875 C-11.69622164 73.49642333 -11.69622164 73.49642333 -8.8125 73.3125 C-7.13698161 71.55324061 -7.13698161 71.55324061 -5.5625 69.25 C-0.20828302 62.10731806 5.44614128 56.8846284 12.85546875 51.890625 C15.01948968 50.42619542 17.11078841 48.89748448 19.1875 47.3125 C13.64059416 36.99748026 7.2826778 27.62492086 0.1875 18.3125 C-0.45316406 19.1065625 -1.09382813 19.900625 -1.75390625 20.71875 C-2.62654158 21.75089931 -3.50029948 22.78210026 -4.375 23.8125 C-4.79330078 24.33714844 -5.21160156 24.86179687 -5.64257812 25.40234375 C-8.24106473 28.41111771 -9.50096981 29.27788553 -13.50390625 29.72265625 C-17.07546642 29.27990086 -18.5042261 29.06467273 -20.8125 26.3125 C-22.06256111 22.84010804 -22.40643819 20.57895185 -20.80859375 17.171875 C-9.97781825 0.29121129 -9.97781825 0.29121129 0 0 Z M-249.8125 37.3125 C-249.87195801 37.93890381 -249.93141602 38.56530762 -249.99267578 39.21069336 C-253.21223051 71.89539949 -262.05792971 100.82652962 -276.81616211 130.09619141 C-277.74715605 132.16714533 -278.34437473 134.09626394 -278.8125 136.3125 C-277.23175436 137.13002303 -275.64778777 137.94131997 -274.0625 138.75 C-273.18078125 139.20246094 -272.2990625 139.65492188 -271.390625 140.12109375 C-268.21023942 141.63534065 -268.21023942 141.63534065 -264.8125 142.3125 C-262.71539 141.25902149 -262.71539 141.25902149 -260.6875 139.625 C-250.22715297 132.33650013 -239.19103609 130.99008395 -226.8125 129.3125 C-225.40243264 97.76877086 -235.96241394 65.74272703 -248.8125 37.3125 C-249.1425 37.3125 -249.4725 37.3125 -249.8125 37.3125 Z M79 44.9375 C78.04528809 45.11498779 77.09057617 45.29247559 76.10693359 45.4753418 C51.61848097 50.2196524 23.06710047 58.05570018 7.23046875 78.88671875 C5.81586399 80.99703076 4.46446184 83.11674854 3.1875 85.3125 C3.91066406 86.32570313 3.91066406 86.32570313 4.6484375 87.359375 C5.28007812 88.25140625 5.91171875 89.1434375 6.5625 90.0625 C7.18898438 90.94421875 7.81546875 91.8259375 8.4609375 92.734375 C9.90230941 94.88664979 11.10248093 96.96710523 12.1875 99.3125 C15.38751981 96.61026105 18.55509926 93.90614069 21.609375 91.0390625 C31.1365647 82.10379879 41.36260075 74.75038472 52.6875 68.25 C53.34580811 67.8677124 54.00411621 67.4854248 54.68237305 67.09155273 C58.50406981 64.96372336 61.81218864 63.64464042 66.1875 63.3125 C68.93704328 64.27855575 69.87757757 64.69265514 71.1875 67.3125 C71.6514455 73.69175062 71.6514455 73.69175062 70.06640625 75.8125 C67.50543778 77.85701537 64.75529736 79.31252839 61.875 80.875 C48.88700116 88.1359405 37.84843493 96.97285352 27.1875 107.3125 C26.45273437 108.01890625 25.71796875 108.7253125 24.9609375 109.453125 C21.79497703 112.55172461 18.72153907 115.66348374 16.1875 119.3125 C16.1875 120.3025 16.1875 121.2925 16.1875 122.3125 C17.74984375 122.36857422 17.74984375 122.36857422 19.34375 122.42578125 C32.63156183 122.9962413 45.69369377 124.13041608 57.85546875 129.93359375 C60.35470476 130.6049019 60.35470476 130.6049019 62.75 128.68359375 C85.46179695 106.59054768 92.5800446 73.4346703 97.1875 43.3125 C90.9239605 43.12335711 85.15306557 43.79088741 79 44.9375 Z M-76.49609375 94.34765625 C-80.90694376 100.58444418 -84.0913309 107.27395302 -85.4375 114.8125 C-84.67716933 119.07035178 -82.88633498 121.61595303 -80.546875 125.203125 C-77.03986387 131.49046929 -75.04434735 138.49032831 -72.8125 145.3125 C-71.05099609 145.35117188 -71.05099609 145.35117188 -69.25390625 145.390625 C-53.80873292 145.87530617 -39.63556909 148.02777244 -25.8125 155.3125 C-25.37679687 154.45527344 -24.94109375 153.59804687 -24.4921875 152.71484375 C-18.22778076 140.68772518 -12.20672657 133.50961329 0.1875 127.3125 C0.82290392 115.35749285 -0.90078819 104.65426301 -8.8125 95.3125 C-18.20523686 85.4567409 -30.65405203 82.35164397 -43.94873047 81.90576172 C-56.60671972 81.74930629 -68.04926482 84.13698833 -76.49609375 94.34765625 Z M-167.8125 129.3125 C-175.04873618 137.72911513 -175.55473292 146.5069314 -175.0078125 157.1171875 C-173.81237319 170.55392529 -167.9024592 180.05016701 -157.9609375 188.68359375 C-153.37070244 192.16382651 -150.23578057 192.55395461 -144.421875 192.5078125 C-143.71726135 192.5049826 -143.01264771 192.50215271 -142.28668213 192.49923706 C-140.0451124 192.48807801 -137.80394814 192.46298193 -135.5625 192.4375 C-134.03906829 192.42746464 -132.51563029 192.41833976 -130.9921875 192.41015625 C-127.26549414 192.38815291 -123.53903667 192.35365272 -119.8125 192.3125 C-119.32970581 190.63969971 -119.32970581 190.63969971 -118.8371582 188.93310547 C-114.40489358 173.69462967 -108.51993537 160.59060029 -94.3125 152.25 C-92.48811291 151.25426398 -90.65777681 150.26896848 -88.8125 149.3125 C-90.08123024 137.84214295 -95.85262359 125.79323172 -104.8125 118.3125 C-124.79150981 104.89507957 -152.21514199 112.38329927 -167.8125 129.3125 Z M-3.8125 148.3125 C-10.40702436 156.79014984 -10.40702436 156.79014984 -12.5859375 166.84375 C-11.78603181 169.39698433 -10.75243405 171.48546519 -9.4375 173.8125 C-7.31679807 177.86753914 -6.11805727 181.68806065 -5.1484375 186.15625 C-4.89368652 187.31318359 -4.63893555 188.47011719 -4.37646484 189.66210938 C-4.19035645 190.53673828 -4.00424805 191.41136719 -3.8125 192.3125 C5.68824325 192.33562484 15.18897688 192.3534158 24.68974209 192.36431217 C29.10087004 192.36954069 33.5119788 192.37663777 37.9230957 192.38793945 C42.17651115 192.39876944 46.42990809 192.40477707 50.68333626 192.40737724 C52.30971633 192.40923129 53.93609534 192.41285152 55.56246758 192.41823006 C57.83260193 192.42544198 60.10265885 192.42649088 62.37280273 192.42602539 C63.66741928 192.428246 64.96203583 192.43046661 66.29588318 192.43275452 C69.08192383 192.64378112 69.08192383 192.64378112 70.1875 191.3125 C72.66809163 179.18516316 71.97188892 166.57982489 65.6796875 155.70703125 C58.11123929 145.19920896 47.65309907 141.21322271 35.26953125 138.7265625 C21.53224151 136.88099506 6.33741291 137.66054838 -3.8125 148.3125 Z M-210.8125 144.3125 C-211.1425 146.6225 -211.4725 148.9325 -211.8125 151.3125 C-209.79427083 151.76822917 -207.77604167 152.22395833 -205.7578125 152.6796875 C-203.8125 153.3125 -203.8125 153.3125 -201.8125 155.3125 C-201.25982297 162.27623057 -201.25982297 162.27623057 -202.8125 165.1875 C-209.11230849 168.73114228 -216.35292102 168.65006095 -223.375 168.625 C-224.28185547 168.64111328 -225.18871094 168.65722656 -226.12304688 168.67382812 C-231.8005143 168.67794522 -235.78111183 167.98014876 -240.8125 165.3125 C-242.68172654 163.44327346 -242.10480229 160.81498831 -242.23828125 158.3203125 C-241.8125 156.3125 -241.8125 156.3125 -240.12109375 154.56640625 C-237.36924728 153.07174852 -235.67110666 153.00229184 -232.5625 153.125 C-231.22445312 153.16560547 -231.22445312 153.16560547 -229.859375 153.20703125 C-229.18390625 153.24183594 -228.5084375 153.27664062 -227.8125 153.3125 C-227.4825 150.6725 -227.1525 148.0325 -226.8125 145.3125 C-236.70211807 144.53684368 -246.61030188 147.38149444 -254.234375 153.8203125 C-260.21521429 159.47546252 -262.5335449 165.03375786 -263.06640625 173.20703125 C-263.09710364 174.61698862 -263.11656403 176.02723373 -263.125 177.4375 C-263.13321777 178.44067261 -263.13321777 178.44067261 -263.14160156 179.46411133 C-263.07517886 184.11083766 -262.23775508 187.94020354 -260.8125 192.3125 C-259.66249512 192.33437378 -259.66249512 192.33437378 -258.48925781 192.35668945 C-255.01316507 192.4311922 -251.53803032 192.52784646 -248.0625 192.625 C-246.8559375 192.64755859 -245.649375 192.67011719 -244.40625 192.69335938 C-243.24609375 192.72880859 -242.0859375 192.76425781 -240.890625 192.80078125 C-239.28815918 192.84005737 -239.28815918 192.84005737 -237.65332031 192.88012695 C-234.50250759 193.35968087 -233.09184418 194.12167731 -230.8125 196.3125 C-230.28125 198.25 -230.28125 198.25 -230.3125 200.3125 C-230.29703125 201.3334375 -230.29703125 201.3334375 -230.28125 202.375 C-231.04905032 205.17521292 -232.35232988 205.82989935 -234.8125 207.3125 C-237.47994995 207.68888092 -237.47994995 207.68888092 -240.58154297 207.69104004 C-241.75924255 207.69924271 -242.93694214 207.70744537 -244.15032959 207.71589661 C-245.4387677 207.70974838 -246.72720581 207.70360016 -248.0546875 207.69726562 C-249.42808483 207.70137157 -250.80147867 207.70683258 -252.17486572 207.71354675 C-255.13016243 207.7252681 -258.08527241 207.7277575 -261.04058838 207.72319031 C-265.71319109 207.71638247 -270.3855479 207.73224494 -275.05810547 207.75158691 C-285.81985562 207.79266811 -296.58159902 207.80398952 -307.34341431 207.81511688 C-317.2070777 207.82562128 -327.0706231 207.84238239 -336.93421364 207.88321257 C-341.57960938 207.90158267 -346.22472428 207.90545639 -350.87014771 207.89827728 C-353.7591717 207.89675654 -356.64805489 207.90753206 -359.53704071 207.92165565 C-361.51624619 207.92757274 -363.49547862 207.91854779 -365.47467041 207.90910339 C-366.65237 207.91730606 -367.83006958 207.92550873 -369.04345703 207.93395996 C-370.57874557 207.93502872 -370.57874557 207.93502872 -372.14505005 207.93611908 C-375.2295243 208.37134271 -376.61150336 209.13212826 -378.8125 211.3125 C-379.37468732 214.2004382 -379.37468732 214.2004382 -379.1875 217.4375 C-379.17460937 218.51257813 -379.16171875 219.58765625 -379.1484375 220.6953125 C-378.752905 224.95418573 -377.74035514 229.13715187 -376.8125 233.3125 C-219.7325 233.3125 -62.6525 233.3125 99.1875 233.3125 C100.99019277 225.3228376 100.99019277 225.3228376 101.5625 217.4375 C101.59085937 216.34695312 101.61921875 215.25640625 101.6484375 214.1328125 C101.46555093 211.25364904 101.46555093 211.25364904 99.48353291 209.65957969 C96.74845929 208.05491535 95.14635463 207.93798079 91.99003601 207.93891239 C90.93255315 207.93192265 89.87507029 207.9249329 88.78554249 207.91773134 C87.62485595 207.9253074 86.46416941 207.93288345 85.26831055 207.94068909 C84.0344823 207.93686452 82.80065405 207.93303996 81.52943707 207.9290995 C78.10274465 207.9214097 74.67654243 207.92713745 71.2498908 207.93839633 C67.55522264 207.94723903 63.86059126 207.93874994 60.16592407 207.93218994 C53.76314969 207.92302768 47.36044695 207.92436648 40.95767212 207.93237495 C31.69594772 207.94359526 22.43432565 207.93457578 13.17261016 207.91981315 C-1.85920865 207.89603308 -16.89101485 207.88267432 -31.92285156 207.87866211 C-32.82270598 207.87841724 -33.72256039 207.87817237 -34.64968312 207.87792008 C-44.69154517 207.8753736 -54.73340626 207.87480766 -64.77526855 207.87585449 C-68.41756185 207.87618752 -72.05985514 207.87647291 -75.70214844 207.87670898 C-77.05028867 207.87680317 -77.05028867 207.87680317 -78.42566407 207.87689925 C-93.40076187 207.87750362 -108.37580139 207.86264189 -123.3508749 207.83587593 C-132.59166894 207.82004927 -141.83227514 207.81783526 -151.07307124 207.83300995 C-157.40203118 207.84245706 -163.73087766 207.83774756 -170.05982423 207.82179613 C-173.71403377 207.81307877 -177.36794219 207.81101614 -181.02213669 207.82632256 C-184.97934442 207.84276641 -188.93609839 207.82856424 -192.89331055 207.81129456 C-194.63434036 207.82600472 -194.63434036 207.82600472 -196.41054249 207.84101206 C-197.46802535 207.83141457 -198.52550821 207.82181708 -199.61503601 207.81192875 C-200.98561173 207.81208975 -200.98561173 207.81208975 -202.38387585 207.81225401 C-205.59902954 207.15065063 -206.80012566 205.85541631 -208.8125 203.3125 C-209.3125 200.3125 -209.3125 200.3125 -208.8125 197.3125 C-206.64045061 194.46176613 -205.43951748 193.42921754 -201.87988281 192.76660156 C-200.76967773 192.7456543 -199.65947266 192.72470703 -198.515625 192.703125 C-197.31035156 192.67089844 -196.10507813 192.63867188 -194.86328125 192.60546875 C-193.60902344 192.59128906 -192.35476562 192.57710937 -191.0625 192.5625 C-189.79277344 192.53285156 -188.52304688 192.50320312 -187.21484375 192.47265625 C-184.08066515 192.40196049 -180.94723044 192.34925988 -177.8125 192.3125 C-178.62654297 190.73662109 -178.62654297 190.73662109 -179.45703125 189.12890625 C-180.18001601 187.71110497 -180.90265361 186.29312663 -181.625 184.875 C-181.98142578 184.18728516 -182.33785156 183.49957031 -182.70507812 182.79101562 C-187.14726658 174.02890079 -189.2568781 166.04693734 -190 156.25 C-190.08185547 155.28900391 -190.16371094 154.32800781 -190.24804688 153.33789062 C-190.44605614 150.99672227 -190.63401592 148.65522368 -190.8125 146.3125 C-200.75838472 144.59101598 -200.75838472 144.59101598 -210.8125 144.3125 Z M-347.125 157.5 C-352.68936206 164.641184 -353.57219679 172.48735568 -352.8125 181.3125 C-352.19963971 185.13152757 -351.5500135 188.837473 -349.8125 192.3125 C-326.0525 192.3125 -302.2925 192.3125 -277.8125 192.3125 C-277.8125 184.0625 -277.8125 175.8125 -277.8125 167.3125 C-277.1525 164.6725 -276.4925 162.0325 -275.8125 159.3125 C-275.8125 157.9925 -275.8125 156.6725 -275.8125 155.3125 C-277.19731328 154.44058053 -278.59595246 153.59059616 -280 152.75 C-280.77730469 152.27433594 -281.55460937 151.79867187 -282.35546875 151.30859375 C-285.38832357 150.07905801 -286.76762951 150.15064152 -289.8125 151.3125 C-291.47229987 153.12653403 -291.47229987 153.12653403 -292.625 155.375 C-293.04394531 156.10847656 -293.46289062 156.84195313 -293.89453125 157.59765625 C-294.19746094 158.16355469 -294.50039063 158.72945312 -294.8125 159.3125 C-292.8325 159.9725 -290.8525 160.6325 -288.8125 161.3125 C-288.73128076 162.91582791 -288.67320866 164.52034026 -288.625 166.125 C-288.57279297 167.46498047 -288.57279297 167.46498047 -288.51953125 168.83203125 C-288.8125 171.3125 -288.8125 171.3125 -290.06762695 172.94042969 C-292.21200149 174.62664557 -293.31923458 174.71044235 -296.0234375 174.74609375 C-296.85037109 174.75737305 -297.67730469 174.76865234 -298.52929688 174.78027344 C-299.40650391 174.7702832 -300.28371094 174.76029297 -301.1875 174.75 C-302.08275391 174.74387695 -302.97800781 174.73775391 -303.90039062 174.73144531 C-312.01536166 174.54184319 -320.69215907 173.79251768 -327.125 168.359375 C-328.8125 166.3125 -328.8125 166.3125 -329.3125 163.3125 C-328.8125 160.3125 -328.8125 160.3125 -327.5 157.875 C-324.18246212 155.94619891 -323.18488722 156.45686111 -319.5 157.125 C-316.6157656 157.64945516 -316.6157656 157.64945516 -313.8125 157.3125 C-310.7326451 154.75653794 -308.7193135 151.81374799 -306.8125 148.3125 C-306.8125 147.9825 -306.8125 147.6525 -306.8125 147.3125 C-320.23719829 146.69183758 -337.23927926 147.13555186 -347.125 157.5 Z M-93.8125 171.3125 C-98.26474857 176.60148206 -103.8125 185.14204315 -103.8125 192.3125 C-98.5325 192.3125 -93.2525 192.3125 -87.8125 192.3125 C-87.874375 190.95125 -87.93625 189.59 -88 188.1875 C-87.97223586 182.282992 -86.35016425 178.96548906 -82.3125 174.625 C-75.53048392 169.42097776 -66.07764214 168.44121122 -57.8125 169.3125 C-47.85975826 170.77077718 -40.67708372 173.69738211 -33.375 180.625 C-31.16987914 184.41780787 -30.585058 187.99905118 -29.8125 192.3125 C-26.5125 192.3125 -23.2125 192.3125 -19.8125 192.3125 C-20.35516701 183.81071684 -24.4174501 176.75135689 -30.6015625 170.9453125 C-47.83095747 158.22113035 -77.73669593 155.48401599 -93.8125 171.3125 Z M-71.8125 186.3125 C-68.12731275 190.4071525 -65.13154027 192.14685427 -59.5859375 192.54296875 C-58.46445312 192.52878906 -57.34296875 192.51460937 -56.1875 192.5 C-55.06085938 192.49355469 -53.93421875 192.48710937 -52.7734375 192.48046875 C-49.75521774 192.4389556 -49.75521774 192.4389556 -46.8125 191.3125 C-47.52710274 188.07557129 -47.52710274 188.07557129 -50.5625 186.6875 C-57.46168973 183.76861204 -64.94356191 182.87803096 -71.8125 186.3125 Z M-264.8125 277.3125 C-262.75184764 281.12238781 -260.57656603 283.61838927 -257.25 286.375 C-254.29974451 288.82143518 -252.17871618 290.68843182 -250.8125 294.3125 C-250.34718331 299.43098359 -250.83250106 302.15738165 -253.8125 306.3125 C-256.1875 308.19140625 -256.1875 308.19140625 -258.8125 309.875 C-262.20031786 312.05792431 -264.57065778 313.94236219 -266.8125 317.3125 C-258.05739604 320.93530164 -248.60312024 321.87121703 -239.375 319.25 C-235.30588238 318.17917957 -232.85638433 318.16800444 -228.8125 319.3125 C-226.03819105 321.34861563 -224.09682648 322.92679277 -223.38354492 326.40307617 C-223.23742489 328.90216999 -223.22246748 331.37187431 -223.25 333.875 C-223.07223848 343.58324328 -222.13279767 352.51144687 -215.8125 360.3125 C-213.05752099 356.16874059 -210.64695512 352.11012998 -208.75 347.5 C-206.2046034 341.68767705 -206.2046034 341.68767705 -202.8125 340.3125 C-198.57208935 339.42338164 -195.90851282 339.12154376 -192.06201172 341.30712891 C-188.84494215 343.43706813 -185.79454189 345.75259412 -182.75390625 348.125 C-180.15596815 350.51141852 -180.15596815 350.51141852 -177.8125 350.3125 C-178.45560496 340.45155722 -183.58689756 331.89525525 -190.8125 325.3125 C-197.11854899 320.39070566 -203.55837794 316.36384067 -210.6875 312.75 C-216.47056349 309.71978568 -219.9586828 306.51151754 -223.8125 301.3125 C-232.3332119 290.10448666 -242.50790885 280.20119414 -256.8125 277.3125 C-258.22784778 277.24793121 -259.64587689 277.22638961 -261.0625 277.25 C-262.3 277.270625 -263.5375 277.29125 -264.8125 277.3125 Z M-303.8125 305.3125 C-323.62066649 326.55223014 -331.68205546 352.71836699 -331.0625 381.40234375 C-330.41930276 397.53051453 -327.73892666 418.13055534 -315.3125 429.625 C-305.87101246 434.17714578 -295.58121864 434.8413369 -285.25 434.75 C-284.03344727 434.74242676 -282.81689453 434.73485352 -281.56347656 434.72705078 C-254.04742609 434.23064587 -228.17505094 424.83052056 -208.08203125 405.71484375 C-197.63903066 394.72135941 -186.69319484 379.87144224 -185.8125 364.3125 C-189.4425 362.3325 -193.0725 360.3525 -196.8125 358.3125 C-197.225 359.09753906 -197.6375 359.88257813 -198.0625 360.69140625 C-202.39071761 368.56528427 -206.49029746 375.66078197 -215.4375 378.4375 C-219.59790282 378.28341101 -221.42036542 377.76638459 -224.8125 375.3125 C-234.45059798 364.07624801 -237.81012767 349.66225124 -238.8125 335.3125 C-239.3701001 335.33344727 -239.9277002 335.35439453 -240.50219727 335.37597656 C-255.39612016 335.85943621 -269.7543181 335.50586903 -282.8125 327.3125 C-285.42337257 323.15606073 -285.7013079 319.07902734 -284.8125 314.3125 C-281.78841338 308.47956425 -275.74770292 301.28010146 -269.8125 298.3125 C-271.49122725 294.34459924 -273.89527074 291.44318506 -276.8125 288.3125 C-287.21955453 288.3125 -296.80162697 298.46976873 -303.8125 305.3125 Z " fill="#000000" transform="translate(394.8125,30.6875)"/>
<path d="M0 0 C4.12108716 3.34057823 6.67439074 6.30482816 7.609375 11.56640625 C7.94079258 17.72870183 5.87834414 22.58477606 1.84765625 27.19921875 C-7.56939632 36.024124 -18.9916238 39.8171853 -31.74609375 39.49609375 C-38.027121 38.9341548 -42.68624886 37.54780747 -46.953125 32.75390625 C-50.48737035 28.27719547 -51.04040357 23.85974712 -50.453125 18.25390625 C-46.6924085 8.35728387 -39.47245225 3.4250744 -30.14453125 -0.7890625 C-21.4003897 -3.92987557 -8.17036856 -5.18782251 0 0 Z M-33.453125 20.25390625 C-33.123125 21.24390625 -32.793125 22.23390625 -32.453125 23.25390625 C-24.69992071 23.94307996 -17.69740922 21.41676239 -11.265625 17.12890625 C-9.22145097 15.44888192 -9.22145097 15.44888192 -9.453125 13.25390625 C-18.7724081 12.6268143 -26.2294638 13.97246173 -33.453125 20.25390625 Z " fill="#000000" transform="translate(280.453125,153.74609375)"/>
<path d="M0 0 C9.42598345 -0.37404696 19.99308371 1.63783718 27.8359375 7.15234375 C32.65370973 11.65825126 35.54266846 15.92638436 36.1484375 22.58984375 C35.6696654 28.0478457 34.00513834 30.98314291 30.1484375 34.83984375 C24.11826718 39.46282054 17.5358346 40.69145525 10.0859375 40.58984375 C9.3017041 40.58227051 8.5174707 40.57469727 7.70947266 40.56689453 C-2.3303275 40.28486611 -12.03319539 37.59175799 -19.1640625 30.15234375 C-22.2680412 25.90200927 -23.94118079 21.46266829 -23.59765625 16.1640625 C-22.50545753 11.09665404 -20.12157723 7.46821055 -15.81640625 4.57421875 C-10.53945508 1.80441633 -5.93383042 0.41772452 0 0 Z M-6.1640625 18.15234375 C-6.1640625 18.81234375 -6.1640625 19.47234375 -6.1640625 20.15234375 C1.05879932 24.33301829 7.58734334 24.84924713 15.8359375 24.15234375 C16.8259375 23.82234375 17.8159375 23.49234375 18.8359375 23.15234375 C18.17015709 20.00050973 18.17015709 20.00050973 15.61328125 18.984375 C7.95795469 16.23603906 1.52713579 14.30674461 -6.1640625 18.15234375 Z " fill="#000000" transform="translate(348.1640625,119.84765625)"/>
<path d="M0 0 C0.78568359 0.00974854 1.57136719 0.01949707 2.38085938 0.02954102 C13.50700144 0.3655578 21.0519123 3.47938084 29.2890625 11.0234375 C32.39603752 14.84835894 33.687106 18.89693832 33.3125 23.8125 C32.44683189 29.45361194 29.8101638 33.07618126 25.25 36.4375 C13.2808329 41.96292825 1.58673665 41.56003903 -10.75 37.4375 C-16.60740575 34.51311039 -20.96962252 30.75365583 -24.75 25.4375 C-26.10682449 21.36702653 -26.27472254 17.69358283 -25.75 13.4375 C-22.40111789 6.86376845 -17.83463018 3.56167059 -10.97949219 1.07250977 C-7.31605681 0.02908057 -3.78962672 -0.05290713 0 0 Z M-8.75 17.4375 C-8.03539726 20.67442871 -8.03539726 20.67442871 -5 22.0625 C1.20648811 24.68832189 7.77600223 25.59549926 14.25 23.4375 C14.91 23.1075 15.57 22.7775 16.25 22.4375 C12.56481275 18.3428475 9.56904027 16.60314573 4.0234375 16.20703125 C2.90195312 16.22121094 1.78046875 16.23539063 0.625 16.25 C-0.50164062 16.25644531 -1.62828125 16.26289063 -2.7890625 16.26953125 C-5.80728226 16.3110444 -5.80728226 16.3110444 -8.75 17.4375 Z " fill="#000000" transform="translate(420.75,177.5625)"/>
<path d="M0 0 C2.71240136 1.57494272 2.94143553 2.81175707 3.875 5.8125 C4.02929921 9.74712989 3.09777726 11.70349288 1 15 C-2.7205836 17.48038907 -4.59796571 17.46337203 -9 17 C-11.68601216 15.09151767 -12.7337462 13.67450962 -13.9375 10.625 C-14.02282287 7.04143933 -12.87555897 5.0142912 -11 2 C-7.19050527 -0.53966316 -4.46492095 -0.5872443 0 0 Z " fill="#000000" transform="translate(127,428)"/>
<path d="M0 0 C2.73883355 1.59029045 2.94967699 2.83465297 3.875 5.875 C4.02654845 9.66371114 3.31743762 11.04326925 1 14 C-1.38459671 16.38459671 -2.6356769 16.94686955 -6 17.4375 C-9 17 -9 17 -11.3125 15.375 C-13.42750105 12.39833186 -14 10.66142927 -14 7 C-10.38252732 0.38875683 -7.41807148 -0.82085217 0 0 Z " fill="#000000" transform="translate(164,414)"/>
<path d="M0 0 C3.28860314 2.43070667 4.76756415 3.9075515 5.625 7.9375 C4.74931432 12.22835983 3.28826203 14.12277073 0 17 C-3.06319255 17.80067607 -4.73948754 17.51754166 -8 17 C-10.5 15.4375 -10.5 15.4375 -12 13 C-12.61984499 8.73856568 -12.49311964 6.75611678 -10.125 3.125 C-6.81702459 -0.18297541 -4.63953877 -0.54582809 0 0 Z " fill="#000000" transform="translate(96,403)"/>
<path d="M0 0 C4.40093281 0.86446895 5.89836569 2.06097945 8.5 5.6875 C9.2446324 9.65887281 8.87266878 11.12849683 6.625 14.5 C3.88286658 17.3227844 3.08642602 17.63320129 -0.875 18 C-4.5 17.6875 -4.5 17.6875 -6.9375 16.125 C-9.14061761 12.68813653 -9.12323734 10.70391844 -8.5 6.6875 C-6.5422477 2.72868231 -4.42841669 0.86986756 0 0 Z " fill="#000000" transform="translate(129.5,388.3125)"/>
<path d="M0 0 C3.8425303 0.72047443 5.45767292 1.57152696 8 4.5625 C8.78631447 9.51628117 8.78352545 11.38721182 6 15.5625 C1.82471182 18.34602545 -0.04621883 18.34881447 -5 17.5625 C-7.5625 15.5 -7.5625 15.5 -9 12.5625 C-9.07836758 8.17391575 -8.43828382 6.15105256 -5.8125 2.625 C-3 0.5625 -3 0.5625 0 0 Z " fill="#000000" transform="translate(100,363.4375)"/>
</svg>
