<?xml version="1.0" encoding="UTF-8"?>
<svg version="1.1" xmlns="http://www.w3.org/2000/svg" width="512" height="512">
<path d="M0 0 C4.22320399 2.57827789 7.69124243 5.43887272 11.18780518 8.92710876 C11.67337977 9.40885781 12.15895437 9.89060686 12.65924335 10.38695437 C14.2714022 11.98886371 15.87639753 13.59775525 17.48144531 15.20678711 C18.64122702 16.36221804 19.80142481 17.51723146 20.96200562 18.67185974 C24.10282921 21.79932542 27.23725095 24.93313255 30.3701334 28.06855083 C32.9878145 30.68730324 35.60846957 33.30306954 38.22907901 35.91889101 C44.40995526 42.08868443 50.58550279 48.26377615 56.7578125 54.44213867 C63.12481446 60.81518814 69.50095571 67.17898808 75.88161016 73.53836626 C81.36313884 79.00228808 86.83885262 84.47198969 92.30995631 89.94635016 C95.57623113 93.21443851 98.84469561 96.48025847 102.11881256 99.74049187 C105.19531074 102.80443035 108.26448892 105.87551649 111.32817459 108.95226479 C112.45350837 110.07996746 113.58140711 111.20511724 114.71203995 112.32750702 C116.25510954 113.8601348 117.78864037 115.40172021 119.32012939 116.94590759 C120.18066547 117.80627593 121.04120155 118.66664427 121.92781448 119.55308437 C124.51676506 122.61021588 125.91069869 125.26160123 126.1171875 129.28125 C126.03726562 130.0134375 125.95734375 130.745625 125.875 131.5 C125.81054688 132.2321875 125.74609375 132.964375 125.6796875 133.71875 C123.947035 139.53408941 118.99727779 142.76087437 114.25 146.0625 C113.3216333 146.71774658 113.3216333 146.71774658 112.37451172 147.38623047 C108.08443849 150.3678482 103.79179122 152.89161186 99 155 C100.08796875 155.15855469 101.1759375 155.31710938 102.296875 155.48046875 C121.37302586 158.43402671 138.17513808 165.71211744 149.97265625 181.66796875 C154.10941032 187.89505715 159 195.3050713 159 203 C160.134375 202.97679687 161.26875 202.95359375 162.4375 202.9296875 C163.95832668 202.91091186 165.47916057 202.8927136 167 202.875 C167.74378906 202.85824219 168.48757813 202.84148437 169.25390625 202.82421875 C175.2809938 202.77180929 181.10118526 203.24545424 186.375 206.4375 C193.65736424 217.92122822 190.64740674 237.40994132 188 250.07421875 C186.43868066 256.51954017 184.26357962 262.77291931 182 269 C183.16917969 269.03738281 184.33835937 269.07476562 185.54296875 269.11328125 C187.09117675 269.1789628 188.63935242 269.24540939 190.1875 269.3125 C190.95642578 269.33505859 191.72535156 269.35761719 192.51757812 269.38085938 C198.46299382 269.66154424 201.87899572 270.78341504 206.10205078 275.19677734 C209.5933063 280.35327283 208.61284891 286.39859282 208.5625 292.4375 C208.58634766 293.74783203 208.61019531 295.05816406 208.63476562 296.40820312 C208.61841909 307.11518314 208.61841909 307.11518314 205.6328125 310.82421875 C199.88138583 315.57725237 194.12515444 315.25346399 187 315 C186.98582031 315.67160156 186.97164063 316.34320313 186.95703125 317.03515625 C184.23602181 374.02927282 150.53088909 426.12848881 110 464 C91.45318999 480.46651216 63.59346695 501.97827179 37.99609375 502.23828125 C37.23579361 502.246353 36.47549347 502.25442474 35.69215393 502.26274109 C34.09109743 502.27651947 32.49001233 502.28726932 30.88891602 502.29516602 C29.25276068 502.30673528 27.61664452 502.32726447 25.98071289 502.35668945 C23.61058038 502.39928093 21.24156091 502.41551663 18.87109375 502.42578125 C18.14184189 502.44328934 17.41259003 502.46079742 16.66123962 502.47883606 C13.17108431 502.46391439 11.34131552 502.26421254 8.54345703 500.09838867 C6.88154877 497.83896104 6.43208426 496.77285892 6.4375 494 C6.40462891 493.01 6.40462891 493.01 6.37109375 492 C7.36571853 488.83696964 9.27244554 487.78941618 12 486 C15.171875 485.61279297 15.171875 485.61279297 18.75 485.7421875 C20.08410078 485.76523115 21.41825558 485.78529651 22.75244141 485.80273438 C23.44605774 485.81651123 24.13967407 485.83028809 24.85430908 485.84448242 C40.39178407 486.0654677 51.66566234 483.349567 65 475 C66.27360484 474.25067214 67.54827431 473.50314955 68.82421875 472.7578125 C72.32249571 470.65596313 75.67882374 468.37000628 79 466 C79.64275879 465.54367187 80.28551758 465.08734375 80.94775391 464.6171875 C90.21549827 457.98184624 98.8069708 450.92477176 107 443 C107.7417749 442.29689697 107.7417749 442.29689697 108.49853516 441.57958984 C144.44846579 407.4762046 162.03467245 362.81508026 171 315 C30.75 315 -109.5 315 -254 315 C-249.17516693 339.41245847 -249.17516693 339.41245847 -242 363 C-241.62004883 364.04075684 -241.62004883 364.04075684 -241.23242188 365.10253906 C-232.62662466 388.21309475 -220.1320905 409.36816214 -204 428 C-203.29488281 428.81597656 -202.58976562 429.63195312 -201.86328125 430.47265625 C-182.05732611 452.9099232 -155.84126622 475.38624459 -127 485 C-125.51381401 485.09209209 -124.02385521 485.12894565 -122.53482056 485.13130188 C-121.62077957 485.13531006 -120.70673859 485.13931824 -119.76499939 485.14344788 C-118.76440994 485.14291916 -117.7638205 485.14239044 -116.73291016 485.1418457 C-115.14959145 485.14705734 -115.14959145 485.14705734 -113.5342865 485.15237427 C-111.23928989 485.15973253 -108.94428615 485.16507754 -106.64928055 485.16866493 C-103.01827445 485.17582223 -99.38740412 485.19148279 -95.75643921 485.21000671 C-85.43172043 485.26251543 -75.10707605 485.31047306 -64.78222656 485.32592773 C-58.46979547 485.33599691 -52.15770575 485.36529383 -45.84540939 485.40724754 C-43.4380692 485.41957659 -41.03068083 485.42467535 -38.62331009 485.42244911 C-35.2571277 485.42010194 -31.89192863 485.44221917 -28.52587891 485.4699707 C-27.52933792 485.46336929 -26.53279694 485.45676788 -25.50605774 485.44996643 C-21.1392556 485.50916499 -18.67179956 485.58895181 -14.88143921 487.90812683 C-12.84954036 490.16728815 -12.33820349 491.00942288 -12.4375 494 C-12.43556641 494.99 -12.43556641 494.99 -12.43359375 496 C-13.31338417 499.1065703 -14.35691388 500.08097699 -17 502 C-20.51890129 502.61151552 -24.01291853 502.53558083 -27.57666016 502.50170898 C-28.65358124 502.50711197 -29.73050232 502.51251495 -30.84005737 502.51808167 C-34.40667058 502.530606 -37.97248204 502.51404587 -41.5390625 502.49609375 C-44.02045738 502.49624872 -46.50185251 502.49773734 -48.98324585 502.50050354 C-54.85745228 502.50206701 -60.73136562 502.4836782 -66.60550821 502.45770174 C-72.59609642 502.43327041 -78.58634213 502.44215811 -84.57697487 502.45364285 C-89.70555507 502.46061889 -94.83403012 502.45278721 -99.96259689 502.44038582 C-102.41606619 502.43588378 -104.86954684 502.43552356 -107.32301712 502.43945122 C-110.76456814 502.44237994 -114.20550009 502.42577329 -117.64697266 502.40405273 C-119.15454132 502.41080521 -119.15454132 502.41080521 -120.69256592 502.41769409 C-130.83259586 502.31201393 -139.15024624 499.33139708 -148 494.5625 C-148.81033691 494.13001953 -149.62067383 493.69753906 -150.45556641 493.25195312 C-168.94006067 483.18447339 -185.82191638 470.54737735 -201 456 C-201.58539551 455.44715332 -202.17079102 454.89430664 -202.77392578 454.32470703 C-212.63305758 444.97942311 -221.12832038 435.06708793 -229 424 C-229.45213867 423.36594238 -229.90427734 422.73188477 -230.37011719 422.07861328 C-251.82045446 391.67863865 -269.20388657 352.70682723 -270 315 C-270.64066406 315.03480469 -271.28132813 315.06960938 -271.94140625 315.10546875 C-277.82631249 315.28964614 -281.87021472 314.97527546 -287 312 C-292.62076737 306.26475672 -291.66247011 300.23892652 -291.625 292.625 C-291.65722656 291.32304687 -291.68945312 290.02109375 -291.72265625 288.6796875 C-291.73355675 277.99719825 -291.73355675 277.99719825 -288.1484375 273.6484375 C-285.02405047 270.58644072 -282.15122916 269.87675045 -277.8515625 269.87402344 C-276.60511963 269.86831329 -276.60511963 269.86831329 -275.33349609 269.86248779 C-274.43969238 269.86146057 -273.54588867 269.86043335 -272.625 269.859375 C-270.73436287 269.84105583 -268.84373751 269.82148636 -266.953125 269.80078125 C-263.97049976 269.77174249 -260.9886355 269.74999815 -258.00585938 269.74951172 C-255.12821827 269.74618771 -252.25233679 269.71171214 -249.375 269.671875 C-248.48119629 269.6789447 -247.58739258 269.6860144 -246.66650391 269.69329834 C-244.33384735 269.6472174 -242.26103422 269.57657548 -240 269 C-237.82782422 266.63380843 -237.82782422 266.63380843 -237 264 C-238.68802734 263.85304688 -238.68802734 263.85304688 -240.41015625 263.703125 C-261.99652938 261.66654082 -282.94347876 256.39938998 -298.3046875 240.07421875 C-303.93338309 233.18749672 -304.71390944 226.44667541 -304.44140625 217.65625 C-303.45697533 209.50202571 -299.42564372 203.46946643 -293.484375 197.94140625 C-284.63701457 191.02766705 -274.54696252 186.64413323 -264 183 C-264.40089844 182.56171875 -264.80179687 182.1234375 -265.21484375 181.671875 C-280.37117983 164.76276536 -293.4705551 145.10252771 -293.15234375 121.51953125 C-292.63544449 112.97081269 -289.51389403 106.10858324 -283.25 100.25 C-274.98218486 93.54840121 -266.51937781 93.04383561 -256.23144531 93.75 C-236.22468096 95.99145806 -217.65071281 108.91794496 -204 123 C-203.79246094 122.44054687 -203.58492188 121.88109375 -203.37109375 121.3046875 C-197.7078934 106.56614936 -191.10383559 91.13150176 -176 84 C-167.73371405 80.84378173 -160.45763853 81.11859966 -152.4140625 84.6796875 C-138.5200276 92.27869041 -131.32559498 107.03170175 -126.8125 121.5625 C-124.3788843 130.55364085 -123.2243575 139.78021704 -122 149 C-121.26394531 148.65066406 -120.52789062 148.30132812 -119.76953125 147.94140625 C-118.79371094 147.48636719 -117.81789062 147.03132812 -116.8125 146.5625 C-115.36810547 145.88380859 -115.36810547 145.88380859 -113.89453125 145.19140625 C-108.7209318 143.061922 -104.79816552 143.03679916 -99.25 143.4375 C-93.96030186 143.48139791 -91.31299125 143.16448393 -87.5 139.4375 C-86.80648437 138.71046875 -86.11296875 137.9834375 -85.3984375 137.234375 C-73.66131935 126.30012161 -57.34137522 124.33438437 -42.0546875 124.7109375 C-32.66496781 125.12462748 -25.25196709 127.72120225 -17 132 C-16.34 131.67 -15.68 131.34 -15 131 C-15.8353125 129.9790625 -15.8353125 129.9790625 -16.6875 128.9375 C-25.89263344 117.24449266 -32.46585881 104.52718036 -36 90 C-36.22429687 89.08605469 -36.44859375 88.17210938 -36.6796875 87.23046875 C-41.70277986 62.63107808 -36.46234646 37.42129401 -23.625 16.125 C-11.37229554 -2.17089354 -11.37229554 -2.17089354 0 0 Z M-5 18 C-18.47601686 35.24930158 -24.1526217 56.3195617 -21.77734375 78.03564453 C-19.59652397 93.5125539 -12.9701205 107.97913261 -3 120 C0.29680965 119.34215037 2.84117922 118.10579427 5.75 116.4375 C6.54921875 115.98246094 7.3484375 115.52742188 8.171875 115.05859375 C8.77515625 114.70925781 9.3784375 114.35992187 10 114 C9.175 113.01 8.35 112.02 7.5 111 C4.41370112 106.86273124 1.94426031 102.50324195 -0.4375 97.9375 C-0.80359375 97.26525391 -1.1696875 96.59300781 -1.546875 95.90039062 C-3.88768993 91.27750709 -4.50486743 88.17338546 -3 83 C0.48868651 80.67420899 1.89718519 80.58134543 6 81 C9.77002924 83.18341462 10.98050732 85.63077811 12.6875 89.5625 C15.79548805 96.07034299 19.81412574 101.02156071 25 106 C25.73992187 106.7321875 26.47984375 107.464375 27.2421875 108.21875 C30.99096545 110.64005701 34.18423949 110.73622173 38.5625 111 C46.85111315 111.69268162 54.48810774 113.24405387 62 117 C70.41589293 117.93509921 78.16152951 114.91158198 84.86328125 109.828125 C85.92095703 108.92320313 85.92095703 108.92320313 87 108 C84.03 105.03 81.06 102.06 78 99 C76.576875 99.474375 75.15375 99.94875 73.6875 100.4375 C63.26692236 103.91102588 51.9023572 104.88896001 41.53125 100.453125 C32.7103083 95.38925106 26.42458779 88.31049955 23.2265625 78.66796875 C20.55006889 67.90985481 22.42110461 57.89632229 27 48 C24.03 45.03 21.06 42.06 18 39 C14.32257134 42.67742866 12.62908986 45.47521131 10.75 50.125 C10.481875 50.75792969 10.21375 51.39085937 9.9375 52.04296875 C8.47649779 55.40800617 8.47649779 55.40800617 8 59 C0.14907082 60.39236565 0.14907082 60.39236565 -3.5625 59.125 C-5.98319796 55.54657693 -5.69458375 52.08367345 -5 48 C-2.86284225 41.32576144 0.06374825 35.32049795 4.27734375 29.71875 C5.2372959 27.96728172 5.2372959 27.96728172 4.31640625 25.984375 C3.01069236 24.01611786 1.67699086 22.41022095 0 20.75 C-0.515625 20.22921875 -1.03125 19.7084375 -1.5625 19.171875 C-2.94925371 17.78937985 -2.94925371 17.78937985 -5 18 Z M38 61 C36.76856656 67.40938848 36.75429635 72.22594025 40 78 C43.1908186 82.68299553 46.49431767 86.23402642 52 88 C55.69402638 88.32486473 59.31555823 88.46356539 63 88 C63.66 87.34 64.32 86.68 65 86 C61.48259521 82.43326807 57.95875538 78.87307049 54.42871094 75.31884766 C53.22801105 74.10807151 52.0291098 72.89550899 50.83203125 71.68115234 C49.11404252 69.93898662 47.38975125 68.20328456 45.6640625 66.46875 C45.12754059 65.92190552 44.59101868 65.37506104 44.03823853 64.81164551 C42.72957713 63.50258902 41.36903374 62.24578094 40 61 C39.34 61 38.68 61 38 61 Z M-175.59765625 103.4765625 C-185.31849012 113.96810187 -188.72535203 128.65738185 -190.41015625 142.4765625 C-191.09570756 145.40945089 -191.8139552 146.92035561 -194 149 C-196.48046875 149.390625 -196.48046875 149.390625 -199.1875 149.25 C-200.08855469 149.21390625 -200.98960937 149.1778125 -201.91796875 149.140625 C-202.60503906 149.09421875 -203.29210937 149.0478125 -204 149 C-204.24363281 148.43925781 -204.48726562 147.87851563 -204.73828125 147.30078125 C-207.31372501 142.60438381 -211.36602784 138.89440683 -215 135 C-215.5465625 134.38769531 -216.093125 133.77539062 -216.65625 133.14453125 C-226.57583348 122.49110103 -243.49843448 110.56549893 -258.41796875 109.890625 C-260.61730653 109.8769857 -262.80236991 109.9255526 -265 110 C-260.67414212 115.16745033 -256.13944827 120.00896381 -251.37402344 124.77124023 C-250.26562103 125.88468056 -250.26562103 125.88468056 -249.13482666 127.02061462 C-246.71230133 129.45257493 -244.28608264 131.88080718 -241.859375 134.30859375 C-240.16872928 136.00245439 -238.47815829 137.69638963 -236.78765869 139.39039612 C-233.25572256 142.92830275 -229.7217429 146.46415366 -226.18652344 149.9987793 C-221.64611933 154.53908124 -217.11266332 159.08625403 -212.58089828 163.63517666 C-209.09801979 167.12913617 -205.61064394 170.6185793 -202.12195587 174.10673714 C-200.44732514 175.7825514 -198.77432367 177.45999535 -197.10295868 179.1390667 C-194.77612735 181.47563037 -192.44312486 183.80585049 -190.10839844 186.13452148 C-189.41435913 186.8341803 -188.72031982 187.53383911 -188.00524902 188.25469971 C-187.37169495 188.8840593 -186.73814087 189.51341888 -186.08538818 190.16184998 C-185.53457455 190.71320838 -184.98376091 191.26456678 -184.41625595 191.83263302 C-183.04867494 193.21201479 -183.04867494 193.21201479 -181 193 C-180.75878418 191.35016113 -180.75878418 191.35016113 -180.51269531 189.66699219 C-179.91056913 185.57925332 -179.28668951 181.49508086 -178.65625 177.41162109 C-178.38664637 175.64526368 -178.12291719 173.87799908 -177.86523438 172.10986328 C-177.49336322 169.56540642 -177.10034391 167.0249824 -176.703125 164.484375 C-176.5372287 163.30134796 -176.5372287 163.30134796 -176.36798096 162.09442139 C-175.80992592 158.64581198 -175.22673359 156.29527291 -173.08105469 153.50097656 C-171 152 -171 152 -168 151.5 C-164.27397216 152.12100464 -163.28790516 153.0367178 -161 156 C-160.11194229 163.68220188 -162.27847264 171.5556878 -164.11328125 178.9765625 C-168.92305481 195.48142748 -168.92305481 195.48142748 -166.34912109 211.70117188 C-161.49726948 218.38653082 -155.18046965 223.89803487 -148 228 C-147.34 228 -146.68 228 -146 228 C-145.83918945 226.90010742 -145.67837891 225.80021484 -145.51269531 224.66699219 C-144.91056913 220.57925332 -144.28668951 216.49508086 -143.65625 212.41162109 C-143.38664637 210.64526368 -143.12291719 208.87799908 -142.86523438 207.10986328 C-142.49336322 204.56540642 -142.10034391 202.0249824 -141.703125 199.484375 C-141.5372287 198.30134796 -141.5372287 198.30134796 -141.36798096 197.09442139 C-140.80992592 193.64581198 -140.22673359 191.29527291 -138.08105469 188.50097656 C-136 187 -136 187 -133 186.5 C-130 187 -130 187 -127.625 188.5 C-124.1042423 193.9165503 -126.27270084 201.76337103 -127.3125 207.84765625 C-127.5122644 209.07094887 -127.5122644 209.07094887 -127.71606445 210.31895447 C-128.13804629 212.90116747 -128.56809328 215.48192984 -129 218.0625 C-129.43162209 220.64668035 -129.86122449 223.23110337 -130.28393555 225.8167572 C-130.54575647 227.41818296 -130.8125506 229.01880658 -131.08520508 230.61842346 C-132.20224466 237.28524829 -132.20224466 237.28524829 -132 244 C-130.19471498 246.4553459 -128.59091898 248.30194432 -126.41796875 250.37109375 C-125.8479866 250.93828629 -125.27800446 251.50547882 -124.69075012 252.08985901 C-123.4874877 253.28039785 -122.27581451 254.46248873 -121.05639648 255.63647461 C-119.18646747 257.43849504 -117.34482071 259.26604881 -115.50585938 261.09960938 C-114.33228634 262.25418909 -113.15720625 263.4072394 -111.98046875 264.55859375 C-111.42723434 265.10535263 -110.87399994 265.65211151 -110.30400085 266.21543884 C-107.21421543 269.35245248 -107.21421543 269.35245248 -103 270 C-104.27801436 262.4276812 -104.27801436 262.4276812 -106.1875 255 C-108.6236335 245.20900025 -105.17362234 237.40207057 -100.3125 229.0625 C-90.73024532 211.73871382 -83.28678734 190.96074658 -88.25 171 C-89.72797982 166.23299467 -91.44259992 162.55833083 -95.83984375 159.87890625 C-99.91468078 158.22097075 -103.81197984 158.98618532 -108 160 C-113.98093587 162.59235611 -118.51611158 166.39442472 -123.1875 170.875 C-126.36375989 173.83186361 -127.54125515 174.90381156 -131.875 175.8125 C-135.51989479 174.86482736 -136.67671008 173.91866214 -139 171 C-139.40649414 168.44482422 -139.40649414 168.44482422 -139.28515625 165.5546875 C-139.25639404 164.48629639 -139.22763184 163.41790527 -139.19799805 162.31713867 C-139.15328369 161.18123291 -139.10856934 160.04532715 -139.0625 158.875 C-138.68663903 139.09104555 -140.67873757 118.45948529 -154.69140625 103.15234375 C-157.55833838 100.43934087 -159.70024655 99.09634932 -163.5 97.875 C-168.70882984 98.06102964 -171.89163854 100.051441 -175.59765625 103.4765625 Z M92.875 123.3125 C88.67141614 126.019893 84.66965185 128.2359093 80 130 C82.31 133.63 84.62 137.26 87 141 C92.94064039 140.00989327 95.58662197 138.78392998 100.375 135.625 C101.01566406 135.22539062 101.65632813 134.82578125 102.31640625 134.4140625 C104.36762022 133.12253039 104.36762022 133.12253039 107 131 C107.32145864 127.93842027 107.32145864 127.93842027 105.28515625 125.95703125 C104.55167969 125.24933594 103.81820313 124.54164063 103.0625 123.8125 C102.33160156 123.09707031 101.60070312 122.38164063 100.84765625 121.64453125 C97.56363693 118.72154577 96.28824209 121.0664565 92.875 123.3125 Z M-277 122 C-276.57861929 141.11536125 -265.966855 156.75078467 -253 170 C-252.13761719 170.88945312 -251.27523437 171.77890625 -250.38671875 172.6953125 C-245.55160164 177.63474181 -245.55160164 177.63474181 -240.265625 182.0703125 C-238 184 -238 184 -237 187.5 C-237 191 -237 191 -237.9140625 193.09765625 C-241.22279721 196.11517273 -245.0483262 196.25670326 -249.375 196.9375 C-263.81641566 199.52885199 -277.98481901 203.60412614 -287 216 C-288.65591579 219.31183158 -288.74424086 222.44765708 -288 226 C-281.05638503 237.66701449 -267.74667868 242.38191405 -255.32421875 245.71875 C-243.08928022 248.30654415 -229.91935356 248.28770364 -217.46875 247.7421875 C-215 248 -215 248 -213.203125 249.28515625 C-211.55528276 251.63386646 -211.2335722 253.82598713 -211.296875 256.6640625 C-212.59801478 260.986738 -215.91860994 263.84982949 -219.03125 266.99609375 C-221.11680363 268.65068904 -221.11680363 268.65068904 -221 270 C-220.43259094 270.00364563 -219.86518188 270.00729126 -219.28057861 270.01104736 C-213.37543768 270.05285446 -207.4710753 270.12218686 -201.56640625 270.20751953 C-199.36270941 270.2357471 -197.158911 270.2569527 -194.95507812 270.27099609 C-191.78723068 270.29240047 -188.62060692 270.33903898 -185.453125 270.390625 C-184.46757629 270.39185364 -183.48202759 270.39308228 -182.46661377 270.39434814 C-175.65131599 270.54031888 -175.65131599 270.54031888 -172.37792969 272.85058594 C-170.47977379 275.8114939 -170.42487339 277.54924032 -171 281 C-172.42913818 283.15338135 -172.42913818 283.15338135 -175 285 C-178.20588916 285.60903241 -181.37837426 285.56368496 -184.63378906 285.54589844 C-185.60973022 285.55623611 -186.58567139 285.56657379 -187.59118652 285.57722473 C-190.8161665 285.60671629 -194.04052061 285.60815328 -197.265625 285.609375 C-199.50194501 285.62435231 -201.73825393 285.6410785 -203.97454834 285.65948486 C-209.85999044 285.70322072 -215.74528332 285.72317141 -221.63085938 285.73822021 C-227.63680874 285.75776872 -233.64259642 285.79974129 -239.6484375 285.83984375 C-251.43224187 285.91521352 -263.21601017 285.96546411 -275 286 C-275 290.29 -275 294.58 -275 299 C-120.56 299 33.88 299 193 299 C193 294.71 193 290.42 193 286 C191.25657192 285.99853344 189.51314384 285.99706688 187.71688461 285.99555588 C146.35936874 285.95987707 105.00192362 285.90366951 63.64447169 285.82207905 C58.55741501 285.81206123 53.47035801 285.80221716 48.38330078 285.79248047 C46.86414703 285.78956841 46.86414703 285.78956841 45.31430331 285.78659752 C28.90173145 285.75555097 12.48917358 285.73858947 -3.92342213 285.72680578 C-20.75614618 285.71440796 -37.58879662 285.68693759 -54.42147422 285.64538693 C-64.81357604 285.62021225 -75.20555584 285.60688561 -85.59768859 285.60857043 C-92.71770133 285.60860011 -99.83758949 285.59402917 -106.95755371 285.56783572 C-111.06941815 285.55314427 -115.18102711 285.54502547 -119.29291344 285.55419731 C-123.0546128 285.56244636 -126.81579746 285.55243496 -130.5774202 285.52766338 C-132.58859818 285.519236 -134.59982866 285.5305604 -136.61098886 285.54249835 C-137.79982415 285.53105076 -138.98865944 285.51960317 -140.21352005 285.50780869 C-141.2418027 285.5062898 -142.27008536 285.50477092 -143.32952809 285.50320601 C-146.72159834 284.86402679 -147.90954822 283.69916741 -150 281 C-150.58412149 277.49527106 -150.55494436 275.80028818 -148.515625 272.859375 C-144.88556194 270.17628491 -141.66004251 270.33044854 -137.25 270.25 C-136.45722656 270.22035156 -135.66445312 270.19070313 -134.84765625 270.16015625 C-132.89897906 270.08972213 -130.94948505 270.04256518 -129 270 C-130.357246 268.36434456 -131.72687257 266.73805448 -133.14160156 265.15185547 C-135 263 -135 263 -136.72558594 260.57080078 C-138.98477087 257.74086843 -140.88104366 255.86752485 -144 254 C-149.80482938 253.54738395 -155.14221528 254.64887915 -160.8125 255.8125 C-162.30710347 256.08216752 -163.80255482 256.34717912 -165.29882812 256.60742188 C-168.88500012 257.24085355 -172.45969477 257.92272207 -176.03381348 258.62054443 C-178.9559197 259.18448354 -181.88400525 259.70739848 -184.81640625 260.21484375 C-186.18261108 260.45448853 -186.18261108 260.45448853 -187.57641602 260.69897461 C-191.01100606 261.12557374 -193.65356292 260.87298359 -197 260 C-199.42520546 257.57479454 -199.68564441 256.37932259 -200 253 C-199.34716797 250.43725586 -199.34716797 250.43725586 -198 248 C-195.64111328 246.92797852 -195.64111328 246.92797852 -192.6953125 246.31640625 C-191.07737793 245.97246826 -191.07737793 245.97246826 -189.42675781 245.62158203 C-182.79567312 244.41876487 -176.14733824 243.40578289 -169.4765625 242.45117188 C-168.40921875 242.29068359 -167.341875 242.13019531 -166.2421875 241.96484375 C-165.2816748 241.8268335 -164.32116211 241.68882324 -163.33154297 241.54663086 C-160.82326627 241.17462256 -160.82326627 241.17462256 -159 239 C-168.50905593 226.1964923 -168.50905593 226.1964923 -181.70361328 218.28271484 C-187.34860291 218.10445201 -192.62491596 219.61540843 -198.00537109 221.18945312 C-203.42153461 222.65542923 -208.96077856 223.39700432 -214.5 224.25 C-215.55662842 224.435625 -216.61325684 224.62125 -217.7019043 224.8125 C-227.3139437 226.45534432 -227.3139437 226.45534432 -232 225 C-234.48392512 222.19556842 -234.9876088 220.61956002 -235.0625 216.875 C-234 214 -234 214 -231.40332031 212.40258789 C-227.70871253 210.87995362 -224.43925258 210.2358315 -220.484375 209.68359375 C-219.78733459 209.58160172 -219.09029419 209.47960968 -218.37213135 209.37452698 C-216.16603096 209.05236457 -213.95838536 208.743577 -211.75 208.4375 C-209.52747512 208.12710627 -207.30562771 207.81361398 -205.08502197 207.48976135 C-203.08098669 207.19767483 -201.07519131 206.91774147 -199.06933594 206.63842773 C-195.90794051 206.27346847 -195.90794051 206.27346847 -194 204 C-204.67117203 193.30550102 -215.34518143 182.61384039 -226.02260494 171.92558289 C-230.97988859 166.96313584 -235.93622824 161.99975269 -240.89038086 157.03417969 C-245.66672419 152.24683109 -250.44564968 147.46207456 -255.2261982 142.67892456 C-257.05441544 140.84885216 -258.88174885 139.01789641 -260.70820427 137.18606567 C-263.25621552 134.63085067 -265.8072827 132.07872607 -268.35913086 129.52734375 C-269.12229614 128.76058319 -269.88546143 127.99382263 -270.67175293 127.2038269 C-271.36308823 126.51386627 -272.05442352 125.82390564 -272.76670837 125.11303711 C-273.37048278 124.50834091 -273.97425718 123.90364471 -274.59632778 123.28062439 C-275.80644454 121.88766911 -275.80644454 121.88766911 -277 122 Z M-4 144 C-4.80060898 145.3070645 -5.59264393 146.61942893 -6.375 147.9375 C-7.82394972 150.03042737 -8.55327572 150.85459563 -10.9921875 151.6484375 C-16.79785692 152.07030275 -20.02354225 149.91254763 -24.58203125 146.6015625 C-34.77402749 139.8508057 -47.73872747 139.32896988 -59.4375 141.6953125 C-66.22905694 143.75703514 -74.2099767 146.90796583 -78.34765625 152.9765625 C-79.35143321 155.2816321 -79.35143321 155.2816321 -77.3125 158.375 C-76.9309375 159.06335938 -76.549375 159.75171875 -76.15625 160.4609375 C-72.71660821 168.01420494 -71.9600164 176.81743034 -71 185 C-70.42668945 184.98952637 -69.85337891 184.97905273 -69.26269531 184.96826172 C-48.20099264 184.63455243 -48.20099264 184.63455243 -38 187 C-37.5153125 186.29875 -37.030625 185.5975 -36.53125 184.875 C-26.84589518 171.1664978 -15.3501685 161.14759527 1.125 156.625 C20.44306986 153.50918228 37.61941339 156.07115661 54 167 C54.66773438 167.60714844 55.33546875 168.21429688 56.0234375 168.83984375 C57.9637367 170.28745348 57.9637367 170.28745348 60.26171875 169.4453125 C61.61716797 168.72988281 61.61716797 168.72988281 63 168 C63.89259521 167.54125488 63.89259521 167.54125488 64.80322266 167.07324219 C66.81882316 166.02915412 68.8165185 164.95607706 70.8125 163.875 C71.50537109 163.50246094 72.19824219 163.12992188 72.91210938 162.74609375 C74.60934836 161.83309623 76.30485138 160.91687284 78 160 C74.72923121 147.82593503 67.30552766 137.99857944 56.44921875 131.46484375 C34.99723005 120.29939288 11.53215911 125.64381196 -4 144 Z M-16.90625 184.84375 C-21.31427693 189.56111216 -28 197.28708138 -28 204 C-34.10629428 205.66535299 -38.2777545 204.18254833 -44.1328125 202.0078125 C-52.59927343 199.03186302 -62.79030859 198.53391397 -71.23828125 201.85546875 C-74.54311546 204.00251182 -75.07885697 207.40919693 -76 211 C-78.99729025 220.25046049 -82.67960392 228.78386939 -87.1328125 237.40625 C-87.44420166 238.01919922 -87.75559082 238.63214844 -88.07641602 239.26367188 C-88.926989 240.86274008 -89.88332084 242.40434941 -90.84765625 243.9375 C-92.47014057 248.24945834 -91.53390817 251.16989876 -90.3125 255.5 C-90.03116211 256.60021484 -90.03116211 256.60021484 -89.74414062 257.72265625 C-88.6590365 261.89154427 -87.3662723 265.90118309 -86 270 C-80.06 270 -74.12 270 -68 270 C-66.7625 266.0090625 -66.7625 266.0090625 -65.5 261.9375 C-61.23932688 248.86611688 -55.31133184 237.2474801 -46 227 C-45.18917969 226.09636719 -44.37835938 225.19273437 -43.54296875 224.26171875 C-36.75200276 217.07303879 -29.51393095 211.93648109 -21 207 C-20.16984375 206.50757813 -19.3396875 206.01515625 -18.484375 205.5078125 C1.91145091 194.33866974 28.68482263 192.6021549 50.85546875 198.67578125 C66.31074094 203.40579986 79.45592731 211.15589749 91.08105469 222.40722656 C93.40281091 224.64293279 94.89302476 225.96434159 98 227 C100.24344004 225.77087322 100.24344004 225.77087322 102.5625 223.9375 C115.02297674 214.88839297 128.12651115 208.98959466 143 205 C140.03508859 193.73333662 132.83646544 184.88355712 123.125 178.75 C118.57733156 176.15429883 114.0477724 174.35823595 109 173 C107.7934375 172.6596875 107.7934375 172.6596875 106.5625 172.3125 C93.65463773 170.73837046 81.77613594 173.66341688 71 181 C68.98229258 182.77456642 67.13956269 184.58869951 65.33984375 186.58203125 C63.0707771 188.98340499 61.95001166 189.00181776 58.5625 189.125 C55 189 55 189 52 188 C51.32324327 186.67175961 50.65791255 185.33767459 50 184 C30.6416852 164.98205118 1.99970427 166.55766308 -16.90625 184.84375 Z M-27 230 C-27.80695313 230.71542969 -28.61390625 231.43085938 -29.4453125 232.16796875 C-39.71188073 241.7909142 -47.02488264 253.47661079 -51 267 C-51 267.99 -51 268.98 -51 270 C-42.75 270 -34.5 270 -26 270 C-26.99 269.01 -27.98 268.02 -29 267 C-29.66 267 -30.32 267 -31 267 C-32.40151588 259.09747673 -32.40151588 259.09747673 -31.0625 255.4375 C-28.48058555 253.63798387 -26.31780687 253.39476052 -23.19921875 253.52734375 C-19.85859866 254.24531006 -17.41378317 255.93433876 -14.6640625 257.90625 C-13.0533369 259.18308539 -13.0533369 259.18308539 -11 259 C-10.83197949 260.45817797 -10.66562857 261.9165484 -10.5 263.375 C-10.4071875 264.18710937 -10.314375 264.99921875 -10.21875 265.8359375 C-10 268 -10 268 -10 270 C13.1 270 36.2 270 60 270 C60 267.03 60 264.06 60 261 C61.8984375 258.84375 61.8984375 258.84375 64.375 257.5 C65.18710937 257.0359375 65.99921875 256.571875 66.8359375 256.09375 C70.85999483 254.05993041 73.39626436 253.67693083 78 254 C79.9375 255 79.9375 255 81 257 C81.73766976 262.16368835 81.73766976 262.16368835 81 265 C78 267.4375 78 267.4375 75 269 C75 269.33 75 269.66 75 270 C83.58 270 92.16 270 101 270 C94.44714387 248.15714622 82.50480687 231.62510813 62.71484375 219.859375 C34.09038707 204.70015269 -2.82768967 207.97127191 -27 230 Z M107 240 C107.66501225 244.33489466 109.17295788 247.99634454 110.9375 252 C112.68313423 255.9802176 114.41354035 259.95337829 116 264 C121.6256012 259.31597287 126.82805753 254.3179126 131.99609375 249.13671875 C132.82963882 248.3041304 133.6631839 247.47154205 134.52198792 246.61372375 C136.27036328 244.86602533 138.01749074 243.1170777 139.76342773 241.36694336 C142.44987144 238.67510372 145.14166122 235.98869213 147.83398438 233.30273438 C149.53417527 231.60188341 151.23405632 229.90072267 152.93359375 228.19921875 C154.1474601 226.98838875 154.1474601 226.98838875 155.385849 225.75309753 C156.4931411 224.64107719 156.4931411 224.64107719 157.62280273 223.5065918 C158.27675522 222.85184372 158.9307077 222.19709564 159.60447693 221.52250671 C161.11261603 220.22135521 161.11261603 220.22135521 161 219 C141.20472194 217.58605157 121.80449632 227.67718225 107 240 Z M169.39819336 234.47241211 C168.63748032 235.22997299 167.87676727 235.98753387 167.09300232 236.76805115 C165.85393883 238.01015099 165.85393883 238.01015099 164.58984375 239.27734375 C163.74780899 240.11842178 162.90577423 240.95949982 162.03822327 241.82606506 C160.25398712 243.60961901 158.47101998 245.39444319 156.68920898 247.18041992 C153.94951846 249.92545808 151.2045494 252.66513579 148.45898438 255.40429688 C146.73145009 257.13249194 145.00422601 258.86099716 143.27734375 260.58984375 C142.44927719 261.41588608 141.62121063 262.24192841 140.76805115 263.09300232 C140.01049026 263.85371536 139.25292938 264.61442841 138.47241211 265.39819336 C137.8003624 266.07103867 137.12831268 266.74388397 136.43589783 267.43711853 C134.88724034 268.76900532 134.88724034 268.76900532 135 270 C144.24 270 153.48 270 163 270 C169.58245703 256.83508593 173.45469279 245.64149859 174 231 C172.06761312 231 170.672303 233.19980902 169.39819336 234.47241211 Z " fill="#000000" transform="translate(304,5)"/>
<path d="M0 0 C8.05091509 7.28341541 13.10386785 17.16780617 14 28 C14.22278688 38.39235264 11.91180892 48.24500923 5.5 56.625 C2.8571508 59.13570674 1.5791058 60.34925349 -2 61 C-10.75584065 60.73865286 -15.41970712 55.52906738 -21.21484375 49.5390625 C-22.15986366 48.58604624 -23.10630633 47.63443891 -24.05409241 46.68417358 C-26.02716048 44.69892313 -27.98836678 42.7029332 -29.94067383 40.69726562 C-32.43914607 38.13070705 -34.9568808 35.58419912 -37.48253536 33.04441261 C-39.90004272 30.61176355 -42.30783231 28.16958997 -44.71484375 25.7265625 C-45.6168602 24.81290924 -46.51887665 23.89925598 -47.44822693 22.95791626 C-48.27991898 22.10378143 -49.11161102 21.24964661 -49.96850586 20.36962891 C-50.70080917 19.62065338 -51.43311249 18.87167786 -52.18760681 18.1000061 C-54.9198166 14.93421556 -55.91195032 12.79244714 -56.375 8.625 C-55.91858976 4.21303433 -54.76101288 2.45014738 -52 -1 C-49.64953381 -2.49320439 -47.56201473 -3.67204702 -45.0625 -4.8125 C-44.45470703 -5.11091797 -43.84691406 -5.40933594 -43.22070312 -5.71679688 C-28.74041347 -12.63671955 -12.53795057 -9.30847845 0 0 Z M-37 9 C-31.71510279 15.45619535 -25.87015907 21.3159864 -19.97607422 27.20922852 C-18.23505742 28.9524616 -16.50223063 30.7035822 -14.76953125 32.45507812 C-13.66455103 33.56298745 -12.55909952 34.67042698 -11.453125 35.77734375 C-10.93542542 36.30222885 -10.41772583 36.82711395 -9.88433838 37.36790466 C-7.41059187 40.15918187 -7.41059187 40.15918187 -4 41 C-1.48847874 34.20411896 -1.29486616 28.13494956 -4.09375 21.34765625 C-7.69360185 14.69792992 -12.66325748 9.70942534 -20 7.359375 C-25.93560444 6.29282108 -31.40177447 6.70329209 -37 9 Z " fill="#000000" transform="translate(463,50)"/>
<path d="M0 0 C6.45660693 5.0730483 10.17304998 12.11569568 12 20 C12.31078314 22.94331943 12.38127051 25.85407333 12.375 28.8125 C12.37338867 29.60495117 12.37177734 30.39740234 12.37011719 31.21386719 C12.15958989 41.2902814 8.49579287 49.00467459 1.75 56.5 C-7.97674182 65.34249256 -17.45846635 69.8131407 -30.90234375 69.31640625 C-39.41469693 68.44692251 -47.26900798 65.36009273 -54 60 C-56.54118639 56.42414712 -57.72350069 53.57436494 -57.53829956 49.08657837 C-56.86940175 46.49376983 -55.81998708 45.26949143 -54.01220703 43.30224609 C-53.37526917 42.6061322 -52.7383313 41.91001831 -52.08209229 41.19281006 C-48.49063975 37.41037769 -44.85784569 33.67477707 -41.1796875 29.9765625 C-40.35800079 29.14917572 -39.53631409 28.32178894 -38.68972778 27.46932983 C-36.96495177 25.73516857 -35.23876515 24.00240924 -33.51123047 22.27099609 C-30.86874923 19.61872608 -28.23712048 16.95597884 -25.60546875 14.29296875 C-23.92253367 12.60351028 -22.23896206 10.9146856 -20.5546875 9.2265625 C-19.77124969 8.43077789 -18.98781189 7.63499329 -18.18063354 6.81509399 C-17.44281647 6.08027802 -16.70499939 5.34546204 -15.94482422 4.58837891 C-15.30197479 3.94188385 -14.65912537 3.29538879 -13.99679565 2.62930298 C-9.43957895 -1.08919808 -5.63577476 -1.50958252 0 0 Z M-8.41738892 20.17687988 C-8.96365936 20.72759155 -9.50992981 21.27830322 -10.07275391 21.84570312 C-10.69324615 22.46634644 -11.3137384 23.08698975 -11.95303345 23.72644043 C-12.62079803 24.40452759 -13.28856262 25.08261475 -13.9765625 25.78125 C-14.66181 26.46932739 -15.3470575 27.15740479 -16.05307007 27.86633301 C-18.2484328 30.07292322 -20.43675416 32.28635402 -22.625 34.5 C-24.10891759 35.99394406 -25.59328679 37.48743969 -27.078125 38.98046875 C-30.7240133 42.64845146 -34.36413852 46.32207952 -38 50 C-35.0233032 52.9766968 -31.91475966 53.17052744 -27.8125 53.3125 C-20.74758749 53.19649158 -15.24931632 50.46732447 -10.125 45.6875 C-4.0899609 39.03635482 -3.67458135 33.6550034 -3.796875 24.890625 C-3.88421959 21.93242516 -3.88421959 21.93242516 -5 19 C-7.05059458 18.7870623 -7.05059458 18.7870623 -8.41738892 20.17687988 Z " fill="#000000" transform="translate(239,52)"/>
<path d="M0 0 C3.5700973 1.00986816 4.99298172 3.57464018 6.9609375 6.5546875 C7.5384375 7.3796875 8.1159375 8.2046875 8.7109375 9.0546875 C10.19107731 12.01496711 10.82285252 14.24064802 10.9609375 17.5546875 C9.82313878 19.88200306 8.79253036 21.72309464 6.9609375 23.5546875 C3.90821705 23.98813665 1.01018637 24.02173794 -2.0390625 23.5546875 C-4.3515625 21.4921875 -4.3515625 21.4921875 -6.0390625 18.5546875 C-6.40902344 18.00039062 -6.77898437 17.44609375 -7.16015625 16.875 C-9.65439417 12.99123853 -10.83573124 10.13553275 -10.0390625 5.5546875 C-7.6404441 0.95733557 -5.2652623 -0.33274892 0 0 Z " fill="#000000" transform="translate(302.0390625,236.4453125)"/>
<path d="M0 0 C2.30275556 1.8670991 3.67823871 3.35647741 5 6 C5.14901491 8.10053716 5.22138453 10.20687825 5.25 12.3125 C5.27578125 13.44300781 5.3015625 14.57351562 5.328125 15.73828125 C4.9685426 19.31270151 4.14022123 21.14810326 2 24 C-0.85324437 25.42662219 -2.83454549 25.31033868 -6 25 C-8.66015625 23.51171875 -8.66015625 23.51171875 -11 21 C-11.73740772 18.14961393 -11.69961423 15.42985197 -11.625 12.5 C-11.64433594 11.74074219 -11.66367187 10.98148438 -11.68359375 10.19921875 C-11.64798749 6.1329844 -11.52423683 4.55825553 -8.65234375 1.5 C-5.40858773 -0.33446585 -3.67003305 -0.62468648 0 0 Z " fill="#000000" transform="translate(332,229)"/>
<path d="M0 0 C2.4375 1.5 2.4375 1.5 4 4 C4.93143169 9.495447 4.17908059 12.2265097 1.125 16.875 C-0.48645169 19.10923495 -2.05065298 21.05065298 -4 23 C-10.9273743 23.67039106 -10.9273743 23.67039106 -14.5 21.4375 C-16.68306478 17.89001973 -16.66732152 16.13739343 -16 12 C-12.29485416 4.25287689 -9.35935645 -0.98519542 0 0 Z " fill="#000000" transform="translate(361,237)"/>
</svg>
