<?xml version="1.0" encoding="UTF-8"?>
<svg version="1.1" xmlns="http://www.w3.org/2000/svg" width="512" height="512">
<path d="M0 0 C12.50487933 8.49252236 21.02283516 19.94763387 24.3125 34.8125 C24.71642963 38.28438699 24.7904123 41.69458423 24.75 45.1875 C24.74315186 46.1043457 24.73630371 47.02119141 24.72924805 47.96582031 C24.55961994 55.14992024 23.43412672 61.282671 20.3125 67.8125 C19.95027344 68.59367187 19.58804687 69.37484375 19.21484375 70.1796875 C16.95272655 74.61190357 14.2082962 78.13124895 10.9375 81.875 C7.80287691 85.67154927 7.80287691 85.67154927 7.125 90.5 C7.49284982 91.94491411 7.89457087 93.38126783 8.3125 94.8125 C8.69037445 96.64933354 9.06691072 98.48651422 9.42456055 100.32739258 C9.79680333 102.23217928 10.19472545 104.13189315 10.59375 106.03125 C23.80608658 175.53962938 -8.98842468 248.73705685 -46.85424805 305.10791016 C-55.76851971 318.17651644 -65.51001189 330.70719418 -75.6875 342.8125 C-76.12352539 343.33344238 -76.55955078 343.85438477 -77.00878906 344.39111328 C-87.48647473 356.88205821 -98.56381558 368.75726467 -110.0625 380.3125 C-110.70413086 380.95880371 -111.34576172 381.60510742 -112.00683594 382.27099609 C-116.40389583 386.65330076 -120.98724951 390.75974505 -125.6875 394.8125 C-126.84386829 395.83433237 -127.99886539 396.857719 -129.15234375 397.8828125 C-138.33462932 405.98560168 -147.87536212 413.49056378 -157.6875 420.8125 C-158.95837372 421.77077978 -160.2292084 422.72911133 -161.5 423.6875 C-188.69646514 444.05973339 -219.0080013 461.4951833 -250.6875 473.8125 C-251.93635986 474.3067749 -251.93635986 474.3067749 -253.21044922 474.81103516 C-294.13290221 490.8923825 -340.13142036 499.25704156 -383.57910156 489.28369141 C-390.00489107 487.57566297 -390.00489107 487.57566297 -396.1640625 489.21875 C-396.87304688 489.9096875 -397.58203125 490.600625 -398.3125 491.3125 C-411.4449816 502.8820742 -426.17842993 505.7419245 -443.21923828 505.00341797 C-455.86848529 504.02500935 -467.08527014 496.31874759 -475.6171875 487.328125 C-484.15277896 476.95657613 -488.27949992 465.79123711 -488.125 452.4375 C-488.11472778 451.06223145 -488.11472778 451.06223145 -488.10424805 449.65917969 C-487.93461994 442.47507976 -486.80912672 436.342329 -483.6875 429.8125 C-483.32527344 429.03132813 -482.96304687 428.25015625 -482.58984375 427.4453125 C-480.32772655 423.01309643 -477.5832962 419.49375105 -474.3125 415.75 C-471.16291802 411.93165557 -471.16291802 411.93165557 -470.5 407.0625 C-470.86220415 405.63686448 -471.26439833 404.22126309 -471.6875 402.8125 C-472.19907722 400.48167757 -472.69802542 398.14806398 -473.1875 395.8125 C-473.4453125 394.678125 -473.703125 393.54375 -473.96875 392.375 C-475.27945834 385.87844564 -475.85241658 379.50619533 -475.92578125 372.88671875 C-475.93543915 372.14924911 -475.94509705 371.41177948 -475.95504761 370.65196228 C-475.97979698 368.26792309 -475.99244065 365.88415376 -476 363.5 C-476.00295074 362.68513123 -476.00590149 361.87026245 -476.00894165 361.03070068 C-476.0396897 323.55387219 -476.0396897 323.55387219 -468.6875 309.8125 C-465.16925489 307.46700326 -463.82974306 307.23258597 -459.6875 307.8125 C-456.8125 309.875 -456.8125 309.875 -454.6875 312.8125 C-454.31367706 318.11816248 -455.1169274 323.01116443 -456.125 328.1875 C-458.27361763 339.41377011 -458.92374567 350.32063296 -458.9375 361.75 C-458.94000763 362.84874954 -458.94000763 362.84874954 -458.94256592 363.96969604 C-458.94431429 376.75254935 -457.78520125 388.61719054 -454.609375 401.03515625 C-452.60955596 409.22933002 -453.5665876 415.47750551 -457.6875 422.8125 C-458.95364485 424.31125601 -460.26877206 425.76974187 -461.625 427.1875 C-469.13224675 435.24200399 -471.42393049 443.88482088 -471.20483398 454.65844727 C-470.62522078 465.95899389 -465.93689618 473.16108311 -457.6875 480.8125 C-448.38131335 488.02437242 -438.11331836 489.06603283 -426.6875 487.8125 C-418.33868494 485.83109919 -412.61256193 481.3563841 -406.21484375 475.83984375 C-400.5544086 471.29924739 -394.85665301 470.32218824 -387.6875 470.8125 C-384.46551498 471.31736945 -381.30202154 472.01723126 -378.125 472.75 C-376.49918464 473.11545333 -374.87288773 473.47877164 -373.24609375 473.83984375 C-372.53767334 474.00218506 -371.82925293 474.16452637 -371.09936523 474.33178711 C-326.12430007 483.29584251 -276.89602983 468.09979952 -236.6875 448.8125 C-235.9857666 448.47750488 -235.2840332 448.14250977 -234.56103516 447.79736328 C-196.58537476 429.54979051 -162.73054322 405.15614816 -131.6875 376.8125 C-130.75421875 375.97203125 -129.8209375 375.1315625 -128.859375 374.265625 C-119.24268322 365.57727723 -109.73631463 356.64026921 -101.34375 346.74609375 C-99.42764423 344.50913065 -97.43237144 342.35446422 -95.4375 340.1875 C-90.33073834 334.52584404 -85.6676185 328.55805735 -81.01660156 322.52246094 C-79.82808337 320.99336809 -78.61483747 319.48356997 -77.3984375 317.9765625 C-59.83772251 295.95023614 -44.72666073 271.27112374 -32.65722656 245.84667969 C-31.99877824 244.46546332 -31.3311175 243.08860858 -30.65527344 241.71582031 C-19.15344365 218.30250652 -10.74233439 192.58950616 -6.6875 166.8125 C-6.41474243 165.10126953 -6.41474243 165.10126953 -6.13647461 163.35546875 C-4.7932162 154.23441655 -4.32808708 145.27408768 -4.375 136.0625 C-4.37582581 135.37027344 -4.37665161 134.67804688 -4.37750244 133.96484375 C-4.4124862 121.16741792 -5.5882744 108.97575891 -8.765625 96.5546875 C-10.77889409 88.38217992 -9.79739456 82.12788336 -5.6875 74.8125 C-4.42135515 73.31374399 -3.10622794 71.85525813 -1.75 70.4375 C5.75724675 62.38299601 8.04893049 53.74017912 7.82983398 42.96655273 C7.25022078 31.66600611 2.56189618 24.46391689 -5.6875 16.8125 C-14.99368665 9.60062758 -25.26168164 8.55896717 -36.6875 9.8125 C-45.03631506 11.79390081 -50.76243807 16.2686159 -57.16015625 21.78515625 C-62.81689928 26.32279092 -68.51938954 27.31064843 -75.6875 26.8125 C-78.72585461 26.31267098 -81.69881295 25.61197146 -84.6875 24.875 C-132.15944828 13.41206368 -183.85143443 28.26481944 -226.6875 48.8125 C-227.7401001 49.31499268 -227.7401001 49.31499268 -228.81396484 49.82763672 C-233.48360488 52.0714317 -238.09512137 54.41504981 -242.6875 56.8125 C-243.3479834 57.15265137 -244.0084668 57.49280273 -244.68896484 57.84326172 C-255.0581326 63.222531 -264.85018672 69.40279687 -274.5625 75.875 C-275.12659576 76.25009705 -275.69069153 76.62519409 -276.2718811 77.01165771 C-284.28571056 82.35576842 -292.03897889 87.96058758 -299.6875 93.8125 C-300.35072266 94.31724854 -301.01394531 94.82199707 -301.69726562 95.34204102 C-323.4199158 111.96211816 -345.11510177 130.66310285 -362.80859375 151.59375 C-364.36235351 153.42854323 -365.93959233 155.23308297 -367.53515625 157.03125 C-375.11578622 165.6080858 -382.23502529 174.45055405 -389.06689453 183.63427734 C-390.13905186 185.07534207 -391.21549203 186.51323115 -392.29638672 187.94775391 C-412.67516141 215.03064359 -428.70825686 244.72005656 -441.45166016 276.05541992 C-443.10983782 279.75470881 -444.81169639 282.93669639 -447.6875 285.8125 C-452.01112389 286.38354467 -454.02312362 286.25541759 -457.6875 283.8125 C-459.92097421 280.46228869 -459.87800622 279.09171149 -459.26708984 275.21728516 C-458.0741376 270.26758859 -456.01706082 265.66089393 -454 261 C-453.51450684 259.86925049 -453.02901367 258.73850098 -452.52880859 257.57348633 C-438.94610468 226.49946377 -421.36776845 197.64761025 -400.6875 170.8125 C-400.27564453 170.27447754 -399.86378906 169.73645508 -399.43945312 169.18212891 C-385.30199928 150.74497576 -369.62905907 133.70982935 -353.25 117.25 C-352.61215576 116.60748291 -351.97431152 115.96496582 -351.31713867 115.30297852 C-346.93724636 110.93790817 -342.36897065 106.84979088 -337.6875 102.8125 C-336.53114096 101.79065717 -335.37614375 100.76727071 -334.22265625 99.7421875 C-325.04037068 91.63939832 -315.49963788 84.13443622 -305.6875 76.8125 C-304.41662628 75.85422022 -303.1457916 74.89588867 -301.875 73.9375 C-259.51655072 42.20778035 -210.65102 18.41501864 -158.6875 7.8125 C-157.8104541 7.63315918 -156.9334082 7.45381836 -156.02978516 7.26904297 C-130.82005839 2.3917721 -102.27447502 2.54243802 -77.38671875 8.90625 C-73.342639 9.89698548 -71.58621803 10.24468213 -67.6875 8.8125 C-66.30034875 7.62068229 -64.95029873 6.38523861 -63.625 5.125 C-46.64636477 -10.87686096 -19.36385516 -11.4531743 0 0 Z " fill="#000000" transform="translate(487.6875,7.1875)"/>
<path d="M0 0 C16.47339077 15.68266802 23.27899095 36.68524869 24.09375 58.9921875 C24.37879141 73.47596912 23.75343897 87.56789366 20.75 101.75 C20.56775879 102.64025879 20.38551758 103.53051758 20.19775391 104.44775391 C19.62083353 107.20222339 19.00738203 109.94526834 18.375 112.6875 C18.09813354 113.94071045 18.09813354 113.94071045 17.81567383 115.21923828 C16.5441453 120.33591543 15.07987682 123.41830853 10.75 126.75 C6.75951279 127.38007693 4.73314143 127.38021887 1.3125 125.1875 C-1.13717742 121.36600323 -0.6011232 117.65784037 0.19262695 113.3449707 C0.80239155 110.61653686 1.45749049 107.90236555 2.125 105.1875 C8.36006941 78.4626497 11.62997691 47.45149283 -3.03515625 22.7421875 C-12.58306907 8.80944792 -26.09613337 2.39007171 -42.25 -1.25 C-47.22554525 -2.11546374 -52.22870236 -2.71552014 -57.25 -3.25 C-57.14300781 -2.59515625 -57.03601563 -1.9403125 -56.92578125 -1.265625 C-55.49257328 9.64524854 -57.5021972 18.68169296 -64.23046875 27.4921875 C-70.85939294 34.90324782 -78.38178364 39.24372446 -88.25 40.75 C-90.77142501 40.71962139 -93.29253968 40.65364226 -95.8125 40.5625 C-101.13739393 40.4509204 -105.38994804 40.83193026 -110.4375 42.75 C-118.43743386 45.78932358 -126.44512014 46.05903866 -134.5625 43.1875 C-142.79625598 39.35131824 -147.58614528 34.14316592 -151.4375 25.984375 C-152.25 23.75 -152.25 23.75 -152.25 20.75 C-179.57959656 34.39079487 -205.23986871 50.15302157 -228.34375 70.24609375 C-231.09313209 72.61484902 -233.90505005 74.87274796 -236.75 77.125 C-242.86493414 82.09226322 -248.32762762 87.65878436 -253.82226562 93.28955078 C-257.00067564 96.5407903 -260.23328478 99.7358073 -263.484375 102.9140625 C-269.70359496 109.01887768 -275.6482948 115.14334137 -281.0546875 121.99609375 C-283.03564239 124.48109943 -285.08879211 126.88386902 -287.17724609 129.27856445 C-293.61543513 136.69825393 -299.28549574 144.56926331 -304.82861328 152.67285156 C-306.14618428 154.59828854 -307.47639571 156.51436021 -308.80859375 158.4296875 C-317.17800583 170.59507151 -324.81050685 183.45626668 -331.25 196.75 C-330.6209375 197.10191406 -329.991875 197.45382812 -329.34375 197.81640625 C-317.72463275 204.51839707 -309.1249337 212.36437145 -304.3125 225.25 C-301.0506162 237.99173358 -302.19051903 251.73916646 -308.60546875 263.1640625 C-315.89192025 274.84582656 -325.97336745 282.00804234 -339.40625 285.2890625 C-345.722487 286.31284817 -352.05466136 286.39461975 -358.25 284.75 C-357.66887331 306.97087179 -356.21769381 330.48476113 -339.0859375 346.8125 C-320.30322385 362.21034299 -295.28325626 363.61956792 -272.03222656 361.44970703 C-219.75003326 354.95784975 -170.89754078 328.235384 -130.25 295.75 C-129.29738281 294.99074219 -128.34476563 294.23148437 -127.36328125 293.44921875 C-122.03920353 289.14985891 -116.882679 284.70316714 -111.83203125 280.0859375 C-110.42129802 278.80966144 -109.00420123 277.53981704 -107.55834961 276.3034668 C-101.99873025 271.53939322 -96.79476362 266.44794566 -91.6315918 261.26196289 C-90.18974779 259.81475615 -88.74262884 258.37297974 -87.29492188 256.93164062 C-82.06742509 251.70822839 -77.03066839 246.3858361 -72.25 240.75 C-71.36134163 239.72858811 -70.47205922 238.70771868 -69.58203125 237.6875 C-47.57726024 212.03232512 -28.38199315 183.3777871 -14.54541016 152.49926758 C-10.87881602 144.44234737 -10.87881602 144.44234737 -7.25 141.75 C-3.61980218 141.29622527 -1.22682053 141.31300134 2.125 142.8125 C4.47035802 145.60888841 4.95752521 148.19098299 4.75 151.75 C3.53676982 155.49974187 1.79003443 158.93293399 0 162.4375 C-0.50442627 163.45207275 -1.00885254 164.46664551 -1.52856445 165.51196289 C-3.07917696 168.60377855 -4.65952473 171.6785296 -6.25 174.75 C-6.69456543 175.61947266 -7.13913086 176.48894531 -7.59716797 177.38476562 C-18.30715928 198.18899559 -31.66405486 217.48841696 -46.25 235.75 C-46.67361816 236.28399414 -47.09723633 236.81798828 -47.53369141 237.36816406 C-52.13140031 243.14931243 -56.93060484 248.71671525 -61.9140625 254.16796875 C-63.17369223 255.56030194 -64.42743051 256.95863392 -65.64379883 258.38891602 C-70.80632859 264.43559685 -76.39112247 270.04303706 -82.01977539 275.65014648 C-83.68426277 277.3092732 -85.34333447 278.97368051 -87.00195312 280.63867188 C-92.57730882 286.21819586 -98.20190609 291.67899936 -104.25 296.75 C-104.87656494 297.28326904 -105.50312988 297.81653809 -106.14868164 298.3659668 C-160.80146247 344.66796283 -229.61491663 383.10686231 -303.25 378.75 C-320.68437507 377.06876807 -336.77801443 371.06737509 -350.25 359.75 C-350.89195312 359.22019531 -351.53390625 358.69039063 -352.1953125 358.14453125 C-365.92940864 345.67298655 -372.74672234 324.82407927 -374.25 306.75 C-376.026111 269.82703269 -367.86796536 236.47085675 -353.25 202.75 C-352.88680664 201.90775879 -352.52361328 201.06551758 -352.14941406 200.19775391 C-332.749354 155.81989051 -301.38951097 116.69898161 -267.34326172 82.65795898 C-265.74546107 81.05795481 -264.15588449 79.45006385 -262.56640625 77.84179688 C-256.11686957 71.35748813 -249.41906557 65.44445765 -242.25 59.75 C-241.12530348 58.80289508 -240.0056932 57.84966689 -238.89453125 56.88671875 C-215.21769573 36.41033824 -188.51641361 19.12157087 -160.23486328 5.69287109 C-158.9175265 5.06709562 -157.60333543 4.43465222 -156.29248047 3.79541016 C-133.89455838 -7.0810605 -109.81185496 -14.37398804 -85.25 -18.25 C-83.98800781 -18.44980469 -82.72601563 -18.64960937 -81.42578125 -18.85546875 C-53.14272489 -22.13356854 -22.3747559 -19.10040138 0 0 Z M-75.25 -3.25 C-78.18000369 -3.07947068 -80.9227825 -2.77001089 -83.8125 -2.3125 C-84.6900293 -2.17626221 -85.56755859 -2.04002441 -86.47167969 -1.8996582 C-97.97425153 0.03249283 -109.13010125 3.27738436 -120.25 6.75 C-121.56194336 7.15919678 -121.56194336 7.15919678 -122.90039062 7.57666016 C-125.19604325 8.31103195 -127.4745567 9.08048842 -129.75 9.875 C-130.40838867 10.09196533 -131.06677734 10.30893066 -131.74511719 10.5324707 C-133.74497715 11.21929681 -133.74497715 11.21929681 -136.25 12.75 C-137.41489118 15.15700626 -137.41489118 15.15700626 -137.25 17.75 C-134.92064799 23.06092258 -132.64077356 26.20718228 -127.25 28.75 C-122.07740896 29.72996354 -118.0856825 28.79983297 -113.3125 26.75 C-108.08074937 24.6248319 -103.66504199 24.57209315 -98.125 24.75 C-91.41886439 24.93363517 -85.86345679 24.92444131 -80.25 20.75 C-76.08726063 16.7682493 -73.41818665 12.39097337 -72.25 6.75 C-72.21428544 3.8520184 -72.60644514 1.62124474 -73.25 -1.25 C-73.91 -1.91 -74.57 -2.57 -75.25 -3.25 Z M-339.25 211.75 C-351.350693 239.33927916 -351.350693 239.33927916 -356.25 268.75 C-349.23133803 271.08955399 -342.7299296 269.82969155 -335.96484375 267.14453125 C-328.78993556 263.45900287 -323.60902956 258.02789738 -320.25 250.75 C-317.70708197 242.68281178 -318.24203744 233.84672886 -321.8125 226.25 C-326.24513569 218.43565867 -331.14700419 215.08198278 -339.25 211.75 Z " fill="#000000" transform="translate(431.25,76.25)"/>
<path d="M0 0 C3.25522356 2.01111214 5.95395347 4.23167543 8.60546875 6.98828125 C12.6585155 5.73148829 12.6585155 5.73148829 16.48046875 3.92578125 C22.83755012 1.12118653 29.20111019 1.80579034 35.60546875 3.98828125 C45.1880242 8.8735056 49.1346448 18.30869254 52.60546875 27.98828125 C54.68339446 35.0976623 53.96060287 41.46741574 50.60546875 47.98828125 C46.38238086 54.26258325 41.37988117 57.17947859 34.10546875 58.73828125 C33.28046875 58.82078125 32.45546875 58.90328125 31.60546875 58.98828125 C31.83234375 60.10203125 32.05921875 61.21578125 32.29296875 62.36328125 C32.91531372 67.6909314 32.00363249 72.19195377 29.60546875 76.98828125 C25.16932333 82.53606029 19.58114755 85.81870636 12.60546875 86.98828125 C-0.43540956 88.22438346 -11.22628087 85.32137779 -21.39453125 76.98828125 C-32.05867718 67.32078447 -38.3169154 53.2781338 -39.3515625 39.0078125 C-39.52075617 27.11811211 -36.23875486 15.82817849 -28.01953125 6.98828125 C-20.74265624 0.35823958 -9.57401685 -4.04513926 0 0 Z M-16.39453125 18.98828125 C-21.61616789 24.64505428 -23.27393649 30.41493029 -23.39453125 37.98828125 C-22.47135255 48.72450765 -17.51719131 58.86120015 -9.39453125 65.98828125 C-3.09128993 70.34961489 2.96436385 72.23470262 10.60546875 70.98828125 C13.5898655 69.77016013 15.03968103 69.11985668 16.48046875 66.23828125 C16.69940854 63.79943432 16.69940854 63.79943432 16.04296875 60.67578125 C15.53898567 56.42792386 15.96925071 53.93007926 17.60546875 49.98828125 C22.08705869 45.74893942 26.99247676 44.2594541 32.7421875 42.33203125 C35.63318052 41.23548186 35.63318052 41.23548186 37.0625 39.14453125 C38.28882263 34.2745306 35.94640483 30.13893472 33.85546875 25.80078125 C33.12070312 24.23263672 33.12070312 24.23263672 32.37109375 22.6328125 C30.78505776 19.91245379 30.78505776 19.91245379 28.359375 18.41015625 C23.75715383 17.70513513 20.28805295 20.30598631 16.39648438 22.49023438 C11.32047079 25.14017377 8.21318589 25.30564972 2.60546875 23.98828125 C-0.14453125 21.67578125 -0.14453125 21.67578125 -2.39453125 18.98828125 C-4.35262648 16.69538653 -4.35262648 16.69538653 -6.39453125 14.98828125 C-11.21870151 14.98828125 -12.62906397 16.08573355 -16.39453125 18.98828125 Z " fill="#000000" transform="translate(293.39453125,252.01171875)"/>
<path d="M0 0 C4.00855051 3.54243998 5.78984029 7.15568902 6.12109375 12.4765625 C6.14500583 13.98418594 6.14542358 15.49232526 6.125 17 C6.11597656 17.79543213 6.10695313 18.59086426 6.09765625 19.41040039 C5.72174579 32.31535412 0.72803818 41.8395487 -8.03515625 51.21875 C-16.82939376 59.36849256 -28.50503719 63.19334673 -40.3125 63.375 C-54.19418048 62.74718531 -65.9150966 57.06050369 -75.3125 46.859375 C-78.96737129 42.31933957 -81.00059159 38.59734742 -81.8125 32.8125 C-81.19431529 28.56248014 -80.3842418 25.40767769 -77.3125 22.375 C-74.86553955 21.11494446 -74.86553955 21.11494446 -71.93457031 19.9543457 C-70.85872681 19.52650787 -69.7828833 19.09867004 -68.67443848 18.65786743 C-63.33979744 16.62224504 -57.98808621 14.64665257 -52.609375 12.73046875 C-50.8654245 12.10849358 -50.8654245 12.10849358 -49.08624268 11.47395325 C-46.64999314 10.60737079 -44.21303277 9.7427843 -41.77539062 8.88012695 C-38.05445291 7.55964426 -34.33985761 6.22224172 -30.625 4.88476562 C-28.24516531 4.04061254 -25.86496912 3.19747777 -23.484375 2.35546875 C-22.38212585 1.95555222 -21.27987671 1.55563568 -20.14422607 1.14360046 C-7.02173959 -3.44462697 -7.02173959 -3.44462697 0 0 Z M-16.10766602 17.02734375 C-17.12864883 17.38771729 -18.14963165 17.74809082 -19.20155334 18.11938477 C-20.3119548 18.51311279 -21.42235626 18.90684082 -22.56640625 19.3125 C-23.69698959 19.71202881 -24.82757294 20.11155762 -25.99241638 20.52319336 C-29.62046419 21.80566403 -33.24773765 23.09030966 -36.875 24.375 C-39.32742344 25.24233035 -41.77989674 26.10951974 -44.23242188 26.9765625 C-50.25969504 29.10773692 -56.28633305 31.24069977 -62.3125 33.375 C-62.6417523 36.37934838 -62.6417523 36.37934838 -60.80859375 38.09375 C-53.64789805 44.28972199 -46.9093939 47.5711409 -37.3125 47.375 C-29.26200617 46.30765667 -22.93588904 43.26044988 -17.3125 37.375 C-13.29633037 31.80309309 -10.1486374 26.68151941 -10.25 19.6875 C-10.25902344 18.87925781 -10.26804688 18.07101562 -10.27734375 17.23828125 C-10.28894531 16.62339844 -10.30054688 16.00851562 -10.3125 15.375 C-12.30016368 15.375 -14.26187025 16.37428579 -16.10766602 17.02734375 Z " fill="#000000" transform="translate(201.3125,351.625)"/>
<path d="M0 0 C7.40127914 4.91479833 12.85976823 10.60730989 15.59765625 19.2421875 C17.40811056 28.87380445 15.87993901 38.06290535 10.703125 46.38671875 C5.6315626 52.92748029 -1.98388585 56.74341675 -10.01171875 58.3203125 C-18.79034265 59.24264447 -26.6605042 57.33630665 -33.82421875 52.1328125 C-40.35243053 46.66572348 -44.41423839 39.79489997 -45.34765625 31.2421875 C-45.48001812 20.49440402 -43.26199418 12.89443108 -35.8046875 5.0078125 C-26.48276267 -3.76576381 -11.47761617 -6.18191756 0 0 Z M-27.38671875 20.0703125 C-29.67871989 24.65431478 -29.94371513 28.44859865 -28.38671875 33.24609375 C-26.31198733 37.57153826 -23.5372365 39.83298357 -19.1640625 41.73046875 C-14.53173597 42.99994481 -10.67661993 42.00140844 -6.26171875 40.1953125 C-2.04086334 36.67793299 -0.22809046 33.08219645 0.42578125 27.7578125 C-0.23152114 22.59329369 -1.69949925 19.50451059 -5.57421875 16.0078125 C-13.59182159 10.45716438 -21.26473372 12.98169826 -27.38671875 20.0703125 Z " fill="#000000" transform="translate(391.01171875,160.6796875)"/>
<path d="M0 0 C2.68599605 2.08164694 3.72973683 3.59519459 4.375 6.94921875 C4.84450691 15.12157336 1.93855479 23.01862271 -3.125 29.375 C-8.95990888 35.51236636 -17.00336485 39.03477285 -25.4375 39.3125 C-28.67014968 39.25382154 -30.07086443 38.96529089 -33.0625 37.5 C-35.42077812 34.45706049 -35.69310775 32.67302307 -35.3984375 28.8984375 C-35 27 -35 27 -33.6875 24.625 C-30.12216265 22.46921462 -26.71432038 22.17661246 -22.6328125 21.55078125 C-19.17882288 20.82821072 -17.33306352 19.63410398 -15 17 C-12.7947567 13.05377514 -12.34260897 8.62640952 -11.66015625 4.20703125 C-10.08693794 -1.05254476 -4.60193574 -0.87038624 0 0 Z " fill="#000000" transform="translate(233,198)"/>
<path d="M0 0 C5.25847832 2.44791232 10.66598585 7.85540919 13.265625 13.0546875 C13.52803272 16.59719167 13.6764995 19.18728577 12.140625 22.4296875 C9.51627902 24.70412068 7.71714938 24.98565701 4.265625 25.0546875 C0.28025031 23.03235687 -2.8241168 20.37943754 -6.046875 17.3046875 C-7.37138672 16.07492187 -7.37138672 16.07492187 -8.72265625 14.8203125 C-11.28143547 11.30261213 -11.264585 9.3161884 -10.734375 5.0546875 C-7.88419177 0.77941265 -5.26296873 -0.98429568 0 0 Z " fill="#000000" transform="translate(167.734375,244.9453125)"/>
<path d="M0 0 C2.49395992 1.54291048 4.38132622 3.49000251 6.375 5.625 C6.90738281 6.14707031 7.43976563 6.66914063 7.98828125 7.20703125 C11.28281499 10.60216144 12.88242944 13.08278423 13 18 C10.86956522 22.56521739 10.86956522 22.56521739 8 24 C4.38893203 24.57777087 1.99354634 24.67346531 -1.09765625 22.578125 C-3.14467589 20.78746109 -5.07524837 18.92056739 -7 17 C-7.804375 16.360625 -8.60875 15.72125 -9.4375 15.0625 C-11.8034569 11.9394369 -12.43905958 8.88991379 -12 5 C-8.64034228 -0.03948658 -5.86800967 -0.75357598 0 0 Z " fill="#000000" transform="translate(257,157)"/>
</svg>
