<?xml version="1.0" encoding="UTF-8"?>
<svg version="1.1" xmlns="http://www.w3.org/2000/svg" width="512" height="512">
<path d="M0 0 C0.68394836 0.0012085 1.36789673 0.00241699 2.0725708 0.00366211 C24.79600379 0.11331118 45.08465699 7.88951377 61.5625 23.9375 C63.75351277 26.21158434 65.72250298 28.59311872 67.6875 31.0625 C73.1794315 37.4080996 78.81637095 38.5341316 87 39.3125 C99.67230541 40.54922467 109.13865066 44.70638535 117.75 54.375 C123.77576429 62.56353861 126.09976757 70.22389415 125.875 80.3125 C125.86597656 81.09173828 125.85695313 81.87097656 125.84765625 82.67382812 C125.82433691 84.57435447 125.78847586 86.47472008 125.75 88.375 C126.62736816 88.3435791 126.62736816 88.3435791 127.52246094 88.31152344 C130.18146465 88.22819885 132.84019355 88.17629103 135.5 88.125 C136.42039062 88.09148437 137.34078125 88.05796875 138.2890625 88.0234375 C139.17851562 88.01054688 140.06796875 87.99765625 140.984375 87.984375 C141.80131836 87.96342773 142.61826172 87.94248047 143.45996094 87.92089844 C146.66501286 88.55644178 147.81372217 89.78039869 149.75 92.375 C150.16894531 94.8894043 150.16894531 94.8894043 150.078125 97.69921875 C150.06410645 99.23618408 150.06410645 99.23618408 150.04980469 100.80419922 C150.03336914 101.87943848 150.01693359 102.95467773 150 104.0625 C149.81006274 113.71935146 149.81006274 113.71935146 154.5 121.75 C155.21929687 122.35328125 155.93859375 122.9565625 156.6796875 123.578125 C162.23478455 128.39952999 165.26530321 137.46597381 165.97119141 144.61523438 C166.69268606 159.68372701 164.83294561 170.98916507 155.75 183.375 C165.65 183.87 165.65 183.87 175.75 184.375 C175.87246094 182.44398438 175.99492187 180.51296875 176.12109375 178.5234375 C176.75487133 169.6505514 177.77400413 160.83314137 178.8125 152 C179.00093175 150.37763674 179.18908439 148.75524105 179.37695312 147.1328125 C179.83143022 143.21316155 180.28964165 139.29396437 180.75 135.375 C186.53307907 135.31878538 192.02334636 135.5420322 197.75 136.375 C197.94349136 143.9541539 197.35130201 151.30335135 196.47941589 158.82780457 C196.34269181 160.04674748 196.20596773 161.2656904 196.06510049 162.52157098 C195.68728899 165.87957452 195.30450175 169.2369406 194.91951549 172.59412444 C194.50437716 176.22503374 194.09572077 179.8566735 193.686203 183.48822021 C192.88385834 190.5938283 192.07544919 197.69873366 191.26480433 204.80339911 C190.60547783 210.58275221 189.94829647 216.3623455 189.29262733 222.14211464 C189.15238316 223.37833554 189.15238316 223.37833554 189.00930578 224.6395306 C188.819341 226.31409184 188.62938021 227.98865353 188.43942336 229.66321567 C186.65928043 245.35363808 184.87214655 261.04325821 183.08268843 276.73262057 C181.55027989 290.16981314 180.02420214 303.60771251 178.50268555 317.04614258 C176.73322105 332.67450291 174.95953213 348.30237483 173.17938596 363.92952234 C172.98919086 365.599283 172.79900217 367.2690444 172.60881996 368.93880653 C172.46848354 370.17091915 172.46848354 370.17091915 172.32531204 371.42792293 C171.66908305 377.19205064 171.01586185 382.95651455 170.36385155 388.72112083 C169.56778067 395.75877831 168.76712203 402.79589614 167.96073123 409.83237889 C167.55008593 413.41665063 167.14141254 417.00111572 166.73838043 420.58625221 C161.08103697 470.86412257 161.08103697 470.86412257 142.75 486.375 C128.75413161 496.76987309 114.16256097 496.96415734 97.47485352 496.90844727 C95.23951653 496.91551521 93.00418433 496.92426388 90.76885986 496.93455505 C84.72954691 496.95695987 78.69049713 496.95413018 72.65115857 496.94523358 C67.59665033 496.94010527 62.54219075 496.94743116 57.48768753 496.95470566 C44.87742574 496.97264452 32.2673203 496.966323 19.65707486 496.94853585 C8.73559273 496.93384252 -2.18561419 496.94846986 -13.1070609 496.97730602 C-24.35570855 497.00678206 -35.60423278 497.01714181 -46.8529287 497.00812382 C-53.15445318 497.00320901 -59.45576387 497.00533209 -65.75726128 497.02591133 C-71.68447815 497.04434371 -77.61118589 497.03821716 -83.53837585 497.01371193 C-85.70461845 497.00872818 -87.87090036 497.01212988 -90.03711128 497.02486038 C-109.1115528 497.12802971 -123.0597377 493.9481854 -137.5 480.625 C-149.20869217 468.32615198 -151.71188513 451.66249353 -153.45703125 435.45703125 C-153.65628108 433.69736924 -153.85668199 431.93783729 -154.05809021 430.17842102 C-154.50207997 426.27803766 -154.93803322 422.37686384 -155.36804199 418.47491455 C-156.079237 412.02151638 -156.8065948 405.56999919 -157.53613281 399.11865234 C-158.3887489 391.57137248 -159.23966673 384.02390978 -160.08517456 376.47583008 C-162.67489554 353.36792115 -165.31955429 330.26644055 -167.97291511 307.1657607 C-169.68744336 292.23818623 -171.39736858 277.31008417 -173.10719395 262.38197041 C-173.37291902 260.06213115 -173.63865051 257.74229262 -173.90438843 255.42245483 C-174.10164269 253.70043992 -174.10164269 253.70043992 -174.3028819 251.94363683 C-175.23478032 243.81009906 -176.16888408 235.67681618 -177.10366821 227.54360962 C-178.25962638 217.48502783 -179.41131214 207.42596651 -180.55801028 197.36632472 C-181.15441758 192.13525339 -181.75272809 186.90441726 -182.35595512 181.67412758 C-182.91617142 176.81636106 -183.47111034 171.95802082 -184.02198446 167.0991863 C-184.22333549 165.33141202 -184.42658912 163.56385318 -184.63194716 161.7965399 C-185.61820029 153.29984249 -186.51568157 144.94643849 -186.25 136.375 C-183.60448944 136.18113508 -180.95882217 135.99461733 -178.3125 135.8125 C-177.55775391 135.75642578 -176.80300781 135.70035156 -176.02539062 135.64257812 C-174.10254042 135.51323843 -172.17610452 135.43983088 -170.25 135.375 C-168.75942838 136.86557162 -168.91863985 138.27755867 -168.67749023 140.35644531 C-168.52744789 141.62346283 -168.52744789 141.62346283 -168.37437439 142.91607666 C-168.27016678 143.83580261 -168.16595917 144.75552856 -168.05859375 145.703125 C-167.94902847 146.64428162 -167.8394632 147.58543823 -167.72657776 148.55511475 C-167.49507319 150.55228992 -167.26572154 152.54971562 -167.03833008 154.54736328 C-166.6905051 157.59863792 -166.3350627 160.64895239 -165.97851562 163.69921875 C-165.75475135 165.63796814 -165.53142978 167.5767687 -165.30859375 169.515625 C-165.20236191 170.42725403 -165.09613007 171.33888306 -164.98667908 172.27813721 C-164.88980301 173.13542419 -164.79292694 173.99271118 -164.69311523 174.87597656 C-164.60730698 175.62574768 -164.52149872 176.3755188 -164.43309021 177.14801025 C-164.23563908 179.54967681 -164.25 181.96523047 -164.25 184.375 C-154.35 183.88 -154.35 183.88 -144.25 183.375 C-145.1575 182.1375 -146.065 180.9 -147 179.625 C-154.79936244 167.87986082 -156.21429401 155.40530176 -153.96875 141.76953125 C-151.23182177 128.8434952 -143.75691709 119.22519254 -133.25 111.375 C-125.31653919 106.58819516 -117.40641008 104.33883264 -108.25 103.375 C-108.59933594 102.69953125 -108.94867188 102.0240625 -109.30859375 101.328125 C-109.76363281 100.43609375 -110.21867187 99.5440625 -110.6875 98.625 C-111.13996094 97.74328125 -111.59242187 96.8615625 -112.05859375 95.953125 C-116.07764138 87.25616948 -115.68210057 74.32189658 -112.6875 65.3125 C-108.50764112 55.76897605 -101.30461686 47.81210808 -91.8918457 43.22607422 C-84.17843503 40.22471813 -76.90991158 39.63152787 -68.6875 39.3125 C-55.24991899 38.75115701 -45.49861912 36.90090975 -34.25 29.375 C-33.3425 28.776875 -32.435 28.17875 -31.5 27.5625 C-25.08821145 21.32881669 -21.85272623 13.50923475 -18.64453125 5.31640625 C-15.18393244 -1.98283999 -6.97241577 -0.02231768 0 0 Z M-4.25 16.375 C-4.62769531 17.24640625 -5.00539063 18.1178125 -5.39453125 19.015625 C-12.49102364 34.37196919 -22.52684723 45.23478634 -38.56640625 51.71484375 C-44.7432672 53.84453446 -50.68276181 55.43406673 -57.234375 55.62109375 C-58.17023438 55.65396484 -59.10609375 55.68683594 -60.0703125 55.72070312 C-62.00770856 55.7814082 -63.94521302 55.83875592 -65.8828125 55.89257812 C-75.16201377 56.22942584 -84.00107981 57.05785822 -91.25 63.375 C-96.93993808 70.60390397 -98.08040359 77.28669399 -97.25 86.375 C-95.43528907 92.41088636 -91.76723022 97.21951316 -86.36328125 100.53125 C-79.7984299 104.03250405 -73.60868567 104.52506565 -66.22509766 104.48852539 C-65.44393585 104.48867142 -64.66277405 104.48881744 -63.85794067 104.4889679 C-61.2932857 104.48827498 -58.72870468 104.48051184 -56.1640625 104.47265625 C-54.37901855 104.47078986 -52.59397409 104.469367 -50.80892944 104.46836853 C-46.12362235 104.46456075 -41.43834654 104.45474538 -36.75305176 104.44366455 C-31.96688256 104.43341297 -27.18070828 104.42886289 -22.39453125 104.42382812 C-13.01300713 104.41312149 -3.63150617 104.39606604 5.75 104.375 C5.76458252 103.05781982 5.77916504 101.74063965 5.79418945 100.38354492 C5.85210713 95.50240762 5.92934036 90.62173482 6.01245117 85.7409668 C6.04573128 83.62743664 6.07375353 81.51381694 6.09643555 79.40014648 C6.12992472 76.36403194 6.18223764 73.32874025 6.23828125 70.29296875 C6.24467117 69.34600632 6.2510611 68.39904388 6.25764465 67.42338562 C6.27743881 66.54269913 6.29723297 65.66201263 6.31762695 64.75463867 C6.32873001 63.97964523 6.33983307 63.20465179 6.35127258 62.40617371 C6.86769755 59.77543208 7.55833976 58.90840747 9.75 57.375 C12.06660461 56.98059082 12.06660461 56.98059082 14.82543945 56.95507812 C15.86114578 56.93916626 16.89685211 56.92325439 17.96394348 56.90686035 C19.08572495 56.90665894 20.20750641 56.90645752 21.36328125 56.90625 C23.10498848 56.89482971 23.10498848 56.89482971 24.88188171 56.88317871 C27.34742077 56.87235756 29.81300574 56.86953273 32.27856445 56.87402344 C36.01008483 56.87498647 39.73948475 56.83357893 43.47070312 56.7890625 C61.59994968 56.69730413 75.19307858 58.12282499 88.67578125 71.25 C94.46973307 77.40374754 97.69182835 84.58427312 100.75 92.375 C104.24705129 91.09067661 104.24705129 91.09067661 107.75 89.375 C109.76349338 83.33451985 109.84109506 76.54046945 107.76171875 70.5078125 C104.25072523 64.00011183 99.74035768 59.83487705 92.75 57.375 C88.60831404 56.55669773 84.42559447 56.06192058 80.23608398 55.55688477 C72.41776545 54.53984981 64.82170956 52.45615668 59.06640625 46.6875 C57.82376769 45.13964823 57.82376769 45.13964823 55.75 45.375 C55.40388672 44.54742187 55.40388672 44.54742187 55.05078125 43.703125 C48.02954413 31.1365865 33.37330592 22.92556707 20.0793457 18.82592773 C12.11514138 16.65683466 3.9600016 16.47952548 -4.25 16.375 Z M21.75 72.375 C21.6999636 76.7308609 21.66398466 81.0865624 21.64013672 85.44262695 C21.63017817 86.91954468 21.61660639 88.39644322 21.59912109 89.87329102 C21.43764056 103.87935295 21.65807743 116.17513693 31.34765625 127.19140625 C39.67329791 135.04467108 50.39951602 136.51696982 61.43359375 136.47265625 C62.13396255 136.4712413 62.83433136 136.46982635 63.55592346 136.46836853 C65.76649466 136.46282477 67.97696004 136.45028326 70.1875 136.4375 C71.69726415 136.43247771 73.20702991 136.42791609 74.71679688 136.42382812 C78.39456493 136.41287387 82.07227212 136.3956489 85.75 136.375 C85.8000364 132.0191391 85.83601534 127.6634376 85.85986328 123.30737305 C85.86982183 121.83045532 85.88339361 120.35355678 85.90087891 118.87670898 C86.06235944 104.87064705 85.84192257 92.57486307 76.15234375 81.55859375 C67.82670209 73.70532892 57.10048398 72.23303018 46.06640625 72.27734375 C45.36603745 72.2787587 44.66566864 72.28017365 43.94407654 72.28163147 C41.73350534 72.28717523 39.52303996 72.29971674 37.3125 72.3125 C35.80273585 72.31752229 34.29297009 72.32208391 32.78320312 72.32617188 C29.10543507 72.33712613 25.42772788 72.3543511 21.75 72.375 Z M105.8125 110.125 C101.98887654 116.15010363 101.46029664 121.8886241 101.625 128.8125 C101.63402344 129.54404297 101.64304687 130.27558594 101.65234375 131.02929688 C101.67563847 132.81134298 101.7114981 134.59321759 101.75 136.375 C115.8073298 137.37277909 115.8073298 137.37277909 128.328125 132.0859375 C133.66501463 126.35031474 134.0509393 119.33371769 133.875 111.9375 C133.86597656 111.20595703 133.85695313 110.47441406 133.84765625 109.72070312 C133.82436153 107.93865702 133.7885019 106.15678241 133.75 104.375 C118.57770888 103.26915281 118.57770888 103.26915281 105.8125 110.125 Z M-130.625 131.625 C-137.08963187 140.05473304 -138.41348398 148.93962822 -137.25 159.375 C-135.35323886 167.5232165 -130.87895114 173.93610057 -124.18359375 178.91015625 C-113.29612507 185.59066029 -100.41959562 184.65601783 -88.1105957 184.60205078 C-86.29618842 184.60148575 -84.48178068 184.60180503 -82.66737366 184.60293579 C-77.77144631 184.6035067 -72.87561811 184.59179499 -67.97971368 184.57778788 C-62.85213751 184.56523666 -57.72455876 184.56410657 -52.5969696 184.56173706 C-42.90042231 184.55553516 -33.20392042 184.53914186 -23.50739306 184.51903808 C-12.46261446 184.49663885 -1.41783362 184.48567555 9.62696207 184.47564721 C32.33466735 184.45477444 55.04232921 184.41921805 77.75 184.375 C77.75 189.655 77.75 194.935 77.75 200.375 C-1.45 200.375 -80.65 200.375 -162.25 200.375 C-161.48248404 211.41239349 -161.48248404 211.41239349 -160.43383789 222.40258789 C-160.35887589 223.08910431 -160.28391388 223.77562073 -160.2066803 224.48294067 C-159.96496566 226.68818453 -159.7191771 228.89294487 -159.47265625 231.09765625 C-159.29947792 232.65750222 -159.12633719 234.21735236 -158.95323181 235.77720642 C-158.5930529 239.01536267 -158.23045518 242.253238 -157.86645508 245.4909668 C-157.40132533 249.63255831 -156.94544059 253.77511365 -156.49166203 257.91796207 C-156.13871077 261.12613383 -155.77937851 264.33356752 -155.41827202 267.54083061 C-155.24731059 269.06874268 -155.07867595 270.59691703 -154.91246223 272.12535286 C-154.68021231 274.25503937 -154.43898922 276.38352963 -154.19555664 278.51196289 C-154.06089493 279.71994034 -153.92623322 280.92791779 -153.78749084 282.17250061 C-153.27999579 285.19627789 -152.5954137 287.62726033 -151.25 290.375 C-149.50914361 291.67063124 -149.50914361 291.67063124 -147.4375 292.4375 C-139.71997913 295.98338797 -136.05238877 300.86648547 -132.25 308.375 C-131.27703567 311.51417885 -131.10115017 314.42138843 -131.0390625 317.69921875 C-131.01070312 318.72853516 -130.98234375 319.75785156 -130.953125 320.81835938 C-130.90151597 322.96142439 -130.85710856 325.10467635 -130.8203125 327.24804688 C-130.57047469 337.84004524 -130.57047469 337.84004524 -125.79907227 346.99487305 C-121.0564095 351.05642018 -117.85344037 351.73098842 -111.7890625 351.65234375 C-108.02539598 351.24123556 -106.03209813 349.8921364 -103.25 347.375 C-99.02673015 342.01030587 -98.15597172 337.67261614 -98.07421875 330.98828125 C-98.05037109 329.96669922 -98.02652344 328.94511719 -98.00195312 327.89257812 C-97.95938111 325.77558802 -97.92791752 323.65834196 -97.90820312 321.54101562 C-97.6448168 311.77122072 -95.36553138 303.32881476 -88.25 296.375 C-79.00955504 289.50684319 -69.49066047 288.20635991 -58.25 289.375 C-50.11907087 291.2985574 -44.09810817 295.31537887 -39.5 302.3125 C-34.58712511 310.28773358 -34.8894476 318.26253472 -34.77148438 327.34570312 C-34.55511731 337.88724188 -34.55511731 337.88724188 -29.79882812 346.99536133 C-25.05589872 351.05631498 -21.85337339 351.73098755 -15.7890625 351.65234375 C-12.02539598 351.24123556 -10.03209813 349.8921364 -7.25 347.375 C-3.02673015 342.01030587 -2.15597172 337.67261614 -2.07421875 330.98828125 C-2.05037109 329.96669922 -2.02652344 328.94511719 -2.00195312 327.89257812 C-1.95938111 325.77558802 -1.92791752 323.65834196 -1.90820312 321.54101562 C-1.6448168 311.77122072 0.63446862 303.32881476 7.75 296.375 C16.99044496 289.50684319 26.50933953 288.20635991 37.75 289.375 C45.88092913 291.2985574 51.90189183 295.31537887 56.5 302.3125 C61.41287489 310.28773358 61.1105524 318.26253472 61.22851562 327.34570312 C61.44488269 337.88724188 61.44488269 337.88724188 66.20117188 346.99536133 C70.94410128 351.05631498 74.14662661 351.73098755 80.2109375 351.65234375 C83.97460402 351.24123556 85.96790187 349.8921364 88.75 347.375 C92.97326985 342.01030587 93.84402828 337.67261614 93.92578125 330.98828125 C93.94962891 329.96669922 93.97347656 328.94511719 93.99804688 327.89257812 C94.04061889 325.77558802 94.07208248 323.65834196 94.09179688 321.54101562 C94.3551832 311.77122072 96.63446862 303.32881476 103.75 296.375 C112.99044496 289.50684319 122.50933953 288.20635991 133.75 289.375 C141.88092913 291.2985574 147.90189183 295.31537887 152.5 302.3125 C156.93104374 309.505561 157.14200936 316.50795625 157.375 324.75 C157.41367187 325.86761719 157.45234375 326.98523438 157.4921875 328.13671875 C157.58606555 330.88265161 157.67174911 333.62858476 157.75 336.375 C158.08 336.375 158.41 336.375 158.75 336.375 C158.96551262 334.50722397 158.96551262 334.50722397 159.18537903 332.60171509 C168.58052063 251.17715454 168.58052063 251.17715454 168.94671154 248.00496483 C169.18542901 245.93511186 169.42370845 243.86520833 169.66152668 241.79525185 C170.2967506 236.27160374 170.94180469 230.74929454 171.59896851 225.22821045 C171.73823352 224.04831732 171.87749853 222.86842419 172.0209837 221.65277672 C172.2884463 219.38809966 172.55858424 217.1237364 172.83183765 214.85975075 C172.95212173 213.83662474 173.0724058 212.81349873 173.19633484 211.7593689 C173.3034463 210.86249044 173.41055777 209.96561199 173.52091503 209.0415554 C173.76827312 206.16230033 173.75 203.26486087 173.75 200.375 C147.35 200.375 120.95 200.375 93.75 200.375 C93.75 195.095 93.75 189.815 93.75 184.375 C95.35488281 184.39820313 96.95976562 184.42140625 98.61328125 184.4453125 C100.76301614 184.46408748 102.91275611 184.48228581 105.0625 184.5 C106.11501953 184.51675781 107.16753906 184.53351563 108.25195312 184.55078125 C120.69221055 184.62733668 130.96869406 183.21920243 140.56640625 174.77734375 C147.65131783 167.26627208 149.36527221 158.76357376 149.08984375 148.671875 C148.65090276 144.41364284 147.59577489 141.22036435 145.75 137.375 C145.069375 138.07625 144.38875 138.7775 143.6875 139.5 C142.71323607 140.46331715 141.73359431 141.42121157 140.75 142.375 C140.21890625 142.890625 139.6878125 143.40625 139.140625 143.9375 C138.57859375 144.453125 138.0165625 144.96875 137.4375 145.5 C136.92574219 145.97695312 136.41398437 146.45390625 135.88671875 146.9453125 C130.09535973 150.82033517 124.32263531 151.82269703 117.53662109 151.79492188 C116.36891174 151.80762619 116.36891174 151.80762619 115.1776123 151.82058716 C112.62605034 151.84381775 110.07509686 151.84498224 107.5234375 151.84375 C105.72994757 151.850863 103.93645988 151.85856364 102.14297485 151.86682129 C98.3890348 151.88023642 94.6353049 151.88184961 90.88134766 151.87597656 C86.10707755 151.87010141 81.33383172 151.90059492 76.55975914 151.94109344 C72.85501827 151.96714968 69.15051763 151.96983142 65.44569778 151.96620178 C63.68769394 151.96787818 61.92967717 151.97737549 60.17176437 151.99534607 C43.79337831 152.14429351 30.99370428 149.34356346 18.859375 137.53515625 C15.41187083 133.87030943 12.91069947 130.04680041 10.54296875 125.609375 C10.01598389 124.62678711 9.48899902 123.64419922 8.94604492 122.63183594 C8.5513501 121.88708008 8.15665527 121.14232422 7.75 120.375 C-6.92375972 120.32814686 -21.59750944 120.2929462 -36.27132893 120.27137566 C-43.08561526 120.26109103 -49.89985495 120.24708493 -56.71411133 120.22412109 C-63.29527362 120.20195347 -69.87640034 120.1904171 -76.45760155 120.18524551 C-78.96328683 120.18156188 -81.46896958 120.17436876 -83.97463417 120.16353989 C-87.49527243 120.14893532 -91.01571308 120.14702582 -94.53637695 120.14794922 C-95.56281311 120.14075867 -96.58924927 120.13356812 -97.64678955 120.12615967 C-110.34510548 120.16199113 -121.5692551 122.02454864 -130.625 131.625 Z M-77.25 309.375 C-81.47326985 314.73969413 -82.34402828 319.07738386 -82.42578125 325.76171875 C-82.44962891 326.78330078 -82.47347656 327.80488281 -82.49804688 328.85742188 C-82.54061889 330.97441198 -82.57208248 333.09165804 -82.59179688 335.20898438 C-82.8551832 344.97877928 -85.13446862 353.42118524 -92.25 360.375 C-101.49044496 367.24315681 -111.00933953 368.54364009 -122.25 367.375 C-130.46278795 365.43207702 -136.48131842 361.40130476 -141 354.25 C-141.75290425 352.96002405 -142.50313573 351.66848233 -143.25 350.375 C-143.91 349.385 -144.57 348.395 -145.25 347.375 C-144.67690965 362.97270637 -142.78164335 378.43977832 -140.99468994 393.93341064 C-140.66610758 396.79246242 -140.34218249 399.65203368 -140.01837921 402.51163006 C-139.70405874 405.28538282 -139.38795794 408.05893016 -139.07121277 410.832407 C-138.84868332 412.78101938 -138.62678808 414.72970416 -138.40490723 416.6783905 C-138.26806519 417.86435318 -138.13122314 419.05031586 -137.99023438 420.2722168 C-137.87111694 421.30904099 -137.75199951 422.34586517 -137.62927246 423.41410828 C-137.24529183 426.41175556 -136.74683676 429.39397944 -136.25 432.375 C-42.53 432.375 51.19 432.375 147.75 432.375 C151.917409 397.89385453 151.917409 397.89385453 155.75 363.375 C153.77 361.725 151.79 360.075 149.75 358.375 C148.140625 356.34765625 148.140625 356.34765625 147 354.4375 C146.61328125 353.80972656 146.2265625 353.18195313 145.828125 352.53515625 C142.07169936 345.00869473 142.37854251 337.64777358 142.27148438 329.40429688 C142.05511731 318.86275812 142.05511731 318.86275812 137.29882812 309.75463867 C132.55589872 305.69368502 129.35337339 305.01901245 123.2890625 305.09765625 C119.52539598 305.50876444 117.53209813 306.8578636 114.75 309.375 C110.52673015 314.73969413 109.65597172 319.07738386 109.57421875 325.76171875 C109.55037109 326.78330078 109.52652344 327.80488281 109.50195312 328.85742188 C109.45938111 330.97441198 109.42791752 333.09165804 109.40820312 335.20898438 C109.1448168 344.97877928 106.86553138 353.42118524 99.75 360.375 C90.50955504 367.24315681 80.99066047 368.54364009 69.75 367.375 C61.61907087 365.4514426 55.59810817 361.43462113 51 354.4375 C46.08712511 346.46226642 46.3894476 338.48746528 46.27148438 329.40429688 C46.05511731 318.86275812 46.05511731 318.86275812 41.29882812 309.75463867 C36.55589872 305.69368502 33.35337339 305.01901245 27.2890625 305.09765625 C23.52539598 305.50876444 21.53209813 306.8578636 18.75 309.375 C14.52673015 314.73969413 13.65597172 319.07738386 13.57421875 325.76171875 C13.55037109 326.78330078 13.52652344 327.80488281 13.50195312 328.85742188 C13.45938111 330.97441198 13.42791752 333.09165804 13.40820312 335.20898438 C13.1448168 344.97877928 10.86553138 353.42118524 3.75 360.375 C-5.49044496 367.24315681 -15.00933953 368.54364009 -26.25 367.375 C-34.38092913 365.4514426 -40.40189183 361.43462113 -45 354.4375 C-49.91287489 346.46226642 -49.6105524 338.48746528 -49.72851562 329.40429688 C-49.94488269 318.86275812 -49.94488269 318.86275812 -54.70117188 309.75463867 C-59.44410128 305.69368502 -62.64662661 305.01901245 -68.7109375 305.09765625 C-72.47460402 305.50876444 -74.46790187 306.8578636 -77.25 309.375 Z M-149.25 313.375 C-148.52848878 325.89841507 -148.52848878 325.89841507 -147.25 338.375 C-146.92 338.375 -146.59 338.375 -146.25 338.375 C-146.19562995 335.52057247 -146.15615026 332.66719924 -146.125 329.8125 C-146.10824219 329.01263672 -146.09148437 328.21277344 -146.07421875 327.38867188 C-146.03276018 322.30999665 -146.60943925 318.18688094 -148.25 313.375 C-148.58 313.375 -148.91 313.375 -149.25 313.375 Z M-146.25 344.375 C-145.25 346.375 -145.25 346.375 -145.25 346.375 Z M-134.25 448.375 C-131.77602579 459.50788397 -127.99650897 467.96968558 -118.25 474.375 C-108.76486555 479.29653202 -99.97588152 480.52961985 -89.46549988 480.50871277 C-88.19282028 480.5121111 -88.19282028 480.5121111 -86.89442998 480.51557809 C-84.07047502 480.5218742 -81.2465686 480.52109156 -78.42260742 480.52026367 C-76.39003945 480.52325789 -74.35747205 480.52666103 -72.3249054 480.53044128 C-66.81654871 480.53925844 -61.30820757 480.54161843 -55.7998445 480.54225707 C-52.35504416 480.54296884 -48.91024775 480.54510556 -45.46544838 480.54775429 C-33.43814468 480.55699995 -21.41085205 480.56109012 -9.38354492 480.56030273 C1.8124371 480.55970206 13.00837093 480.57025387 24.20434076 480.5860464 C33.83007432 480.59913827 43.45579217 480.60448594 53.08153456 480.60384732 C58.82462014 480.60359283 64.56766285 480.60641705 70.31073952 480.61702538 C75.71407397 480.62673413 81.11732484 480.6267665 86.52066231 480.61950874 C88.49788282 480.61846637 90.47510861 480.62080503 92.4523201 480.6268692 C108.3981657 480.67258819 123.70705012 480.6384467 136.15234375 469.1640625 C141.94443962 462.67804806 143.84270506 456.95782725 145.75 448.375 C53.35 448.375 -39.05 448.375 -134.25 448.375 Z " fill="#000000" transform="translate(194.25,7.625)"/>
<path d="M0 0 C8.37596595 4.99455747 13.47750812 11.86165695 16.109375 21.2578125 C16.31064203 24.15766789 16.41298003 26.95660522 16.41015625 29.85546875 C16.41566498 30.72296249 16.42117371 31.59045624 16.42684937 32.48423767 C16.43881171 35.42974889 16.43200116 38.37479762 16.421875 41.3203125 C16.42071686 42.36566162 16.41955872 43.41101074 16.41836548 44.48803711 C16.35081839 76.22395849 14.8027718 107.93274733 13.4370842 139.63322926 C12.85329725 153.18702378 12.28658671 166.74153973 11.72357273 180.29621124 C11.52698798 185.01976359 11.32604693 189.74310381 11.12146473 194.46631622 C10.1790262 215.85334441 10.1790262 215.85334441 10.109375 237.2578125 C10.92784912 237.49274414 11.74632324 237.72767578 12.58959961 237.96972656 C25.10640747 241.64760112 36.37372873 249.34544473 42.90161133 260.90087891 C48.04681863 270.94167763 48.74419903 280.41943251 48.63085938 291.46459961 C48.60955364 293.92468561 48.63067885 296.38180328 48.65625 298.84179688 C48.70693121 327.25563656 37.29217577 354.42984776 17.734375 375.0703125 C7.00320112 385.37149161 -3.58562048 389.77388603 -18.22460938 389.67993164 C-31.54349606 389.25713184 -42.76937102 381.64217958 -51.890625 372.2578125 C-70.56140127 350.20131448 -80.0115903 323.73471558 -80.24072266 294.97241211 C-80.25718889 293.46672 -80.28435443 291.96110299 -80.32275391 290.45581055 C-80.66159366 277.03922957 -78.96008056 264.88792501 -69.83203125 254.28125 C-61.46764788 245.56344198 -53.54450161 240.52689439 -41.890625 237.2578125 C-41.82381834 226.97652946 -41.98629914 216.73918512 -42.44140625 206.46533203 C-42.50083729 205.06629767 -42.55993917 203.6672493 -42.6187439 202.26818848 C-42.74468563 199.28371693 -42.87252374 196.29933516 -43.00180054 193.31500626 C-43.20838082 188.53669512 -43.40812378 183.75811172 -43.60668945 178.97946167 C-44.17179804 165.39854568 -44.74169973 151.81784861 -45.32714844 138.23779297 C-48.15186755 72.60563814 -48.15186755 72.60563814 -48.30947876 45.27096176 C-48.32170039 43.16798378 -48.33985799 41.06503004 -48.36459351 38.96216202 C-48.60716651 15.43979129 -48.60716651 15.43979129 -39.59375 5.7890625 C-28.99673947 -3.73852495 -12.95346121 -6.21592266 0 0 Z M-26.890625 18.2578125 C-35.83282064 29.61681777 -31.83740875 48.88317633 -31.24804688 62.6784668 C-31.1787841 64.35787754 -31.10982884 66.03730099 -31.04115295 67.71673584 C-30.89398937 71.3020304 -30.74488314 74.88723672 -30.59425354 78.47238731 C-30.35493874 84.17330555 -30.12130006 89.8744483 -29.8885498 95.57563782 C-29.22623312 111.77767469 -28.55596853 127.97937928 -27.88134766 144.1809082 C-27.50778561 153.15349586 -27.13862296 162.12625478 -26.77385569 171.09920436 C-26.58158927 175.82341611 -26.38713382 180.54751317 -26.18699646 185.27139854 C-25.45626967 202.54400607 -24.75635389 219.81570824 -24.60742188 237.10473633 C-24.58804817 238.30745776 -24.56867447 239.5101792 -24.54871368 240.74934673 C-24.54709984 241.83747567 -24.54548599 242.92560461 -24.54382324 244.04670715 C-24.53785881 244.98784268 -24.53189438 245.92897821 -24.52574921 246.898633 C-24.890625 249.2578125 -24.890625 249.2578125 -26.21088409 251.03736401 C-28.88499161 252.98028894 -31.71791777 253.08651244 -34.953125 253.5703125 C-44.19396871 255.18476384 -51.78003596 258.7642254 -57.64453125 266.2734375 C-66.52379852 280.41346187 -64.94307792 299.5848907 -61.64208984 315.33154297 C-57.71066658 331.9032385 -50.20242291 347.48133957 -38.890625 360.2578125 C-38.32601562 360.91652344 -37.76140625 361.57523437 -37.1796875 362.25390625 C-31.33464804 368.63405496 -24.6352557 372.46747061 -15.890625 372.8828125 C-7.35043222 372.4986136 0.21422176 368.40118272 6.109375 362.2578125 C12.70728534 354.99456667 17.54732386 346.88156079 22.109375 338.2578125 C22.59535156 337.34128906 23.08132813 336.42476563 23.58203125 335.48046875 C32.12827617 318.10049055 36.15659266 292.9781466 30.109375 274.2578125 C26.20806461 265.69487245 21.01762304 259.76154662 12.359375 256.0078125 C7.79970807 254.31102986 3.27363235 253.46445841 -1.54296875 252.84765625 C-4.32758362 252.14802755 -5.15992493 251.52632466 -6.890625 249.2578125 C-7.25550079 246.80894375 -7.25550079 246.80894375 -7.23742676 243.83262634 C-7.23581291 242.69998384 -7.23419907 241.56734133 -7.23253632 240.40037632 C-7.21316261 239.15055438 -7.19378891 237.90073244 -7.17382812 236.61303711 C-7.16218662 235.27434438 -7.15107504 233.93564695 -7.14044952 232.59694576 C-6.96266102 215.51285805 -6.20074485 198.44004957 -5.47712135 181.37237668 C-5.27609476 176.59512333 -5.08270238 171.81756058 -4.8885498 167.0400238 C-4.52129789 158.02762661 -4.14842585 149.0154729 -3.77294683 140.00341505 C-3.09980644 123.84582118 -2.4337255 107.68793821 -1.77385569 91.52979702 C-1.54288794 85.88050025 -1.30856071 80.23135639 -1.07137299 74.58231747 C-0.9241832 71.06358105 -0.77951542 67.54474388 -0.6354351 64.02587891 C-0.56879998 62.41148854 -0.50112352 60.79714071 -0.43225288 59.18284416 C2.08529842 37.69926981 2.08529842 37.69926981 -4.35546875 18.640625 C-9.07182459 14.55849794 -12.30134454 13.90200771 -18.3515625 13.98046875 C-22.11522902 14.39157694 -24.10852687 15.7406761 -26.890625 18.2578125 Z " fill="#000000" transform="translate(455.890625,114.7421875)"/>
</svg>
