<?xml version="1.0" encoding="UTF-8"?>
<svg version="1.1" xmlns="http://www.w3.org/2000/svg" width="512" height="512">
<path d="M0 0 C0.73454407 -0.0080365 1.46908813 -0.016073 2.22589111 -0.02435303 C40.22737678 -0.33937916 78.39917309 14.35448635 106.19921875 40.2890625 C108.29204366 42.23944383 110.44048541 44.09131367 112.625 45.9375 C138.53919018 68.70275472 152.5641962 103.15908595 158.4375 136.375 C158.69660156 137.72573608 158.69660156 137.72573608 158.9609375 139.10375977 C159.49125705 142.74400142 159.6167849 146.31436297 159.640625 149.984375 C159.64768463 150.70416534 159.65474426 151.42395569 159.66201782 152.16555786 C159.88753217 181.9282439 159.88753217 181.9282439 156.4375 195.375 C156.13948486 196.59751465 156.13948486 196.59751465 155.83544922 197.84472656 C147.70647717 230.66507063 130.07843818 261.98653809 103.4375 283.375 C102.49519531 284.14328125 101.55289062 284.9115625 100.58203125 285.703125 C72.40475973 308.27999948 40.83459932 317.15851824 5.565979 322.07678223 C-22.74511671 325.95685137 -22.74511671 325.95685137 -50.5625 332.375 C-51.2436084 332.56529785 -51.9247168 332.7555957 -52.62646484 332.95166016 C-69.88265962 337.9032897 -84.92471288 346.12586925 -98 358.4375 C-109.77767884 369.31177734 -121.83224777 373.7343024 -137.75 373.67578125 C-141.5625 373.375 -141.5625 373.375 -144.09564209 372.49201965 C-147.50521362 371.45543693 -149.996881 371.06629464 -153.5625 371.375 C-158.73645548 374.5470521 -162.63275155 378.81090441 -166.765625 383.2109375 C-167.97849508 384.44994457 -169.19451213 385.68587818 -170.41351318 386.91885376 C-173.60185632 390.16045869 -176.74592203 393.44185874 -179.88238525 396.73358154 C-183.09496145 400.08980581 -186.34792702 403.40637077 -189.59765625 406.7265625 C-195.95928276 413.23799103 -202.27480806 419.79220506 -208.5625 426.375 C-208.08401611 427.11613037 -207.60553223 427.85726074 -207.11254883 428.62084961 C-206.48372803 429.60061768 -205.85490723 430.58038574 -205.20703125 431.58984375 C-204.58417236 432.55784912 -203.96131348 433.52585449 -203.31958008 434.52319336 C-195.61177579 447.03324782 -193.80952871 460.56467297 -196.6875 474.9375 C-199.95847405 487.71569768 -207.11280291 498.0723879 -218.30078125 505.0625 C-230.82829156 512.33235054 -244.26209711 514.74046209 -258.65722656 511.97216797 C-268.13527829 509.37383136 -277.0731946 503.71816137 -283.5625 496.375 C-284.11679687 495.76269531 -284.67109375 495.15039062 -285.2421875 494.51953125 C-293.12509025 485.23259217 -296.75951757 474.10658107 -296.625 462 C-296.61597656 460.94039063 -296.60695313 459.88078125 -296.59765625 458.7890625 C-296.58605469 457.99242187 -296.57445312 457.19578125 -296.5625 456.375 C-297.28953125 456.40980469 -298.0165625 456.44460938 -298.765625 456.48046875 C-312.79540561 456.85819361 -325.5421939 452.99234341 -336.62109375 444.21875 C-344.32561645 436.90177874 -351.82256628 425.12765051 -352.73950195 414.28125 C-353.27292052 393.33553936 -353.27292052 393.33553936 -348.5625 384.375 C-348.17707031 383.5809375 -347.79164063 382.786875 -347.39453125 381.96875 C-341.24916057 370.0359914 -331.30179472 361.73837289 -318.5625 357.375 C-304.86138307 353.411867 -290.23821579 354.56152407 -277.625 361.3125 C-273.83070068 363.51166885 -270.20718602 365.93779824 -266.5625 368.375 C-259.31565478 361.45302679 -252.10743786 354.49331563 -244.9455471 347.48341751 C-241.61839416 344.2292293 -238.27955346 340.98928258 -234.91015625 337.77880859 C-231.65666122 334.67782623 -228.43895205 331.54350784 -225.24275589 328.38353729 C-224.01966893 327.18625148 -222.78435176 326.0013251 -221.53681564 324.82953644 C-214.42403752 318.54535112 -214.42403752 318.54535112 -211.27072144 310.02561951 C-211.77207094 306.97990904 -212.55163902 304.28422699 -213.5625 301.375 C-215.44639072 286.86851986 -211.36985805 273.85481974 -202.5625 262.375 C-200.95982768 260.58393408 -199.33376896 258.81357801 -197.6875 257.0625 C-171.05486387 228.68678418 -166.89356166 187.77824689 -161.63720703 151.00634766 C-156.32809671 113.91372949 -145.91204823 80.5458258 -119.73828125 52.703125 C-118.04316189 50.88931685 -116.47003465 49.0727029 -114.9375 47.125 C-111.77650482 43.46490031 -108.29338429 40.44248073 -104.5625 37.375 C-103.65886719 36.6221875 -102.75523437 35.869375 -101.82421875 35.09375 C-82.14403508 19.28958725 -59.92924461 9.39535493 -35.5625 3.375 C-34.86060547 3.19420898 -34.15871094 3.01341797 -33.43554688 2.82714844 C-22.44025045 0.10269814 -11.26418273 0.06858085 0 0 Z M-36.5625 25.375 C-37.3265918 25.58930664 -38.09068359 25.80361328 -38.87792969 26.02441406 C-59.0672167 31.83020736 -76.60385593 41.7482126 -92.5625 55.375 C-93.66271484 56.28958984 -93.66271484 56.28958984 -94.78515625 57.22265625 C-127.67216881 85.04037979 -136.82446481 124.65582192 -142.53930664 165.27026367 C-148.04049359 204.06667057 -155.3307875 242.6421919 -182.875 272.125 C-189.69759059 279.46670075 -192.98394907 286.53985819 -192.8359375 296.58984375 C-191.98688619 305.23803784 -188.24259436 312.79769161 -181.5625 318.375 C-177.26532815 321.04455842 -173.07469124 323.04506737 -168.125 324.125 C-165.5625 325.375 -165.5625 325.375 -164.74609375 327.17578125 C-164.27504545 328.73427819 -163.82299733 330.29860208 -163.38671875 331.8671875 C-160.85491748 339.57058284 -155.52167355 345.39103276 -148.5625 349.375 C-141.00677596 352.9820726 -133.15672978 353.53230947 -125.0625 351.4375 C-120.22351453 349.62711033 -116.9818594 346.42411326 -113.28125 342.90625 C-84.48038847 316.09165478 -45.98748257 308.13692406 -8.203125 302.72265625 C-7.18601944 302.57577362 -6.16891388 302.42889099 -5.12098694 302.27755737 C-0.01686243 301.54202884 5.08852257 300.82332062 10.19946289 300.13671875 C40.96775767 295.8746652 67.85214014 285.95438262 91.4375 265.375 C92.16453125 264.76914062 92.8915625 264.16328125 93.640625 263.5390625 C113.74199859 246.58332371 127.20127208 222.10389298 134.25 197.0625 C134.44480957 196.37075684 134.63961914 195.67901367 134.84033203 194.96630859 C137.85080387 183.6697451 138.84681296 172.61239899 138.8125 160.9375 C138.81195618 160.23801239 138.81141235 159.53852478 138.81085205 158.81784058 C138.67381363 120.30291699 122.871748 87.03001256 96.4375 59.375 C78.61083825 41.77351714 55.52669182 30.37729032 31.4375 24.375 C30.34566406 24.07464844 29.25382813 23.77429688 28.12890625 23.46484375 C7.71141783 18.6567824 -16.47955723 19.59554604 -36.5625 25.375 Z M-203.72372437 335.29849243 C-204.29313751 335.87666718 -204.86255066 336.45484192 -205.44921875 337.05053711 C-206.35192001 337.95520973 -206.35192001 337.95520973 -207.27285767 338.87815857 C-209.26986096 340.88167629 -211.25980522 342.8920646 -213.25 344.90234375 C-214.63189824 346.29050871 -216.01431043 347.67816221 -217.3972168 349.06532288 C-221.04375709 352.72519504 -224.68469899 356.39058275 -228.32409668 360.05755615 C-234.14898318 365.92548525 -239.98052764 371.7867788 -245.81533813 377.64483833 C-247.85738816 379.69714347 -249.89600779 381.75281208 -251.93432617 383.80882263 C-253.18136288 385.06268557 -254.42850863 386.31644009 -255.67578125 387.57006836 C-256.2451944 388.14621887 -256.81460754 388.72236938 -257.40127563 389.315979 C-260.96300965 392.88806389 -262.83891286 394.52993569 -267.875 394.75 C-271.55074193 394.70876572 -272.34026729 394.54784766 -275.375 392.1875 C-276.74363572 390.42782551 -278.09994159 388.65841121 -279.4375 386.875 C-284.85556574 380.50080501 -291.74405669 377.13716031 -300.0078125 376.0546875 C-308.62710491 375.64939162 -316.97132589 378.83242177 -323.5625 384.375 C-330.55780249 393.16957501 -332.58908258 401.20104351 -331.5625 412.375 C-329.85366319 420.08639649 -325.81251875 425.61883459 -319.5625 430.375 C-312.12109095 434.59057656 -304.34883581 436.84895745 -295.87890625 434.69140625 C-291.11970028 433.1006037 -287.23309627 431.34069274 -283.3125 428.1875 C-279.78021695 425.34725608 -277.22176464 424.28871732 -272.5625 424.375 C-268.99852186 425.58540767 -267.16232658 426.43614101 -265.125 429.625 C-264.36300021 433.35033231 -264.56046347 435.67999029 -265.5625 439.375 C-266.83203125 441.21484375 -266.83203125 441.21484375 -268.375 443.125 C-273.08290163 448.97868009 -276.42738659 456.63097884 -275.94140625 464.28125 C-274.22780587 473.75021705 -270.20729614 481.14404065 -262.47265625 486.94140625 C-255.10638852 491.75622929 -248.29559926 492.10777729 -239.5625 491.375 C-231.44445743 489.26343367 -225.39753939 485.31752686 -220.69921875 478.3515625 C-216.39265207 470.8631682 -215.16372044 462.89491505 -217.2890625 454.5078125 C-220.21095353 445.7421394 -224.34780757 440.94617591 -231.890625 435.671875 C-233.91722542 434.09983916 -234.44868386 432.99840204 -234.90625 430.4921875 C-235.13507993 427.20847795 -235.24727253 424.45075942 -233.43711853 421.60705566 C-232.90993729 421.03869995 -232.38275604 420.47034424 -231.83959961 419.88476562 C-231.20013397 419.19342529 -230.56066833 418.50208496 -229.90182495 417.78979492 C-224.8627792 412.58818234 -219.7611881 407.45329561 -214.62890625 402.34375 C-213.38315756 401.09986987 -212.13763205 399.85576619 -210.89231873 398.6114502 C-207.63788764 395.36080985 -204.38046319 392.11318572 -201.12237549 388.86621094 C-197.78873132 385.54285548 -194.45796923 382.2166142 -191.12695312 378.890625 C-184.60826354 372.38261191 -178.08640347 365.87778617 -171.5625 359.375 C-173.09021842 356.27366604 -174.7620635 353.32771586 -176.5625 350.375 C-179.46771532 345.61044687 -179.46771532 345.61044687 -180.41796875 343.25 C-182.0563599 340.56594624 -184.08496019 339.76435677 -186.875 338.375 C-190.81820477 336.34146246 -194.1533344 334.23430018 -197.5625 331.375 C-200.57168255 331.375 -201.69742274 333.27725783 -203.72372437 335.29849243 Z " fill="#000000" transform="translate(352.5625,-0.375)"/>
<path d="M0 0 C2.89812476 2.6807654 3.90247931 4.66655383 4.19140625 8.6171875 C2.93719345 38.49025594 -13.17782739 66.06524885 -34.15625 86.4609375 C-52.01832986 102.40922309 -78.32574498 117.37776665 -102.9375 116.40625 C-105 116 -105 116 -108.0625 114 C-110.47008168 110.27213159 -111.39987498 107.43339651 -111 103 C-109.63297937 99.54990032 -108.47736695 97.67126395 -105.03125 96.10546875 C-102.37372456 95.27720666 -99.71347639 94.62213124 -97 94 C-81.03478827 90.30298669 -66.73356277 84.5478016 -54 74 C-53.15050781 73.30132812 -52.30101562 72.60265625 -51.42578125 71.8828125 C-33.8158311 56.72692891 -23.89744752 37.35058697 -18.8984375 14.94921875 C-16.29615184 3.33796319 -16.29615184 3.33796319 -13.0625 0 C-8.12093696 -2.39590935 -5.22518747 -2.14605914 0 0 Z " fill="#000000" transform="translate(468,163)"/>
<path d="M0 0 C2.09783063 2.90468856 2.55462285 4.66076522 2.625 8.25 C1.1750457 12.59986291 0.47615325 14.6825645 -3.375 17.25 C-7.96771203 17.98965025 -11.39962089 17.85961194 -15.375 15.375 C-18.67788446 11.86568526 -18.77172101 9.18562438 -18.7265625 4.51171875 C-18.375 2.25 -18.375 2.25 -16.125 -0.75 C-10.51989631 -4.82643905 -5.71336599 -4.20984862 0 0 Z " fill="#000000" transform="translate(468.375,124.75)"/>
<path d="M0 0 C2.09783063 2.90468856 2.55462285 4.66076522 2.625 8.25 C1.1750457 12.59986291 0.47615325 14.6825645 -3.375 17.25 C-7.96771203 17.98965025 -11.39962089 17.85961194 -15.375 15.375 C-18.67788446 11.86568526 -18.77172101 9.18562438 -18.7265625 4.51171875 C-18.375 2.25 -18.375 2.25 -16.125 -0.75 C-10.51989631 -4.82643905 -5.71336599 -4.20984862 0 0 Z " fill="#000000" transform="translate(348.375,64.75)"/>
<path d="M0 0 C2.05346377 2.84325753 2.48232112 4.75436756 2.625 8.25 C1.58440734 12.22317198 0.01811757 14.9009186 -3.375 17.25 C-8.02959195 18.11292997 -11.33473062 17.90016836 -15.375 15.375 C-18.67788446 11.86568526 -18.77172101 9.18562438 -18.7265625 4.51171875 C-18.375 2.25 -18.375 2.25 -16.125 -0.75 C-10.51989631 -4.82643905 -5.71336599 -4.20984862 0 0 Z " fill="#000000" transform="translate(308.375,144.75)"/>
<path d="M0 0 C2.05346377 2.84325753 2.48232112 4.75436756 2.625 8.25 C1.58440734 12.22317198 0.01811757 14.9009186 -3.375 17.25 C-8.02959195 18.11292997 -11.33473062 17.90016836 -15.375 15.375 C-18.67788446 11.86568526 -18.77172101 9.18562438 -18.7265625 4.51171875 C-18.375 2.25 -18.375 2.25 -16.125 -0.75 C-10.51989631 -4.82643905 -5.71336599 -4.20984862 0 0 Z " fill="#000000" transform="translate(288.375,84.75)"/>
</svg>
