<?xml version="1.0" standalone="no"?>
<!DOCTYPE svg PUBLIC "-//W3C//DTD SVG 20010904//EN"
 "http://www.w3.org/TR/2001/REC-SVG-20010904/DTD/svg10.dtd">
<svg version="1.0" xmlns="http://www.w3.org/2000/svg"
 width="500.000000pt" height="500.000000pt" viewBox="0 0 500.000000 500.000000"
 preserveAspectRatio="xMidYMid meet">

<g transform="translate(0.000000,500.000000) scale(0.100000,-0.100000)"
fill="#000000" stroke="none">
<path d="M2419 4976 c-2 -2 -53 -6 -114 -10 -60 -3 -153 -13 -205 -21 -102
-16 -339 -73 -355 -85 -5 -4 -23 -10 -39 -14 -47 -12 -202 -74 -285 -115 -173
-86 -342 -192 -476 -300 -82 -66 -281 -261 -351 -344 -109 -130 -259 -366
-337 -530 -34 -73 -93 -224 -103 -263 -4 -16 -10 -33 -14 -39 -19 -25 -77
-286 -98 -445 -28 -204 -20 -516 19 -750 14 -78 65 -287 79 -315 5 -11 16 -42
25 -69 102 -315 317 -657 575 -917 351 -352 780 -584 1265 -684 298 -61 689
-61 995 1 77 16 269 68 305 83 11 5 54 21 95 36 159 60 411 196 550 299 131
97 323 272 415 380 28 32 58 68 68 80 48 55 153 211 218 324 66 115 169 337
184 397 1 6 5 19 9 30 19 50 27 75 45 145 96 368 109 784 36 1145 -95 473
-329 909 -675 1256 -148 150 -377 322 -555 419 -33 18 -64 36 -70 40 -22 15
-213 94 -318 131 -101 36 -254 77 -347 93 -19 3 -46 8 -60 11 -73 16 -470 41
-481 31z m737 -227 c56 -14 101 -65 108 -123 6 -47 16 -714 16 -1043 l0 -223
45 0 c70 0 73 10 77 250 3 195 5 207 28 248 33 58 78 85 144 85 66 0 109 -23
144 -75 l27 -41 3 -273 c4 -311 2 -321 -79 -409 -69 -75 -100 -85 -256 -85
l-133 0 0 -104 c0 -78 -4 -106 -15 -116 -8 -6 -19 -9 -25 -5 -12 7 -14 251 -2
259 4 2 75 8 157 11 165 8 207 22 251 82 54 73 54 75 54 348 0 268 -4 300 -46
336 -52 46 -140 30 -179 -32 -24 -38 -25 -44 -25 -234 0 -162 -3 -202 -16
-228 -30 -56 -41 -62 -123 -62 l-76 0 -3 303 c-1 166 -4 302 -7 302 -2 0 -19
-9 -37 -20 -36 -22 -68 -26 -68 -9 0 12 61 39 90 39 19 0 20 6 20 195 0 107
-2 195 -5 195 -2 0 -14 -18 -25 -40 -11 -21 -29 -44 -40 -50 -35 -19 -24 15
26 76 l46 56 -4 132 c-4 159 -16 189 -80 207 -55 14 -111 -2 -136 -38 -15 -25
-17 -75 -22 -563 l-5 -535 -135 -3 c-84 -2 -145 2 -162 9 -56 23 -58 30 -66
388 -8 374 -5 360 -92 381 -65 15 -114 0 -141 -44 -18 -29 -19 -54 -19 -402 0
-408 1 -416 61 -475 17 -17 54 -41 82 -54 49 -23 63 -25 262 -27 l210 -3 0
-250 c0 -243 -1 -250 -20 -250 -19 0 -20 8 -23 227 l-2 227 -203 3 c-188 3
-205 5 -249 27 -63 31 -122 89 -150 148 -23 47 -23 52 -23 423 0 349 1 377 19
410 10 19 31 45 45 57 47 41 164 42 229 2 56 -33 62 -63 63 -306 1 -259 10
-419 24 -431 6 -5 63 -12 127 -16 l117 -7 3 518 c3 563 2 546 60 600 44 42 83
50 154 32z m27 -176 c-18 -38 -43 -55 -43 -31 0 20 53 94 58 80 2 -7 -5 -29
-15 -49z m-123 -89 c0 -22 -2 -24 -14 -14 -17 13 -48 109 -39 122 8 14 53 -78
53 -108z m-272 80 c35 -7 53 -31 33 -43 -6 -4 -46 -3 -89 2 -100 11 -510 3
-587 -12 -408 -79 -737 -237 -1025 -490 -235 -208 -411 -449 -534 -734 -60
-140 -102 -270 -121 -376 -3 -19 -7 -37 -9 -40 -2 -3 -7 -31 -11 -61 -4 -30
-11 -77 -15 -105 -14 -83 -5 -469 14 -565 56 -297 138 -517 279 -745 273 -444
728 -783 1232 -915 73 -20 120 -28 328 -60 84 -13 326 -13 398 -1 30 6 95 15
144 21 280 36 597 169 890 374 162 113 374 336 490 516 26 41 56 87 66 101 88
130 210 454 244 649 32 180 35 218 35 387 0 259 -31 452 -112 688 -56 165
-169 384 -263 511 -91 123 -123 161 -231 268 -129 129 -282 245 -436 333 -54
30 -98 59 -98 63 0 4 7 13 15 20 11 9 33 1 112 -46 380 -222 667 -531 854
-919 70 -145 114 -266 143 -395 9 -41 21 -91 27 -110 17 -61 39 -291 39 -405
0 -235 -52 -516 -136 -743 -149 -399 -422 -745 -796 -1007 -121 -85 -333 -191
-483 -240 -60 -20 -119 -41 -130 -45 -25 -10 -195 -47 -256 -55 -25 -3 -65 -9
-90 -12 -92 -13 -421 -7 -527 11 -185 30 -359 79 -526 147 -83 35 -293 149
-352 194 -23 16 -70 51 -105 76 -36 26 -109 89 -164 140 -424 401 -664 954
-665 1534 0 491 186 992 510 1370 63 74 206 212 284 273 158 126 367 250 514
304 31 11 62 24 67 28 39 30 353 103 535 124 49 6 468 -3 508 -10z m-212 -363
c-19 -36 -32 -45 -39 -27 -3 7 6 31 21 52 19 29 27 35 30 22 2 -9 -4 -30 -12
-47z m-116 -88 c1 -52 -30 -13 -49 62 -6 22 -11 47 -10 55 0 23 58 -92 59
-117z m608 7 c27 -61 30 -99 7 -80 -13 11 -45 98 -45 122 0 23 19 2 38 -42z
m-527 -206 c-35 -53 -66 -80 -76 -64 -6 10 94 124 103 116 2 -3 -10 -26 -27
-52z m-301 -29 c20 -24 3 -33 -91 -56 -118 -28 -159 -43 -285 -104 -208 -101
-412 -278 -542 -472 -113 -168 -189 -369 -222 -587 -24 -154 -25 -219 -5 -357
28 -195 73 -343 145 -475 173 -320 409 -531 745 -666 246 -100 581 -117 865
-44 107 27 320 117 328 138 2 4 8 8 13 8 17 0 151 94 223 156 79 69 189 197
249 292 251 392 292 862 113 1301 -31 77 -32 91 -7 91 14 0 27 -19 51 -76 92
-221 122 -404 108 -654 -11 -199 -55 -363 -147 -550 -135 -272 -368 -508 -632
-641 -216 -108 -360 -146 -599 -155 -274 -12 -466 28 -700 142 -153 74 -250
144 -376 269 -108 107 -150 159 -224 274 -76 119 -153 313 -185 466 -23 108
-31 370 -16 485 58 422 315 812 683 1036 134 83 241 128 387 164 40 10 76 21
79 24 10 11 29 6 42 -9z m1425 -127 c-4 -18 -16 -42 -26 -53 -19 -19 -19 -19
-19 4 0 21 34 81 46 81 3 0 3 -15 -1 -32z m-150 -50 c26 -57 32 -88 14 -88
-12 0 -34 51 -43 103 -9 51 1 46 29 -15z m132 -153 c-15 -14 -37 -25 -48 -25
-10 0 -21 0 -24 0 -32 0 57 48 90 49 6 0 -3 -11 -18 -24z m-1062 -724 c3 -5 2
-12 -3 -15 -5 -3 -9 1 -9 9 0 17 3 19 12 6z m-608 -58 c17 -32 72 -139 123
-238 114 -222 151 -288 164 -297 6 -4 7 -8 2 -8 -4 0 -2 -10 6 -22 35 -54 33
-58 -35 -58 l-62 0 -51 98 c-117 222 -168 318 -180 335 -11 17 -18 7 -61 -80
-26 -54 -49 -101 -51 -105 -2 -5 41 -8 95 -8 l98 0 17 -32 c9 -18 22 -43 28
-55 l11 -23 -148 0 c-144 0 -148 1 -158 23 -6 12 -21 40 -34 62 l-22 41 76
159 c42 88 88 184 102 213 14 28 31 52 38 52 7 0 26 -26 42 -57z m439 33 c0
-14 -5 -21 -9 -17 -4 4 -5 15 -1 24 9 24 12 21 10 -7z m174 -15 c0 -4 -20 -34
-45 -67 -45 -59 -61 -100 -30 -74 24 20 18 5 -7 -16 -12 -10 -18 -13 -14 -6
14 23 -12 12 -28 -12 -15 -24 -15 -25 16 -40 23 -12 34 -13 44 -5 16 13 8 33
-9 22 -8 -5 -8 -2 0 9 7 8 11 18 8 21 -3 4 -2 4 3 1 4 -3 8 -10 8 -15 1 -5 2
-10 4 -11 7 -10 6 -37 -1 -32 -5 3 -12 -3 -16 -12 -4 -10 -2 -19 5 -22 7 -2 9
-8 6 -14 -4 -6 2 -8 17 -3 23 7 23 6 5 -7 -16 -12 -17 -17 -5 -35 7 -12 19
-19 28 -16 12 4 13 3 3 -4 -10 -8 -10 -16 1 -41 7 -18 17 -29 21 -25 4 5 7 1
5 -7 -3 -19 11 -51 20 -46 3 2 7 -9 8 -26 l1 -29 -78 3 c-43 2 -76 7 -73 11 3
5 -3 15 -13 22 -11 8 -15 15 -10 15 5 0 18 -7 28 -17 10 -9 18 -12 18 -7 0 12
-29 56 -47 70 -7 7 -16 22 -18 35 -7 33 -26 50 -23 19 2 -14 7 -28 13 -32 5
-4 6 -10 2 -14 -12 -13 -20 4 -22 50 -1 48 -18 76 -44 76 -13 0 -17 -14 -19
-85 -2 -63 0 -85 10 -85 9 0 9 -3 0 -12 -7 -7 -12 -20 -12 -30 0 -15 -9 -18
-55 -18 l-55 0 0 260 0 261 57 -3 57 -3 -3 -62 c-2 -47 1 -63 11 -63 8 0 9 -3
3 -8 -11 -8 -19 -42 -11 -42 11 0 57 101 51 111 -4 5 -1 8 7 7 7 -2 12 5 12
14 -1 10 2 16 6 13 7 -4 24 23 22 35 0 3 31 4 69 2 38 -2 69 -7 69 -11z m320
-46 l0 -55 -55 0 -55 0 0 -205 0 -205 -55 0 -55 0 0 206 0 205 -62 -3 c-89 -4
-97 4 -53 58 20 24 34 47 32 51 -3 5 64 7 149 5 l154 -3 0 -54z m-1428 -32 l3
-88 27 45 c15 25 37 64 50 88 l22 42 69 0 69 0 -38 -52 c-20 -29 -47 -66 -58
-83 -11 -16 -29 -40 -39 -52 -19 -21 -19 -22 12 -38 18 -9 39 -32 49 -53 9
-20 19 -39 22 -42 8 -7 90 -184 90 -193 0 -4 -25 -7 -55 -7 l-54 0 -58 104
c-49 89 -89 136 -115 136 -3 0 -4 -53 -4 -117 l1 -118 -55 0 -55 0 -3 245 c-1
134 0 250 3 257 3 8 24 13 59 13 l55 0 3 -87z m1568 -107 c0 -164 3 -197 16
-210 18 -19 75 -21 92 -4 9 9 12 69 12 210 l0 198 55 0 55 0 0 -212 c0 -196
-2 -216 -20 -246 -53 -87 -217 -97 -290 -18 -25 27 -25 28 -28 252 l-3 224 55
0 56 0 0 -194z m510 140 l0 -54 -42 0 c-61 1 -87 -10 -94 -38 -8 -33 13 -55
73 -77 62 -23 88 -45 107 -92 14 -33 14 -42 1 -89 -16 -56 -52 -98 -98 -115
-16 -6 -69 -11 -118 -11 l-90 0 3 53 3 52 88 3 c79 3 88 5 103 27 22 33 4 61
-47 75 -44 12 -112 68 -135 111 -20 40 -17 78 10 123 35 59 87 84 169 85 l67
1 0 -54z m-1005 -84 c-3 -3 -11 0 -18 7 -9 10 -8 11 6 5 10 -3 15 -9 12 -12z
m25 -172 c0 -5 -4 -10 -9 -10 -6 0 -13 5 -16 10 -3 6 1 10 9 10 9 0 16 -4 16
-10z m-124 -122 c4 -7 3 -8 -5 -4 -6 4 -14 0 -17 -8 -6 -16 -24 -12 -24 5 0 6
4 8 9 4 5 -3 12 -1 16 5 8 13 12 13 21 -2z m205 -31 c-10 -9 -11 -8 -5 6 3 10
9 15 12 12 3 -3 0 -11 -7 -18z m1399 -363 c-14 -41 -13 -42 27 -50 28 -6 32
-3 38 25 6 29 21 48 31 39 2 -3 -1 -19 -7 -37 -13 -36 -7 -45 33 -55 26 -6 28
-4 39 39 6 25 15 45 20 45 12 0 12 -3 -7 -61 -9 -27 -21 -49 -26 -49 -13 0
-116 29 -150 42 -31 12 -33 17 -17 67 22 69 22 68 26 48 3 -9 -1 -33 -7 -53z
m-3152 4 c27 -30 42 -71 35 -97 -8 -31 -23 -26 -17 7 3 17 -2 39 -15 60 -17
26 -27 32 -57 32 -52 0 -94 -33 -94 -74 0 -19 9 -45 21 -60 20 -25 16 -34 -7
-18 -33 22 -42 80 -20 121 29 53 116 69 154 29z m3292 -167 c0 -9 -29 -83 -35
-89 -3 -3 -173 57 -184 65 -2 2 -1 6 2 10 4 3 37 -5 74 -19 38 -14 75 -28 84
-31 12 -4 20 5 29 34 12 35 30 53 30 30z m-3200 -37 c0 -14 -144 -163 -152
-158 -5 4 2 18 16 33 l25 26 -19 43 c-17 37 -24 43 -47 42 -42 -3 -50 -1 -33
10 16 10 210 14 210 4z m2930 -29 c0 -8 -4 -15 -9 -15 -13 0 -22 16 -14 24 11
11 23 6 23 -9z m163 -72 c34 -16 49 -33 29 -33 -16 0 -172 82 -172 90 0 8 34
-6 143 -57z m-3014 -61 c32 -51 36 -62 23 -62 -5 0 -18 18 -31 40 -24 44 -35
48 -69 24 l-22 -15 20 -40 c25 -48 10 -52 -16 -4 -10 19 -21 35 -24 35 -3 0
-20 -9 -39 -21 -32 -20 -55 -19 -34 2 7 7 151 87 159 89 1 0 16 -22 33 -48z
m2848 23 c-50 -51 -42 -115 18 -141 46 -19 82 -9 106 30 24 40 24 53 -2 67
-18 9 -24 8 -31 -5 -9 -16 -28 -22 -28 -8 0 4 7 15 15 26 13 17 18 17 45 6 25
-10 30 -18 30 -46 0 -49 -44 -96 -93 -97 -63 -2 -127 62 -114 115 9 34 45 78
64 78 12 0 9 -7 -10 -25z m-2764 -155 c16 -22 27 -45 25 -51 -2 -6 -17 7 -32
30 l-28 41 -29 -17 c-35 -21 -35 -25 -7 -63 12 -16 18 -33 14 -37 -4 -4 -11
-1 -16 8 -5 9 -17 26 -27 38 l-18 21 -28 -22 -28 -23 27 -38 c14 -21 23 -41
21 -44 -6 -5 -67 75 -67 88 0 10 140 108 155 108 6 0 23 -17 38 -39z m2712
-20 c10 -11 15 -28 12 -40 -5 -18 0 -20 50 -20 33 0 52 -4 48 -10 -3 -5 -30
-10 -59 -10 -73 0 -90 -20 -41 -50 31 -19 46 -40 29 -40 -7 0 -133 88 -151
106 -10 9 -8 18 9 41 12 15 27 31 33 35 19 14 52 8 70 -12z m-115 -171 c79
-28 110 -43 110 -53 0 -8 -18 -5 -50 8 -10 4 -28 -6 -49 -28 -29 -29 -31 -37
-21 -55 6 -12 10 -30 8 -39 -2 -11 -10 -4 -22 23 -10 22 -31 67 -47 99 -29 61
-29 82 0 71 9 -4 41 -16 71 -26z m-157 -81 c35 -37 107 -126 107 -133 0 -8
-38 -2 -150 24 -24 5 -46 8 -48 6 -2 -1 17 -26 42 -54 43 -49 56 -72 39 -70
-13 1 -129 147 -122 153 2 3 47 -6 99 -19 52 -12 97 -21 99 -19 2 2 -19 31
-48 64 -29 33 -47 60 -41 60 6 0 17 -6 23 -12z m-2318 -8 c12 -20 -6 -50 -29
-50 -33 0 -53 25 -36 45 14 17 56 20 65 5z m258 -101 c20 -17 37 -38 37 -46 0
-27 -31 -53 -62 -53 -27 0 -28 -2 -28 -52 0 -65 -11 -56 -16 14 -5 63 -18 81
-38 53 -39 -54 -45 -60 -46 -44 0 15 99 159 110 159 3 0 22 -14 43 -31z m160
-97 c26 -16 44 -31 40 -35 -3 -4 -25 4 -49 18 -23 14 -45 25 -47 25 -3 0 -10
-13 -17 -29 -13 -32 -7 -51 14 -51 8 0 19 -7 26 -15 16 -19 3 -19 -30 0 -35
20 -37 19 -56 -16 -17 -35 -17 -34 39 -65 16 -9 26 -18 23 -22 -9 -9 -96 40
-96 54 0 19 84 164 95 164 6 0 31 -13 58 -28z m148 -73 c25 -25 17 -39 -10
-15 -11 10 -30 16 -43 14 -35 -5 -34 -38 2 -73 16 -16 30 -39 30 -51 0 -26
-34 -54 -65 -54 -28 0 -65 27 -65 47 0 13 5 12 24 -6 27 -26 63 -25 80 1 8 14
4 24 -22 51 -36 37 -40 62 -15 89 22 24 58 23 84 -3z m1513 -1 c15 -24 -13
-53 -43 -43 -21 6 -29 43 -14 59 12 12 45 2 57 -16z m-258 -24 c-11 -8 -26
-14 -33 -14 -16 0 -18 9 17 -89 34 -94 33 -91 21 -91 -9 0 -16 15 -51 112 -20
54 -22 57 -46 48 -32 -12 -44 -13 -44 -1 0 10 142 60 150 53 3 -2 -4 -10 -14
-18z m-1136 -18 c35 -13 66 -29 68 -36 3 -9 -1 -11 -14 -5 -40 16 -48 10 -69
-47 -11 -31 -24 -60 -28 -64 -4 -4 -7 -16 -7 -26 0 -10 -4 -18 -10 -18 -16 0
-12 19 19 102 l29 78 -34 12 c-19 7 -34 16 -34 20 0 12 8 10 80 -16z m983 -58
c4 -18 13 -61 21 -95 11 -50 11 -63 1 -63 -7 0 -19 7 -26 16 -7 9 -39 36 -72
61 l-58 45 7 -38 c4 -22 11 -49 15 -62 12 -31 11 -65 0 -57 -6 3 -17 40 -26
83 -9 42 -19 85 -22 95 -8 29 12 19 87 -43 40 -34 74 -59 76 -57 2 2 -3 29
-11 61 -8 31 -15 66 -15 77 0 30 16 14 23 -23z m-815 -50 c23 -138 24 -148 13
-148 -6 0 -14 15 -19 32 -7 27 -15 35 -50 45 -40 11 -43 11 -58 -13 -16 -24
-39 -34 -32 -14 7 23 114 160 124 160 7 0 17 -28 22 -62z m105 -39 c-5 -73 -4
-83 12 -95 26 -19 59 -17 77 4 9 9 19 47 23 85 3 37 11 67 17 67 6 0 8 -25 3
-72 -8 -87 -30 -118 -82 -118 -53 0 -73 28 -73 103 0 68 8 107 21 107 5 0 6
-37 2 -81z m487 -22 c27 -48 45 -89 41 -91 -4 -3 -15 7 -23 22 -15 25 -21 27
-63 24 -41 -4 -46 -7 -52 -32 -3 -16 -11 -31 -19 -34 -8 -3 -14 -3 -14 -1 0
10 32 130 40 150 5 11 11 28 14 38 10 31 26 15 76 -76z m-185 63 c21 -23 14
-64 -15 -82 -18 -11 -17 -13 11 -45 47 -54 33 -63 -16 -10 -24 26 -48 47 -54
47 -6 0 -11 -19 -11 -45 0 -48 -14 -60 -24 -22 -3 12 -6 57 -6 100 l0 77 48 0
c36 0 54 -5 67 -20z"/>
<path d="M882 1730 c14 -43 21 -43 58 -5 l34 35 -52 0 -51 0 11 -30z"/>
<path d="M3797 1442 c-24 -26 -21 -38 13 -62 l29 -21 17 26 c22 34 12 75 -20
75 -12 0 -30 -8 -39 -18z"/>
<path d="M3702 1263 c24 -58 46 -65 68 -23 9 17 5 22 -26 35 -50 21 -55 19
-42 -12z"/>
<path d="M1477 1070 l-18 -29 30 -16 c37 -19 36 -19 55 1 21 20 20 30 -4 54
-27 27 -43 25 -63 -10z"/>
<path d="M2076 768 l-25 -33 37 -11 c20 -6 37 -10 38 -10 5 5 -10 86 -16 86
-5 0 -20 -15 -34 -32z"/>
<path d="M2660 742 c-15 -49 -12 -55 28 -50 l30 3 -23 45 -23 45 -12 -43z"/>
<path d="M2458 745 c4 -31 8 -35 32 -35 34 0 54 22 45 50 -5 15 -15 20 -44 20
-36 0 -37 -1 -33 -35z"/>
</g>
</svg>
