<?xml version="1.0" standalone="no"?>
<!DOCTYPE svg PUBLIC "-//W3C//DTD SVG 20010904//EN"
 "http://www.w3.org/TR/2001/REC-SVG-20010904/DTD/svg10.dtd">
<svg version="1.0" xmlns="http://www.w3.org/2000/svg"
 width="512.000000pt" height="512.000000pt" viewBox="0 0 512.000000 512.000000"
 preserveAspectRatio="xMidYMid meet">

<g transform="translate(0.000000,512.000000) scale(0.100000,-0.100000)"
fill="#000000" stroke="none">
<path d="M1500 5055 c-400 -89 -694 -369 -802 -763 -18 -64 -22 -107 -22 -247
-1 -148 2 -181 22 -254 27 -100 71 -206 113 -275 24 -39 29 -56 24 -82 -9 -52
12 -111 57 -160 66 -72 63 -74 310 173 l216 216 6 -44 c27 -193 296 -3143 296
-3238 0 -177 35 -252 142 -305 l52 -26 790 0 c774 0 792 1 836 21 60 27 98 64
126 124 20 43 24 65 24 155 -1 61 76 916 181 2037 211 2235 203 1983 62 1983
l-86 0 6 55 c3 30 8 59 12 65 4 6 102 10 276 10 336 0 309 -15 309 174 0 192
28 178 -355 174 l-300 -3 -67 -32 c-82 -39 -151 -106 -185 -180 -21 -45 -44
-161 -53 -260 0 -7 -1350 -2 -1350 5 0 4 81 88 180 187 193 193 201 206 160
258 -27 34 -115 77 -158 77 -22 0 -79 22 -156 60 -170 83 -244 101 -441 106
-115 2 -178 0 -225 -11z m378 -141 c105 -22 216 -66 298 -119 48 -31 80 -45
104 -45 l35 0 -37 -36 -36 -37 -48 37 c-69 53 -195 113 -289 137 -95 25 -278
30 -370 10 -220 -47 -424 -189 -539 -375 -97 -154 -130 -284 -124 -479 4 -115
8 -144 36 -225 34 -99 63 -156 120 -235 l35 -49 -42 -41 -41 -42 0 42 c0 30
-14 67 -51 138 -94 179 -126 319 -116 499 24 418 347 773 752 829 76 10 242 6
313 -9z m-248 -364 l0 -180 -78 0 -77 0 -105 106 -105 105 30 25 c66 53 236
120 313 123 l22 1 0 -180z m244 164 c75 -19 190 -73 234 -111 l33 -28 -104
-102 -104 -103 -82 0 -81 0 0 180 c0 207 -9 193 104 164z m2436 -38 l0 -35
-237 -3 c-227 -3 -240 -4 -274 -26 -53 -32 -70 -65 -83 -156 l-12 -81 -34 0
-35 0 3 45 c7 120 44 205 107 246 59 38 94 43 333 44 l232 0 0 -34z m-2946
-421 c3 -16 7 -56 11 -87 l5 -58 -186 0 -186 0 7 47 c13 91 82 249 133 306 15
17 21 12 114 -80 71 -71 99 -106 102 -128z m2111 -57 c-3 -18 -25 -235 -50
-483 -25 -247 -48 -460 -50 -472 -5 -22 -10 -23 -104 -23 -188 0 -324 36 -533
142 -222 112 -348 142 -588 142 -182 0 -314 -20 -475 -72 -85 -28 -86 -28 -90
-8 -4 20 -75 771 -75 795 0 8 256 11 985 11 l986 0 -6 -32z m215 15 c0 -20
-76 -816 -85 -900 -6 -50 -8 -53 -43 -62 -20 -6 -38 -8 -40 -6 -5 4 82 880 94
953 4 29 8 32 39 32 27 0 35 -4 35 -17z m210 -8 c0 -28 -66 -741 -76 -816 -5
-40 -10 -48 -40 -62 l-34 -17 0 28 c0 15 18 212 40 437 22 226 40 420 40 433
0 19 5 22 35 22 31 0 35 -3 35 -25z m-2506 -257 c3 -13 6 -43 6 -68 0 -45 -2
-47 -119 -164 l-119 -118 -29 43 c-47 68 -81 141 -103 220 -33 119 -48 109
169 109 187 0 189 0 195 -22z m896 -588 c136 -17 224 -46 400 -130 261 -126
398 -156 654 -147 157 5 287 30 404 76 l52 21 0 -28 c0 -16 -54 -600 -120
-1298 -66 -698 -120 -1272 -120 -1276 0 -5 -385 -8 -855 -8 -849 0 -855 0
-855 20 0 22 -236 2533 -246 2617 l-6 51 108 35 c205 65 406 88 584 67z m1260
-3016 c0 -84 -1 -87 -34 -120 l-34 -34 -774 0 c-685 0 -776 2 -796 16 -38 26
-52 67 -52 149 l0 75 845 0 845 0 0 -86z"/>
<path d="M2063 2947 c-137 -137 -153 -156 -153 -187 0 -30 15 -49 138 -173
143 -144 180 -172 216 -163 11 3 87 72 169 154 194 196 195 170 -6 370 -127
126 -158 152 -182 152 -24 0 -55 -26 -182 -153z m267 -272 l-85 -85 -85 85
-85 85 85 85 85 85 85 -85 85 -85 -85 -85z"/>
<path d="M2958 2252 c-145 -145 -145 -140 1 -286 145 -145 138 -145 282 1 89
89 109 115 109 139 0 24 -20 50 -113 142 -92 92 -118 112 -142 112 -24 0 -49
-20 -137 -108z m187 -102 l39 -40 -42 -43 -42 -42 -42 42 -42 43 39 40 c21 22
42 40 45 40 3 0 24 -18 45 -40z"/>
<path d="M2512 1497 c-137 -137 -162 -167 -162 -192 0 -26 25 -55 163 -193
146 -146 166 -162 196 -162 31 0 50 15 184 148 139 138 177 183 177 213 0 7
-75 88 -167 181 -143 144 -172 168 -198 168 -26 0 -54 -24 -193 -163z m291
-95 c48 -48 87 -92 87 -97 0 -6 -41 -51 -90 -100 l-90 -90 -95 95 -95 95 92
92 c51 51 95 93 98 93 3 0 45 -39 93 -88z"/>
</g>
</svg>
