<?xml version="1.0" standalone="no"?>
<!DOCTYPE svg PUBLIC "-//W3C//DTD SVG 20010904//EN"
 "http://www.w3.org/TR/2001/REC-SVG-20010904/DTD/svg10.dtd">
<svg version="1.0" xmlns="http://www.w3.org/2000/svg"
 width="512.000000pt" height="512.000000pt" viewBox="0 0 512.000000 512.000000"
 preserveAspectRatio="xMidYMid meet">

<g transform="translate(0.000000,512.000000) scale(0.100000,-0.100000)"
fill="#000000" stroke="none">
<path d="M1709 5091 c-16 -16 -29 -38 -29 -49 0 -11 52 -165 115 -342 63 -178
115 -324 115 -326 0 -2 -97 -4 -215 -6 -208 -3 -215 -4 -237 -26 -21 -20 -23
-32 -23 -120 1 -83 4 -105 26 -153 30 -64 82 -120 138 -149 60 -30 149 -40
374 -40 l207 0 0 -52 0 -53 -55 -29 c-105 -55 -168 -159 -168 -278 0 -37 -3
-68 -6 -68 -3 0 -60 7 -126 15 -369 44 -584 -16 -773 -217 -136 -145 -198
-310 -190 -505 11 -240 123 -440 308 -547 111 -65 202 -88 345 -87 l100 0 25
-46 c13 -25 43 -61 67 -81 l43 -36 -48 -30 c-234 -149 -385 -367 -453 -656
-18 -74 -18 -307 0 -395 17 -84 63 -212 96 -270 14 -23 25 -47 25 -53 0 -7
-55 -11 -162 -14 -158 -3 -165 -4 -228 -34 -125 -59 -216 -185 -227 -314 -7
-69 6 -102 44 -119 34 -16 2912 -16 2946 0 38 17 51 50 44 119 -11 129 -102
255 -227 314 l-65 31 -957 3 -956 2 -37 56 c-48 72 -98 182 -121 264 -26 92
-26 340 0 425 98 322 324 538 640 610 99 23 263 21 370 -4 320 -76 564 -327
632 -652 20 -96 15 -285 -11 -388 -17 -66 -17 -76 -4 -100 20 -36 62 -55 97
-44 37 12 68 78 87 187 67 387 -93 775 -412 1003 l-65 46 34 18 c42 21 89 74
120 132 33 61 33 203 0 264 -34 64 -76 108 -136 139 -47 24 -56 34 -61 64 -14
71 -57 144 -130 217 l-73 71 34 67 c30 59 34 77 34 144 0 54 -6 89 -20 120
-11 24 -20 44 -20 46 0 1 80 5 178 8 190 6 348 29 499 73 650 187 1004 534
1123 1099 22 104 39 407 26 459 -16 66 -94 89 -141 41 -24 -23 -25 -28 -25
-175 0 -168 -10 -254 -46 -382 -113 -408 -396 -687 -849 -837 -228 -76 -382
-105 -619 -117 -122 -7 -129 -6 -123 11 46 118 26 238 -54 329 -37 43 -94 82
-133 92 -24 6 -26 10 -26 60 l0 54 213 0 c229 0 318 10 378 40 56 29 108 85
138 149 22 48 25 70 26 153 0 88 -2 100 -23 120 -22 22 -29 23 -242 26 -121 2
-220 6 -220 9 0 4 39 130 86 282 94 304 98 333 51 395 -48 62 -67 66 -342 66
-250 0 -275 -3 -302 -39 -21 -28 -15 -75 13 -102 25 -24 29 -24 259 -29 l233
-5 -54 -175 c-30 -96 -70 -226 -90 -287 l-35 -113 -174 0 -173 0 -16 43 c-9
23 -65 182 -126 352 -115 326 -131 355 -186 355 -15 0 -38 -12 -55 -29z m1231
-906 c0 -33 -29 -83 -61 -106 l-34 -24 -575 0 -575 0 -34 24 c-18 13 -40 39
-47 57 -29 69 -85 64 656 64 595 0 670 -2 670 -15z m-572 -607 c57 -54 69
-131 29 -189 -22 -32 -27 -34 -78 -33 -30 1 -79 4 -110 8 -62 8 -73 21 -84 94
-19 121 152 205 243 120z m-502 -338 c87 -11 160 -23 162 -25 3 -3 -2 -13 -10
-22 -81 -92 -88 -272 -14 -371 l24 -33 -72 -72 c-74 -73 -117 -146 -131 -217
-5 -30 -14 -40 -61 -64 -64 -34 -108 -81 -141 -152 -21 -47 -27 -52 -62 -57
-21 -2 -75 -1 -119 3 -213 22 -366 176 -408 412 -15 85 -13 138 11 219 42 145
168 292 301 350 117 52 272 61 520 29z m482 -117 c48 -36 66 -70 66 -123 0
-111 -115 -182 -214 -132 -106 53 -108 205 -3 262 46 25 113 22 151 -7z m-3
-454 c79 -21 160 -90 190 -163 l15 -36 -280 0 -280 0 15 36 c53 127 204 200
340 163z m362 -389 c41 -25 63 -68 63 -125 0 -37 -6 -52 -32 -81 -21 -22 -48
-38 -73 -44 -22 -5 -200 -10 -395 -10 -195 0 -373 5 -395 10 -25 6 -52 22 -72
44 -27 29 -33 44 -33 81 0 57 22 100 63 125 30 19 53 20 437 20 384 0 407 -1
437 -20z m794 -1993 c24 -13 59 -43 78 -68 l34 -44 -672 -3 c-369 -1 -973 -1
-1342 0 l-672 3 34 44 c19 25 54 55 78 68 l44 23 1187 0 1187 0 44 -23z"/>
</g>
</svg>
