<?xml version="1.0" standalone="no"?>
<!DOCTYPE svg PUBLIC "-//W3C//DTD SVG 20010904//EN"
 "http://www.w3.org/TR/2001/REC-SVG-20010904/DTD/svg10.dtd">
<svg version="1.0" xmlns="http://www.w3.org/2000/svg"
 width="512.000000pt" height="512.000000pt" viewBox="0 0 512.000000 512.000000"
 preserveAspectRatio="xMidYMid meet">

<g transform="translate(0.000000,512.000000) scale(0.100000,-0.100000)"
fill="#000000" stroke="none">
<path d="M4160 4652 c-63 -35 -75 -61 -78 -178 l-4 -104 -92 0 c-145 0 -201
-42 -201 -150 0 -108 56 -150 202 -150 l93 0 0 -90 c0 -106 14 -147 61 -181
45 -32 125 -33 165 -3 59 43 69 68 72 174 l4 98 98 4 c106 3 131 13 174 72 29
38 29 114 0 152 -43 59 -68 69 -174 72 l-98 4 -4 98 c-2 81 -7 104 -24 126
-51 69 -130 91 -194 56z"/>
<path d="M569 4067 c-53 -35 -69 -77 -69 -184 l0 -93 -99 0 c-85 0 -102 -3
-132 -23 -94 -62 -88 -193 10 -251 24 -14 60 -20 127 -24 l94 -5 0 -86 c0 -62
5 -96 18 -121 53 -107 211 -107 264 0 13 25 18 59 18 121 l0 86 94 5 c67 4
103 10 127 24 98 58 104 189 10 251 -30 20 -47 23 -132 23 l-99 0 0 93 c0 68
-5 101 -18 127 -25 50 -75 80 -132 80 -32 0 -58 -7 -81 -23z"/>
<path d="M2170 3979 c-127 -51 -125 -230 3 -278 16 -6 75 -11 133 -11 l104 0
0 -115 0 -114 -32 -5 c-18 -2 -85 -12 -148 -20 -394 -55 -774 -225 -1098 -494
-375 -310 -652 -773 -746 -1244 -14 -67 -27 -150 -31 -183 -3 -33 -8 -75 -11
-92 l-5 -33 -63 0 c-164 0 -276 -106 -276 -262 0 -85 29 -199 77 -297 37 -78
59 -109 127 -176 66 -66 98 -89 176 -127 170 -84 6 -78 2180 -78 2169 0 2009
-6 2178 76 77 37 108 59 177 129 70 69 92 100 129 177 47 97 76 211 76 296 0
156 -112 262 -276 262 l-63 0 -5 33 c-2 17 -12 84 -20 147 -72 523 -356 1031
-766 1371 -287 238 -630 405 -972 473 -67 14 -150 27 -183 31 -33 3 -75 8 -92
11 l-33 5 0 114 0 113 119 4 c102 3 124 6 147 24 50 37 68 70 68 124 0 54 -18
87 -68 124 -26 20 -41 21 -404 23 -236 1 -386 -2 -402 -8z m641 -834 c413 -55
783 -234 1082 -524 333 -322 527 -721 580 -1188 l5 -43 -1918 0 -1919 0 5 38
c29 219 62 353 132 532 141 357 423 694 758 906 219 138 489 238 734 273 41 6
86 13 100 15 66 9 347 4 441 -9z m1997 -2097 c-23 -106 -107 -207 -216 -260
l-67 -33 -1965 0 -1965 0 -67 33 c-111 54 -192 153 -217 261 l-9 41 2258 0
2258 0 -10 -42z"/>
<path d="M2390 2831 c-62 -9 -105 -42 -125 -96 -22 -57 -14 -104 26 -150 41
-47 82 -56 209 -46 122 8 157 24 190 84 41 72 11 165 -64 201 -35 17 -144 20
-236 7z"/>
<path d="M1769 2626 c-88 -31 -298 -200 -410 -330 -134 -153 -259 -364 -259
-434 0 -89 89 -164 175 -148 51 10 89 47 135 134 98 181 266 366 434 476 73
48 91 66 108 103 35 80 5 157 -76 194 -48 22 -59 22 -107 5z"/>
</g>
</svg>
