<?xml version="1.0" encoding="UTF-8"?>
<svg version="1.1" xmlns="http://www.w3.org/2000/svg" width="512" height="512">
<path d="M0 0 C6.00172947 0.17729908 11.53147564 3.0344062 16.98828125 5.3046875 C18.13232422 5.76488281 19.27636719 6.22507812 20.45507812 6.69921875 C28.8851344 10.13904065 28.8851344 10.13904065 31.17578125 12.4296875 C31.94397018 18.77610992 29.86704919 23.43895167 27.3359375 29.18359375 C26.93555771 30.12033432 26.53517792 31.05707489 26.12266541 32.02220154 C24.83964257 35.01742186 23.53962016 38.00488582 22.23828125 40.9921875 C20.97821755 43.91500063 19.72175643 46.83934505 18.46542358 49.76376343 C17.63006075 51.70807971 16.79365748 53.6519493 15.95620728 55.59536743 C12.92978694 62.63030807 9.96236349 69.68789428 7.046875 76.76953125 C6.6565358 77.71139786 6.26619659 78.65326447 5.86402893 79.62367249 C5.50985397 80.48899094 5.15567902 81.35430939 4.79077148 82.24584961 C4.47776596 83.00788193 4.16476044 83.76991425 3.8422699 84.55503845 C3.06411928 86.41216154 3.06411928 86.41216154 3.17578125 88.4296875 C4.65911925 89.36684672 6.19024815 90.22876224 7.73828125 91.0546875 C15.19504009 95.39566184 20.65436401 101.02496336 23.17578125 109.4296875 C23.97223152 114.92519439 24.655885 120.03221365 23.17578125 125.4296875 C24.44035156 125.41808594 25.70492188 125.40648438 27.0078125 125.39453125 C28.66796727 125.38515184 30.32812364 125.3760518 31.98828125 125.3671875 C32.82166016 125.35880859 33.65503906 125.35042969 34.51367188 125.34179688 C35.31611328 125.33857422 36.11855469 125.33535156 36.9453125 125.33203125 C37.68370361 125.32679443 38.42209473 125.32155762 39.18286133 125.31616211 C41.17578125 125.4296875 41.17578125 125.4296875 44.17578125 126.4296875 C48.20360049 134.48532598 44.65232194 148.22264519 43.71537781 156.89881897 C43.55607923 158.42093016 43.39736914 159.94310304 43.2391904 161.46533102 C42.80642582 165.61327446 42.36525847 169.76028591 41.92258179 173.90718162 C41.44525893 178.39258559 40.97578128 182.87881195 40.50521851 187.3649292 C39.58375843 196.13693105 38.65480375 204.90812329 37.72286781 213.67901779 C36.96573481 220.80517808 36.21083486 227.93157144 35.45749855 235.05813408 C33.32065114 255.27059103 31.17831762 275.48245496 29.02859869 295.69354708 C28.91289403 296.78137332 28.79718937 297.86919956 28.67797852 298.98999023 C28.50420795 300.62372252 28.50420795 300.62372252 28.32692686 302.29045951 C26.44626053 319.97499907 24.57859945 337.66088478 22.71682873 355.34742267 C20.80428313 373.51495795 18.88230075 391.68147299 16.95033199 409.84695333 C15.86612511 420.04308675 14.78582246 430.23959903 13.71561241 440.43721199 C12.80530432 449.11040843 11.88623738 457.78262048 10.95566352 466.45366693 C10.48101282 470.87881252 10.01052497 475.30429854 9.55103874 479.73104668 C9.13065447 483.78006971 8.69862144 487.8276704 8.25712214 491.87444394 C8.09918517 493.34134279 7.94558202 494.8087158 7.79666897 496.27655817 C7.59416664 498.2663445 7.3745441 500.2543665 7.15400219 502.24223423 C6.97800182 503.90167383 6.97800182 503.90167383 6.79844588 505.59463745 C6.12475798 508.66200118 5.40200878 510.22721303 3.17578125 512.4296875 C0.32866341 512.83023571 -2.13555443 512.96977939 -4.98535156 512.93762207 C-5.82700993 512.94386203 -6.66866829 512.950102 -7.53583145 512.95653105 C-10.36661739 512.97253345 -13.19655086 512.95982868 -16.02734375 512.94726562 C-18.05245467 512.95268353 -20.07756166 512.95980431 -22.10266113 512.96850586 C-27.61087152 512.98678156 -33.11878311 512.97965412 -38.6269989 512.96698952 C-44.38317692 512.95688384 -50.13932883 512.96624841 -55.89550781 512.97253418 C-65.56319792 512.97981768 -75.23076592 512.97020442 -84.8984375 512.95117188 C-96.08603323 512.92940186 -107.2733374 512.93645273 -118.46092606 512.9584775 C-128.05503465 512.97661145 -137.64905532 512.97919963 -147.24317551 512.96872282 C-152.97828706 512.96247687 -158.71326144 512.96168251 -164.44836426 512.97486877 C-169.83940829 512.98639747 -175.23007532 512.97845608 -180.62107849 512.95529175 C-182.60326002 512.9499887 -184.58547311 512.95154554 -186.56764221 512.96034241 C-189.26655628 512.97121864 -191.96425034 512.95763094 -194.66308594 512.93762207 C-195.4538364 512.94654496 -196.24458687 512.95546784 -197.05929947 512.96466112 C-202.36092805 512.88803505 -202.36092805 512.88803505 -204.48670131 510.78494304 C-206.14480482 507.86516243 -206.44823911 505.58185476 -206.80243969 502.24223423 C-206.94426526 500.96388094 -207.08609084 499.68552766 -207.23221415 498.3684364 C-207.376897 496.94678391 -207.5213414 495.52510714 -207.66557312 494.10340881 C-207.82794674 492.59530289 -207.99143451 491.08731658 -208.15594226 489.57944196 C-208.60530587 485.4303636 -209.03872446 481.27974961 -209.46959221 477.1287154 C-209.93686717 472.65376031 -210.41879069 468.18038054 -210.89889526 463.70678711 C-211.83755777 454.93829264 -212.76257726 446.16840969 -213.68300804 437.39798475 C-214.75571205 427.1812615 -215.84163608 416.96595669 -216.92806945 406.75068586 C-218.86694007 388.51580337 -220.79342929 370.27963378 -222.71313477 352.04272461 C-224.57477875 334.35746958 -226.44555494 316.67321196 -228.32641602 298.98999023 C-228.44212067 297.90216399 -228.55782533 296.81433775 -228.67703619 295.69354708 C-228.79254286 294.60758375 -228.90804953 293.52162043 -229.0270564 292.40274912 C-231.16866793 272.26701501 -233.30126399 252.13033455 -235.42992192 231.99322723 C-236.18225901 224.87819994 -236.9373196 217.76346468 -237.69327354 210.64882088 C-238.61553371 201.96740826 -239.53263237 193.2854674 -240.4433802 184.60283924 C-240.90786375 180.17562738 -241.37444292 175.74866496 -241.84695244 171.32230186 C-242.28018408 167.26317449 -242.70701794 163.20342507 -243.12893639 159.14310663 C-243.28194314 157.68111437 -243.43719101 156.21935437 -243.59501692 154.7578745 C-246.14800337 131.07725673 -246.14800337 131.07725673 -243.82421875 126.4296875 C-241.03578737 125.50021037 -239.38169018 125.30521572 -236.5038805 125.30663967 C-235.17297216 125.3036531 -235.17297216 125.3036531 -233.81517678 125.30060619 C-232.83950539 125.30351903 -231.863834 125.30643187 -230.8585968 125.30943298 C-229.82289478 125.30857856 -228.78719276 125.30772413 -227.72010583 125.30684382 C-224.23306429 125.30519043 -220.74607035 125.31070812 -217.2590332 125.31616211 C-214.76601157 125.31644404 -212.27298985 125.31628614 -209.77996826 125.3157196 C-204.40412593 125.31549153 -199.02829854 125.31833673 -193.6524601 125.32395744 C-185.87986766 125.3320788 -178.10728109 125.33468832 -170.33468487 125.33594543 C-157.72466615 125.33813495 -145.11465389 125.34479233 -132.50463867 125.35424805 C-120.25398796 125.36342475 -108.003339 125.37050432 -95.75268555 125.37475586 C-94.99776384 125.37501858 -94.24284213 125.37528131 -93.465044 125.37555199 C-89.67788589 125.37685701 -85.89072776 125.37812072 -82.10356963 125.37936389 C-50.67711463 125.38973338 -19.25066767 125.40742323 12.17578125 125.4296875 C12.18688808 123.98463656 12.19482559 122.53956102 12.20141602 121.09448242 C12.20617447 120.28975998 12.21093292 119.48503754 12.21583557 118.65592957 C12.1284896 113.80119063 10.8343184 109.45229378 7.734375 105.671875 C0.34263513 98.84609201 -8.19855356 96.89734833 -17.88427734 95.5559082 C-25.22707465 94.46960171 -25.22707465 94.46960171 -27.82421875 91.4296875 C-28.37109375 88.63671875 -28.37109375 88.63671875 -28.57421875 85.2421875 C-30.24429913 71.09045377 -37.91460997 58.85245166 -48.87890625 49.94921875 C-65.67546653 37.10049513 -89.24646757 25.65614548 -110.82421875 26.4296875 C-110.39109375 27.97076172 -110.39109375 27.97076172 -109.94921875 29.54296875 C-104.80833763 48.45235126 -104.80833763 48.45235126 -107.94921875 57.3671875 C-110.22889513 61.09065893 -111.85431757 62.59177029 -115.82421875 64.4296875 C-122.67503054 65.79703059 -128.95622993 63.29625186 -135.45703125 61.33203125 C-141.86572766 59.61461957 -147.82355275 59.61453802 -153.9765625 62.28125 C-161.7331502 67.10246942 -163.67161599 76.12317333 -165.82421875 84.4296875 C-165.22125977 84.40793457 -164.61830078 84.38618164 -163.99707031 84.36376953 C-157.61517612 84.23455648 -151.80163759 84.96207885 -145.57421875 86.3046875 C-144.28644531 86.56572266 -144.28644531 86.56572266 -142.97265625 86.83203125 C-138.47412331 87.76634194 -134.15295937 88.85945806 -129.82421875 90.4296875 C-130.29911225 94.54543121 -130.84524315 97.79352094 -132.82421875 101.4296875 C-134.66886719 101.01396484 -134.66886719 101.01396484 -136.55078125 100.58984375 C-138.18357459 100.22387283 -139.81638816 99.85799218 -141.44921875 99.4921875 C-142.25746094 99.30978516 -143.06570312 99.12738281 -143.8984375 98.93945312 C-144.69121094 98.76220703 -145.48398438 98.58496094 -146.30078125 98.40234375 C-147.02346191 98.24000244 -147.74614258 98.07766113 -148.49072266 97.91040039 C-155.71619615 96.42191354 -162.6507543 96.17709768 -170.01171875 96.1171875 C-171.18025391 96.08818359 -172.34878906 96.05917969 -173.55273438 96.02929688 C-184.36975772 95.95086893 -193.23549124 98.02788251 -201.23046875 105.61328125 C-203.32797651 108.00382318 -204.67137002 110.47551264 -205.82421875 113.4296875 C-209.8802804 112.96168039 -213.29010554 112.55015542 -216.82421875 110.4296875 C-214.36663646 101.82814949 -209.05082203 94.39402966 -201.20703125 89.9453125 C-193.08424946 86.1201798 -185.82754793 84.10814003 -176.82421875 84.4296875 C-176.71207031 83.33914062 -176.71207031 83.33914062 -176.59765625 82.2265625 C-175.22771259 71.75052276 -171.40219436 60.88081504 -163 53.91796875 C-153.27436722 47.78082941 -143.79400656 47.48813178 -132.76171875 49.8671875 C-131.61574219 50.13402344 -130.46976562 50.40085938 -129.2890625 50.67578125 C-125.81180745 51.43238804 -122.35145726 51.96687786 -118.82421875 52.4296875 C-118.17778918 43.21806615 -120.44614035 34.22521422 -123.94140625 25.70703125 C-125.17576425 22.52282456 -125.07912721 19.80722458 -124.82421875 16.4296875 C-122.38545977 13.99092852 -120.96046272 14.12362501 -117.62060547 14.04956055 C-87.95773672 14.1195988 -57.2916857 25.09769518 -35.94067383 46.04956055 C-33.86605083 48.1432012 -31.83320185 50.27310564 -29.82421875 52.4296875 C-26.6573594 48.67941028 -24.78914482 44.42116101 -22.734375 40.0078125 C-22.34857773 39.18899597 -21.96278046 38.37017944 -21.56529236 37.52655029 C-20.33481513 34.91291897 -19.1105499 32.2964365 -17.88671875 29.6796875 C-16.66522158 27.07781885 -15.44243548 24.47656178 -14.21885681 21.87567139 C-13.45936552 20.2601987 -12.70127112 18.64406825 -11.94483948 17.02716064 C-10.21526992 13.33850589 -8.4699543 9.65746806 -6.68530273 5.99511719 C-6.22038673 5.03735382 -6.22038673 5.03735382 -5.74607849 4.0602417 C-4.15037024 1.23780714 -3.23704492 0.49249646 0 0 Z M10.17578125 15.4296875 C10.6277437 17.03566075 11.08760452 18.63941258 11.55078125 20.2421875 C11.80601562 21.13550781 12.06125 22.02882813 12.32421875 22.94921875 C13.12844786 25.63436646 13.12844786 25.63436646 15.17578125 28.4296875 C16.49578125 25.1296875 17.81578125 21.8296875 19.17578125 18.4296875 C16.20578125 17.4396875 13.23578125 16.4496875 10.17578125 15.4296875 Z M-0.82421875 20.4296875 C-3.09773586 24.33056423 -5.27369746 28.24633112 -7.21484375 32.32421875 C-7.69872559 33.33512573 -7.69872559 33.33512573 -8.19238281 34.36645508 C-9.18055158 37.59327667 -8.75774271 40.08346501 -7.23828125 43.05859375 C-6.77164063 43.84105469 -6.305 44.62351562 -5.82421875 45.4296875 C-5.21835935 46.64243319 -4.62286211 47.86038501 -4.03515625 49.08203125 C-2.35432853 52.56203646 -0.60501311 55.99982876 1.17578125 59.4296875 C5.18951533 55.41595342 8.03644924 48.88875612 8.265625 43.19921875 C7.78962355 40.80996876 7.05375215 38.70702965 6.17578125 36.4296875 C5.67829311 35.05909907 5.18234305 33.68795189 4.6875 32.31640625 C3.23299758 28.33418484 1.71680765 24.3791734 0.17578125 20.4296875 C-0.15421875 20.4296875 -0.48421875 20.4296875 -0.82421875 20.4296875 Z M-15.82421875 51.4296875 C-16.86180624 53.48380998 -17.87872215 55.54838355 -18.88671875 57.6171875 C-19.45519531 58.76574219 -20.02367187 59.91429687 -20.609375 61.09765625 C-21.92824077 64.71499548 -21.93887153 65.84727112 -20.82421875 69.4296875 C-20.58445312 70.57824219 -20.3446875 71.72679688 -20.09765625 72.91015625 C-19.80117188 74.13347656 -19.5046875 75.35679688 -19.19921875 76.6171875 C-18.91820312 77.84824219 -18.6371875 79.07929687 -18.34765625 80.34765625 C-17.06861949 83.8063854 -17.06861949 83.8063854 -13.17578125 84.85546875 C-11.51675781 85.13970703 -11.51675781 85.13970703 -9.82421875 85.4296875 C-6.64560641 81.52866326 -4.68885826 78.46520278 -5.03125 73.31640625 C-5.9821021 68.65582578 -7.68919804 64.80977428 -9.76171875 60.5546875 C-10.12201172 59.78382812 -10.48230469 59.01296875 -10.85351562 58.21875 C-12.55258358 54.1032109 -12.55258358 54.1032109 -15.82421875 51.4296875 Z M-233.82421875 136.4296875 C-230.45721221 172.13300123 -226.65328539 207.78974204 -222.86135562 243.44979806 C-222.21012824 249.57420356 -221.55957532 255.69868039 -220.90946007 261.82320404 C-220.81592847 262.70432094 -220.72239687 263.58543783 -220.62603098 264.49325524 C-220.43590404 266.2843636 -220.24577791 268.07547205 -220.05565258 269.86658058 C-218.28900499 286.50875442 -216.52014953 303.15069301 -214.75055089 319.79255328 C-213.13263806 335.00853787 -211.51741986 350.22480712 -209.90344564 365.44120994 C-208.23831328 381.13972229 -206.57147673 396.83805281 -204.90274638 412.53618312 C-203.96891775 421.32118572 -203.03574781 430.10625704 -202.10434914 438.89151764 C-201.31464641 446.34005349 -200.52332546 453.78841523 -199.72989444 461.23655489 C-199.32554647 465.03268603 -198.92194683 468.82889281 -198.52035522 472.62531662 C-198.08552115 476.73577129 -197.64710922 480.84583636 -197.20832825 484.95587158 C-197.01835186 486.75973009 -197.01835186 486.75973009 -196.82453758 488.60003018 C-196.70657787 489.69938736 -196.58861817 490.79874453 -196.46708393 491.93141556 C-196.36634801 492.87937602 -196.26561209 493.82733649 -196.16182357 494.80402303 C-195.83271007 497.36364765 -195.33033495 499.89910648 -194.82421875 502.4296875 C-132.12421875 502.4296875 -69.42421875 502.4296875 -4.82421875 502.4296875 C-2.33138806 482.57405345 -2.33138806 482.57405345 -0.09675598 462.6940155 C0.05413898 461.277113 0.20522852 459.86023121 0.35648996 458.44336778 C0.76214349 454.63845844 1.16510276 450.83326839 1.56752574 447.02801621 C2.00552378 442.89115472 2.44614018 438.7545719 2.88639832 434.61795044 C3.7441063 426.55515799 4.59945606 418.49211711 5.45393988 410.4289824 C6.45012785 401.02943387 7.44860065 391.63012845 8.44712237 382.23082761 C10.22760562 365.46991995 12.00588057 348.70877873 13.78295898 331.94750977 C15.50668107 315.68949901 17.23224619 299.43168516 18.9597168 283.17407227 C20.84525159 265.42885842 22.72980167 247.68354053 24.61260587 229.93803674 C24.81308505 228.04852279 25.01356462 226.15900888 25.21404457 224.26949501 C25.31266758 223.33996347 25.41129058 222.41043193 25.51290217 221.45273277 C26.20820577 214.90000783 26.90419255 208.34735566 27.60042381 201.79472923 C28.44701334 193.82672399 29.29245801 185.85859825 30.13643333 177.89031567 C30.56704657 173.82498297 30.99816631 169.75970566 31.43064117 165.69457054 C31.82601622 161.97801419 32.21994828 158.2613079 32.61270229 154.54447369 C32.82326248 152.55544661 33.03537616 150.56658417 33.24753541 148.57772702 C33.43286362 146.81966181 33.43286362 146.81966181 33.62193584 145.02608013 C33.7835357 143.50260119 33.7835357 143.50260119 33.9484002 141.94834489 C34.22073776 139.35319609 34.22073776 139.35319609 34.17578125 136.4296875 C29.55578125 136.4296875 24.93578125 136.4296875 20.17578125 136.4296875 C19.21839281 139.30185282 18.89586983 141.5982987 18.63665104 144.59945869 C18.49443704 146.21464683 18.49443704 146.21464683 18.34935004 147.86246502 C18.24857151 149.04989045 18.14779299 150.23731587 18.04396057 151.46072388 C17.93426136 152.71875474 17.82456216 153.9767856 17.71153873 155.27293861 C17.40653791 158.77159316 17.10610288 162.27062727 16.806373 165.76973677 C16.48250918 169.54108471 16.15440037 173.31206344 15.82675171 177.08308411 C15.25923664 183.62097493 14.69427108 190.15908203 14.1308918 196.69733047 C13.31537141 206.1604993 12.49467627 215.62321406 11.67247426 225.08580445 C10.33746412 240.4505523 9.00484012 255.81550593 7.67456055 271.18066406 C7.55507583 272.56072806 7.55507583 272.56072806 7.43317728 273.96867214 C6.54502359 284.22768598 5.65756148 294.48675942 4.77099609 304.74591064 C4.65154128 306.12819343 4.65154128 306.12819343 4.52967324 307.53840112 C4.45012156 308.4589423 4.37056988 309.37948348 4.28860754 310.32791984 C4.12819714 312.18410811 3.96778565 314.04029629 3.80737305 315.89648438 C3.68849002 317.27214163 3.68849002 317.27214163 3.56720532 318.67558993 C2.24488703 333.9753455 0.91789102 349.27469125 -0.41282231 364.57371891 C-1.23337461 374.00976898 -2.04992453 383.44614872 -2.86131621 392.882991 C-3.41795173 399.35340644 -3.97893272 405.82343576 -4.54331356 412.29318018 C-4.86867345 416.0245995 -5.19205808 419.75616245 -5.51012993 423.48821068 C-5.85535133 427.53831047 -6.20995007 431.58753563 -6.56541443 435.63674927 C-6.66396223 436.81079036 -6.76251003 437.98483145 -6.86404413 439.19444954 C-7.77527234 449.41299496 -8.76248446 458.52819885 -15.82421875 466.4296875 C-23.41223798 472.01930727 -31.29297073 472.14904808 -40.38671875 472.07666016 C-41.83008929 472.08344893 -43.27345116 472.09235909 -44.71679688 472.10321045 C-48.60953312 472.12586137 -52.50160133 472.11722711 -56.39434814 472.10131502 C-60.48427011 472.08858169 -64.57413808 472.10041664 -68.6640625 472.10824585 C-75.53005147 472.11732092 -82.3957708 472.10541107 -89.26171875 472.08154297 C-97.17925122 472.05433562 -105.09613974 472.06315132 -113.01365662 472.090675 C-119.83354674 472.11342646 -126.65324395 472.11653679 -133.47315979 472.10348165 C-137.5367385 472.09572015 -141.60001537 472.09455379 -145.66357422 472.11116409 C-149.48557403 472.12569809 -153.30675047 472.11542669 -157.12866211 472.08669281 C-158.52415607 472.08012922 -159.91972036 472.08189797 -161.31518555 472.09300613 C-171.05788751 472.16335968 -179.05423923 471.07735986 -186.26171875 464.0546875 C-189.55555354 458.52104505 -191.18787298 453.72136946 -191.84934998 447.31954956 C-191.92541393 446.60082228 -192.00147788 445.88209499 -192.0798468 445.14158809 C-192.34426356 442.57229169 -192.58635072 440.00157686 -192.82421875 437.4296875 C-192.91798774 436.42661135 -193.01175673 435.4235352 -193.1083672 434.39006281 C-193.85115968 426.36507938 -194.54893175 418.33632366 -195.23980868 410.30673814 C-195.55348156 406.66805998 -195.87022424 403.02964882 -196.18659973 399.39120483 C-196.73272831 393.10613623 -197.27705977 386.82091417 -197.8202076 380.53558731 C-198.60583688 371.44503845 -199.39506322 362.35480447 -200.18527525 353.26465295 C-201.46809656 338.50747675 -202.74915488 323.75014816 -204.02856445 308.99267578 C-204.14310846 307.67147166 -204.14310846 307.67147166 -204.25996649 306.32357655 C-205.1135241 296.47783501 -205.96670096 286.63206051 -206.81951904 276.78625488 C-207.12975382 273.20467062 -207.43999506 269.62308693 -207.75024414 266.04150391 C-207.82681518 265.15754173 -207.90338621 264.27357956 -207.98227758 263.36283065 C-209.25776327 248.6391179 -210.53608244 233.91565267 -211.81661409 219.19237792 C-212.60561752 210.11914678 -213.39214253 201.04570734 -214.17549073 191.97198616 C-214.71128936 185.76773579 -215.24968684 179.56371453 -215.79015834 173.3598695 C-216.10204031 169.77886756 -216.41269632 166.19776985 -216.72016907 162.61638641 C-217.052964 158.74034081 -217.39137597 154.86479767 -217.73036194 150.98928833 C-217.82724951 149.8501203 -217.92413709 148.71095227 -218.02396065 147.53726399 C-218.16094955 145.98695227 -218.16094955 145.98695227 -218.30070591 144.40532112 C-218.37822387 143.51042225 -218.45574184 142.61552338 -218.53560883 141.69350636 C-218.77059195 139.26771112 -218.77059195 139.26771112 -219.82421875 136.4296875 C-224.44421875 136.4296875 -229.06421875 136.4296875 -233.82421875 136.4296875 Z M-208.82421875 136.4296875 C-212.04188972 174.86061931 -212.04188972 174.86061931 -200.13671875 205.9296875 C-194.38354115 208.55768221 -187.96019357 208.3199517 -181.82421875 207.4296875 C-176.0434601 205.22978768 -171.79782136 201.47380407 -167.32421875 197.3046875 C-159.05186203 189.80786422 -150.70453235 188.57998245 -139.87109375 189.06640625 C-130.2916442 189.77803509 -124.37306718 194.17454134 -117.46386719 200.45629883 C-110.83444661 206.46278604 -105.32975732 208.11929306 -96.359375 207.90234375 C-88.72985585 206.88226439 -83.78966728 202.39814215 -78.32421875 197.3046875 C-70.05186203 189.80786422 -61.70453235 188.57998245 -50.87109375 189.06640625 C-41.2916442 189.77803509 -35.37306718 194.17454134 -28.46386719 200.45629883 C-24.01868956 204.48378543 -20.14540611 207.31737198 -13.94921875 207.6171875 C-12.40234375 207.524375 -12.40234375 207.524375 -10.82421875 207.4296875 C-10.82421875 211.0596875 -10.82421875 214.6896875 -10.82421875 218.4296875 C-24.00939945 216.76259569 -31.20651542 212.30139136 -41.02734375 203.63671875 C-46.05554531 199.668934 -51.55357282 198.08341891 -57.9921875 198.60546875 C-64.20072427 199.66337777 -68.08989494 202.42512458 -72.82421875 206.4296875 C-83.82646469 215.54246008 -92.31647642 218.95247505 -106.68701172 217.734375 C-116.12986368 216.38816992 -123.29367977 209.74282454 -130.1328125 203.6015625 C-135.077533 199.61133812 -140.62101075 198.08888685 -146.9921875 198.60546875 C-153.20072427 199.66337777 -157.08989494 202.42512458 -161.82421875 206.4296875 C-163.29516207 207.64801801 -164.77456333 208.85620003 -166.26171875 210.0546875 C-166.92042969 210.60382813 -167.57914063 211.15296875 -168.2578125 211.71875 C-175.73223312 216.70169708 -181.96603112 218.00249596 -190.88671875 217.6796875 C-191.84771484 217.66164063 -192.80871094 217.64359375 -193.79882812 217.625 C-196.14176989 217.57837429 -198.48224134 217.5093377 -200.82421875 217.4296875 C-201.17788467 228.56905283 -200.09575582 239.57849915 -199.12768555 250.66088867 C-198.94495408 252.79577698 -198.76264333 254.93070133 -198.58071899 257.06565857 C-198.08766064 262.8344072 -197.58793542 268.60255907 -197.08636069 274.37057281 C-196.77296461 277.97809975 -196.4610168 281.58574895 -196.14957619 285.19344521 C-195.06215346 297.78950472 -193.96926953 310.38507687 -192.87133789 322.98022461 C-191.84923708 334.70715119 -190.83922582 346.43507701 -189.83478993 358.16352862 C-188.9704065 368.25028869 -188.09754203 378.3362917 -187.21811038 388.42175084 C-186.69364143 394.43813573 -186.1725987 400.45476884 -185.66013145 406.47218895 C-185.17820687 412.12757952 -184.68571908 417.78195271 -184.18516922 423.43572426 C-184.00358848 425.50698166 -183.82574344 427.57857058 -183.651968 429.65049744 C-183.41361128 432.48534176 -183.16162112 435.31866404 -182.90629578 438.15202332 C-182.84110628 438.96584903 -182.77591679 439.77967475 -182.70875186 440.61816186 C-181.82630048 450.13591814 -181.82630048 450.13591814 -177.14094561 458.11610287 C-172.17916771 461.96880233 -167.3761814 462.55274927 -161.18289185 462.56340027 C-160.058638 462.56766525 -158.93438416 462.57193024 -157.77606201 462.57632446 C-156.55203674 462.57587128 -155.32801147 462.57541809 -154.06689453 462.57495117 C-152.77042999 462.57830978 -151.47396545 462.5816684 -150.13821411 462.58512878 C-146.58856188 462.59394762 -143.03893377 462.596306 -139.48927164 462.59694457 C-137.26951631 462.59765625 -135.04976708 462.59979282 -132.83001328 462.60244179 C-125.0801937 462.61168808 -117.33039131 462.61577756 -109.58056641 462.61499023 C-102.36592924 462.61438957 -95.15136687 462.62494092 -87.93674862 462.6407339 C-81.73446303 462.65382521 -75.53220183 462.65917347 -69.32990253 462.65853482 C-65.62916041 462.65828031 -61.92848481 462.66110565 -58.2277565 462.67171288 C-54.09856328 462.68322557 -49.9695369 462.6786373 -45.84033203 462.67260742 C-44.01036682 462.68103668 -44.01036682 462.68103668 -42.14343262 462.68963623 C-35.06264724 462.66335033 -29.33710822 462.42564743 -23.07421875 458.8671875 C-17.15007716 452.44936745 -17.11577886 442.87870638 -16.43843079 434.58532715 C-16.3256116 433.31244166 -16.21279241 432.03955617 -16.09655446 430.72809839 C-15.78562434 427.21667864 -15.48833295 423.70422047 -15.19336116 420.19142914 C-14.8721599 416.39533548 -14.53817682 412.60036353 -14.20578003 408.80523682 C-13.63222951 402.23674734 -13.06672072 395.66760576 -12.50673866 389.09794617 C-11.69701143 379.59834953 -10.87516165 370.09983218 -10.05040636 360.6015299 C-8.71237778 345.18821806 -7.38422917 329.77407154 -6.06225586 314.359375 C-4.77857851 299.39145907 -3.49002417 284.42397581 -2.19506836 269.45703125 C-2.07527729 268.07247318 -2.07527729 268.07247318 -1.95306621 266.65994424 C-1.63206854 262.95006601 -1.3110317 259.24019118 -0.98994406 255.53032073 C1.53236209 226.38737354 4.04871187 197.24391503 6.55223644 168.09934807 C6.74371174 165.87093726 6.93534369 163.64253996 7.12701988 161.41414642 C7.47551929 157.36220211 7.82329266 153.31019586 8.17094421 149.25817871 C8.27395346 148.06103666 8.3769627 146.86389461 8.48309344 145.63047552 C8.57529502 144.55418213 8.66749661 143.47788875 8.76249218 142.36898041 C8.84288555 141.43253236 8.92327893 140.49608432 9.00610846 139.53125906 C9.13260652 137.98215235 9.13260652 137.98215235 9.17578125 136.4296875 C-62.76421875 136.4296875 -134.70421875 136.4296875 -208.82421875 136.4296875 Z " fill="#000000" transform="translate(355.82421875,-0.4296875)"/>
</svg>
