<?xml version="1.0" encoding="UTF-8"?>
<svg version="1.1" xmlns="http://www.w3.org/2000/svg" width="512" height="512">
<path d="M0 0 C1.5857357 -0.03928368 1.5857357 -0.03928368 3.20350647 -0.07936096 C9.87066889 -0.09879062 9.87066889 -0.09879062 13.13110352 2.20678711 C16.68743282 7.68876576 16.12528765 14.08793006 15.53515625 20.37109375 C10.23563041 40.6644 -8.10644834 56.18363162 -22.46484375 70.37109375 C-12.23484375 70.37109375 -2.00484375 70.37109375 8.53515625 70.37109375 C10.12585938 66.6121875 11.7165625 62.85328125 13.35546875 58.98046875 C14.64058573 55.94977945 15.92647883 52.91942204 17.21289062 49.88928223 C18.56254852 46.70958313 19.91089011 43.52934175 21.25585938 40.34765625 C22.80559163 36.68175886 24.36165508 33.01857699 25.91796875 29.35546875 C26.39009796 28.23622009 26.86222717 27.11697144 27.34866333 25.96380615 C36.15133883 5.2936387 36.15133883 5.2936387 40.53515625 2.37109375 C48.02627309 2.57267526 54.71401014 5.34992402 61.6796875 7.921875 C62.93888327 8.38206492 64.19821909 8.84187178 65.45768738 9.30131531 C68.0829331 10.26140178 70.70566829 11.22799703 73.3269043 12.19897461 C76.68187497 13.44083035 80.04362573 14.66305864 83.40762806 15.88020039 C86.00430723 16.82271991 88.59654817 17.77699013 91.18765831 18.73470116 C93.02567776 19.41119775 94.86777562 20.07658003 96.70991516 20.74177551 C97.8250499 21.15868149 98.94018463 21.57558746 100.08911133 22.00512695 C101.07091873 22.36629105 102.05272614 22.72745514 103.06428528 23.0995636 C105.8203954 24.51788012 106.98946304 25.70627663 108.53515625 28.37109375 C108.94511537 31.65076674 108.81807803 33.69915453 107.53515625 36.74609375 C105.0094487 38.79823113 103.13547091 38.7392947 99.95257568 38.66769409 C95.10260578 38.07263694 90.64711439 36.20067523 86.10546875 34.46875 C85.03392548 34.07159286 83.9623822 33.67443573 82.85836792 33.26524353 C79.45429979 32.00014501 76.05734165 30.71704443 72.66015625 29.43359375 C70.35329905 28.57370334 68.04601138 27.7149668 65.73828125 26.85742188 C61.53400278 25.29083701 57.33117276 23.72064333 53.13330078 22.13696289 C51.87043747 21.66064171 51.87043747 21.66064171 50.58206177 21.17469788 C48.53515625 20.37109375 48.53515625 20.37109375 46.53515625 19.37109375 C46.41036392 20.09729416 46.28557159 20.82349457 46.15699768 21.57170105 C45.54982224 24.30507072 44.70709866 26.60118748 43.58569336 29.16137695 C43.18535385 30.08195389 42.78501434 31.00253082 42.37254333 31.95100403 C41.72407188 33.42158516 41.72407188 33.42158516 41.0625 34.921875 C40.39874107 36.44278999 40.39874107 36.44278999 39.72157288 37.99443054 C38.30989551 41.2261989 36.89137448 44.45491096 35.47265625 47.68359375 C34.51321898 49.87675505 33.55422927 52.07011221 32.59570312 54.26367188 C30.24737249 59.63509432 27.89341881 65.00402498 25.53515625 70.37109375 C26.73060059 70.3851123 26.73060059 70.3851123 27.95019531 70.39941406 C31.562478 70.45310873 35.17346446 70.53675983 38.78515625 70.62109375 C40.03941406 70.63527344 41.29367187 70.64945312 42.5859375 70.6640625 C43.79121094 70.69628906 44.99648438 70.72851562 46.23828125 70.76171875 C47.34848633 70.78266602 48.45869141 70.80361328 49.60253906 70.82519531 C53.16097004 71.48758723 54.36265091 72.52259704 56.53515625 75.37109375 C57.13989069 79.04826927 56.95595883 80.71946257 54.92578125 83.86328125 C54.219375 84.64960937 53.51296875 85.4359375 52.78515625 86.24609375 C45.9691615 94.27837025 41.9618535 102.82849918 42.22265625 113.5703125 C43.645509 126.3226303 49.94507786 136.94789723 57.41015625 147.05859375 C77.24900573 174.02452663 84.39285232 208.83598741 79.71508789 241.7565918 C79.11249798 245.32688695 78.37580831 248.84962214 77.53515625 252.37109375 C77.36886719 253.07492187 77.20257813 253.77875 77.03125 254.50390625 C71.66942957 276.34835986 60.97996382 294.16430326 45.53515625 310.37109375 C44.74818359 311.27021484 44.74818359 311.27021484 43.9453125 312.1875 C32.91588911 324.28338163 16.36158552 332.39741229 0.77148438 336.46923828 C0.0750885 336.65293472 -0.62130737 336.83663116 -1.33880615 337.02589417 C-3.04698642 337.47619099 -4.75584808 337.92390156 -6.46484375 338.37109375 C-6.55748691 349.12379274 -6.62857991 359.87639693 -6.67209244 370.6294136 C-6.69297537 375.62238909 -6.72130597 380.61509172 -6.76660156 385.60791016 C-6.81003403 390.42546016 -6.83397553 395.24274755 -6.84435272 400.06047821 C-6.85174877 401.89933151 -6.86619144 403.73817029 -6.88776398 405.57691193 C-6.91676377 408.15087545 -6.92080125 410.7237512 -6.91894531 413.29785156 C-6.94051697 414.44044685 -6.94051697 414.44044685 -6.96252441 415.60612488 C-6.93629253 418.96402254 -6.69489972 421.02829374 -4.80490112 423.8445282 C-1.8560021 425.76827918 -0.08046643 425.86994321 3.43017578 425.86938477 C4.61886261 425.87942032 5.80754944 425.88945587 7.03225708 425.89979553 C8.31454193 425.89161301 9.59682678 425.88343048 10.91796875 425.875 C12.25594411 425.88237358 13.59390907 425.89192505 14.93185425 425.90354919 C18.45605586 425.93024925 21.97991963 425.93584594 25.50421143 425.93444824 C31.12268118 425.9322214 36.74072782 425.9467295 42.35903549 425.9900341 C44.30746028 425.99976035 46.25595006 425.99078548 48.20437622 425.9813385 C59.14246963 426.0436863 67.57913599 427.37111661 75.62109375 435.12890625 C80.36296696 440.68367201 82.41450873 447.1322424 82.53515625 454.37109375 C81.39741297 456.80172712 80.41701729 458.48923271 78.53515625 460.37109375 C75.88657071 460.47556966 73.26382917 460.51441744 70.61453247 460.51153564 C69.77458296 460.51450677 68.93463344 460.51747789 68.06923091 460.52053905 C65.23250475 460.52926524 62.39582059 460.53073758 59.55908203 460.53222656 C57.53427031 460.53685195 55.50945947 460.54187623 53.48464966 460.54727173 C47.96815478 460.5604243 42.45167209 460.56684619 36.93516397 460.57128239 C33.49264135 460.5742084 30.0501221 460.57831229 26.60760117 460.58278656 C15.84825471 460.59646877 5.08891591 460.60613198 -5.67043865 460.60998845 C-18.11195808 460.6144717 -30.55336779 460.63202899 -42.99485385 460.66098905 C-52.5973915 460.68256893 -62.19989819 460.69269075 -71.80245984 460.69402957 C-77.54430229 460.69508022 -83.2860417 460.70104301 -89.02785873 460.71884918 C-94.4269998 460.73526621 -99.82595968 460.73751649 -105.22511673 460.72871017 C-107.21053297 460.72793638 -109.1959587 460.73232723 -111.18135071 460.74216843 C-113.88453715 460.75478529 -116.58707182 460.74906749 -119.29025269 460.73858643 C-120.08236739 460.74664283 -120.8744821 460.75469923 -121.69060028 460.76299977 C-126.97209131 460.71485691 -126.97209131 460.71485691 -129.45085335 458.98557663 C-131.92163296 455.0515834 -130.9094682 449.57819349 -130.03125 445.21875 C-127.7784293 438.15244904 -122.90012084 432.36874829 -116.33984375 428.93359375 C-111.45709578 426.67456305 -106.69849907 426.24676007 -101.36108398 426.22924805 C-100.15310654 426.22221359 -98.94512909 426.21517914 -97.70054626 426.20793152 C-96.40460037 426.20376724 -95.10865448 426.19960297 -93.7734375 426.1953125 C-92.42252323 426.18488064 -91.0716163 426.1734568 -89.72071838 426.16108704 C-83.99849572 426.10880075 -78.2764119 426.06060777 -72.55395508 426.04516602 C-69.04660609 426.03508375 -65.53986949 426.00576533 -62.03276253 425.96384621 C-60.05198629 425.94557583 -58.07105306 425.94818311 -56.0901947 425.95109558 C-54.88536942 425.93460464 -53.68054413 425.91811371 -52.43920898 425.90112305 C-51.37951401 425.89525681 -50.31981903 425.88939056 -49.22801208 425.88334656 C-45.77077473 425.24242305 -44.60954908 424.10656807 -42.46484375 421.37109375 C-41.26251607 417.7641107 -41.28884825 414.44351805 -41.25952148 410.68676758 C-41.24962189 409.90604385 -41.23972229 409.12532013 -41.22952271 408.32093811 C-41.19793198 405.74003127 -41.17315987 403.15910602 -41.1484375 400.578125 C-41.12786588 398.78878806 -41.10686935 396.99945595 -41.08546448 395.21012878 C-41.03026533 390.50017209 -40.98084652 385.79017169 -40.93261719 381.08013916 C-40.88238644 376.27408966 -40.82670858 371.46810363 -40.77148438 366.66210938 C-40.66392917 357.23182506 -40.56247831 347.80148563 -40.46484375 338.37109375 C-42.08966675 337.97712402 -42.08966675 337.97712402 -43.74731445 337.57519531 C-45.19096207 337.22088277 -46.63456313 336.86638049 -48.078125 336.51171875 C-48.78940552 336.33979004 -49.50068604 336.16786133 -50.23352051 335.99072266 C-66.45284476 331.98824953 -80.03269837 323.37627905 -92.46484375 312.37109375 C-93.1609375 311.75878906 -93.85703125 311.14648438 -94.57421875 310.515625 C-116.88289146 289.59009 -128.65496698 256.885562 -129.66796875 226.8203125 C-130.1854431 195.71001468 -121.57561937 167.2060774 -102.88378906 142.17211914 C-97.89020449 135.41674178 -94.63896344 128.6988705 -93.46484375 120.37109375 C-94.44582031 120.86738281 -95.42679687 121.36367187 -96.4375 121.875 C-143.34613591 145.52867966 -143.34613591 145.52867966 -168.02734375 145.87109375 C-168.8481543 145.88962402 -169.66896484 145.9081543 -170.51464844 145.92724609 C-177.47401299 145.85478231 -182.32964846 143.56573045 -187.96484375 139.62109375 C-190.22423511 136.23200671 -190.11178225 133.26175179 -189.46484375 129.37109375 C-187.7878612 124.76016383 -185.62751837 120.39390958 -183.46484375 115.99609375 C-182.83043406 114.67654795 -182.19765778 113.35621577 -181.56640625 112.03515625 C-180.22959553 109.24171214 -178.88512746 106.45214587 -177.53515625 103.66503906 C-174.46025335 97.30443031 -171.46798664 90.90497035 -168.46813965 84.50872803 C-167.12360409 81.64404444 -165.77499625 78.78128598 -164.42645264 75.91848755 C-160.63351617 67.86558508 -156.85373172 59.80659969 -153.08807373 51.74090576 C-152.22438141 49.89151636 -151.35952009 48.04267663 -150.49462891 46.19384766 C-147.64754519 40.10037103 -144.83349923 33.99342254 -142.06640625 27.86328125 C-141.25091309 26.06600586 -141.25091309 26.06600586 -140.41894531 24.23242188 C-139.39492232 21.9715919 -138.37818647 19.70744157 -137.37011719 17.43945312 C-136.91411133 16.43462891 -136.45810547 15.42980469 -135.98828125 14.39453125 C-135.59560059 13.51716309 -135.20291992 12.63979492 -134.79833984 11.73583984 C-133.28882089 9.05894482 -131.80341102 7.36749988 -129.46484375 5.37109375 C-127.23377991 4.7959137 -127.23377991 4.7959137 -124.60961914 4.68188477 C-123.54107697 4.62630402 -122.47253479 4.57072327 -121.37161255 4.51345825 C-120.08237885 4.46647797 -118.79314514 4.41949768 -117.46484375 4.37109375 C-115.86734509 4.29636417 -114.26992714 4.21989703 -112.6725769 4.14205933 C-106.83231077 3.86550313 -100.99059367 3.63105 -95.1484375 3.3984375 C-92.96582257 3.3102558 -90.78321052 3.22200266 -88.6006012 3.13368225 C-84.03076308 2.94947795 -79.4608448 2.76742808 -74.89086914 2.58666992 C-70.25855094 2.40316613 -65.62640733 2.21596566 -60.99438477 2.02514648 C-16.99723847 0.21436408 -16.99723847 0.21436408 0 0 Z M-56.63500977 16.76177979 C-60.57810331 16.94678661 -64.52148563 17.12542478 -68.46484375 17.3046875 C-76.13179721 17.65411874 -83.79841576 18.01029792 -91.46484375 18.37109375 C-88.74906056 20.18161588 -86.30001543 21.38695865 -83.3125 22.6640625 C-81.70773804 23.35205933 -81.70773804 23.35205933 -80.07055664 24.05395508 C-78.90129639 24.55048584 -77.73203613 25.0470166 -76.52734375 25.55859375 C-75.3148999 26.07381592 -74.10245605 26.58903809 -72.85327148 27.11987305 C-70.88174925 27.95680582 -68.90983878 28.79279082 -66.93714905 29.62696838 C-62.36678504 31.56005377 -57.80510299 33.51246228 -53.24708557 35.47447205 C-49.98126076 36.87705136 -46.71053421 38.26793079 -43.43869019 39.65640259 C-41.83464891 40.33969595 -40.23251584 41.02748679 -38.63235474 41.71981812 C-36.37456263 42.69546897 -34.11026209 43.65419113 -31.84375 44.609375 C-31.17089966 44.90458038 -30.49804932 45.19978577 -29.80480957 45.50393677 C-25.97620698 47.09417691 -23.42528498 47.80146324 -19.46484375 46.37109375 C-11.34816104 39.5726314 -3.59541639 28.18931353 0.53515625 18.37109375 C0.53515625 17.38109375 0.53515625 16.39109375 0.53515625 15.37109375 C-18.560915 15.09388584 -37.56748903 15.86127379 -56.63500977 16.76177979 Z M-104.46484375 30.37109375 C-103.20580487 33.75303289 -101.77158786 36.6568162 -99.76269531 39.65136719 C-99.22163147 40.46281189 -98.68056763 41.27425659 -98.12310791 42.11029053 C-97.53978699 42.97494934 -96.95646606 43.83960815 -96.35546875 44.73046875 C-95.75103943 45.63428284 -95.14661011 46.53809692 -94.52386475 47.46929932 C-92.59184773 50.35615477 -90.6534708 53.23867409 -88.71484375 56.12109375 C-87.42535538 58.04528759 -86.13628835 59.96976386 -84.84765625 61.89453125 C-82.46257437 65.4558641 -80.0749867 69.01548798 -77.68457031 72.57324219 C-74.60028421 77.16518327 -71.52998678 81.76635741 -68.46484375 86.37109375 C-59.42336424 81.00231376 -51.41088556 74.711185 -43.36523438 67.96435547 C-42.05857255 66.86886792 -40.74429739 65.78241772 -39.42382812 64.70361328 C-38.78251953 64.1723584 -38.14121094 63.64110352 -37.48046875 63.09375 C-36.90071289 62.6181665 -36.32095703 62.14258301 -35.72363281 61.65258789 C-34.23125753 60.43268148 -34.23125753 60.43268148 -34.46484375 58.37109375 C-46.29310161 53.37772455 -58.12590714 48.39525718 -69.96289062 43.42260742 C-72.32981636 42.42784267 -74.69622547 41.43185947 -77.0625 40.43554688 C-80.4661225 39.00307115 -83.87201194 37.5761372 -87.27993774 36.15393066 C-89.12651167 35.38189392 -90.970867 34.60455765 -92.81518555 33.82714844 C-93.92031494 33.36727539 -95.02544434 32.90740234 -96.1640625 32.43359375 C-97.12143311 32.03269531 -98.07880371 31.63179687 -99.06518555 31.21875 C-101.51213269 30.20455825 -101.51213269 30.20455825 -104.46484375 30.37109375 Z M-118.46484375 38.37109375 C-119.49971138 55.31515532 -119.58401132 72.21219057 -119.52734375 89.18359375 C-119.52231393 91.83398352 -119.51775367 94.48437423 -119.51367188 97.13476562 C-119.5027947 103.54689583 -119.48617631 109.95899024 -119.46484375 116.37109375 C-116.4230081 114.95509888 -113.38503738 113.53099068 -110.34765625 112.10546875 C-109.49276611 111.70763184 -108.63787598 111.30979492 -107.75708008 110.89990234 C-102.15239224 108.26335366 -96.9879855 105.39895417 -91.84375 101.9453125 C-88.17887076 99.52011326 -84.32864839 97.45758063 -80.46484375 95.37109375 C-83.99657032 88.73411184 -87.93710999 82.48040438 -92.15625 76.26171875 C-92.78337387 75.33188171 -93.41049774 74.40204468 -94.05662537 73.44403076 C-95.37347692 71.49323824 -96.69211187 69.54364848 -98.01245117 67.59521484 C-100.02905883 64.61856217 -102.03935967 61.63772558 -104.04882812 58.65625 C-105.33426638 56.75365687 -106.62006135 54.85130468 -107.90625 52.94921875 C-108.50425919 52.06268616 -109.10226837 51.17615356 -109.71839905 50.26275635 C-112.49538748 46.17000794 -115.28794954 42.16990414 -118.46484375 38.37109375 Z M-134.46484375 47.37109375 C-142.7368078 64.418337 -150.83986427 81.53280863 -158.78271484 98.73632812 C-160.5701794 102.60312584 -162.37062068 106.46383007 -164.171875 110.32421875 C-165.0796876 112.27169314 -165.98736634 114.21922988 -166.89501953 116.16677856 C-167.48051968 117.42216524 -168.06661448 118.67727474 -168.65332031 119.93209839 C-169.46331091 121.66486567 -170.27078469 123.39880879 -171.078125 125.1328125 C-171.54001221 126.12240967 -172.00189941 127.11200684 -172.4777832 128.1315918 C-173.53206267 130.11570778 -173.53206267 130.11570778 -173.46484375 131.37109375 C-159.98703984 132.41904395 -146.86787169 128.30067444 -134.46484375 123.37109375 C-133.53998022 106.38241832 -133.34048567 89.44456647 -133.40234375 72.43359375 C-133.40737694 69.98502697 -133.41193658 67.53645918 -133.41601562 65.08789062 C-133.42685837 59.18226879 -133.44344755 53.27668632 -133.46484375 47.37109375 C-133.79484375 47.37109375 -134.12484375 47.37109375 -134.46484375 47.37109375 Z M-57.60205078 96.60058594 C-61.57694053 100.37855454 -66.59994242 102.89107433 -71.3425293 105.59106445 C-73.63945011 106.93060305 -73.63945011 106.93060305 -76.46484375 109.37109375 C-77.08272276 112.58700094 -77.08272276 112.58700094 -76.46484375 115.37109375 C-55.78973266 121.80552801 -34.99998373 122.90232111 -13.46484375 122.37109375 C-7.59471831 110.25334285 -2.47945664 97.86396854 2.53515625 85.37109375 C-30.24844196 82.02699094 -30.24844196 82.02699094 -57.60205078 96.60058594 Z M18.53515625 85.37109375 C16.71662674 89.38959296 14.90198474 93.40981844 13.09082031 97.43164062 C12.47500691 98.79767371 11.85816044 100.1632416 11.24023438 101.52832031 C10.34879505 103.49811367 9.46116684 105.46958725 8.57421875 107.44140625 C7.77298584 109.21668701 7.77298584 109.21668701 6.95556641 111.02783203 C5.64705239 114.10772047 4.54172891 117.18149008 3.53515625 120.37109375 C11.48914433 119.9170275 18.86313532 118.49997914 26.53515625 116.37109375 C26.633125 115.34371094 26.73109375 114.31632812 26.83203125 113.2578125 C27.72141216 104.75574227 29.18456615 97.30517508 32.53515625 89.37109375 C32.86515625 88.38109375 33.19515625 87.39109375 33.53515625 86.37109375 C29.9150399 85.62850578 26.49549558 85.31293602 22.8125 85.33984375 C21.60775024 85.34661133 21.60775024 85.34661133 20.37866211 85.35351562 C19.77030518 85.35931641 19.16194824 85.36511719 18.53515625 85.37109375 Z M-79.46484375 130.37109375 C-79.903125 131.31726563 -80.34140625 132.2634375 -80.79296875 133.23828125 C-84.51536438 141.0680442 -88.6139734 148.34762762 -93.52734375 155.49609375 C-111.3819634 181.62039707 -118.51993653 211.58568261 -112.87329102 242.85888672 C-107.64937286 269.0857984 -94.44381659 294.22952793 -72.0625 309.859375 C-68.92094398 311.84292583 -65.75654965 313.64985822 -62.46484375 315.37109375 C-61.57539063 315.84933594 -60.6859375 316.32757813 -59.76953125 316.8203125 C-53.18584367 320.09250349 -46.38652863 321.83711508 -39.26171875 323.4765625 C-28.92379395 325.91214355 -28.92379395 325.91214355 -27.46484375 327.37109375 C-27.34821439 330.34201669 -27.29681219 333.28999075 -27.2878418 336.26196289 C-27.2812706 337.19535492 -27.2746994 338.12874695 -27.26792908 339.09042358 C-27.24813555 342.19569979 -27.23651726 345.30092739 -27.2265625 348.40625 C-27.22248697 349.46550627 -27.21841145 350.52476254 -27.21421242 351.61611748 C-27.19332134 357.22739341 -27.17903538 362.83864471 -27.16967773 368.44995117 C-27.15863438 374.24153046 -27.12426695 380.0327233 -27.08450603 385.8241663 C-27.05832406 390.27923789 -27.04998425 394.7342179 -27.04639626 399.18935966 C-27.04153083 401.32353754 -27.02991814 403.45771133 -27.01135826 405.59181404 C-26.98694405 408.586338 -26.98793676 411.57986934 -26.99487305 414.57446289 C-26.98206299 415.45115128 -26.96925293 416.32783966 -26.95605469 417.23109436 C-27.01297533 423.99982173 -28.77521287 429.19020609 -33.17578125 434.39453125 C-33.72492188 434.84054687 -34.2740625 435.2865625 -34.83984375 435.74609375 C-35.38382812 436.20757812 -35.9278125 436.6690625 -36.48828125 437.14453125 C-41.01828625 439.95564107 -45.50681195 440.6214123 -50.75805664 440.64233398 C-51.98275162 440.6525206 -53.20744659 440.66270721 -54.46925354 440.67320251 C-55.77877487 440.67534256 -57.0882962 440.6774826 -58.4375 440.6796875 C-59.80701259 440.69079794 -61.1765153 440.70319367 -62.54600525 440.71681213 C-68.33990635 440.77200219 -74.1338746 440.80293198 -79.92797852 440.82739258 C-83.48176098 440.84329406 -87.03520002 440.87353132 -90.58880424 440.91215706 C-92.59226428 440.92940566 -94.59584622 440.92986153 -96.59938049 440.93003845 C-97.82092331 440.94337723 -99.04246613 440.956716 -100.30102539 440.97045898 C-101.37324844 440.97552963 -102.4454715 440.98060028 -103.55018616 440.98582458 C-106.87932289 441.42588099 -108.77355827 442.39340283 -111.46484375 444.37109375 C-111.79484375 445.03109375 -112.12484375 445.69109375 -112.46484375 446.37109375 C-54.05484375 446.37109375 4.35515625 446.37109375 64.53515625 446.37109375 C59.81081587 441.64675337 58.98306334 441.24780787 52.68359375 441.24511719 C50.84027466 441.23940704 50.84027466 441.23940704 48.9597168 441.23358154 C48.30047211 441.23338768 47.64122742 441.23319382 46.96200562 441.23299408 C44.18142921 441.22957186 41.40108518 441.20819004 38.62059021 441.18776321 C33.44576151 441.14983006 28.27117502 441.11846498 23.09619141 441.12060547 C19.49494534 441.12139822 15.89454325 441.09778518 12.29351807 441.05872345 C10.92860725 441.04833948 9.56359807 441.0466828 8.19866943 441.05437469 C-1.59721064 441.10402262 -9.6530761 440.05948275 -16.90234375 432.99609375 C-20.83237575 426.39363998 -21.90671585 421.49276503 -21.85302734 413.90332031 C-21.8582843 412.9805278 -21.86354126 412.05773529 -21.86895752 411.10697937 C-21.88209796 408.07505069 -21.87344342 405.0436522 -21.86328125 402.01171875 C-21.865303 399.89898579 -21.86821528 397.78625352 -21.87197876 395.67352295 C-21.87639345 391.25542528 -21.86999592 386.83751001 -21.85595703 382.41943359 C-21.83882376 376.75087178 -21.84873803 371.0827348 -21.86667442 365.41418839 C-21.87749954 361.05624165 -21.87407248 356.6983962 -21.86629105 352.34044647 C-21.86428769 350.24961039 -21.86675304 348.15876516 -21.87372971 346.06793976 C-21.88132777 343.15214028 -21.86976489 340.23703655 -21.85302734 337.32128906 C-21.85910004 336.45475204 -21.86517273 335.58821503 -21.87142944 334.69541931 C-21.80882542 328.82424262 -21.80882542 328.82424262 -20.18395424 326.68369675 C-17.19309148 324.40006492 -13.40904948 324.23733988 -9.77734375 323.62109375 C4.41025044 320.90144441 16.36205646 315.65309435 27.53515625 306.37109375 C28.3859375 305.67113281 29.23671875 304.97117187 30.11328125 304.25 C50.23866364 286.93352835 61.72439397 262.39029849 65.53515625 236.37109375 C66.29641578 221.70069991 66.74661864 206.55707231 62.53515625 192.37109375 C62.20644531 191.17484375 61.87773437 189.97859375 61.5390625 188.74609375 C57.43362588 175.10865723 50.74644292 162.98668055 42.21850586 151.63989258 C37.37092072 145.05605816 33.97111536 137.76128513 30.53515625 130.37109375 C26.93086202 130.99535951 23.32674548 131.62064565 19.72265625 132.24609375 C18.71783203 132.42011719 17.71300781 132.59414062 16.67773438 132.7734375 C14.64248437 133.12682496 12.60939123 133.49285286 10.57861328 133.87109375 C7.53515625 134.37109375 7.53515625 134.37109375 4.50341797 134.58984375 C-0.89780624 135.05314886 -0.89780624 135.05314886 -5.0793457 138.18896484 C-6.54948999 140.93687181 -7.63718574 143.69611691 -8.71484375 146.62109375 C-9.44970669 148.42691486 -10.18479555 150.23264728 -10.92366028 152.03683472 C-11.78756153 154.16242184 -12.63198911 156.29518262 -13.47607422 158.42871094 C-17.07703924 167.45662542 -20.97684826 176.36316136 -24.80288696 185.29724121 C-26.28726132 188.7692916 -27.76521625 192.24400265 -29.2409668 195.71972656 C-37.37195599 214.86839882 -45.62732613 233.96055766 -53.92700195 253.03662109 C-54.38483566 254.08909027 -54.84266937 255.14155945 -55.31437683 256.22592163 C-56.19281209 258.24394237 -57.0721807 260.26155715 -57.95259094 262.27871704 C-59.78705672 266.48611452 -61.61050313 270.69610888 -63.37451172 274.93359375 C-63.65334702 275.60011963 -63.93218231 276.26664551 -64.21946716 276.95336914 C-64.92672431 278.65142314 -65.62577194 280.35289048 -66.32397461 282.0546875 C-67.46484375 284.37109375 -67.46484375 284.37109375 -69.46484375 285.37109375 C-75.73520206 285.94112632 -75.73520206 285.94112632 -78.46484375 283.80859375 C-80.51860633 278.80254747 -78.44180336 274.01949772 -76.47802734 269.26660156 C-75.61520021 267.28197804 -74.74302682 265.30140081 -73.86328125 263.32421875 C-73.39506454 262.25315887 -72.92684784 261.182099 -72.44444275 260.07858276 C-70.91726542 256.58932457 -69.37844378 253.10532803 -67.83984375 249.62109375 C-66.7765982 247.19558334 -65.7143488 244.76963602 -64.65307617 242.34326172 C-62.54792486 237.53122837 -60.43953325 232.72063817 -58.32861328 227.91113281 C-54.76846197 219.79112067 -51.25996396 211.64960724 -47.77734375 203.49609375 C-47.49645905 202.83896393 -47.21557434 202.18183411 -46.92617798 201.50479126 C-45.45399888 198.06024438 -43.98337687 194.61503675 -42.51367188 191.16943359 C-40.51818062 186.49304647 -38.51557751 181.81971637 -36.51313782 177.14630127 C-34.6437447 172.7812431 -32.77763301 168.41478687 -30.91220093 164.04803467 C-29.99333577 161.89863656 -29.07328265 159.74974588 -28.15200806 157.60137939 C-26.86877952 154.60808527 -25.59009901 151.61288788 -24.3125 148.6171875 C-23.72779938 147.25742546 -23.72779938 147.25742546 -23.13128662 145.87019348 C-22.7786676 145.04089828 -22.42604858 144.21160309 -22.06274414 143.35717773 C-21.75268936 142.63223618 -21.44263458 141.90729462 -21.1231842 141.16038513 C-20.3497429 139.37602348 -20.3497429 139.37602348 -20.46484375 137.37109375 C-21.22289307 137.33145508 -21.98094238 137.29181641 -22.76196289 137.25097656 C-38.82115451 136.37433819 -54.39953552 134.89959066 -70.19824219 131.79638672 C-73.27649248 131.21880033 -76.36022614 130.781377 -79.46484375 130.37109375 Z " fill="#777777" transform="translate(296.46484375,25.62890625)"/>
</svg>
