<?xml version="1.0" encoding="UTF-8"?>
<svg version="1.1" xmlns="http://www.w3.org/2000/svg" width="512" height="512">
<path d="M0 0 C9.26617907 1.48454629 17.04021533 7.16053704 22.5625 14.5625 C26.11932457 19.78901296 30 26.49006619 30 33 C30.804375 33.04125 31.60875 33.0825 32.4375 33.125 C39.90057633 34.95803629 45.52710939 39.65062892 49.78125 45.9609375 C54.86858224 54.47243567 54.31499349 62.38686542 54 72 C55.11375 72.061875 56.2275 72.12375 57.375 72.1875 C65.65847949 73.25775487 72.10640295 77.44458019 77.625 83.546875 C78.95792151 85.12158738 78.95792151 85.12158738 81 86 C81.09765152 85.38852615 81.19530304 84.77705231 81.2959137 84.14704895 C82.72640893 75.72489786 84.84028028 67.51129259 87.02734375 59.26171875 C87.42104064 57.76728418 87.81455634 56.27280186 88.207901 54.77827454 C89.02787587 51.66708324 89.85110848 48.5567763 90.67651367 45.44702148 C91.73068573 41.47368228 92.77489545 37.4977999 93.81650448 33.52115154 C94.62434537 30.44263748 95.43828637 27.36576077 96.25396919 24.28931618 C96.64155231 22.82392677 97.02706742 21.35798867 97.41041374 19.89148521 C97.94689994 17.84218238 98.4918049 15.79529349 99.03881836 13.7487793 C99.34589218 12.58726852 99.652966 11.42575775 99.96934509 10.22904968 C101.0247535 6.92244711 102.28411805 4.01587648 104 1 C111.28831876 -2.64415938 121.27277694 1.24210037 128.70385742 3.19824219 C130.82108869 3.75224736 132.94387973 4.27925488 135.06835938 4.8046875 C136.42749658 5.154649 137.78623663 5.50615736 139.14453125 5.859375 C140.36503174 6.17358398 141.58553223 6.48779297 142.84301758 6.81152344 C146.35496385 8.13362957 147.95642795 8.84178115 150 12 C150.7365544 18.14362891 149.5820357 23.77944485 147.87963867 29.64868164 C147.65346863 30.46356552 147.42729858 31.2784494 147.1942749 32.11802673 C146.44644604 34.80193665 145.68227116 37.48089557 144.91796875 40.16015625 C144.38276999 42.06899761 143.84863772 43.97813828 143.31550598 45.88755798 C141.90458535 50.93029258 140.47993838 55.96904563 139.05212402 61.00701904 C137.64496572 65.97975319 136.24940148 70.9557327 134.85351562 75.93164062 C133.20268204 81.81415178 131.55096011 87.69640207 129.89352417 93.57705688 C124.50737685 112.69380973 119.23925256 131.84253784 114 151 C114.69867188 151.10957031 115.39734375 151.21914062 116.1171875 151.33203125 C117.02726563 151.49058594 117.93734375 151.64914063 118.875 151.8125 C120.23238281 152.03873047 120.23238281 152.03873047 121.6171875 152.26953125 C124 153 124 153 126 156 C126.2746582 159.06835938 126.2746582 159.06835938 126.30078125 162.84375 C126.30924828 163.85897736 126.30924828 163.85897736 126.31788635 164.89471436 C126.3299429 167.09670761 126.32363681 169.29800762 126.3125 171.5 C126.30926727 172.62529114 126.30926727 172.62529114 126.30596924 173.77331543 C126.17558422 201.9319575 118.07871957 226.76415066 108.38085938 253.00219727 C99.9744831 275.81506306 95.86265682 297.33512958 94.97094727 321.61816406 C94.36668195 337.5833246 92.85144845 353.39632583 88.1875 368.75 C87.92525635 369.63083252 87.6630127 370.51166504 87.39282227 371.41918945 C82.18788679 388.5313702 74.10962458 404.13232417 66 420 C66.59022949 420.39324463 67.18045898 420.78648926 67.78857422 421.19165039 C69.41758445 422.27726912 71.04631683 423.36330486 72.67480469 424.44970703 C74.38854263 425.59231895 76.10396341 426.73240786 77.8203125 427.87109375 C90.33935047 436.37979583 98.75212033 446.89188559 102 462 C103.26497136 474.33992467 103.26497136 474.33992467 100.35583496 478.15770721 C97.31442055 480.53613182 95.61194323 480.50273149 91.77539062 480.50793457 C89.85738647 480.52485352 89.85738647 480.52485352 87.90063477 480.54211426 C86.48583758 480.53433723 85.07104263 480.52614457 83.65625 480.51757812 C82.16462521 480.52299892 80.67300577 480.53012134 79.18139648 480.53881836 C75.13177372 480.55706004 71.08255839 480.5499809 67.03292847 480.53730202 C62.79602964 480.52717864 58.55916582 480.53656585 54.32226562 480.54284668 C47.2069675 480.55012503 40.09183542 480.54053052 32.9765625 480.52148438 C24.748972 480.49971519 16.52177797 480.50676643 8.29419708 480.52879 C1.23165746 480.5469387 -5.83076277 480.54950494 -12.89331818 480.53903532 C-17.11213175 480.53279744 -21.33075893 480.53197274 -25.54956055 480.54518127 C-29.51580373 480.55673156 -33.48153549 480.54872962 -37.44772339 480.52560425 C-38.90378978 480.52031268 -40.35989917 480.52183866 -41.81594849 480.53065491 C-43.80241362 480.54157434 -45.78897276 480.525457 -47.77539062 480.50793457 C-48.88740845 480.50642647 -49.99942627 480.50491837 -51.1451416 480.50336456 C-54.67151775 479.88159895 -55.85258523 478.81814309 -58 476 C-60.10299528 464.00055635 -56.2011042 452.38078354 -49.73046875 442.36328125 C-42.69810098 432.75925755 -33.28168312 426.69355631 -23 421 C-22.34 421 -21.68 421 -21 421 C-21.32162109 420.31711914 -21.64324219 419.63423828 -21.97460938 418.93066406 C-28.76914269 404.46441447 -35.47029106 390.00445407 -41 375 C-41.24830566 374.3292041 -41.49661133 373.6584082 -41.75244141 372.96728516 C-48.20441175 355.13158889 -50.12948564 336.75842826 -51 317.9375 C-52.32350302 289.97966703 -59.51650407 266.18820157 -68.99926758 239.89453125 C-76.76739387 218.33613949 -76.76739387 218.33613949 -79 208 C-79.29519531 206.77925781 -79.59039062 205.55851563 -79.89453125 204.30078125 C-82.22107873 193.66587421 -82.34632498 182.96364229 -82.4375 172.125 C-82.44962524 171.35940765 -82.46175049 170.59381531 -82.47424316 169.80502319 C-82.50389894 167.60119157 -82.50466289 165.39929117 -82.49609375 163.1953125 C-82.49794678 161.90641113 -82.4997998 160.61750977 -82.50170898 159.28955078 C-81.8963077 155.32012166 -81.16248953 154.399662 -78 152 C-74.83723831 151.50780869 -74.83723831 151.50780869 -71.02716064 151.51898193 C-70.32545549 151.51556423 -69.62375034 151.51214653 -68.90078139 151.50862527 C-66.5496495 151.50203691 -64.19965949 151.5240366 -61.84863281 151.54589844 C-60.16333544 151.54702672 -58.4780361 151.54639344 -56.79273987 151.54412842 C-52.21650449 151.54297957 -47.64068749 151.56651639 -43.06454945 151.59442425 C-38.28261746 151.61940952 -33.50067615 151.62177763 -28.71868896 151.62652588 C-19.66286671 151.63896411 -10.60723735 151.6717972 -1.55150008 151.71192384 C8.7579219 151.75661517 19.06735303 151.77862195 29.37684774 151.79870558 C50.58467287 151.84052907 71.79232429 151.91089762 93 152 C92.88835196 150.42368108 92.76331398 148.84830765 92.6328125 147.2734375 C92.56465332 146.39606934 92.49649414 145.51870117 92.42626953 144.61474609 C91.62267381 139.68547335 89.20861377 135.73966153 85.2890625 132.65234375 C79.51116374 129.1326194 73.9558494 128.84871964 67.36401367 128.79467773 C66.61225861 128.78477814 65.86050354 128.77487854 65.08596802 128.76467896 C62.61333309 128.73321568 60.14067899 128.70836686 57.66796875 128.68359375 C55.94875096 128.6630111 54.22953809 128.64201429 52.5103302 128.62062073 C47.99439482 128.5655354 43.47841479 128.51606663 38.96240234 128.46777344 C34.35054572 128.41745932 29.73875359 128.36182507 25.12695312 128.30664062 C16.08468857 128.19922472 7.04236896 128.09823512 -2 128 C-2 122.72 -2 117.44 -2 112 C21.43 112 44.86 112 69 112 C68.13506019 101.8820065 68.13506019 101.8820065 63 94 C57.38100565 89.52773919 51.14048881 88.41050558 44 89 C41.66250435 89.99119181 39.89441977 91.09782535 37.9140625 92.67578125 C33.13195786 95.98421691 27.91235837 96.38787516 22.25 96.375 C21.54842773 96.37411377 20.84685547 96.37322754 20.12402344 96.37231445 C13.44339405 96.22104043 7.27474664 94.81171894 2.09375 90.36328125 C-2.12017349 87.6195139 -7.30436094 89.02475189 -12 90 C-16.98692706 91.94651024 -20.93048868 94.93730565 -23.38671875 99.828125 C-24.75481248 104.67309388 -25.29344076 111.41311848 -23 116 C-22.41543469 123.24860979 -22.41543469 123.24860979 -24.68359375 126.1640625 C-27.29257878 128.23189212 -29.13915641 128.81113694 -32.375 129.5 C-38.21696259 130.94880672 -42.3820709 132.62703733 -45.875 137.75 C-46.431875 138.86375 -46.431875 138.86375 -47 140 C-52.81261371 138.26017005 -57.83169994 136.1889511 -63 133 C-60.70555869 124.84198644 -53.80359001 119.49326896 -47.015625 115.03125 C-45 114 -45 114 -42 114 C-42.04640625 113.03320312 -42.0928125 112.06640625 -42.140625 111.0703125 C-42.45152305 99.85577563 -41.17850335 92.41182172 -33.75 83.6875 C-28.34799444 78.03712637 -22.68727225 73.87911099 -15 72 C-13.33354819 71.97323946 -11.66638192 71.96919294 -10 72 C-10.04640625 70.96101563 -10.0928125 69.92203125 -10.140625 68.8515625 C-10.48699824 57.84033071 -9.54984508 48.96824928 -1.71484375 40.53515625 C2.06306371 37.15311153 6.19462075 34.60179308 11 33 C9.4319004 27.01271061 6.86862147 22.83379997 1.671875 19.51171875 C-0.52813314 18.28372678 -2.73985887 17.11283637 -5 16 C-4.54548816 14.26982492 -4.08621143 12.54090123 -3.625 10.8125 C-3.36976563 9.84957031 -3.11453125 8.88664062 -2.8515625 7.89453125 C-2.05233704 5.17789793 -1.0968638 2.60862825 0 0 Z M116 18 C115.13372595 20.91355841 114.28168994 23.83004328 113.4375 26.75 C113.19064453 27.575 112.94378906 28.4 112.68945312 29.25 C112.46064453 30.04921875 112.23183594 30.8484375 111.99609375 31.671875 C111.78138428 32.4050293 111.5666748 33.13818359 111.34545898 33.89355469 C110.96085328 36.23869816 111.27121236 37.75825808 112 40 C122.82606537 37.18714443 122.82606537 37.18714443 130.57421875 30.0859375 C131.20333298 26.73987559 131.20333298 26.73987559 131 22 C126.05 20.68 121.1 19.36 116 18 Z M8.625 55.625 C6.42092107 60.20270239 6.2028361 64.00552411 7 69 C9.32968931 73.83858548 12.16141452 76.67031069 17 79 C21.99447589 79.7971639 25.79729761 79.57907893 30.375 77.375 C33.95907713 74.13226355 36.59535241 71.53524104 37.3828125 66.6015625 C37.63883919 60.91777006 36.93626932 57.35061345 33 53 C28.64938655 49.06373068 25.08222994 48.36116081 19.3984375 48.6171875 C14.46475896 49.40464759 11.86773645 52.04092287 8.625 55.625 Z M121 54 C118.55080125 54.84953757 116.1190523 55.72740218 113.6875 56.625 C112.65206055 56.97884766 112.65206055 56.97884766 111.59570312 57.33984375 C108.10449264 58.65537234 106.36056469 59.48091118 104.1875 62.609375 C102.68288736 66.90544002 101.43533755 71.21506401 100.3125 75.625 C100.08755859 76.470625 99.86261719 77.31625 99.63085938 78.1875 C98.64298138 81.99488388 98 85.02132507 98 89 C98.70382812 88.855625 99.40765625 88.71125 100.1328125 88.5625 C103 88 103 88 105.8671875 87.6875 C109.6555623 86.82158576 112.43177663 85.94098765 115 83 C118.63509084 75.37326975 123.86349133 62.36208977 121 54 Z M100 106.875 C99.35804688 107.14441406 98.71609375 107.41382812 98.0546875 107.69140625 C95.2690944 108.88606438 93.16288694 109.83711306 91 112 C91 113.32 91 114.64 91 116 C92.6042629 117.68877963 92.6042629 117.68877963 94.75 119.0625 C95.44609375 119.54847656 96.1421875 120.03445312 96.859375 120.53515625 C97.91898438 121.26025391 97.91898438 121.26025391 99 122 C100.32 122.99 101.64 123.98 103 125 C104.98 118.07 106.96 111.14 109 104 C105.74498852 104 102.94658555 105.60287973 100 106.875 Z M-66 168 C-65.45590328 183.4071127 -65.45590328 183.4071127 -63.5 198.5625 C-63.24887451 199.90320557 -63.24887451 199.90320557 -62.99267578 201.27099609 C-59.99920761 216.0160372 -54.50683835 230.13743103 -49.3671875 244.23828125 C-41.54927753 265.7107004 -41.54927753 265.7107004 -39 275.875 C-38.72494629 276.96832642 -38.72494629 276.96832642 -38.44433594 278.08374023 C-35.66327685 289.92735458 -34.70888545 301.87398777 -34.16711426 313.98556519 C-33.30540154 333.14540126 -33.30540154 333.14540126 -30 352 C-29.82549316 352.73476563 -29.65098633 353.46953125 -29.47119141 354.2265625 C-25.59833895 369.91473029 -18.79428508 384.40926454 -12 399 C-10.84898515 395.54695545 -10.96228899 393.08155871 -11.08734131 389.44248962 C-11.1088715 388.77319587 -11.13040169 388.10390211 -11.15258431 387.41432673 C-11.22630749 385.16654959 -11.30797518 382.91913216 -11.38964844 380.67163086 C-11.44418415 379.06183323 -11.49827073 377.45202033 -11.55194092 375.8421936 C-11.6995612 371.46353647 -11.85447088 367.08516649 -12.01138592 362.7068336 C-12.10920851 359.96950248 -12.20555827 357.23212354 -12.30139923 354.49472237 C-12.63611422 344.93872837 -12.97703287 335.38297679 -13.32324219 325.82739258 C-13.64536134 316.93187314 -13.95349527 308.03594321 -14.2551496 299.13970846 C-14.51499944 291.49589773 -14.78504996 283.85249022 -15.06286645 276.20931154 C-15.22849357 271.64737181 -15.38998642 267.08537863 -15.54106903 262.52293205 C-15.68369878 258.22561923 -15.83907349 253.92894885 -16.00397491 249.63243484 C-16.06214601 248.06132797 -16.11587811 246.490049 -16.16467285 244.91862297 C-16.68237452 228.38737974 -16.68237452 228.38737974 -25.0703125 214.6953125 C-32.42489776 208.23399671 -39.45186573 208.51722917 -49 209 C-49.66666667 203.66666667 -50.33333333 198.33333333 -51 193 C-37.35372512 192.45955347 -26.50236223 192.63626957 -15.55859375 201.828125 C-14.05857415 203.20032037 -14.05857415 203.20032037 -12 203 C-11.34 204.32 -10.68 205.64 -10 207 C-9.01 206.34 -8.02 205.68 -7 205 C-7 204.34 -7 203.68 -7 203 C-6.41734375 202.72027344 -5.8346875 202.44054687 -5.234375 202.15234375 C-2.48002426 200.73183069 0.03730914 199.04012265 2.609375 197.31640625 C8.95622918 193.82148818 14.64584253 192.46644176 21.875 192.5625 C22.66293945 192.56862305 23.45087891 192.57474609 24.26269531 192.58105469 C33.29862037 192.82305515 39.68428691 195.77449065 47 201 C47.7425 201.33 48.485 201.66 49.25 202 C51.49319118 203.28182353 52.05698461 204.64246152 53 207 C53.99 206.34 54.98 205.68 56 205 C56 204.34 56 203.68 56 203 C56.56074219 202.731875 57.12148438 202.46375 57.69921875 202.1875 C61.01688684 200.47515518 64.12061712 198.43998911 67.26953125 196.4375 C73.26363988 193.28180332 79.0476455 192.61361821 85.6875 192.625 C86.47044434 192.62371094 87.25338867 192.62242187 88.06005859 192.62109375 C94.86673653 192.74391263 100.75364296 194.25650201 107 197 C109.64727116 186.27665182 109.64727116 186.27665182 110 168 C51.92 168 -6.16 168 -66 168 Z M5 216 C1.07142339 220.71202108 -0.12637847 224.84159655 -0.13487244 230.91584778 C-0.13721925 232.13437533 -0.13956606 233.35290289 -0.14198399 234.60835552 C-0.13813055 235.94829677 -0.13367179 237.2882364 -0.12866211 238.62817383 C-0.12741203 239.31410099 -0.12616195 240.00002815 -0.124874 240.70674098 C-0.0912041 256.06689663 0.39928013 271.40677595 0.9767139 286.75465369 C1.11767195 290.53264798 1.25225553 294.31087069 1.38771057 298.08906555 C1.61521571 304.41099705 1.84675438 310.73276926 2.08129883 317.05444336 C2.37992099 325.10356732 2.67208016 333.15291209 2.96211147 341.20234966 C3.21516466 348.2252353 3.47072034 355.24802955 3.72689939 362.27080178 C3.78100117 363.75484051 3.83502267 365.23888216 3.8889606 366.72292686 C4.48620729 383.15472726 5.13005963 399.57993796 6 416 C16.56 416 27.12 416 38 416 C39.02053972 390.66745364 40.0230703 365.33426658 41 340 C41.03608871 339.06436974 41.07217743 338.12873947 41.10935974 337.16475677 C41.57884338 324.97971891 42.03865605 312.79435801 42.48690796 300.60852051 C42.61830008 297.04176775 42.75232843 293.47513034 42.88882446 289.90856934 C43.32004327 278.6072437 43.70702821 267.30581505 44 256 C44.0300349 254.86573956 44.0300349 254.86573956 44.06067657 253.70856476 C44.1730444 249.32856313 44.25886347 244.94936957 44.30646706 240.56817055 C44.33113288 238.62167555 44.37452573 236.67544553 44.41862488 234.72929382 C44.45978434 226.68810633 43.51228377 221.44714538 38.4296875 215.01171875 C27.69613155 205.86931808 15.12009392 206.31493275 5 216 Z M65.54296875 218.4140625 C60.29619794 227.20738471 60.40786757 237.24684439 60.10864258 247.18652344 C60.05021603 248.8038996 59.99062882 250.42123418 59.92997742 252.03852844 C59.76956986 256.40354942 59.62536881 260.76896898 59.48424363 265.13465023 C59.33347052 269.71389823 59.16781004 274.29260829 59.00382996 278.87139893 C58.73071145 286.55412441 58.4670154 294.23712288 58.21020508 301.92041016 C57.84824128 312.7496648 57.47020683 323.57831274 57.08848345 334.40688658 C56.57753572 348.92028225 56.07200853 363.43387888 55.58352852 377.94804955 C55.53065132 379.51618009 55.4774434 381.08429952 55.42387772 382.65240669 C55.35078398 384.79548091 55.27899966 386.93859497 55.20759583 389.08172607 C55.16724622 390.27997387 55.12689661 391.47822166 55.08532429 392.71278 C55.00492167 395.81038666 54.9843427 398.90153189 55 402 C62.98665601 391.89285308 67.72050762 377.96944416 71.4375 365.75 C71.65962158 365.03328125 71.88174316 364.3165625 72.1105957 363.578125 C76.11414974 349.60029208 77.38387268 335.33247952 77.84954834 320.8651123 C78.94266172 289.13979125 86.2026941 261.46904684 97.703125 231.9765625 C98.2914209 230.45107788 98.2914209 230.45107788 98.89160156 228.89477539 C99.60818932 227.06368847 100.34827727 225.24154985 101.11621094 223.43139648 C101.97937425 221.24565142 102.70611415 219.33089154 103 217 C100.89618944 213.18589741 98.3700475 211.05283031 94.25 209.5078125 C82.15899138 206.77893903 73.69518856 209.54537681 65.54296875 218.4140625 Z M-35.7421875 452.125 C-36.11601562 452.74375 -36.48984375 453.3625 -36.875 454 C-37.26429688 454.61875 -37.65359375 455.2375 -38.0546875 455.875 C-39.34833067 458.5439205 -39.34833067 458.5439205 -40 464 C0.92 464 41.84 464 84 464 C82.6778095 456.066857 78.98598762 450.05432876 72.625 445 C71.97031738 444.58186035 71.31563477 444.1637207 70.64111328 443.73291016 C68 442 68 442 64.8425293 439.56787109 C52.6556327 430.76294753 40.71917836 430.38983727 26.03588867 430.58642578 C22.20034899 430.62487121 18.37937689 430.54597036 14.54492188 430.45703125 C-5.3514153 430.32289105 -22.73237416 436.25652812 -35.7421875 452.125 Z " fill="#000000" transform="translate(234,16)"/>
</svg>
