<?xml version="1.0" standalone="no"?>
<!DOCTYPE svg PUBLIC "-//W3C//DTD SVG 20010904//EN"
 "http://www.w3.org/TR/2001/REC-SVG-20010904/DTD/svg10.dtd">
<svg version="1.0" xmlns="http://www.w3.org/2000/svg"
 width="512.000000pt" height="512.000000pt" viewBox="0 0 512.000000 512.000000"
 preserveAspectRatio="xMidYMid meet">
<metadata>
Created by potrace 1.16, written by Peter Selinger 2001-2019
</metadata>
<g transform="translate(0.000000,512.000000) scale(0.100000,-0.100000)"
fill="#000000" stroke="none">
<path d="M2945 4908 c-47 -28 -82 -76 -97 -135 l-10 -43 -605 0 c-605 0 -634
-2 -655 -34 -4 -6 -8 -57 -8 -113 l0 -102 -50 -22 c-64 -27 -142 -111 -164
-175 -14 -43 -16 -219 -16 -1829 0 -1640 1 -1785 17 -1831 22 -64 113 -157
171 -175 l42 -12 0 -107 c0 -91 3 -109 18 -123 17 -16 99 -17 974 -17 912 0
956 1 971 18 14 15 17 40 17 124 l0 105 42 12 c58 18 149 111 171 175 16 46
17 191 17 1831 0 1610 -2 1786 -16 1829 -22 64 -100 148 -164 175 l-50 22 0
102 c0 56 -4 107 -8 113 -18 27 -56 34 -181 34 l-131 0 0 35 c0 48 -32 108
-72 137 -49 34 -158 37 -213 6z m465 -373 l0 -45 -850 0 -850 0 0 45 0 45 850
0 850 0 0 -45z m147 -227 c73 -48 78 -67 81 -365 l3 -263 -1081 0 -1082 0 4
268 c3 257 4 268 26 303 24 39 59 67 101 80 14 4 449 7 967 6 l940 -2 41 -27z
m83 -1853 l0 -1075 -1080 0 -1080 0 0 1075 0 1075 1080 0 1080 0 0 -1075z m0
-1460 c0 -128 -5 -256 -11 -283 -14 -68 -63 -117 -131 -131 -68 -15 -1808 -15
-1876 0 -68 14 -117 63 -131 131 -6 27 -11 155 -11 283 l0 235 1080 0 1080 0
0 -235z m-230 -615 l0 -50 -850 0 -850 0 0 50 0 50 850 0 850 0 0 -50z"/>
<path d="M2316 3248 c-21 -19 -42 -85 -130 -406 -89 -327 -103 -388 -94 -413
5 -16 18 -34 28 -39 10 -6 93 -10 184 -10 91 0 166 -2 166 -5 0 -2 -31 -147
-70 -322 -38 -175 -70 -327 -70 -338 0 -39 28 -65 69 -65 20 0 44 6 53 13 9 6
143 244 299 527 301 549 307 563 259 602 -19 15 -42 18 -146 18 -68 0 -124 1
-124 3 0 1 25 83 55 182 30 99 55 190 55 203 0 13 -11 34 -25 47 l-24 25 -230
0 c-224 0 -230 -1 -255 -22z m354 -135 c0 -5 -25 -89 -55 -188 -30 -99 -55
-187 -55 -196 0 -9 9 -28 21 -43 20 -25 23 -26 136 -26 63 0 113 -4 111 -8 -7
-17 -230 -422 -233 -422 -1 0 8 46 21 103 29 127 29 145 2 174 -21 22 -27 23
-190 23 -157 0 -169 1 -164 18 2 9 32 118 66 242 34 124 68 249 76 278 l15 52
125 0 c68 0 124 -3 124 -7z"/>
<path d="M3440 3203 c-37 -14 -40 -32 -40 -254 0 -214 0 -218 22 -233 12 -9
34 -16 48 -16 14 0 36 7 48 16 22 15 22 19 22 233 0 158 -3 222 -12 234 -14
18 -64 30 -88 20z"/>
</g>
</svg>
