<?xml version="1.0" encoding="UTF-8"?>
<svg version="1.1" xmlns="http://www.w3.org/2000/svg" width="512" height="512">
<path d="M0 0 C0.82131409 -0.0065712 1.64262817 -0.0131424 2.48883057 -0.01991272 C5.21350185 -0.03966304 7.93811798 -0.05131205 10.6628418 -0.0612793 C11.59253469 -0.06535482 12.52222759 -0.06943035 13.480093 -0.07362938 C18.40062616 -0.09449735 23.32113136 -0.10879601 28.24169922 -0.11816406 C33.32621567 -0.12923104 38.41029478 -0.16363216 43.49465656 -0.20333576 C47.4023063 -0.22947081 51.30985134 -0.23785312 55.2175808 -0.24144554 C57.0918797 -0.24631943 58.96617368 -0.25795621 60.84038734 -0.27648354 C63.46425736 -0.30080942 66.08698944 -0.29992217 68.7109375 -0.29296875 C69.48463181 -0.30577881 70.25832611 -0.31858887 71.0554657 -0.33178711 C74.76914463 -0.29593115 76.85428202 0.05130901 80.00822449 2.08137512 C83.38200148 5.54488009 83.44269531 8.23716399 83.4050293 12.9152832 C82.83628232 16.53401395 80.89790442 18.05730419 78.04956055 20.17700195 C74.61917761 21.32046293 71.99324305 21.29711795 68.375 21.29052734 C67.70156555 21.29067337 67.0281311 21.2908194 66.33428955 21.29096985 C64.11044076 21.2902737 61.88667594 21.28249527 59.6628418 21.2746582 C58.12013291 21.27279296 56.57742343 21.27136956 55.03471375 21.27037048 C50.97572187 21.26655365 46.91676582 21.25673046 42.85778809 21.2456665 C38.71533696 21.23543448 34.57288004 21.23086902 30.43041992 21.22583008 C22.30345036 21.21510746 14.17650991 21.19804102 6.04956055 21.17700195 C6.13515342 30.61998537 6.23045348 40.06281253 6.33708763 49.50558186 C6.38635657 53.89350247 6.43267151 58.2814066 6.47143555 62.66943359 C6.68428437 87.56054787 6.68428437 87.56054787 7.9519043 112.4152832 C8.02641815 113.4508284 8.10093201 114.4863736 8.17770386 115.55329895 C11.7255527 158.72057762 31.83318252 197.8456336 61.04956055 229.17700195 C62.13624023 230.36229492 62.13624023 230.36229492 63.24487305 231.5715332 C70.00623681 238.66523518 77.60255259 244.71260019 85.58901978 250.37802124 C87.25611207 251.59688618 88.87927391 252.8777625 90.45700073 254.21028137 C99.6459412 261.37590271 107.58923627 261.32235083 118.84643555 261.2121582 C120.72035895 261.22301776 122.59426525 261.23727266 124.46813965 261.25463867 C129.52635587 261.29091118 134.58325744 261.27705352 139.64149475 261.25160599 C144.95300652 261.23124836 150.2644112 261.25016423 155.57592773 261.26269531 C164.49312396 261.27722007 173.40978887 261.25814787 182.3269043 261.2199707 C192.61336728 261.17643745 202.89856148 261.19054228 213.18499374 261.23458195 C222.0415108 261.27097144 230.89764752 261.27596726 239.75421524 261.25507259 C245.0330101 261.24264692 250.31120999 261.24080756 255.58996582 261.2673645 C260.55481384 261.29060077 265.5180379 261.27422024 270.48271179 261.22821045 C272.29661879 261.2176987 274.11066422 261.22055664 275.92451477 261.23831177 C287.79920425 261.34376721 294.73245386 260.08810514 304.04956055 252.17700195 C305.2414863 251.3080472 306.43843541 250.44587922 307.64331055 249.5949707 C315.16038879 243.82581522 322.1873474 237.70920768 329.04956055 231.17700195 C329.80624023 230.48477539 330.56291992 229.79254883 331.3425293 229.0793457 C368.51025936 193.94263914 383.77410916 142.28247775 385.19244385 92.63296509 C385.45946956 81.78804755 385.55462419 70.93986209 385.65045166 60.09234619 C385.69126319 55.68625095 385.74199249 51.28026929 385.79174805 46.87426758 C385.88708545 38.30859156 385.97191812 29.74285661 386.04956055 21.17700195 C384.44989221 21.18115002 384.44989221 21.18115002 382.81790733 21.18538189 C356.87893582 21.25195588 330.93997538 21.30126752 305.00093651 21.33243847 C292.45705506 21.34791284 279.91323001 21.36901332 267.36938477 21.40332031 C256.43723819 21.43320513 245.50513247 21.45257281 234.57294619 21.45926744 C228.78347697 21.46318123 222.99412463 21.47239118 217.20469284 21.49419212 C211.75632061 21.51454269 206.3081135 21.5208386 200.85970688 21.516325 C198.85942182 21.51715083 196.85913129 21.52312492 194.85887909 21.53461838 C192.12824028 21.54954 189.39822521 21.54595669 186.66757202 21.5377655 C185.47981173 21.55087329 185.47981173 21.55087329 184.26805627 21.56424588 C179.48066748 21.52541892 176.1873043 20.84063263 172.04956055 18.17700195 C169.37050325 14.15841601 169.35345361 10.90058474 170.04956055 6.17700195 C171.84349723 3.30670327 173.03219331 1.68568557 176.04956055 0.17700195 C178.96082466 0.07225423 181.84852899 0.02920841 184.7603302 0.02983093 C185.67322695 0.02615424 186.5861237 0.02247756 187.52668399 0.01868945 C190.60438346 0.00762251 193.6820492 0.0038037 196.75976562 0 C198.95881763 -0.00626232 201.15786857 -0.01290891 203.35691833 -0.01991272 C209.34454429 -0.03734266 215.33216224 -0.04787966 221.31980729 -0.05611825 C225.05767027 -0.06126357 228.79553074 -0.06733948 232.53339195 -0.07362938 C243.54892756 -0.09159223 254.56445856 -0.10597123 265.58000622 -0.11380578 C267.59630624 -0.1152443 269.61260625 -0.11669567 271.62890625 -0.11816406 C272.63008898 -0.11888967 272.63008898 -0.11888967 273.65149762 -0.11962994 C284.46654435 -0.12793224 295.28148053 -0.15327236 306.09647898 -0.18574474 C317.19667674 -0.21880209 328.29682846 -0.23649277 339.39707679 -0.24002236 C345.63084295 -0.24237736 351.86443442 -0.2513964 358.09815407 -0.27648354 C363.96108343 -0.29969691 369.82372223 -0.30402458 375.68668556 -0.29372215 C377.84058598 -0.29322506 379.99450037 -0.29959627 382.14835739 -0.3132782 C385.08520327 -0.3308926 388.02099456 -0.32394238 390.95783997 -0.31074524 C392.24130592 -0.32719911 392.24130592 -0.32719911 393.55070049 -0.34398538 C397.586077 -0.30009815 399.56538716 -0.12993978 403.05529308 2.08248615 C406.22245695 5.40885781 406.16994172 7.34152886 406.1472168 11.84106445 C406.14399414 12.96254883 406.14077148 14.0840332 406.13745117 15.23950195 C406.12907227 16.41512695 406.12069336 17.59075195 406.11206055 18.80200195 C406.10754883 19.98536133 406.10303711 21.1687207 406.09838867 22.38793945 C406.08657521 25.31767702 406.07010312 28.24731467 406.04956055 31.17700195 C407.10112335 31.16811951 408.15268616 31.15923706 409.2361145 31.15008545 C419.1528662 31.06894948 429.06955043 31.00901245 438.98655891 30.96975327 C444.08484878 30.94889103 449.18287038 30.92059813 454.28100586 30.87524414 C459.20230618 30.83173799 464.1233487 30.80785458 469.04482651 30.79749298 C470.9211012 30.79011019 472.79736201 30.77569323 474.67352676 30.75408173 C477.30455103 30.72498419 479.93451418 30.72104857 482.56567383 30.72290039 C483.72553551 30.70132874 483.72553551 30.70132874 484.90882874 30.67932129 C490.09941777 30.71877284 493.06236258 31.87574408 497.04956055 35.17700195 C498.64560233 38.36908552 498.20580258 41.82944651 498.21069336 45.3359375 C498.21565826 46.18020294 498.22062317 47.02446838 498.22573853 47.89431763 C498.24039458 50.70079355 498.24717259 53.50721271 498.25268555 56.3137207 C498.25844008 58.2703298 498.26419778 60.22693889 498.2699585 62.18354797 C498.28048227 66.29863752 498.28631398 70.41370748 498.28979492 74.52880859 C498.29524185 79.76471436 498.3191816 85.00035506 498.34776688 90.2361784 C498.3665435 94.28663339 498.37160707 98.33702694 498.3731308 102.38752174 C498.37613091 104.31494385 498.38406844 106.24236558 498.39731598 108.16974449 C498.57298063 135.72484787 491.40397587 160.4811603 471.72924805 180.5324707 C470.84495117 181.40516602 469.9606543 182.27786133 469.04956055 183.17700195 C468.30963867 183.91563477 467.5697168 184.65426758 466.80737305 185.4152832 C445.49042619 205.52192721 418.33106479 210.60087933 390.17456055 210.30200195 C388.50399307 210.29194025 386.83341964 210.2828201 385.1628418 210.2746582 C381.12493077 210.25292453 377.08731403 210.21857553 373.04956055 210.17700195 C372.60954712 211.33232422 372.60954712 211.33232422 372.16064453 212.51098633 C364.65197472 230.52783412 344.70637281 248.0165957 330.04956055 260.17700195 C331.22862473 260.17842697 332.4076889 260.17985199 333.6224823 260.18132019 C344.73180353 260.19798664 355.8407583 260.24074967 366.94988537 260.30909252 C372.66130517 260.3433894 378.37245671 260.36847674 384.08398438 260.37255859 C389.5955489 260.37683568 395.10650799 260.40525 400.61788368 260.45043373 C402.72098579 260.46342752 404.82416028 260.46770979 406.92729759 260.46315575 C409.87260763 260.45826325 412.816139 260.48428273 415.76123047 260.51757812 C417.06674614 260.50463966 417.06674614 260.50463966 418.39863586 260.49143982 C422.74177372 260.57379424 424.53261936 260.78322284 428.0929718 263.49531555 C432.38541889 269.37851252 430.56038468 278.44753371 429.6081543 285.3996582 C425.93095728 302.58303799 415.48553255 317.11960739 401.2644043 327.2043457 C388.31344982 335.15116467 376.29368275 337.48228399 361.36808777 337.43769836 C359.99118716 337.44072295 358.61428823 337.44461397 357.23739225 337.44929093 C353.47273887 337.45954017 349.70818105 337.45739699 345.94351995 337.45311034 C341.87591559 337.45063749 337.8083339 337.45966423 333.74073792 337.46714783 C325.77894424 337.47988161 317.81718431 337.48169014 309.85538217 337.47934756 C303.38163008 337.47756267 296.90788821 337.47931773 290.43413734 337.48357201 C289.05070749 337.48446479 289.05070749 337.48446479 287.63932956 337.48537561 C285.76553414 337.4865874 283.89173872 337.48780153 282.0179433 337.48901799 C264.45451833 337.49988856 246.89111257 337.49773339 229.32768653 337.49163314 C213.27348953 337.48646514 197.21935324 337.49771719 181.16516825 337.51673136 C164.66663859 337.53612144 148.16813762 337.54436366 131.66959649 337.54060811 C122.41260138 337.53869775 113.15565791 337.54116747 103.8986721 337.55532265 C96.01750333 337.56725237 88.13641799 337.56862354 80.25524803 337.55653248 C76.23754096 337.55065479 72.21998638 337.54951346 68.20228958 337.56153488 C64.51773138 337.57243099 60.83345233 337.56924648 57.14890698 337.5552732 C55.19873155 337.55139621 53.24854353 337.56214288 51.29839772 337.57357007 C32.34290279 337.45798029 16.49792497 330.47276082 3.04956055 317.17700195 C-8.0757714 304.81742671 -13.88697348 290.41434873 -14.38793945 273.92700195 C-14.42258301 273.2407373 -14.45722656 272.55447266 -14.49291992 271.84741211 C-14.52248222 268.18079132 -14.1267115 266.40350703 -11.85835266 263.48872375 C-8.25440199 260.62366873 -6.42827922 260.54189275 -1.86523438 260.51757812 C-1.17200073 260.50709442 -0.47876709 260.49661072 0.23547363 260.48580933 C2.51380616 260.45713886 4.79061179 260.4633405 7.0690918 260.4699707 C8.65380246 260.45685063 10.23849641 260.44154545 11.82316589 260.42414856 C15.98412916 260.38432102 20.14465475 260.37410964 24.30578613 260.37011719 C28.55579893 260.36078141 32.80555502 260.32336515 37.05541992 260.28833008 C45.38680488 260.22377722 53.7179372 260.1905184 62.04956055 260.17700195 C61.6226593 259.77908447 61.19575806 259.38116699 60.75592041 258.97119141 C58.79623852 257.14425125 56.83695941 255.31687968 54.87768555 253.48950195 C54.20624512 252.86366211 53.53480469 252.23782227 52.84301758 251.59301758 C15.3487571 216.61668668 -11.98650885 166.75642729 -14.05259609 114.59805775 C-14.1004212 111.7467964 -14.11975606 108.89681925 -14.12744141 106.04516602 C-14.1340126 104.96923691 -14.1405838 103.8933078 -14.14735413 102.78477478 C-14.16693398 99.25405799 -14.17870881 95.72338319 -14.1887207 92.19262695 C-14.19279623 90.98250694 -14.19687176 89.77238693 -14.20107079 88.52559662 C-14.22185552 82.13319575 -14.23619585 75.74081593 -14.24560547 69.34838867 C-14.25671772 62.7451615 -14.29119463 56.14226686 -14.33077717 49.53915787 C-14.35687342 44.45714681 -14.36529057 39.3752164 -14.36888695 34.29314423 C-14.37376268 31.8578438 -14.38540456 29.4225472 -14.40392494 26.98731232 C-14.42819028 23.58835432 -14.42737532 20.19027727 -14.42041016 16.79125977 C-14.43322021 15.78544357 -14.44603027 14.77962738 -14.45922852 13.74333191 C-14.42641613 9.35891651 -14.38058279 6.87740441 -12.04606628 3.07611084 C-8.24909003 -0.36480299 -4.89710579 0.0168869 0 0 Z M406.04956055 52.17700195 C406.04956055 58.44700195 406.04956055 64.71700195 406.04956055 71.17700195 C407.38656006 71.19158447 408.72355957 71.20616699 410.10107422 71.22119141 C415.06797854 71.27922319 420.03443183 71.35645631 425.00097656 71.43945312 C427.14933952 71.47267941 429.2977893 71.50071848 431.44628906 71.5234375 C434.5370783 71.55702527 437.62707367 71.60934416 440.7175293 71.6652832 C441.67604294 71.67167313 442.63455658 71.67806305 443.62211609 71.68464661 C448.53066417 71.79253613 452.10827019 71.90137852 456.04956055 75.17700195 C457.20913945 77.49615976 457.2001204 78.89691502 457.24243164 81.48046875 C457.25849457 82.37287766 457.2745575 83.26528656 457.29110718 84.18473816 C457.33591876 88.31797433 457.37673088 92.45104895 457.3996582 96.58447266 C457.4160839 98.74799456 457.44319234 100.9114653 457.48168945 103.07470703 C457.79582018 120.83401966 456.66390307 134.8864239 445.04956055 149.17700195 C444.14270508 150.40870117 444.14270508 150.40870117 443.2175293 151.6652832 C433.41336722 163.02397909 418.62639861 168.27041583 404.0847168 169.5168457 C400.40861857 169.7811798 396.73045068 169.99050352 393.04956055 170.17700195 C391.87862049 172.96694586 390.71265128 175.75878792 389.54956055 178.55200195 C389.21569336 179.34606445 388.88182617 180.14012695 388.5378418 180.95825195 C388.22202148 181.71879883 387.90620117 182.4793457 387.58081055 183.26293945 C387.28754883 183.96467285 386.99428711 184.66640625 386.69213867 185.3894043 C385.93680274 187.17408757 385.93680274 187.17408757 386.04956055 189.17700195 C412.04555032 189.87794471 433.43104442 186.39640099 453.8034668 168.7980957 C470.59704491 152.82496721 477.54409535 132.60618739 478.13626099 109.84439087 C478.16445739 106.14886616 478.16221219 102.45463091 478.1472168 98.7590332 C478.14620972 97.57096069 478.14520264 96.38288818 478.14416504 95.15881348 C478.138978 90.76903299 478.12501715 86.37926638 478.11206055 81.98950195 C478.08112305 67.23231445 478.08112305 67.23231445 478.04956055 52.17700195 C454.28956055 52.17700195 430.52956055 52.17700195 406.04956055 52.17700195 Z M406.04956055 92.17700195 C405.96706055 95.76575195 405.88456055 99.35450195 405.79956055 103.05200195 C405.36044583 116.62736042 403.38087475 129.81578636 401.04956055 143.17700195 C400.71521065 145.17683226 400.38121309 147.17672255 400.04956055 149.17700195 C410.05353157 149.13761624 418.31897744 146.20303013 425.98706055 139.67700195 C426.66768555 138.85200195 427.34831055 138.02700195 428.04956055 137.17700195 C428.89518555 136.29012695 429.74081055 135.40325195 430.61206055 134.48950195 C438.18669865 125.19444132 438.21332508 113.56164448 438.11206055 102.17700195 C438.09143555 98.87700195 438.07081055 95.57700195 438.04956055 92.17700195 C427.48956055 92.17700195 416.92956055 92.17700195 406.04956055 92.17700195 Z M8.04956055 281.17700195 C9.94592219 292.55517183 16.06293234 301.04591236 25.04956055 308.17700195 C37.80423973 316.32792119 50.46649634 317.48793403 65.37011719 317.43096924 C66.64612069 317.43408922 67.9221242 317.4372092 69.23679447 317.44042373 C72.73965268 317.4486922 76.24240045 317.44468312 79.74525881 317.43845129 C83.53809601 317.43389488 87.33091524 317.44092626 91.12374878 317.44641113 C98.53855888 317.45527297 105.95332833 317.45339749 113.36813998 317.44758585 C119.39794671 317.44305668 125.4277421 317.44246187 131.45755005 317.44463348 C132.74814696 317.44509318 132.74814696 317.44509318 134.06481653 317.44556217 C135.81306609 317.44620166 137.56131564 317.44685009 139.30956519 317.44750735 C155.67699314 317.45320124 172.04439864 317.44666755 188.41182292 317.43590662 C202.43528576 317.42697197 216.45871549 317.42852427 230.48217773 317.43774414 C246.79373818 317.44846342 263.10527898 317.45265201 279.41684246 317.44651961 C281.15841865 317.44588256 282.89999485 317.44525382 284.64157104 317.44463348 C285.9266785 317.44417066 285.9266785 317.44417066 287.23774773 317.44369848 C293.25560007 317.44197651 299.27343988 317.44487587 305.29129028 317.44959259 C312.63177241 317.45521987 319.97221179 317.45364628 327.31268907 317.4430311 C331.05305599 317.43779917 334.79335182 317.43567503 338.53371811 317.44232941 C342.59887442 317.44945187 346.6638535 317.44090902 350.72900391 317.43096924 C352.47986597 317.4376614 352.47986597 317.4376614 354.26609898 317.44448876 C370.42271515 317.3682094 384.23142279 314.88597486 396.48706055 303.61450195 C401.72969055 297.98192426 408.04956055 289.09413061 408.04956055 281.17700195 C276.04956055 281.17700195 144.04956055 281.17700195 8.04956055 281.17700195 Z " fill="#000000" transform="translate(13.950439453125,174.822998046875)"/>
<path d="M0 0 C5.57894737 3.15789474 5.57894737 3.15789474 7 6 C7.94783747 12.40467316 6.60069912 16.63478602 3.19140625 22.0546875 C0.01441259 27.24204109 0.4938852 33.13200232 1 39 C2.37651759 44.47099985 5.23055871 48.41003613 8.8125 52.6875 C20.26322165 66.40696276 23.44988507 81.54204883 22 99 C19.68651224 112.13285269 12.51569821 123.79055414 3 133 C-0.23528039 134.61764019 -3.50293775 134.57743699 -7 134 C-10.32063793 132.28635173 -12.52815845 130.12062368 -14 126.625 C-14 120.25408841 -12.17728481 117.0116233 -8.125 112.25 C-1.51361613 104.28027726 0.42460136 96.68519464 0.53125 86.43359375 C-0.84381508 77.5462246 -5.26941955 70.74524316 -10.5 63.625 C-19.52932047 50.76255995 -22.6663421 39.66434499 -21 24 C-19.41563039 15.67502833 -15.71510956 8.29163377 -10 2 C-6.55289593 -0.11316725 -4.04574679 -0.48548961 0 0 Z " fill="#000000" transform="translate(265,22)"/>
<path d="M0 0 C3.14882972 1.50881424 4.46241774 2.61436016 5.73046875 5.8828125 C7.05220227 12.18646466 4.73605109 16.21608511 1.4453125 21.51953125 C-1.41661679 26.43122071 -1.57845826 31.43213854 -1 37 C1.11629486 43.53278125 4.8187833 48.78332395 8.9375 54.1875 C18.40937612 67.09420085 22.76070498 81.27219198 20.5390625 97.33203125 C18.11513741 110.26438455 12.70920547 120.21374993 4 130 C3.50628906 130.56847656 3.01257813 131.13695312 2.50390625 131.72265625 C-0.19624292 134.0160297 -3.59181858 134.1067141 -7 134 C-11.18930246 132.32427902 -13.18528883 130.1069779 -15 126 C-15.65896162 122.77840986 -15.47642917 120.8513511 -13.86328125 117.96875 C-12.28404249 115.6143993 -10.64211562 113.31085049 -9 111 C-3.3117469 102.26732975 0.21240713 94.61633424 -1 84 C-2.730838 76.4303224 -6.30461654 70.80245264 -10.97265625 64.69140625 C-19.61522025 53.2179446 -24.00552232 41.43110738 -23 27 C-21.52538535 17.41500477 -18.04975267 8.70646932 -11.6875 1.3125 C-7.73983867 -0.61542762 -4.30518866 -0.74092921 0 0 Z " fill="#000000" transform="translate(211,0)"/>
<path d="M0 0 C5.57894737 3.15789474 5.57894737 3.15789474 7 6 C7.6905808 12.11657279 7.00864623 15.42525346 4 20.8125 C0.67169599 27.03429395 -0.234566 32.02945046 1 39 C3.34898845 46.31542118 8.21251966 51.97633576 12.84765625 57.9765625 C19.64138596 67.51984162 22.35403516 77.74080539 22.3125 89.3125 C22.32861328 90.19873047 22.34472656 91.08496094 22.36132812 91.99804688 C22.37238358 107.15507309 15.10757996 120.03307114 5 131 C1.71156595 133.88944597 -0.56396059 134.52163666 -5.03125 134.36328125 C-8.12683181 133.7920727 -9.85143672 132.21367126 -12 130 C-13.64509468 126.70981064 -13.64026359 123.54279184 -13 120 C-11.32148434 116.76493694 -9.14472498 113.93870895 -7 111 C-5.87425625 109.24280458 -4.76965193 107.47187158 -3.6875 105.6875 C-3.19636719 104.88699219 -2.70523438 104.08648437 -2.19921875 103.26171875 C1.48707186 96.30939868 0.94949973 86.80897703 -0.54296875 79.25 C-2.62124811 73.31763451 -6.39032618 68.67769917 -10.27685547 63.82910156 C-19.82036828 51.84026323 -22.59760103 39.02130704 -21 24 C-19.43859455 15.9885706 -15.99742551 7.70599052 -10 2 C-6.50953256 -0.05481709 -4.06706482 -0.48804778 0 0 Z " fill="#000000" transform="translate(154,22)"/>
<path d="M0 0 C3.8893847 0.96485506 5.22290838 2.35424127 7.53515625 5.62890625 C8.22767576 9.22793819 8.1488136 12.72580441 8.03515625 16.37890625 C8.01598145 17.40806152 7.99680664 18.4372168 7.97705078 19.49755859 C7.71954929 28.44608332 6.66782924 36.94300627 4.53515625 45.62890625 C4.33647949 46.44568848 4.13780273 47.2624707 3.93310547 48.10400391 C-3.31121666 77.07586595 -16.95717597 101.96419106 -37.46484375 123.62890625 C-38.15191406 124.36109375 -38.83898437 125.09328125 -39.546875 125.84765625 C-42.19150265 128.30376665 -43.87438943 128.55850518 -47.46484375 128.62890625 C-51.71505163 127.40427008 -53.84646576 126.47917599 -56.46484375 122.87890625 C-57.76582681 118.65071131 -57.88026037 116.87515612 -56.46484375 112.62890625 C-54.50309184 110.18248622 -52.36983511 107.95833102 -50.203125 105.69140625 C-28.14531183 81.84861442 -15.19123325 48.83325826 -13.94726562 16.55078125 C-13.6780329 11.22708513 -12.82917191 6.78909251 -9.96484375 2.25390625 C-6.60842067 0.07223125 -3.9332428 0.10334641 0 0 Z " fill="#000000" transform="translate(364.46484375,261.37109375)"/>
<path d="M0 0 C3.60185638 1.78935906 5.65271868 4.06029761 7.0625 7.875 C6.98041379 11.97931067 6.07239574 14.4568718 4 18 C0.59254913 20.47814609 -1.35056907 21 -5.5625 21 C-9.82964117 19.75864984 -11.47631975 18.67080764 -14 15 C-14.96393453 10.33252754 -14.65953759 7.05526014 -12.125 3 C-8.46981433 -0.44017475 -4.87233139 -0.79548268 0 0 Z " fill="#000000" transform="translate(289,394)"/>
<path d="M0 0 C4.00535091 2.44771444 5.66804391 3.92602443 7.0625 8.4375 C6.98961886 12.59172484 6.39074278 14.60668767 4 18 C0.58765141 20.40415469 -1.38189691 21 -5.5625 21 C-9.82964117 19.75864984 -11.47631975 18.67080764 -14 15 C-14.70205856 11.84929815 -14.72977891 9.14717157 -14 6 C-9.78502349 0.67581915 -6.7408423 -0.67408423 0 0 Z " fill="#000000" transform="translate(147,175)"/>
</svg>
