<?xml version="1.0" encoding="UTF-8"?>
<svg version="1.1" xmlns="http://www.w3.org/2000/svg" width="512" height="512">
<path d="M0 0 C1.06077255 -0.00671722 2.1215451 -0.01343445 3.21446228 -0.02035522 C6.72008961 -0.03934785 10.2255256 -0.04326016 13.73120117 -0.04541016 C16.17111795 -0.05183742 18.61103395 -0.05856573 21.0509491 -0.06558228 C26.1661457 -0.07755838 31.28127474 -0.08126277 36.39648438 -0.08007812 C42.94350949 -0.07987497 49.49010035 -0.10717221 56.03702259 -0.14162254 C61.07714315 -0.16388623 66.11715914 -0.16791581 71.15732384 -0.16685867 C73.5705992 -0.16921561 75.9838774 -0.17804428 78.39710426 -0.19352341 C81.77676205 -0.21317076 85.1554826 -0.2073493 88.53515625 -0.1953125 C89.52712006 -0.20655151 90.51908386 -0.21779053 91.54110718 -0.22937012 C98.82624198 -0.16360776 104.17378339 1.40933061 109.70385742 6.25537109 C110.24268555 6.90634766 110.78151367 7.55732422 111.33666992 8.22802734 C111.8909668 8.87642578 112.44526367 9.52482422 113.01635742 10.19287109 C115.63616378 13.99513059 116.60088197 16.82081199 116.31323242 21.41552734 C115.51344643 35.47140264 120.32895463 42.91287998 129.31323242 53.42333984 C129.94052246 54.12346191 130.5678125 54.82358398 131.21411133 55.54492188 C132.32665283 56.90399658 132.32665283 56.90399658 133.46166992 58.29052734 C134.02855457 58.95804537 134.59543922 59.6255634 135.17950219 60.31330925 C140.48126298 67.08027573 141.48039715 72.13326619 141.3976593 80.6025238 C141.4135182 81.8063938 141.42937709 83.0102638 141.44571656 84.2506147 C141.48217934 87.56709318 141.48764613 90.88090015 141.47935593 94.19738662 C141.4779199 97.78402853 141.51663509 101.37028288 141.54975891 104.95674133 C141.60774661 111.97497454 141.62713571 118.99279611 141.63104556 126.01124894 C141.63438046 131.72267245 141.64880722 137.43396106 141.67094994 143.14534187 C141.73256297 159.36998967 141.76489229 175.59431425 141.75963662 191.81907987 C141.75935692 192.69258478 141.75907723 193.56608969 141.75878906 194.46606445 C141.7585029 195.34064751 141.75821673 196.21523057 141.7579219 197.11631615 C141.75508029 211.27156555 141.82198052 225.42550828 141.92075763 239.58038007 C142.02158843 254.14561088 142.06963313 268.7102063 142.0636012 283.27579457 C142.06128641 291.44086321 142.08010804 299.6045634 142.15584755 307.76931572 C142.21996406 314.72528033 142.23450972 321.67925739 142.18728159 328.63539135 C142.1646008 332.17734687 142.16333216 335.71550314 142.22475433 339.25708389 C142.47543962 356.96918493 140.533465 368.05244644 128.29236352 381.24172509 C125.15299109 384.75512205 122.46058074 388.59474692 119.71166992 392.41552734 C114.79022888 399.12624786 114.79022888 399.12624786 112.46166992 400.29052734 C110.67397211 400.39448779 108.88241056 400.43439478 107.09172058 400.44442749 C105.9518721 400.45302795 104.81202362 400.46162842 103.63763428 400.4704895 C102.38097961 400.47474945 101.12432495 400.4790094 99.82958984 400.48339844 C98.51084366 400.49157593 97.19209747 400.49975342 95.83338928 400.50817871 C91.45299322 400.53440375 87.07258758 400.5497065 82.69213867 400.56396484 C81.18471076 400.56932427 79.6772829 400.57470178 78.16985512 400.5800972 C71.89986976 400.60172636 65.62988699 400.62046349 59.35987377 400.63171959 C50.37133957 400.64796172 41.38323746 400.68114492 32.39486617 400.73812044 C26.07632856 400.7768082 19.75790658 400.79635085 13.43925363 400.80164015 C9.66458451 400.8052952 5.89037618 400.81733163 2.11583519 400.84974289 C-1.43591725 400.87980387 -4.98692963 400.88614313 -8.53878212 400.87435913 C-10.46182807 400.87403298 -12.38482821 400.89851192 -14.30770874 400.92373657 C-22.77434559 400.86240323 -22.77434559 400.86240323 -26.73176575 397.90010071 C-27.32793198 397.0389415 -27.92409821 396.17778229 -28.53833008 395.29052734 C-29.17367676 394.51942627 -29.80902344 393.7483252 -30.46362305 392.95385742 C-31.06319824 392.16390381 -31.66277344 391.3739502 -32.28051758 390.56005859 C-32.95469727 389.67382812 -33.62887695 388.78759766 -34.32348633 387.87451172 C-35.01313477 386.95992188 -35.7027832 386.04533203 -36.41333008 385.10302734 C-37.09524414 384.20777344 -37.7771582 383.31251953 -38.47973633 382.39013672 C-40.51757726 379.70212749 -42.54584034 377.01243849 -44.53833008 374.29052734 C-45.3855886 373.27774362 -45.3855886 373.27774362 -46.24996346 372.24449962 C-51.56643859 365.49070412 -52.55702814 360.4448027 -52.47431946 351.97853088 C-52.4981078 350.17272589 -52.4981078 350.17272589 -52.52237672 348.33043998 C-52.55883949 345.01396151 -52.56430629 341.70015453 -52.55601609 338.38366807 C-52.55458006 334.79702616 -52.59329524 331.21077181 -52.62641907 327.62431335 C-52.68440676 320.60608014 -52.70379587 313.58825857 -52.70770571 306.56980575 C-52.71104062 300.85838224 -52.72546737 295.14709362 -52.74761009 289.43571281 C-52.80922312 273.21106502 -52.84155245 256.98674043 -52.83629677 240.76197482 C-52.83601708 239.88846991 -52.83573739 239.01496499 -52.83544922 238.11499023 C-52.83516305 237.24040718 -52.83487689 236.36582412 -52.83458205 235.46473854 C-52.83174045 221.30948914 -52.89864067 207.1555464 -52.99741779 193.00067461 C-53.09824858 178.43544381 -53.14629328 163.87084839 -53.14026135 149.30526012 C-53.13794657 141.14019148 -53.15676819 132.97649129 -53.23250771 124.81173897 C-53.29662422 117.85577436 -53.31116988 110.9017973 -53.26394174 103.94566334 C-53.24126095 100.40370782 -53.23999232 96.86555155 -53.30141449 93.32397079 C-53.56975595 74.36437785 -50.78349476 63.11648671 -37.53833008 49.29052734 C-30.09732594 41.11065136 -27.52738395 35.55901124 -27.78515625 24.49389648 C-27.91815993 17.37714377 -26.30139084 12.44360265 -21.57348633 7.04833984 C-20.92250977 6.50951172 -20.2715332 5.97068359 -19.60083008 5.41552734 C-18.95243164 4.86123047 -18.3040332 4.30693359 -17.63598633 3.73583984 C-11.96442103 -0.17194258 -6.66978817 -0.0060572 0 0 Z M-9.53833008 19.29052734 C-12.31893189 23.71421205 -11.53833008 26.65177366 -11.53833008 32.29052734 C25.42166992 32.29052734 62.38166992 32.29052734 100.46166992 32.29052734 C100.71480237 24.48334824 100.71480237 24.48334824 97.46166992 18.29052734 C92.90368943 15.71915623 88.25978859 16.00139913 83.17675781 16.01586914 C81.78560509 16.00820274 81.78560509 16.00820274 80.36634827 16.00038147 C77.30560829 15.98650006 74.24509385 15.98744111 71.18432617 15.98974609 C69.05350155 15.98585849 66.9226777 15.98152368 64.79185486 15.97676086 C60.32735684 15.96930186 55.86293791 15.96958773 51.3984375 15.97485352 C45.6808107 15.98064892 39.96350775 15.96371371 34.24593449 15.94050884 C29.84584159 15.92576877 25.44582664 15.92490017 21.04571342 15.92801857 C18.93781327 15.92750554 16.82990873 15.92227121 14.72203255 15.91220665 C11.77313379 15.89985391 8.82486543 15.90662706 5.87597656 15.91821289 C4.57361053 15.90674728 4.57361053 15.90674728 3.24493408 15.89505005 C-1.75074397 15.93837605 -5.21750449 16.49921155 -9.53833008 19.29052734 Z M-25.08651733 59.97177124 C-26.60512769 62.83948654 -26.60512769 62.83948654 -26.53833008 64.29052734 C20.32166992 64.29052734 67.18166992 64.29052734 115.46166992 64.29052734 C113.48166992 61.32052734 111.50166992 58.35052734 109.46166992 55.29052734 C108.74822418 53.97120209 108.03477844 52.65187683 107.29971313 51.29257202 C105.67469248 49.06889306 104.81604754 48.3901785 102.13819504 47.63716507 C99.09006728 47.31753706 96.1179639 47.25329677 93.05297852 47.2578125 C91.89948914 47.23269592 90.74599976 47.20757935 89.55755615 47.18170166 C85.74123649 47.11006983 81.92705192 47.09156567 78.11010742 47.07958984 C76.12494863 47.06088347 74.13978952 47.04216579 72.15464652 47.02185285 C65.90935569 46.959713 59.66475998 46.93812416 53.41918945 46.93847656 C46.99796741 46.93784569 40.58134614 46.85538224 34.16136682 46.73435366 C28.63312881 46.6338694 23.10639046 46.59201757 17.57724631 46.59450758 C14.28131705 46.59498676 10.99059279 46.56551009 7.69538498 46.49061966 C-12.35942813 46.00583947 -12.35942813 46.00583947 -25.08651733 59.97177124 Z M-35.53833008 80.29052734 C-35.53833008 170.05052734 -35.53833008 259.81052734 -35.53833008 352.29052734 C-19.36833008 352.29052734 -3.19833008 352.29052734 13.46166992 352.29052734 C32.41465085 295.43158456 35.78022664 229.48456973 27.46166992 170.29052734 C27.36456726 169.5934668 27.2674646 168.89640625 27.16741943 168.17822266 C22.94764789 138.12186851 16.06511332 109.10085755 6.46166992 80.29052734 C-7.39833008 80.29052734 -21.25833008 80.29052734 -35.53833008 80.29052734 Z M24.46166992 80.29052734 C24.99974199 82.49978795 25.54158948 84.70799081 26.08666992 86.91552734 C26.26415771 87.63643555 26.44164551 88.35734375 26.62451172 89.10009766 C27.61817401 93.08486471 28.66399402 97.04409275 29.81713867 100.98583984 C37.99313098 129.1311921 42.65440409 158.1511878 45.46166992 187.29052734 C45.56479492 188.32814209 45.66791992 189.36575684 45.77416992 190.43481445 C50.311484 243.33098406 44.80472492 296.88317362 31.91723633 348.24804688 C31.3891045 350.26708789 31.3891045 350.26708789 31.46166992 352.29052734 C51.59166992 352.29052734 71.72166992 352.29052734 92.46166992 352.29052734 C92.92248554 306.68102858 92.92248554 306.68102858 89.46166992 261.29052734 C89.37445679 260.56877319 89.28724365 259.84701904 89.1973877 259.10339355 C78.76730619 163.35873694 78.76730619 163.35873694 38.46166992 80.29052734 C36.10853438 80.21780993 33.75333324 80.20681867 31.39916992 80.22802734 C30.10881836 80.23705078 28.8184668 80.24607422 27.48901367 80.25537109 C26.48999023 80.26697266 25.4909668 80.27857422 24.46166992 80.29052734 Z M57.46166992 80.29052734 C60.10037288 87.15115503 62.73316675 93.97390917 65.49121094 100.77929688 C94.33397053 172.64419207 107.82966477 248.0621129 109.02416992 325.29052734 C109.06745528 327.91553288 109.11107241 330.54053297 109.1550293 333.16552734 C109.26106767 339.54047097 109.36261705 345.91547151 109.46166992 352.29052734 C114.41166992 352.29052734 119.36166992 352.29052734 124.46166992 352.29052734 C124.46166992 262.53052734 124.46166992 172.77052734 124.46166992 80.29052734 C102.35166992 80.29052734 80.24166992 80.29052734 57.46166992 80.29052734 Z M-26.53833008 368.29052734 C-24.55833008 371.26052734 -22.57833008 374.23052734 -20.53833008 377.29052734 C-19.82488434 378.6098526 -19.1114386 379.92917786 -18.37637329 381.28848267 C-16.75135264 383.51216163 -15.8927077 384.19087618 -13.21485519 384.94388962 C-10.16672744 385.26351763 -7.19462406 385.32775791 -4.12963867 385.32324219 C-2.3994046 385.36091705 -2.3994046 385.36091705 -0.63421631 385.39935303 C3.18210335 385.47098486 6.99628792 385.48948902 10.81323242 385.50146484 C12.79839121 385.52017121 14.78355033 385.5388889 16.76869333 385.55920184 C23.01398415 385.62134168 29.25857986 385.64293053 35.50415039 385.64257812 C41.92537243 385.643209 48.3419937 385.72567245 54.76197302 385.84670103 C60.29021104 385.94718529 65.81694939 385.98903712 71.34609354 385.98654711 C74.6420228 385.98606793 77.93274705 386.0155446 81.22795486 386.09043503 C94.51400907 386.92763595 94.51400907 386.92763595 106.68108368 382.75196075 C110.66821337 378.81048797 113.22732657 374.39810108 115.46166992 369.29052734 C115.46166992 368.96052734 115.46166992 368.63052734 115.46166992 368.29052734 C68.60166992 368.29052734 21.74166992 368.29052734 -26.53833008 368.29052734 Z " fill="#000000" transform="translate(315.538330078125,103.70947265625)"/>
<path d="M0 0 C0.73250977 -0.00700928 1.46501953 -0.01401855 2.21972656 -0.02124023 C4.62604382 -0.03875584 7.03117209 -0.02722142 9.4375 -0.01367188 C11.11849186 -0.01636866 12.79948221 -0.02025264 14.48046875 -0.02526855 C17.99754743 -0.03115485 21.5142188 -0.02262896 25.03125 -0.00390625 C29.53052189 0.01888312 34.02883927 0.00575532 38.52807617 -0.01819611 C41.99746847 -0.03267779 45.46663594 -0.02803731 48.93603516 -0.01768494 C50.59456496 -0.01502418 52.25311544 -0.01826444 53.91162109 -0.02760315 C56.23329421 -0.03780834 58.55344011 -0.02221466 60.875 0 C62.19371094 0.00318237 63.51242188 0.00636475 64.87109375 0.00964355 C70.20987783 0.77000365 73.24889027 3.18522493 76.77929688 7.14257812 C79.01995986 11.70307946 79.01325828 15.50076389 78.96875 20.51757812 C78.9725769 21.47148437 78.97640381 22.42539062 78.98034668 23.40820312 C78.98306036 25.41863057 78.97573737 27.42909365 78.95898438 29.43945312 C78.93756709 32.50796599 78.95880466 35.57413765 78.984375 38.64257812 C78.98173163 40.6009166 78.97660645 42.55925362 78.96875 44.51757812 C78.97684692 45.43023437 78.98494385 46.34289063 78.99328613 47.28320312 C78.89550409 53.96112307 77.24890056 57.70617757 72.4375 62.51757812 C70.43895719 78.45401042 77.2796231 94.69365602 86.75 107.26757812 C89.16897331 110.1879787 91.76793103 112.90732529 94.390625 115.64453125 C112.23020856 134.43980678 118.7505024 156.50629603 118.7734375 181.99414062 C118.77988114 183.69029853 118.78661061 185.38645538 118.79360962 187.08261108 C118.80553302 190.62785411 118.80929573 194.17300008 118.80810547 197.71826172 C118.80790294 202.21636546 118.83515849 206.71383273 118.86964989 211.21178627 C118.8921133 214.71412904 118.89593707 218.21632356 118.89488602 221.71873093 C118.89721466 223.37459879 118.90587965 225.03047251 118.92155075 226.68626785 C119.04772415 241.39791646 116.66800788 254.11343374 110.671875 267.69726562 C109.40759245 270.58591121 108.27639275 273.49613043 107.1875 276.45507812 C106.87296875 277.30972656 106.5584375 278.164375 106.234375 279.04492188 C100.84244113 295.77577549 104.82920335 313.31081287 112.203125 328.65039062 C115.8540616 337.1307307 118.54236027 346.69235781 118.58467102 355.96235657 C118.59540398 357.58346344 118.59540398 357.58346344 118.60635376 359.23731995 C118.60904266 360.41302048 118.61173157 361.58872101 118.61450195 362.80004883 C118.62107315 364.04613922 118.62764435 365.29222961 118.63441467 366.57608032 C118.6541211 370.69850915 118.66580839 374.82089916 118.67578125 378.94335938 C118.67983135 380.36621812 118.68394835 381.78907668 118.68813133 383.21193504 C118.70716455 389.89680921 118.72140071 396.58167245 118.7297433 403.26656848 C118.73951563 410.96850695 118.76584262 418.67015804 118.80624419 426.37199527 C118.83644868 432.33565614 118.85121617 438.29923478 118.85452431 444.26297063 C118.8568694 447.8202071 118.86575908 451.37713589 118.89098549 454.93428993 C118.91869407 458.90526057 118.91442179 462.87585546 118.9074707 466.84692383 C118.92668579 468.60136559 118.92668579 468.60136559 118.94628906 470.39125061 C118.89369313 478.64137525 117.54100958 483.82691808 112.125 490.26757812 C104.97793885 496.2511642 100.4481725 497.18413961 91.0390625 496.89648438 C84.60798293 496.21989574 80.68961932 494.14540097 76.375 489.39257812 C73.35774056 485.57955795 70.60055179 481.56821893 67.85546875 477.55664062 C66.01605029 474.78101769 66.01605029 474.78101769 62.8125 473.89257812 C58.08014987 474.76893926 56.8810691 477.20072894 54.16015625 480.99804688 C53.59167969 481.82949219 53.02320313 482.6609375 52.4375 483.51757812 C48.16605782 489.62116009 44.74486225 494.08179071 37.4375 496.51757812 C29.52101037 497.13118151 21.91751896 497.65585199 15.4375 492.51757812 C10.82889533 488.18480017 7.41004596 482.75118833 3.85546875 477.55664062 C2.01605029 474.78101769 2.01605029 474.78101769 -1.1875 473.89257812 C-5.92061848 474.76908155 -7.11858856 477.20314005 -9.84375 480.99804688 C-10.4109375 481.82949219 -10.978125 482.6609375 -11.5625 483.51757812 C-15.40128601 489.12886482 -18.37161795 492.54119252 -24.5625 495.51757812 C-25.2225 495.84757812 -25.8825 496.17757813 -26.5625 496.51757812 C-34.76636137 497.32770944 -42.42071286 497.64921534 -49.30173683 492.52000999 C-54.80234186 487.64794424 -57.83406069 481.82367126 -58.3109436 474.48739624 C-58.34019704 472.22599858 -58.33707324 469.96402534 -58.30712891 467.70263672 C-58.31443024 466.45891296 -58.32173157 465.21518921 -58.32925415 463.93377686 C-58.34261459 460.54828806 -58.32934674 457.16502931 -58.30258989 453.77976179 C-58.27976469 450.21317092 -58.28819167 446.64662963 -58.29208374 443.07998657 C-58.29384496 437.08649856 -58.27179958 431.0934649 -58.23486328 425.10009766 C-58.19265057 418.21199973 -58.18548608 411.32456937 -58.1979872 404.43636835 C-58.20946243 397.76745419 -58.19797342 391.09877059 -58.17564011 384.42988968 C-58.16645151 381.61290767 -58.16455487 378.79606911 -58.1688118 375.97907639 C-58.18642561 356.33582662 -56.46016354 340.56196214 -48.875 322.33007812 C-48.07569734 320.37977963 -47.27998355 318.4280055 -46.48828125 316.47460938 C-46.14192627 315.63905518 -45.79557129 314.80350098 -45.4387207 313.94262695 C-40.2693557 299.63577195 -43.4688077 283.50005774 -49.0234375 269.95507812 C-49.40508057 269.0188562 -49.40508057 269.0188562 -49.79443359 268.0637207 C-50.50875298 266.33514044 -51.25320039 264.6190949 -52 262.90429688 C-56.86444734 250.10131395 -58.17189331 237.99894873 -58.09375 224.45507812 C-58.09645601 222.76749449 -58.10034754 221.07991239 -58.10534668 219.39233398 C-58.11118979 215.88282188 -58.10284899 212.37372143 -58.08398438 208.86425781 C-58.06119775 204.41333728 -58.07434914 199.96338225 -58.09827423 195.51249695 C-58.11287437 192.03585818 -58.10806199 188.55944039 -58.09776306 185.08279419 C-58.09513479 183.44369384 -58.09822439 181.804572 -58.10768127 180.16549683 C-58.22320566 154.53038741 -49.5900143 132.93875619 -31.92651367 114.22558594 C-19.34210543 100.83902419 -10.92674494 83.89309995 -11.1640625 65.26367188 C-11.77789093 61.03307007 -13.47244828 59.3815285 -16.5625 56.51757812 C-17.70772327 54.22713159 -17.70646526 52.89423978 -17.73950195 50.34667969 C-17.75875481 49.05458588 -17.75875481 49.05458588 -17.77839661 47.73638916 C-17.78578354 46.80308777 -17.79317047 45.86978638 -17.80078125 44.90820312 C-17.808853 43.94863708 -17.81692474 42.98907104 -17.82524109 42.00042725 C-17.83908741 39.96612355 -17.8498071 37.93179657 -17.85766602 35.89746094 C-17.87485467 32.79381916 -17.91873314 29.69124921 -17.96289062 26.58789062 C-17.97301966 24.61133596 -17.9815351 22.63477223 -17.98828125 20.65820312 C-18.00578934 19.73299866 -18.02329742 18.80779419 -18.04133606 17.85455322 C-18.02256025 12.24533792 -17.46092082 8.86059481 -13.5625 4.51757812 C-8.93923201 0.83301944 -5.87648891 0.01418141 0 0 Z M-1.5625 16.51757812 C-1.5625 27.07757813 -1.5625 37.63757813 -1.5625 48.51757812 C1.0775 48.51757812 3.7175 48.51757812 6.4375 48.51757812 C6.4375 43.23757812 6.4375 37.95757812 6.4375 32.51757812 C11.7175 32.51757812 16.9975 32.51757812 22.4375 32.51757812 C22.4375 37.79757813 22.4375 43.07757813 22.4375 48.51757812 C27.7175 48.51757812 32.9975 48.51757812 38.4375 48.51757812 C38.4375 43.23757812 38.4375 37.95757812 38.4375 32.51757812 C43.7175 32.51757812 48.9975 32.51757812 54.4375 32.51757812 C54.4375 37.79757813 54.4375 43.07757813 54.4375 48.51757812 C57.0775 48.51757812 59.7175 48.51757812 62.4375 48.51757812 C62.4375 37.95757812 62.4375 27.39757812 62.4375 16.51757812 C41.3175 16.51757812 20.1975 16.51757812 -1.5625 16.51757812 Z M6.4375 64.51757812 C5.7775 70.12757812 5.1175 75.73757812 4.4375 81.51757812 C-0.80573986 101.14227587 -9.40413086 115.88256618 -23.25 130.51757812 C-33.12000153 141.32505291 -38.17581085 154.1974432 -40.5625 168.51757812 C6.2975 168.51757812 53.1575 168.51757812 101.4375 168.51757812 C97.07198122 151.05550301 92.2511378 139.01344743 80.24609375 126.17382812 C63.52130583 108.25649011 56.64678538 88.81971735 54.4375 64.51757812 C38.5975 64.51757812 22.7575 64.51757812 6.4375 64.51757812 Z M-41.5625 184.51757812 C-43.00320602 208.75648995 -43.00320602 208.75648995 -40.5625 232.51757812 C6.2975 232.51757812 53.1575 232.51757812 101.4375 232.51757812 C105.31891205 216.99192994 102.4375 200.52104997 102.4375 184.51757812 C54.9175 184.51757812 7.3975 184.51757812 -41.5625 184.51757812 Z M-37.5625 248.51757812 C-36.88571446 254.29945835 -36.88571446 254.29945835 -35.0390625 259.24414062 C-34.74136963 259.87578125 -34.44367676 260.50742187 -34.13696289 261.15820312 C-33.82364014 261.81304687 -33.51031738 262.46789062 -33.1875 263.14257812 C-25.2536226 280.78328899 -22.81921973 302.97355739 -29.5625 321.51757812 C-31.19159383 325.56135104 -32.9052449 329.56772301 -34.64282227 333.56591797 C-40.59355443 347.34612334 -41.71479808 360.83073924 -41.70776367 375.71459961 C-41.71112228 376.76170609 -41.7144809 377.80881256 -41.71794128 378.88764954 C-41.72734273 382.30466944 -41.72938808 385.72163989 -41.73046875 389.13867188 C-41.733686 391.53092976 -41.73705042 393.92318746 -41.74055481 396.31544495 C-41.74651689 401.30722511 -41.74839744 406.29898802 -41.74780273 411.29077148 C-41.74770062 417.68866394 -41.76141671 424.08644666 -41.77857494 430.48431301 C-41.7896794 435.41447968 -41.79172251 440.34461954 -41.79119301 445.27479744 C-41.79237301 447.63471929 -41.79679588 449.99464183 -41.80452538 452.35455132 C-41.81430507 455.64521986 -41.81145644 458.93564605 -41.80541992 462.22631836 C-41.81103943 463.1993692 -41.81665894 464.17242004 -41.82244873 465.17495728 C-41.79599652 470.83976245 -41.77363731 475.30644081 -37.5625 479.51757812 C-34.2334041 480.26940465 -34.2334041 480.26940465 -30.5625 479.51757812 C-27.28658936 476.94483012 -25.14958689 473.38886843 -22.84375 469.96679688 C-18.71549668 463.85589557 -15.73829163 459.90950867 -8.5625 457.51757812 C7.23278596 456.29329294 7.23278596 456.29329294 13.4375 461.51757812 C16.03441735 464.34805122 18.23832508 467.37296352 20.4375 470.51757812 C21.55765024 472.02120322 22.68234023 473.52146186 23.8125 475.01757812 C24.29460937 475.66726563 24.77671875 476.31695312 25.2734375 476.98632812 C27.05379518 479.37574666 27.05379518 479.37574666 30.125 480.01757812 C34.36436491 479.37767399 35.31601172 478.00018451 37.87109375 474.72460938 C39.60140939 472.28663347 41.26650312 469.80902954 42.9375 467.33007812 C46.45220483 462.2135388 49.4727664 459.50582266 55.4375 457.51757812 C71.23278596 456.29329294 71.23278596 456.29329294 77.4375 461.51757812 C80.03441735 464.34805122 82.23832508 467.37296352 84.4375 470.51757812 C85.55765024 472.02120322 86.68234023 473.52146186 87.8125 475.01757812 C88.53566406 475.99210937 88.53566406 475.99210937 89.2734375 476.98632812 C90.3534597 478.47853283 90.3534597 478.47853283 91.4375 479.51757812 C96.11760587 479.9847727 96.11760587 479.9847727 100.3125 478.26757812 C102.37925139 475.05263152 102.56305574 471.80199125 102.57121277 468.05085754 C102.57547775 467.16119797 102.57974274 466.27153839 102.58413696 465.35491943 C102.58368378 464.38612854 102.58323059 463.41733765 102.58276367 462.41918945 C102.58612228 461.3925267 102.5894809 460.36586395 102.59294128 459.30809021 C102.60245697 455.905251 102.60439548 452.50246107 102.60546875 449.09960938 C102.60868363 446.72466512 102.61204788 444.34972106 102.61555481 441.97477722 C102.62154954 436.98554018 102.62339463 431.99632046 102.62280273 427.00708008 C102.62270172 420.65497913 102.63628955 414.30299148 102.65357494 407.95091724 C102.66477562 403.03740443 102.66671939 398.12391817 102.66619301 393.21039391 C102.66736348 390.87155458 102.67173206 388.53271435 102.67952538 386.19388771 C102.74291403 365.18424573 102.04731791 346.19920651 92.8125 326.89257812 C85.30518337 310.62277837 84.31484039 288.40491378 90.4375 271.51757812 C92.69745445 265.78654681 95.11410782 260.12927045 97.63720703 254.50952148 C98.60690863 252.22703265 98.60690863 252.22703265 99.4375 248.51757812 C54.2275 248.51757812 9.0175 248.51757812 -37.5625 248.51757812 Z " fill="#000000" transform="translate(113.5625,7.482421875)"/>
<path d="M0 0 C8.34468007 4.97590182 13.53387008 11.86345977 16.109375 21.2578125 C17.10789012 32.35758522 16.45884702 41.9922991 9.359375 51.0703125 C3.70168013 57.1280464 -3.34488592 60.84888618 -11.625 61.59375 C-22.35447774 61.83515993 -31.19802606 60.58332943 -39.359375 52.9609375 C-46.75303791 44.73737365 -48.47252567 36.02335615 -48.203125 25.24609375 C-47.72879865 16.86039919 -44.11592977 9.8548755 -37.890625 4.2578125 C-27.15195714 -3.81766573 -12.32399863 -5.91386512 0 0 Z M-29.265625 20.8828125 C-31.46970393 25.46051489 -31.6877889 29.26333661 -30.890625 34.2578125 C-28.56093569 39.09639798 -25.72921048 41.92812319 -20.890625 44.2578125 C-15.89614911 45.0549764 -12.09332739 44.83689143 -7.515625 42.6328125 C-3.93154787 39.39007605 -1.29527259 36.79305354 -0.5078125 31.859375 C-0.25178581 26.17558256 -0.95435568 22.60842595 -4.890625 18.2578125 C-9.24123845 14.32154318 -12.80839506 13.61897331 -18.4921875 13.875 C-23.42586604 14.66246009 -26.02288855 17.29873537 -29.265625 20.8828125 Z " fill="#000000" transform="translate(439.890625,10.7421875)"/>
<path d="M0 0 C36.96 0 73.92 0 112 0 C112 5.28 112 10.56 112 16 C75.04 16 38.08 16 0 16 C0 10.72 0 5.44 0 0 Z " fill="#000000" transform="translate(88,208)"/>
<path d="M0 0 C5.82485779 3.51996782 10.54466582 8.98962934 12.5625 15.5 C13.36764105 23.33608208 13.68710392 31.11922577 8.5625 37.5 C3.75801361 42.54521222 -0.59927055 46.10562995 -7.70703125 46.8359375 C-16.22326573 46.92983204 -22.11345494 46.6177288 -28.40234375 40.62890625 C-34.7841668 33.72505269 -35.91792252 28.29832071 -35.7421875 18.9453125 C-35.04689797 11.08319245 -31.38995981 6.95041296 -25.53515625 1.9453125 C-18.47077988 -2.92213491 -7.84396301 -3.47595223 0 0 Z M-16.8125 17.125 C-18.92456506 20.21186432 -19.04945145 21.8282913 -18.4375 25.5 C-16.9375 28 -16.9375 28 -14.4375 29.5 C-10.7657913 30.11195145 -9.14936432 29.98706506 -6.0625 27.875 C-3.95043494 24.78813568 -3.82554855 23.1717087 -4.4375 19.5 C-5.9375 17 -5.9375 17 -8.4375 15.5 C-12.1092087 14.88804855 -13.72563568 15.01293494 -16.8125 17.125 Z " fill="#000000" transform="translate(275.4375,65.5)"/>
<path d="M0 0 C5.82485779 3.51996782 10.54466582 8.98962934 12.5625 15.5 C13.36764105 23.33608208 13.68710392 31.11922577 8.5625 37.5 C3.75801361 42.54521222 -0.59927055 46.10562995 -7.70703125 46.8359375 C-16.22326573 46.92983204 -22.11345494 46.6177288 -28.40234375 40.62890625 C-34.7841668 33.72505269 -35.91792252 28.29832071 -35.7421875 18.9453125 C-35.04689797 11.08319245 -31.38995981 6.95041296 -25.53515625 1.9453125 C-18.47077988 -2.92213491 -7.84396301 -3.47595223 0 0 Z M-16.8125 17.125 C-18.92456506 20.21186432 -19.04945145 21.8282913 -18.4375 25.5 C-16.9375 28 -16.9375 28 -14.4375 29.5 C-10.7657913 30.11195145 -9.14936432 29.98706506 -6.0625 27.875 C-3.95043494 24.78813568 -3.82554855 23.1717087 -4.4375 19.5 C-5.9375 17 -5.9375 17 -8.4375 15.5 C-12.1092087 14.88804855 -13.72563568 15.01293494 -16.8125 17.125 Z " fill="#000000" transform="translate(363.4375,41.5)"/>
</svg>
