<?xml version="1.0" encoding="UTF-8"?>
<svg version="1.1" xmlns="http://www.w3.org/2000/svg" width="512" height="512">
<path d="M0 0 C5.66365818 4.72391045 8.54806589 12.32366386 11.8125 18.8125 C12.7087207 20.51889648 12.7087207 20.51889648 13.62304688 22.25976562 C16.4391179 27.83719544 18.67167502 32.70910308 18.8034668 39.0065918 C16.57600147 44.53295291 9.60049287 47.48123484 4.52587891 49.96411133 C3.44191833 50.50652969 3.44191833 50.50652969 2.33605957 51.05990601 C-0.03005684 52.24158182 -2.4016171 53.41185254 -4.7734375 54.58203125 C-6.42430946 55.40373322 -8.0748273 56.226147 -9.7250061 57.04924011 C-14.0516912 59.20497679 -18.38309568 61.35105687 -22.71557617 63.49511719 C-27.1427192 65.68816445 -31.56530013 67.89037138 -35.98828125 70.09179688 C-44.65442989 74.40347507 -53.32559522 78.70495881 -62 83 C-62 85.90450283 -60.56091371 86.67757096 -58.5625 88.75 C-41.76515823 107.29830142 -29.24792485 134.62735944 -30 160 C-29.18015625 159.95359375 -28.3603125 159.9071875 -27.515625 159.859375 C-26.43796875 159.82328125 -25.3603125 159.7871875 -24.25 159.75 C-23.18265625 159.70359375 -22.1153125 159.6571875 -21.015625 159.609375 C-18 160 -18 160 -15.84472656 161.46191406 C-13.1264908 165.20182658 -13.42530526 168.48347606 -13.46875 173 C-13.4649231 173.87269531 -13.46109619 174.74539062 -13.45715332 175.64453125 C-13.4544351 177.48699092 -13.46179006 179.32948924 -13.47851562 181.171875 C-13.49992752 183.99045934 -13.47871199 186.80649485 -13.453125 189.625 C-13.45576829 191.41667229 -13.46089331 193.20834299 -13.46875 195 C-13.46065308 195.84175781 -13.45255615 196.68351563 -13.44421387 197.55078125 C-13.46312683 198.73220703 -13.46312683 198.73220703 -13.48242188 199.9375 C-13.48560425 200.62714844 -13.48878662 201.31679687 -13.49206543 202.02734375 C-14.24705807 204.95949494 -15.67008778 206.10003749 -18 208 C-21.015625 208.609375 -21.015625 208.609375 -24.25 208.75 C-25.32765625 208.80671875 -26.4053125 208.8634375 -27.515625 208.921875 C-28.33546875 208.94765625 -29.1553125 208.9734375 -30 209 C-30.14411599 210.23853005 -30.14411599 210.23853005 -30.29114342 211.50208092 C-32.63213765 231.61807442 -34.97768127 251.73353293 -37.32825279 271.84840965 C-38.46487444 281.57592801 -39.59997108 291.30361974 -40.73144531 301.03173828 C-41.71795376 309.51344503 -42.70735658 317.99480833 -43.70019686 326.47577631 C-44.22550937 330.9639289 -44.74939785 335.45223713 -45.26981735 339.94095993 C-45.76037195 344.17169132 -46.25481511 348.40195066 -46.75215721 352.63188934 C-46.93335889 354.17880161 -47.11317753 355.72587665 -47.29145622 357.27312851 C-49.86258007 379.56771174 -49.86258007 379.56771174 -52.35558128 382.70700645 C-55.08581797 384.85377015 -57.59918186 384.88273041 -61 385 C-63.94755732 383.65437601 -65.54277272 382.91445456 -67 380 C-67 365.27285198 -64.77213786 350.62013736 -63 336 C-130.98 336 -198.96 336 -269 336 C-264.05 377.91 -259.1 419.82 -254 463 C-195.92 463 -137.84 463 -78 463 C-75.69 443.86 -73.38 424.72 -71 405 C-67 400 -67 400 -64.78125 399.3359375 C-63.65203125 399.35527344 -63.65203125 399.35527344 -62.5 399.375 C-61.7471875 399.36210937 -60.994375 399.34921875 -60.21875 399.3359375 C-56.86791147 400.33882931 -55.86056159 402.08733803 -54 405 C-53.72705078 408.28637695 -53.72705078 408.28637695 -54.0703125 412.17578125 C-54.16011887 413.26539909 -54.16011887 413.26539909 -54.2517395 414.37702942 C-54.47304883 416.92146462 -54.7337357 419.4598842 -55 422 C-55.09792847 422.97467224 -55.19585693 423.94934448 -55.29675293 424.95355225 C-55.9658085 431.55675541 -56.70160546 438.15058118 -57.47412109 444.74243164 C-57.87858755 448.21833063 -58.26561113 451.69591679 -58.65234375 455.17382812 C-58.91039817 457.40116475 -59.1694752 459.62838319 -59.4296875 461.85546875 C-59.54230927 462.88673386 -59.65493103 463.91799896 -59.77096558 464.98051453 C-60.40094793 470.19517511 -61.08915693 474.48944991 -64 479 C-67.10636652 480.55318326 -70.39646796 480.14798785 -73.80636597 480.14717102 C-74.62196303 480.15084771 -75.43756008 480.1545244 -76.2778722 480.1583125 C-79.02623748 480.16937531 -81.77456498 480.17319754 -84.52294922 480.17700195 C-86.48717368 480.18326455 -88.45139694 480.18991116 -90.4156189 480.19691467 C-95.76270182 480.21434115 -101.10977579 480.2248805 -106.45688009 480.2331202 C-109.79472224 480.23826589 -113.13256159 480.24434175 -116.47040176 480.25063133 C-126.90564555 480.2696863 -137.34088224 480.2839179 -147.77614009 480.2922433 C-159.83733093 480.30202386 -171.89833864 480.32836352 -183.95946491 480.36874419 C-193.27244345 480.39885848 -202.58536935 480.41370764 -211.89839566 480.41702431 C-217.46535489 480.41937978 -223.03211855 480.42840483 -228.59902573 480.45348549 C-233.83406873 480.47668988 -239.06878633 480.48103029 -244.30386734 480.47072411 C-246.22759328 480.4702268 -248.15133482 480.47660418 -250.07501221 480.49028015 C-252.69695829 480.50788071 -255.31772146 480.50095197 -257.93966675 480.48774719 C-259.08742783 480.50420106 -259.08742783 480.50420106 -260.258376 480.52098733 C-263.53044329 480.48107141 -265.53468203 480.3639222 -268.1528933 478.31623596 C-270.32863036 475.5879039 -270.71312505 473.88272039 -271.16378593 470.44524002 C-271.31102537 469.37980044 -271.4582648 468.31436086 -271.60996604 467.21663523 C-271.80303285 465.62440079 -271.80303285 465.62440079 -272 464 C-272.12144701 463.08316862 -272.24289402 462.16633723 -272.36802125 461.22172308 C-272.72740178 458.44211158 -273.05686552 455.66027548 -273.37942505 452.87615967 C-273.50364047 451.82460072 -273.62785589 450.77304177 -273.75583541 449.6896174 C-274.16695977 446.20322646 -274.57396427 442.71636765 -274.98095703 439.22949219 C-275.27656537 436.7154095 -275.5724299 434.20135693 -275.86853027 431.68733215 C-276.50319125 426.29384859 -277.13608559 420.9001625 -277.7673378 415.50627899 C-278.68000232 407.70782856 -279.5959076 399.90976138 -280.5125799 392.11178115 C-282.00008024 379.45711127 -283.48499414 366.80213931 -284.96826172 354.14697266 C-286.40830064 341.86067909 -287.84956996 329.57453089 -289.29248047 317.28857422 C-289.38156489 316.53004303 -289.47064931 315.77151184 -289.56243326 314.98999485 C-290.00939411 311.18430195 -290.45637901 307.37861186 -290.90337586 303.57292318 C-294.60597804 272.04905236 -298.30433089 240.52468439 -302 209 C-302.81984375 208.97421875 -303.6396875 208.9484375 -304.484375 208.921875 C-305.56203125 208.86515625 -306.6396875 208.8084375 -307.75 208.75 C-308.81734375 208.70359375 -309.8846875 208.6571875 -310.984375 208.609375 C-314.55537968 207.88777302 -315.76867553 206.82298364 -318 204 C-318.53125 202 -318.53125 202 -318.5 200 C-318.51546875 199.01 -318.51546875 199.01 -318.53125 198 C-317.69212635 194.84094626 -316.69836096 193.92478094 -314 192 C-310.2531851 191.38658752 -306.52608547 191.47860689 -302.73724365 191.51898193 C-301.57409708 191.51556423 -300.41095051 191.51214653 -299.21255708 191.50862527 C-295.98330884 191.50317066 -292.75470092 191.51569013 -289.52552843 191.53573751 C-286.0436304 191.55299619 -282.56176275 191.54716695 -279.07983398 191.54412842 C-273.04696308 191.54203004 -267.01426509 191.55459004 -260.98143768 191.57707977 C-252.25899025 191.60957497 -243.5366265 191.62000424 -234.81412509 191.62503174 C-220.66281984 191.6337883 -206.51160676 191.66041364 -192.36035156 191.69824219 C-178.61296042 191.73495295 -164.86559431 191.76326928 -151.11816406 191.78027344 C-149.84728029 191.78184978 -149.84728029 191.78184978 -148.55072209 191.78345796 C-144.30032855 191.78867808 -140.04993483 191.79373292 -135.799541 191.79870558 C-100.53296098 191.84017885 -65.26649049 191.91093422 -30 192 C-30 186.72 -30 181.44 -30 176 C-31.4599728 176.00368717 -32.9199456 176.00737434 -34.42416 176.01117325 C-69.06125187 176.09775726 -103.69832629 176.16373828 -138.33550344 176.20426132 C-142.59639051 176.2092643 -146.85727734 176.21444157 -151.11816406 176.21972656 C-151.96644942 176.2207758 -152.81473477 176.22182505 -153.68872574 176.22290608 C-167.43389418 176.24032334 -181.17899588 176.27186828 -194.92412469 176.30861118 C-209.02217455 176.3459839 -223.12018939 176.36822807 -237.21828675 176.37635398 C-245.92141984 176.38184939 -254.6243643 176.39922174 -263.32743934 176.43166587 C-269.29105237 176.45276851 -275.25456752 176.45920973 -281.2182152 176.45400551 C-284.66179334 176.45143705 -288.10504129 176.4554438 -291.5485611 176.4768219 C-295.27838895 176.49661447 -299.00739832 176.49197755 -302.73724365 176.48101807 C-303.8306216 176.49266943 -304.92399955 176.5043208 -306.05051017 176.51632524 C-313.35797411 176.4579666 -313.35797411 176.4579666 -316.67071915 174.09493637 C-318.10082707 171.84109732 -318.54140752 170.65008097 -318.5 168 C-318.51546875 167.01 -318.51546875 167.01 -318.53125 166 C-317.73922269 163.01825014 -316.45326814 161.83588941 -314 160 C-310.984375 159.609375 -310.984375 159.609375 -307.75 159.75 C-306.67234375 159.78609375 -305.5946875 159.8221875 -304.484375 159.859375 C-303.66453125 159.90578125 -302.8446875 159.9521875 -302 160 C-301.97421875 159.25878906 -301.9484375 158.51757812 -301.921875 157.75390625 C-300.59813997 133.17455345 -290.82447053 109.83497955 -275 91 C-274.51273438 90.3915625 -274.02546875 89.783125 -273.5234375 89.15625 C-270.28656126 85.14328063 -270.28656126 85.14328063 -268 84 C-264.12015747 83.74696679 -261.22635795 83.69545861 -258 86 C-255.98560743 88.5899333 -255.9980077 89.96289896 -256.17578125 93.2734375 C-257.13727667 97.62067271 -258.62972907 99.56670343 -261.5 102.9375 C-269.38759389 112.67170206 -275.3327345 123.12229584 -279.375 135 C-279.60155273 135.66217529 -279.82810547 136.32435059 -280.06152344 137.0065918 C-282.45672443 144.58929389 -283.51154547 152.06157585 -285 160 C-240.45 160 -195.9 160 -150 160 C-150.11852532 135.43862055 -150.11852532 135.43862055 -150.27026367 110.87744141 C-150.28381348 106.09838867 -150.28381348 106.09838867 -150.28633118 103.85238647 C-150.29090084 102.30279954 -150.30137409 100.75322245 -150.31672668 99.20370483 C-150.50444661 79.23790949 -150.50444661 79.23790949 -145.17578125 71.2734375 C-143.45052083 69.515625 -141.72526042 67.7578125 -140 66 C-148.6303776 64.87474897 -157.24910231 64.7981712 -165.9375 64.8125 C-167.03457275 64.81390488 -167.03457275 64.81390488 -168.15380859 64.81533813 C-191.21875622 64.87933038 -210.9636564 67.2409636 -231.58203125 78.14086914 C-235.17648374 79.98094163 -237.29777315 81.02983053 -241.40234375 80.85546875 C-244.70388794 79.76819329 -246.06005573 78.90991641 -248 76 C-248.87078652 70.51404494 -248.87078652 70.51404494 -248 68 C-243.65757921 63.69835311 -238.81080275 61.08476913 -233.3125 58.5 C-232.49104492 58.11199219 -231.66958984 57.72398438 -230.82324219 57.32421875 C-215.4657348 50.34300292 -200.05667109 47.85290047 -183.31640625 47.796875 C-182.65877729 47.79404762 -182.00114834 47.79122025 -181.32359123 47.78830719 C-177.8362476 47.77336987 -174.34894468 47.76410868 -170.86157227 47.75976562 C-168.01150595 47.75539746 -165.16174516 47.74156361 -162.31176758 47.71875 C-129.78854263 47.46327237 -129.78854263 47.46327237 -116.44430542 51.83781433 C-111.18064733 52.08566979 -107.50658484 49.7411293 -102.91479492 47.34008789 C-101.91400406 46.83304825 -100.9132132 46.32600861 -99.88209534 45.80360413 C-97.71124942 44.70129402 -95.54412184 43.59163746 -93.38033104 42.47554207 C-89.95310452 40.70854792 -86.51610706 38.96210495 -83.07575989 37.22080994 C-74.53167746 32.89128777 -66.00443439 28.52902819 -57.47869873 24.16351318 C-50.27654269 20.47646791 -43.06708514 16.80463767 -35.84719276 13.15240288 C-32.46465768 11.43387696 -29.09352267 9.6942925 -25.72221375 7.95387268 C-23.63982595 6.8979243 -21.5569115 5.84301368 -19.47338867 4.78930664 C-18.54269562 4.30149719 -17.61200256 3.81368774 -16.65310669 3.31109619 C-11.17409626 0.57411827 -6.18015686 -1.27439587 0 0 Z M-17.75439453 23.76367188 C-18.55447937 24.16356827 -19.35456421 24.56346466 -20.17889404 24.97547913 C-22.83211309 26.30278724 -25.48245109 27.63574616 -28.1328125 28.96875 C-29.96824001 29.88832812 -31.80384405 30.80755396 -33.63961792 31.72644043 C-38.47798992 34.14945011 -43.31394066 36.57725452 -48.14941406 39.00604248 C-53.08123759 41.48217155 -58.01532032 43.95378994 -62.94921875 46.42578125 C-72.63503745 51.2794253 -82.31830596 56.13813421 -92 61 C-92 61.66 -92 62.32 -92 63 C-89.92395908 64.52994513 -89.92395908 64.52994513 -87.3125 66 C-86.44238281 66.515625 -85.57226562 67.03125 -84.67578125 67.5625 C-83.79277344 68.036875 -82.90976562 68.51125 -82 69 C-81.271297 69.4240361 -80.54259399 69.8480722 -79.79180908 70.28495789 C-75.75454755 71.31898705 -73.18260473 69.70610676 -69.65527344 67.87817383 C-68.93438538 67.52240265 -68.21349731 67.16663147 -67.47076416 66.80007935 C-65.09112225 65.61986597 -62.72544783 64.41418864 -60.359375 63.20703125 C-58.71046124 62.380527 -57.06089497 61.55532337 -55.41070557 60.73136902 C-51.95523478 59.00124263 -48.50619971 57.25908478 -45.06152344 55.50756836 C-40.63996855 53.25992765 -36.20646413 51.03720422 -31.76827621 48.82262135 C-28.36204967 47.12076909 -24.96102973 45.40873117 -21.56165314 43.69324303 C-19.92818659 42.8698003 -18.2934344 42.04890291 -16.65740204 41.23056984 C-14.3754686 40.08654534 -12.10054341 38.92967795 -9.82714844 37.76879883 C-9.14664429 37.43046524 -8.46614014 37.09213165 -7.76501465 36.74354553 C-3.85334929 34.83362061 -3.85334929 34.83362061 -2 31 C-3.20439911 28.20395618 -3.20439911 28.20395618 -4.9375 25.3125 C-5.50339844 24.31863281 -6.06929688 23.32476562 -6.65234375 22.30078125 C-7.09707031 21.54152344 -7.54179687 20.78226563 -8 20 C-11.54612642 20 -14.63576479 22.18959558 -17.75439453 23.76367188 Z M-122.5625 76.25 C-123.34302734 76.64574219 -124.12355469 77.04148437 -124.92773438 77.44921875 C-126.04825195 78.03896484 -126.04825195 78.03896484 -127.19140625 78.640625 C-127.87404541 78.99672852 -128.55668457 79.35283203 -129.26000977 79.71972656 C-131.47183511 81.34717319 -132.01819097 82.42071411 -133 85 C-133.17962483 87.48575608 -133.25301833 89.85537158 -133.22705078 92.33886719 C-133.22729185 93.08276325 -133.22753292 93.82665932 -133.2277813 94.59309769 C-133.2262918 96.99447962 -133.21107593 99.3955488 -133.1953125 101.796875 C-133.19237093 103.28206228 -133.19033119 104.76725163 -133.18920898 106.25244141 C-133.17873482 111.75165928 -133.15081232 117.25083273 -133.125 122.75 C-133.08375 135.0425 -133.0425 147.335 -133 160 C-104.62 160 -76.24 160 -47 160 C-49.50711097 132.42177937 -60.3800954 111.4431487 -80 92 C-85.00113594 93.48008696 -89.32915597 95.6318336 -93.875 98.125 C-94.56335938 98.49753906 -95.25171875 98.87007812 -95.9609375 99.25390625 C-97.64294798 100.16499526 -99.32180436 101.08190315 -101 102 C-101.01458252 103.13542236 -101.02916504 104.27084473 -101.04418945 105.44067383 C-101.10213676 109.65095609 -101.17936941 113.8607015 -101.26245117 118.07055664 C-101.2957174 119.89305919 -101.32374406 121.71566519 -101.34643555 123.53833008 C-101.37995081 126.1575125 -101.43226352 128.77574548 -101.48828125 131.39453125 C-101.49786613 132.61811089 -101.49786613 132.61811089 -101.50764465 133.8664093 C-101.6563558 139.58042058 -101.6563558 139.58042058 -103.40592957 141.71659851 C-105.40120051 143.3230104 -106.4660454 143.37488903 -109 143.3125 C-110.0209375 143.30669922 -110.0209375 143.30669922 -111.0625 143.30078125 C-113 143 -113 143 -116 141 C-116.92433578 138.22699267 -117.13095882 136.54694362 -117.14526367 133.68383789 C-117.15164352 132.81606216 -117.15802338 131.94828644 -117.16459656 131.05421448 C-117.16570938 130.11980026 -117.1668222 129.18538605 -117.16796875 128.22265625 C-117.17129715 127.25976181 -117.17462555 126.29686737 -117.17805481 125.30479431 C-117.183118 123.26806109 -117.18546332 121.23131958 -117.18530273 119.19458008 C-117.18748902 116.07814885 -117.20565067 112.9620717 -117.22460938 109.84570312 C-117.22754344 107.86718871 -117.22952815 105.88867262 -117.23046875 103.91015625 C-117.23765427 102.97776627 -117.24483978 102.04537628 -117.25224304 101.08473206 C-117.2476281 99.77834023 -117.2476281 99.77834023 -117.24291992 98.44555664 C-117.24434494 97.68183243 -117.24576996 96.91810822 -117.24723816 96.13124084 C-116.96344527 93.68489117 -116.28083152 92.09409277 -115 90 C-113.12060547 88.71972656 -113.12060547 88.71972656 -110.8671875 87.640625 C-110.06152344 87.24746094 -109.25585938 86.85429688 -108.42578125 86.44921875 C-107.16314453 85.85560547 -107.16314453 85.85560547 -105.875 85.25 C-105.02550781 84.83878906 -104.17601562 84.42757812 -103.30078125 84.00390625 C-101.20551172 82.99158502 -99.10547031 81.99088419 -97 81 C-97 80.34 -97 79.68 -97 79 C-99.26727333 77.82592979 -101.53834624 76.66060261 -103.8125 75.5 C-104.45509766 75.16613281 -105.09769531 74.83226563 -105.75976562 74.48828125 C-112.96275129 70.83080666 -115.90445648 72.72482841 -122.5625 76.25 Z M-284 208 C-283.29689817 221.10960299 -283.29689817 221.10960299 -281.9375 234.0625 C-281.84662109 234.74892578 -281.75574219 235.43535156 -281.66210938 236.14257812 C-281.4468809 237.76245557 -281.22438671 239.38136575 -281 241 C-278.33033361 240.6837329 -275.66531026 240.35020248 -273 240 C-271.80238037 239.8467627 -271.80238037 239.8467627 -270.58056641 239.69042969 C-258.69633191 238.0042944 -250.69294711 235.5881464 -243.21728516 225.88574219 C-242.25220396 224.56998584 -241.30061861 223.24420848 -240.36376953 221.90820312 C-238.29276689 219.01043072 -235.98904541 216.3427445 -233.6875 213.625 C-231.23210587 211.1105466 -231.23210587 211.1105466 -230 208 C-247.82 208 -265.64 208 -284 208 Z M-201 208 C-196.91960951 212.09870638 -196.91960951 212.09870638 -192.66015625 215.9375 C-192.07169922 216.44023437 -191.48324219 216.94296875 -190.87695312 217.4609375 C-190.27818359 217.96882812 -189.67941406 218.47671875 -189.0625 219 C-188.46759766 219.50789062 -187.87269531 220.01578125 -187.25976562 220.5390625 C-186.07546425 221.54863089 -184.88563418 222.55175206 -183.69018555 223.5480957 C-182.11830716 224.89837171 -180.62884067 226.34298482 -179.1484375 227.79296875 C-174.97045088 230.72170627 -171.55929142 230.98823598 -166.5625 231.3125 C-165.74201172 231.38533203 -164.92152344 231.45816406 -164.07617188 231.53320312 C-159.34402441 231.9297518 -154.7739808 232 -150 232 C-150 224.08 -150 216.16 -150 208 C-166.83 208 -183.66 208 -201 208 Z M-133 208 C-133 216.58 -133 225.16 -133 234 C-128.05 234 -123.1 234 -118 234 C-118 225.42 -118 216.84 -118 208 C-122.95 208 -127.9 208 -133 208 Z M-101 208 C-101 216.25 -101 224.5 -101 233 C-83.41541482 232.26730895 -66.06464441 229.2661611 -49 225 C-48.67 219.39 -48.34 213.78 -48 208 C-65.49 208 -82.98 208 -101 208 Z M-217 219 C-218.60178593 220.78104718 -220.13381926 222.62537278 -221.625 224.5 C-222.44226563 225.5209375 -223.25953125 226.541875 -224.1015625 227.59375 C-224.72804688 228.3878125 -225.35453125 229.181875 -226 230 C-222.15502972 231.30787992 -218.41904264 230.96778217 -214.4375 230.6875 C-213.76525391 230.65205078 -213.09300781 230.61660156 -212.40039062 230.58007812 C-208.8082901 230.34108037 -207.06130948 230.04087298 -204 228 C-205.78673205 226.4941255 -207.57953508 224.9954515 -209.375 223.5 C-210.37273437 222.6646875 -211.37046875 221.829375 -212.3984375 220.96875 C-214.72204708 218.79885244 -214.72204708 218.79885244 -217 219 Z M-218 247 C-218.96550781 247.09539062 -219.93101562 247.19078125 -220.92578125 247.2890625 C-223.28422299 247.52257158 -225.64225017 247.75962204 -228 248 C-224.72886194 251.36544114 -221.37541012 254.41134404 -217.6875 257.3125 C-216.36298828 258.35857422 -216.36298828 258.35857422 -215.01171875 259.42578125 C-214.34785156 259.94527344 -213.68398437 260.46476562 -213 261 C-208.96501261 259.44879203 -206.96684209 256.83438014 -204.3125 253.5 C-203.52488281 252.5203125 -202.73726562 251.540625 -201.92578125 250.53125 C-200.01141169 248.17753007 -200.01141169 248.17753007 -199 246 C-205.40086463 245.87922897 -211.63462365 246.35029262 -218 247 Z M-59.66796875 243.875 C-61.00698242 244.14570313 -61.00698242 244.14570313 -62.37304688 244.421875 C-63.30181641 244.61265625 -64.23058594 244.8034375 -65.1875 245 C-66.59805664 245.28617188 -66.59805664 245.28617188 -68.03710938 245.578125 C-70.35861252 246.0494962 -72.67953436 246.52355217 -75 247 C-71.67615243 250.50339747 -67.69024844 252.70279052 -63.5625 255.12695312 C-59.10186516 257.79626967 -59.10186516 257.79626967 -58 260 C-57.06509862 266.21661228 -60.0641723 270.49950807 -63.0625 275.6875 C-63.56185059 276.57219971 -64.06120117 277.45689941 -64.57568359 278.3684082 C-74.07611334 295.07611334 -74.07611334 295.07611334 -77 298 C-85.71778158 299.11100197 -90.921695 295.77933298 -98.1875 291.25 C-99.76821289 290.29867187 -99.76821289 290.29867187 -101.38085938 289.328125 C-104.27189901 287.57929195 -107.13908602 285.79755827 -110 284 C-110.66950684 283.59144775 -111.33901367 283.18289551 -112.02880859 282.76196289 C-114.92064702 280.9473148 -115.91606124 280.20564997 -117.25 276.9375 C-116.94656101 272.1583359 -115.38655532 269.377825 -112.93359375 265.33203125 C-110.04097051 260.34736938 -107.54461987 255.16900349 -105 250 C-105.7120459 250.01047363 -106.4240918 250.02094727 -107.15771484 250.03173828 C-150.6963614 250.58180274 -150.6963614 250.58180274 -170.6796875 246.4453125 C-173.51469419 246.03166384 -175.25559848 246.09891464 -178 247 C-181.73552532 250.3973731 -184.69251626 254.19122377 -187.68603516 258.24267578 C-189.61489382 260.82237193 -191.68520809 263.27855976 -193.75 265.75 C-197.11880625 269.87482202 -200.38722357 274.06529467 -203.58984375 278.3203125 C-205.87657947 281.04412514 -207.08580498 281.00853557 -210.73046875 281.37109375 C-215.41837449 281.30238713 -218.02589567 279.21627031 -221.3125 276.0625 C-222.44057013 275.0446455 -223.56948979 274.02773179 -224.69921875 273.01171875 C-225.25399902 272.5017334 -225.8087793 271.99174805 -226.38037109 271.46630859 C-229.57324559 268.5756839 -232.95435705 265.913074 -236.3125 263.21875 C-238.19108696 261.66782356 -240.02170098 260.05776466 -241.8125 258.40625 C-243.2046875 257.15328125 -243.2046875 257.15328125 -244.625 255.875 C-245.44226563 255.10929688 -246.25953125 254.34359375 -247.1015625 253.5546875 C-253.71575753 250.00691173 -262.22759716 253.66951294 -269.0625 255.5625 C-269.92810547 255.79646484 -270.79371094 256.03042969 -271.68554688 256.27148438 C-273.79197695 256.8417334 -275.89622889 257.42001834 -278 258 C-278.15095437 265.09485532 -277.57123466 271.92455478 -276.72265625 278.96484375 C-276.59185165 280.07936417 -276.46104706 281.19388458 -276.32627869 282.34217834 C-276.05052284 284.68129806 -275.77220727 287.02011729 -275.49145508 289.35864258 C-275.06101289 292.94990728 -274.64028685 296.54221779 -274.22070312 300.13476562 C-273.95109371 302.41152625 -273.68093116 304.68822145 -273.41015625 306.96484375 C-273.28407486 308.04185043 -273.15799347 309.11885712 -273.02809143 310.22850037 C-272.90804245 311.22035843 -272.78799347 312.21221649 -272.66430664 313.23413086 C-272.5599379 314.10855331 -272.45556915 314.98297577 -272.34803772 315.88389587 C-272.09936201 318.04804912 -272.09936201 318.04804912 -271 320 C-267.7 320 -264.4 320 -261 320 C-260.53625977 319.17274414 -260.07251953 318.34548828 -259.59472656 317.49316406 C-257.86300204 314.41136944 -256.12540858 311.33304139 -254.38378906 308.25683594 C-253.63272828 306.92743894 -252.88399757 305.59672262 -252.13769531 304.26464844 C-251.06151692 302.34474618 -249.97691206 300.4298217 -248.890625 298.515625 C-248.56128967 297.92380432 -248.23195435 297.33198364 -247.89263916 296.722229 C-245.95529589 293.33050658 -244.02018822 290.49977507 -241 288 C-232.99624609 286.46012788 -227.50637845 290.64912302 -220.875 294.75 C-219.81667969 295.38421875 -218.75835937 296.0184375 -217.66796875 296.671875 C-214.761713 298.42219214 -211.87587361 300.20029442 -209 302 C-208.32614258 302.42087891 -207.65228516 302.84175781 -206.95800781 303.27539062 C-203.13288115 305.7342377 -203.13288115 305.7342377 -202 308 C-201.67140305 312.81942186 -202.38406435 315.15219306 -204 320 C-199.71 320 -195.42 320 -191 320 C-191.226875 318.783125 -191.45375 317.56625 -191.6875 316.3125 C-191.70993115 309.16818014 -186.02476197 304.50663934 -181.45751953 299.59472656 C-179.3697891 297.31046271 -177.43745434 294.91214823 -175.5 292.5 C-172.07908906 288.30104795 -168.61799289 284.13898894 -165.125 280 C-164.66029297 279.44763672 -164.19558594 278.89527344 -163.71679688 278.32617188 C-162.48858369 276.87497416 -161.24498492 275.43683506 -160 274 C-159.56429687 273.38125 -159.12859375 272.7625 -158.6796875 272.125 C-156.25968998 270.50416445 -153.92085685 270.47505329 -151.06884766 270.59033203 C-147.51726538 271.29360735 -145.2144139 273.51268363 -142.6875 275.9375 C-141.55684268 276.95797725 -140.42531912 277.97749548 -139.29296875 278.99609375 C-138.73786621 279.50640137 -138.18276367 280.01670898 -137.61083984 280.54248047 C-135.31388673 282.62080877 -132.91325227 284.5588292 -130.5 286.5 C-126.30104795 289.92091094 -122.13898894 293.38200711 -118 296.875 C-117.17145508 297.57206055 -117.17145508 297.57206055 -116.32617188 298.28320312 C-114.87497416 299.51141631 -113.43683506 300.75501508 -112 302 C-111.3915625 302.52335937 -110.783125 303.04671875 -110.15625 303.5859375 C-109 305 -109 305 -108.5 308.75 C-109 313 -109 313 -114 320 C-96.51 320 -79.02 320 -61 320 C-59.3329165 311.73758614 -59.3329165 311.73758614 -58.13037109 303.46801758 C-57.99037689 302.29012161 -57.85038269 301.11222565 -57.70614624 299.89863586 C-57.56335236 298.65978134 -57.42055847 297.42092682 -57.2734375 296.14453125 C-57.04462387 294.19301399 -57.04462387 294.19301399 -56.81118774 292.20207214 C-56.49092827 289.46680411 -56.17359163 286.73121766 -55.85839844 283.99536133 C-55.45602927 280.5048624 -55.04632041 277.01527098 -54.63443565 273.52588367 C-54.2393301 270.17005502 -53.85040532 266.81351892 -53.4609375 263.45703125 C-53.31409515 262.21210403 -53.16725281 260.96717682 -53.01596069 259.68452454 C-52.37582573 254.0897932 -51.80657699 248.63254014 -52 243 C-54.7544948 243 -56.98271765 243.32768767 -59.66796875 243.875 Z M-90 259 C-91.175625 260.753125 -92.35125 262.50625 -93.5625 264.3125 C-94.22378906 265.29863281 -94.88507813 266.28476562 -95.56640625 267.30078125 C-96.03949219 268.19152344 -96.51257813 269.08226562 -97 270 C-95.73809862 273.78570414 -94.45144185 274.21831571 -91.0625 276.1875 C-89.71865234 276.98220703 -89.71865234 276.98220703 -88.34765625 277.79296875 C-86.14351611 279.1524159 -86.14351611 279.1524159 -84 279 C-80.535 272.565 -80.535 272.565 -77 266 C-81.29 263.69 -85.58 261.38 -90 259 Z M-153 291 C-154.99504597 293.12645619 -156.88228647 295.26587936 -158.75 297.5 C-159.55872559 298.45543701 -159.55872559 298.45543701 -160.38378906 299.43017578 C-164.09071477 303.83704969 -167.63431724 308.32544061 -171 313 C-169.59029476 316.40678767 -168.16249391 318.09580247 -165 320 C-160.2578932 320.76280538 -155.48430214 320.69370501 -150.6875 320.75 C-148.72780273 320.8428125 -148.72780273 320.8428125 -146.72851562 320.9375 C-139.59528478 321.16645853 -139.59528478 321.16645853 -133.52197266 317.94335938 C-131.77497975 315.70080619 -130.31496451 313.51668455 -129 311 C-130.74811904 307.19058422 -132.75690518 305.30501039 -136.0625 302.6875 C-137.0421875 301.90890625 -138.021875 301.1303125 -139.03125 300.328125 C-140.0109375 299.55984375 -140.990625 298.7915625 -142 298 C-142.8765625 297.29359375 -143.753125 296.5871875 -144.65625 295.859375 C-148.4072291 292.38127068 -148.4072291 292.38127068 -153 291 Z M-234 307 C-235.22947266 308.76312866 -236.40865252 310.5614781 -237.5625 312.375 C-238.20316406 313.37273437 -238.84382813 314.37046875 -239.50390625 315.3984375 C-241.16617334 317.78878098 -241.16617334 317.78878098 -241 320 C-235.39 320 -229.78 320 -224 320 C-223.01 318.02 -222.02 316.04 -221 314 C-222.97762655 312.83072457 -224.95714258 311.66464427 -226.9375 310.5 C-228.03964844 309.8503125 -229.14179688 309.200625 -230.27734375 308.53125 C-232.6246493 306.91829969 -232.6246493 306.91829969 -234 307 Z " fill="#000000" transform="translate(422,16)"/>
<path d="M0 0 C0.94166016 0.50853516 0.94166016 0.50853516 1.90234375 1.02734375 C9.37413433 5.62159572 14.46349937 13.85399748 16.5625 22.25 C18.83937488 36.56178494 15.95904173 49.77551351 7.70703125 61.67578125 C7.14371094 62.44277344 6.58039063 63.20976562 6 64 C5.2575 65.051875 4.515 66.10375 3.75 67.1875 C-6.84395116 78.02222278 -20.29814996 84.89526328 -35.5625 85.375 C-46.19119388 85.00796597 -54.95305247 81.62852036 -62.75 74.37109375 C-70.95243754 65.5329673 -72.56688592 55.15848786 -72.33984375 43.53515625 C-71.61738408 29.34077231 -63.46266705 17.66342582 -53.515625 8.10546875 C-39.40583269 -3.70381395 -16.86764674 -10.00175531 0 0 Z M-37.640625 17.58203125 C-45.77639938 23.71153474 -53.06090677 31.68327098 -55 42 C-55.09214964 44.01916119 -55.13000931 46.04124337 -55.125 48.0625 C-55.12757813 49.10535156 -55.13015625 50.14820313 -55.1328125 51.22265625 C-55.12137157 54.08680628 -55.12137157 54.08680628 -54 57 C-47.63718905 55.72743781 -43.94899626 51.88688287 -40 47 C-38.04422173 43.78852317 -36.52323811 40.43438157 -35 37 C-30.58464001 27.04828188 -26.19652569 20.15752948 -18 13 C-24.36153298 10.65870941 -32.1509269 14.2930849 -37.640625 17.58203125 Z M-6.6875 25.5625 C-7.35136719 26.03816406 -8.01523437 26.51382812 -8.69921875 27.00390625 C-14.66683476 32.18124374 -17.9945304 37.51541349 -20.875 44.8125 C-24.76215218 54.10268016 -29.83853734 60.933601 -37 68 C-25.57837346 67.73268534 -17.54466589 63.36714756 -9.26953125 55.61328125 C-3.7143319 49.21667477 0.12981433 41.06536805 0.1875 32.5625 C0.20167969 31.61503906 0.21585938 30.66757812 0.23046875 29.69140625 C-0.00385482 26.95498356 -0.60298617 25.33571877 -2 23 C-3.85535139 23 -5.24151142 24.5076169 -6.6875 25.5625 Z " fill="#000000" transform="translate(284,377)"/>
</svg>
