<?xml version="1.0" standalone="no"?>
<!DOCTYPE svg PUBLIC "-//W3C//DTD SVG 20010904//EN"
 "http://www.w3.org/TR/2001/REC-SVG-20010904/DTD/svg10.dtd">
<svg version="1.0" xmlns="http://www.w3.org/2000/svg"
 width="512.000000pt" height="512.000000pt" viewBox="0 0 512.000000 512.000000"
 preserveAspectRatio="xMidYMid meet">
<metadata>
Created by potrace 1.16, written by Peter Selinger 2001-2019
</metadata>
<g transform="translate(0.000000,512.000000) scale(0.100000,-0.100000)"
fill="#000000" stroke="none">
<path d="M4159 5092 c-171 -90 -630 -362 -664 -393 -22 -21 -55 -62 -73 -91
-49 -82 -62 -162 -62 -390 l0 -198 -100 0 c-94 0 -103 -2 -125 -25 -26 -25
-29 -42 -19 -83 10 -37 53 -52 154 -52 l90 0 0 -235 0 -235 -580 0 -580 0 0
235 0 234 341 3 341 3 19 24 c26 32 25 82 -4 109 -23 22 -27 22 -388 22 -346
0 -366 -1 -397 -20 -18 -11 -41 -34 -52 -52 -19 -32 -20 -52 -20 -733 l0 -700
-152 -1 c-173 0 -278 -17 -416 -66 -428 -151 -732 -499 -828 -950 -24 -114
-25 -360 -1 -481 50 -252 168 -470 351 -652 194 -192 412 -305 679 -351 112
-20 375 -14 479 9 63 15 70 15 117 -4 49 -18 84 -19 796 -19 728 0 745 0 800
21 73 27 156 104 192 177 l28 57 3 732 2 731 -26 21 c-43 34 -102 21 -123 -26
-8 -17 -11 -207 -11 -628 l0 -605 -525 0 -525 0 46 67 c96 141 170 321 199
491 19 109 19 325 0 435 -79 455 -406 834 -845 981 l-75 25 -3 375 -2 376 865
0 865 0 2 -621 3 -621 24 -19 c32 -26 82 -25 109 4 l22 23 0 960 c0 939 0 960
-20 992 -34 56 -73 72 -172 72 l-88 0 0 178 0 178 253 144 c355 202 373 214
405 269 50 84 32 211 -40 278 -64 60 -182 71 -269 25z m167 -158 c35 -52 22
-62 -306 -250 -168 -97 -318 -189 -335 -205 l-30 -29 -3 -215 -3 -215 -65 0
-66 0 4 218 c3 212 4 218 30 267 14 28 37 60 50 72 13 12 163 103 333 202 333
193 360 203 391 155z m-676 -1309 l0 -235 -65 0 -65 0 0 235 0 235 65 0 65 0
0 -235z m280 0 l0 -235 -60 0 -60 0 0 235 0 235 60 0 60 0 0 -235z m-1833
-1289 c412 -87 736 -392 849 -797 38 -138 44 -353 15 -498 -107 -517 -553
-882 -1075 -882 -249 0 -468 73 -663 220 -404 304 -548 835 -354 1302 147 353
493 617 876 668 90 13 260 6 352 -13z m1833 -2023 c0 -5 -10 -26 -23 -47 -32
-57 -83 -94 -146 -106 -33 -6 -290 -10 -659 -10 l-606 0 74 49 c41 27 93 65
115 85 l40 35 603 1 c331 0 602 -3 602 -7z"/>
<path d="M1690 2226 c-304 -64 -557 -259 -690 -531 -81 -165 -95 -229 -95
-435 0 -193 10 -249 70 -391 65 -154 196 -318 331 -415 252 -181 586 -231 889
-133 457 146 743 625 660 1103 -56 321 -273 603 -561 731 -135 60 -218 77
-384 81 -104 2 -176 -1 -220 -10z m110 -456 c0 -170 -1 -310 -3 -310 -1 0
-100 98 -221 219 l-218 218 69 46 c97 65 272 131 361 136 9 1 12 -67 12 -309z
m299 283 c70 -18 203 -81 263 -125 l47 -34 -224 -224 -225 -225 0 318 0 319
43 -7 c23 -4 66 -14 96 -22z m-725 -711 c-169 -1 -309 0 -312 2 -8 9 30 157
59 227 15 39 50 102 75 141 l47 70 219 -219 218 -218 -306 -3z m1179 396 c67
-90 132 -246 143 -343 l7 -55 -309 0 -309 0 215 215 c118 118 218 215 222 215
4 0 18 -15 31 -32z m-1083 -783 l-224 -224 -34 47 c-71 98 -130 242 -146 355
l-7 47 318 0 318 0 -225 -225z m1223 148 c-22 -118 -87 -265 -152 -344 l-20
-24 -223 223 -223 222 316 0 317 0 -15 -77z m-293 -486 c0 -12 -131 -93 -195
-120 -82 -34 -120 -45 -187 -55 l-58 -9 0 316 0 316 220 -220 c121 -121 220
-223 220 -228z m-600 124 l0 -309 -67 14 c-123 23 -206 58 -310 127 l-63 42
217 217 c120 120 219 218 220 218 2 0 3 -139 3 -309z"/>
</g>
</svg>
